M48
; DRILL file {KiCad 5.1.2-f72e74a~84~ubuntu18.04.1} date Tue Aug 20 01:18:18 2019
; FORMAT={3:3/ absolute / metric / suppress leading zeros}
; #@! TF.CreationDate,2019-08-20T01:18:18+05:30
; #@! TF.GenerationSoftware,Kicad,Pcbnew,5.1.2-f72e74a~84~ubuntu18.04.1
FMAT,2
METRIC,TZ
T1C0.400
T2C0.800
T3C1.000
T4C1.200
T5C3.400
T6C2.100
T7C3.200
%
G90
G05
T1
X92050Y-99800
X92550Y-89750
X95700Y-77900
X96000Y-118000
X96000Y-120000
X96000Y-122000
X97250Y-90200
X97300Y-92500
X98000Y-118000
X98000Y-120000
X98000Y-122000
X98200Y-93000
X98329Y-84671
X99071Y-83929
X99650Y-63200
X99650Y-81550
X100000Y-118000
X100000Y-120000
X100000Y-122000
X102000Y-118000
X102000Y-120000
X102000Y-122000
X102200Y-84250
X102800Y-60300
X103250Y-92350
X113000Y-71000
X115000Y-71000
X115000Y-73000
X117000Y-71000
X117000Y-73000
X117300Y-81500
X117700Y-76400
X119000Y-71000
X119000Y-73000
X121000Y-66000
X121000Y-71000
X121000Y-73000
X122000Y-67000
X123000Y-66000
X123000Y-68000
X123000Y-71000
X123000Y-73000
X123550Y-92700
X124000Y-67000
X124000Y-122000
X124000Y-124000
X125000Y-68000
X125000Y-71000
X125000Y-73000
X125000Y-106000
X125000Y-108000
X125000Y-110000
X125000Y-112000
X126000Y-66000
X126000Y-122000
X126000Y-124000
X127000Y-67000
X127000Y-71000
X127000Y-73000
X127000Y-106000
X127000Y-108000
X127000Y-110000
X127000Y-112000
X128000Y-68000
X128000Y-122000
X128000Y-124000
X129000Y-71000
X129000Y-73000
X129000Y-106000
X129000Y-108000
X129000Y-110000
X129000Y-112000
X130000Y-122000
X130000Y-124000
X131000Y-71000
X131000Y-73000
X131000Y-106000
X131000Y-108000
X131000Y-110000
X131000Y-112000
X132000Y-122000
X132000Y-124000
X132000Y-126000
X132000Y-128000
X133000Y-71000
X133000Y-73000
X133000Y-106000
X133000Y-108000
X133000Y-110000
X133000Y-112000
X134000Y-122000
X134000Y-124000
X134000Y-126000
X134000Y-128000
X135000Y-106000
X135000Y-108000
X135000Y-110000
X135000Y-112000
X136000Y-122000
X136000Y-124000
X136000Y-126000
X136000Y-128000
X137000Y-106000
X137000Y-108000
X137000Y-110000
X137000Y-112000
X138000Y-122000
X138000Y-124000
X138000Y-126000
X138000Y-128000
X139000Y-106000
X139000Y-108000
X139000Y-110000
X139000Y-112000
X139900Y-89600
X140000Y-122000
X140000Y-124000
X140000Y-126000
X140000Y-128000
X141000Y-106000
X141000Y-108000
X141000Y-110000
X141000Y-112000
X142000Y-122000
X142000Y-124000
X142000Y-126000
X142000Y-128000
X143000Y-106000
X143000Y-108000
X143000Y-110000
X143000Y-112000
X144000Y-122000
X144000Y-124000
X144000Y-126000
X144000Y-128000
X144400Y-94500
X145000Y-106000
X145000Y-108000
X145000Y-110000
X145000Y-112000
X145500Y-101900
X146000Y-122000
X146000Y-124000
X146000Y-126000
X146000Y-128000
X147000Y-106000
X147000Y-108000
X147000Y-110000
X147000Y-112000
X147750Y-72800
X147750Y-78150
X148000Y-122000
X148000Y-124000
X148000Y-126000
X148000Y-128000
X149000Y-76900
X149000Y-106000
X149000Y-108000
X149000Y-110000
X149000Y-112000
X150000Y-122000
X150000Y-124000
X150000Y-126000
X150000Y-128000
X150600Y-77250
X151000Y-106000
X151000Y-108000
X151000Y-110000
X151000Y-112000
X152000Y-122000
X152000Y-124000
X152000Y-126000
X152000Y-128000
X152900Y-114750
X153000Y-106000
X153000Y-108000
X153000Y-110000
X153000Y-112000
X154000Y-79000
X154000Y-81000
X154000Y-83000
X154000Y-85000
X154000Y-122000
X154000Y-124000
X154000Y-126000
X154000Y-128000
X155000Y-106000
X155000Y-108000
X155000Y-110000
X155000Y-112000
X156000Y-79000
X156000Y-81000
X156000Y-83000
X156000Y-85000
X156000Y-118000
X156000Y-120000
X156000Y-122000
X156000Y-124000
X156000Y-126000
X156000Y-128000
X158000Y-57000
X158000Y-62000
X158000Y-64000
X158000Y-71200
X158000Y-79000
X158000Y-81000
X158000Y-83000
X158000Y-85000
X158000Y-118000
X158000Y-120000
X158000Y-122000
X158000Y-124000
X158000Y-126000
X158000Y-128000
X158805Y-70300
X159450Y-60550
X159550Y-67950
X160000Y-57000
X160000Y-62000
X160000Y-64000
X160000Y-79000
X160000Y-81000
X160000Y-83000
X160000Y-85000
X160000Y-118000
X160000Y-120000
X160000Y-122000
X160000Y-124000
X160000Y-126000
X160000Y-128000
X160450Y-59550
X162000Y-57000
X162000Y-68000
X162000Y-71000
X162000Y-79000
X162000Y-81000
X162000Y-83000
X162000Y-85000
X162000Y-118000
X162000Y-120000
X162000Y-122000
X162000Y-124000
X162000Y-126000
X162000Y-128000
X163000Y-61300
X163000Y-63300
X163000Y-65300
X163850Y-57250
X164000Y-68000
X164000Y-71000
X164000Y-79000
X164000Y-81000
X164000Y-83000
X164000Y-85000
X165000Y-62100
X165000Y-64300
X166000Y-68000
X166000Y-71000
X167000Y-61300
X167000Y-63200
X167000Y-65300
X167000Y-76000
X167350Y-79650
X167350Y-89050
X167950Y-71300
X169000Y-62000
X169000Y-64000
X169000Y-66000
X169000Y-68000
X169200Y-70350
X170300Y-67250
X176150Y-81850
X176750Y-64750
X176750Y-66000
X177500Y-68750
X178000Y-105000
X178000Y-107000
X178000Y-109000
X178000Y-111000
X178050Y-86550
X178150Y-100650
X178750Y-72250
X180000Y-71000
X180000Y-105000
X180000Y-107000
X180000Y-109000
X180000Y-111000
X180250Y-57250
X180600Y-84200
X184000Y-116200
X185000Y-65000
X187000Y-78000
X187000Y-80000
X187000Y-82000
X187000Y-84000
X187000Y-86000
X187000Y-89000
X187000Y-91000
X187000Y-93000
X187000Y-95000
X187000Y-97000
X187000Y-99000
X187000Y-101000
X187000Y-103000
X189000Y-78000
X189000Y-80000
X189000Y-82000
X189000Y-84000
X189000Y-86000
X189000Y-89000
X189000Y-91000
X189000Y-93000
X189000Y-95000
X189000Y-97000
X189000Y-99000
X189000Y-101000
X189000Y-103000
X195000Y-62750
X195000Y-82000
X195000Y-102000
X195000Y-122750
X197000Y-59000
X197000Y-76500
X197000Y-97500
X197000Y-118750
X198000Y-57250
X198000Y-74750
X198000Y-95750
X198000Y-117000
X199000Y-65000
X199000Y-67000
X199000Y-69000
X199000Y-71000
X199000Y-85000
X199000Y-87000
X199000Y-89000
X199000Y-91000
X199000Y-105000
X199000Y-107000
X199000Y-109000
X199000Y-111000
X201000Y-65000
X201000Y-67000
X201000Y-69000
X201000Y-71000
X201000Y-85000
X201000Y-87000
X201000Y-89000
X201000Y-91000
X201000Y-105000
X201000Y-107000
X201000Y-109000
X201000Y-111000
X203000Y-65000
X203000Y-67000
X203000Y-69000
X203000Y-71000
X203000Y-85000
X203000Y-87000
X203000Y-89000
X203000Y-91000
X203000Y-105000
X203000Y-107000
X203000Y-109000
X203000Y-111000
T2
X105670Y-62750
X108210Y-60210
X110750Y-62750
T3
X103000Y-55500
X105540Y-55500
X108080Y-55500
X110620Y-55500
X113160Y-55500
X115700Y-55500
X118240Y-55500
X120780Y-55500
X123320Y-55500
X125860Y-55500
X128400Y-55500
X130940Y-55500
X133480Y-55500
X136020Y-55500
X138560Y-55500
X141100Y-55500
T4
X106500Y-119000
X106500Y-124000
X119000Y-119000
X119000Y-124000
X165500Y-119000
X165500Y-124000
X178000Y-119000
X178000Y-124000
T5
X95500Y-55500
X95500Y-110500
X188500Y-55500
X188500Y-110500
T6
X204000Y-52000
X100250Y-52000
X204000Y-126000
X95000Y-126000
T7
X95500Y-110500
X188500Y-110500
X95500Y-55500
X188500Y-55500
T0
M30
