G04 #@! TF.GenerationSoftware,KiCad,Pcbnew,5.1.2-f72e74a~84~ubuntu18.04.1*
G04 #@! TF.CreationDate,2019-08-20T01:18:15+05:30*
G04 #@! TF.ProjectId,ESP32_MESSAGE_DISPLAY,45535033-325f-44d4-9553-534147455f44,1.0*
G04 #@! TF.SameCoordinates,Original*
G04 #@! TF.FileFunction,Soldermask,Bot*
G04 #@! TF.FilePolarity,Negative*
%FSLAX46Y46*%
G04 Gerber Fmt 4.6, Leading zero omitted, Abs format (unit mm)*
G04 Created by KiCad (PCBNEW 5.1.2-f72e74a~84~ubuntu18.04.1) date 2019-08-20 01:18:15*
%MOMM*%
%LPD*%
G04 APERTURE LIST*
%ADD10C,0.100000*%
G04 APERTURE END LIST*
D10*
G36*
X204214795Y-124920156D02*
G01*
X204321150Y-124941311D01*
X204421334Y-124982809D01*
X204521520Y-125024307D01*
X204701844Y-125144795D01*
X204855205Y-125298156D01*
X204975693Y-125478480D01*
X205058689Y-125678851D01*
X205101000Y-125891560D01*
X205101000Y-126108440D01*
X205058689Y-126321149D01*
X204975693Y-126521520D01*
X204855205Y-126701844D01*
X204701844Y-126855205D01*
X204521520Y-126975693D01*
X204321150Y-127058689D01*
X204214794Y-127079845D01*
X204108440Y-127101000D01*
X203891560Y-127101000D01*
X203785206Y-127079845D01*
X203678850Y-127058689D01*
X203478480Y-126975693D01*
X203298156Y-126855205D01*
X203144795Y-126701844D01*
X203024307Y-126521520D01*
X202941311Y-126321149D01*
X202899000Y-126108440D01*
X202899000Y-125891560D01*
X202941311Y-125678851D01*
X203024307Y-125478480D01*
X203144795Y-125298156D01*
X203298156Y-125144795D01*
X203478480Y-125024307D01*
X203578666Y-124982809D01*
X203678850Y-124941311D01*
X203785205Y-124920156D01*
X203891560Y-124899000D01*
X204108440Y-124899000D01*
X204214795Y-124920156D01*
X204214795Y-124920156D01*
G37*
G36*
X95214795Y-124920156D02*
G01*
X95321150Y-124941311D01*
X95421334Y-124982809D01*
X95521520Y-125024307D01*
X95701844Y-125144795D01*
X95855205Y-125298156D01*
X95975693Y-125478480D01*
X96058689Y-125678851D01*
X96101000Y-125891560D01*
X96101000Y-126108440D01*
X96058689Y-126321149D01*
X95975693Y-126521520D01*
X95855205Y-126701844D01*
X95701844Y-126855205D01*
X95521520Y-126975693D01*
X95321150Y-127058689D01*
X95214794Y-127079845D01*
X95108440Y-127101000D01*
X94891560Y-127101000D01*
X94785206Y-127079845D01*
X94678850Y-127058689D01*
X94478480Y-126975693D01*
X94298156Y-126855205D01*
X94144795Y-126701844D01*
X94024307Y-126521520D01*
X93941311Y-126321149D01*
X93899000Y-126108440D01*
X93899000Y-125891560D01*
X93941311Y-125678851D01*
X94024307Y-125478480D01*
X94144795Y-125298156D01*
X94298156Y-125144795D01*
X94478480Y-125024307D01*
X94578666Y-124982809D01*
X94678850Y-124941311D01*
X94785205Y-124920156D01*
X94891560Y-124899000D01*
X95108440Y-124899000D01*
X95214795Y-124920156D01*
X95214795Y-124920156D01*
G37*
G36*
X178409472Y-122708412D02*
G01*
X178505040Y-122717825D01*
X178750280Y-122792218D01*
X178976294Y-122913025D01*
X179027899Y-122955376D01*
X179174397Y-123075603D01*
X179294624Y-123222101D01*
X179336975Y-123273706D01*
X179457782Y-123499720D01*
X179532175Y-123744960D01*
X179557294Y-124000000D01*
X179532175Y-124255040D01*
X179457782Y-124500280D01*
X179336975Y-124726294D01*
X179294624Y-124777899D01*
X179174397Y-124924397D01*
X179052655Y-125024307D01*
X178976294Y-125086975D01*
X178750280Y-125207782D01*
X178505040Y-125282175D01*
X178409472Y-125291588D01*
X178313906Y-125301000D01*
X177686094Y-125301000D01*
X177590528Y-125291588D01*
X177494960Y-125282175D01*
X177249720Y-125207782D01*
X177023706Y-125086975D01*
X176947345Y-125024307D01*
X176825603Y-124924397D01*
X176705376Y-124777899D01*
X176663025Y-124726294D01*
X176542218Y-124500280D01*
X176467825Y-124255040D01*
X176442706Y-124000000D01*
X176467825Y-123744960D01*
X176542218Y-123499720D01*
X176663025Y-123273706D01*
X176705376Y-123222101D01*
X176825603Y-123075603D01*
X176972101Y-122955376D01*
X177023706Y-122913025D01*
X177249720Y-122792218D01*
X177494960Y-122717825D01*
X177590528Y-122708412D01*
X177686094Y-122699000D01*
X178313906Y-122699000D01*
X178409472Y-122708412D01*
X178409472Y-122708412D01*
G37*
G36*
X106909472Y-122708412D02*
G01*
X107005040Y-122717825D01*
X107250280Y-122792218D01*
X107476294Y-122913025D01*
X107527899Y-122955376D01*
X107674397Y-123075603D01*
X107794624Y-123222101D01*
X107836975Y-123273706D01*
X107957782Y-123499720D01*
X108032175Y-123744960D01*
X108057294Y-124000000D01*
X108032175Y-124255040D01*
X107957782Y-124500280D01*
X107836975Y-124726294D01*
X107794624Y-124777899D01*
X107674397Y-124924397D01*
X107552655Y-125024307D01*
X107476294Y-125086975D01*
X107250280Y-125207782D01*
X107005040Y-125282175D01*
X106909472Y-125291588D01*
X106813906Y-125301000D01*
X106186094Y-125301000D01*
X106090528Y-125291588D01*
X105994960Y-125282175D01*
X105749720Y-125207782D01*
X105523706Y-125086975D01*
X105447345Y-125024307D01*
X105325603Y-124924397D01*
X105205376Y-124777899D01*
X105163025Y-124726294D01*
X105042218Y-124500280D01*
X104967825Y-124255040D01*
X104942706Y-124000000D01*
X104967825Y-123744960D01*
X105042218Y-123499720D01*
X105163025Y-123273706D01*
X105205376Y-123222101D01*
X105325603Y-123075603D01*
X105472101Y-122955376D01*
X105523706Y-122913025D01*
X105749720Y-122792218D01*
X105994960Y-122717825D01*
X106090528Y-122708412D01*
X106186094Y-122699000D01*
X106813906Y-122699000D01*
X106909472Y-122708412D01*
X106909472Y-122708412D01*
G37*
G36*
X119409472Y-122708412D02*
G01*
X119505040Y-122717825D01*
X119750280Y-122792218D01*
X119976294Y-122913025D01*
X120027899Y-122955376D01*
X120174397Y-123075603D01*
X120294624Y-123222101D01*
X120336975Y-123273706D01*
X120457782Y-123499720D01*
X120532175Y-123744960D01*
X120557294Y-124000000D01*
X120532175Y-124255040D01*
X120457782Y-124500280D01*
X120336975Y-124726294D01*
X120294624Y-124777899D01*
X120174397Y-124924397D01*
X120052655Y-125024307D01*
X119976294Y-125086975D01*
X119750280Y-125207782D01*
X119505040Y-125282175D01*
X119409472Y-125291588D01*
X119313906Y-125301000D01*
X118686094Y-125301000D01*
X118590528Y-125291588D01*
X118494960Y-125282175D01*
X118249720Y-125207782D01*
X118023706Y-125086975D01*
X117947345Y-125024307D01*
X117825603Y-124924397D01*
X117705376Y-124777899D01*
X117663025Y-124726294D01*
X117542218Y-124500280D01*
X117467825Y-124255040D01*
X117442706Y-124000000D01*
X117467825Y-123744960D01*
X117542218Y-123499720D01*
X117663025Y-123273706D01*
X117705376Y-123222101D01*
X117825603Y-123075603D01*
X117972101Y-122955376D01*
X118023706Y-122913025D01*
X118249720Y-122792218D01*
X118494960Y-122717825D01*
X118590528Y-122708412D01*
X118686094Y-122699000D01*
X119313906Y-122699000D01*
X119409472Y-122708412D01*
X119409472Y-122708412D01*
G37*
G36*
X165909472Y-122708412D02*
G01*
X166005040Y-122717825D01*
X166250280Y-122792218D01*
X166476294Y-122913025D01*
X166527899Y-122955376D01*
X166674397Y-123075603D01*
X166794624Y-123222101D01*
X166836975Y-123273706D01*
X166957782Y-123499720D01*
X167032175Y-123744960D01*
X167057294Y-124000000D01*
X167032175Y-124255040D01*
X166957782Y-124500280D01*
X166836975Y-124726294D01*
X166794624Y-124777899D01*
X166674397Y-124924397D01*
X166552655Y-125024307D01*
X166476294Y-125086975D01*
X166250280Y-125207782D01*
X166005040Y-125282175D01*
X165909472Y-125291588D01*
X165813906Y-125301000D01*
X165186094Y-125301000D01*
X165090528Y-125291588D01*
X164994960Y-125282175D01*
X164749720Y-125207782D01*
X164523706Y-125086975D01*
X164447345Y-125024307D01*
X164325603Y-124924397D01*
X164205376Y-124777899D01*
X164163025Y-124726294D01*
X164042218Y-124500280D01*
X163967825Y-124255040D01*
X163942706Y-124000000D01*
X163967825Y-123744960D01*
X164042218Y-123499720D01*
X164163025Y-123273706D01*
X164205376Y-123222101D01*
X164325603Y-123075603D01*
X164472101Y-122955376D01*
X164523706Y-122913025D01*
X164749720Y-122792218D01*
X164994960Y-122717825D01*
X165090528Y-122708412D01*
X165186094Y-122699000D01*
X165813906Y-122699000D01*
X165909472Y-122708412D01*
X165909472Y-122708412D01*
G37*
G36*
X178409472Y-117708412D02*
G01*
X178505040Y-117717825D01*
X178750280Y-117792218D01*
X178976294Y-117913025D01*
X179027899Y-117955376D01*
X179174397Y-118075603D01*
X179294624Y-118222101D01*
X179336975Y-118273706D01*
X179457782Y-118499720D01*
X179532175Y-118744960D01*
X179557294Y-119000000D01*
X179532175Y-119255040D01*
X179457782Y-119500280D01*
X179336975Y-119726294D01*
X179294624Y-119777899D01*
X179174397Y-119924397D01*
X179027899Y-120044624D01*
X178976294Y-120086975D01*
X178750280Y-120207782D01*
X178505040Y-120282175D01*
X178409473Y-120291587D01*
X178313906Y-120301000D01*
X177686094Y-120301000D01*
X177590527Y-120291587D01*
X177494960Y-120282175D01*
X177249720Y-120207782D01*
X177023706Y-120086975D01*
X176972101Y-120044624D01*
X176825603Y-119924397D01*
X176705376Y-119777899D01*
X176663025Y-119726294D01*
X176542218Y-119500280D01*
X176467825Y-119255040D01*
X176442706Y-119000000D01*
X176467825Y-118744960D01*
X176542218Y-118499720D01*
X176663025Y-118273706D01*
X176705376Y-118222101D01*
X176825603Y-118075603D01*
X176972101Y-117955376D01*
X177023706Y-117913025D01*
X177249720Y-117792218D01*
X177494960Y-117717825D01*
X177590528Y-117708412D01*
X177686094Y-117699000D01*
X178313906Y-117699000D01*
X178409472Y-117708412D01*
X178409472Y-117708412D01*
G37*
G36*
X106909472Y-117708412D02*
G01*
X107005040Y-117717825D01*
X107250280Y-117792218D01*
X107476294Y-117913025D01*
X107527899Y-117955376D01*
X107674397Y-118075603D01*
X107794624Y-118222101D01*
X107836975Y-118273706D01*
X107957782Y-118499720D01*
X108032175Y-118744960D01*
X108057294Y-119000000D01*
X108032175Y-119255040D01*
X107957782Y-119500280D01*
X107836975Y-119726294D01*
X107794624Y-119777899D01*
X107674397Y-119924397D01*
X107527899Y-120044624D01*
X107476294Y-120086975D01*
X107250280Y-120207782D01*
X107005040Y-120282175D01*
X106909473Y-120291587D01*
X106813906Y-120301000D01*
X106186094Y-120301000D01*
X106090527Y-120291587D01*
X105994960Y-120282175D01*
X105749720Y-120207782D01*
X105523706Y-120086975D01*
X105472101Y-120044624D01*
X105325603Y-119924397D01*
X105205376Y-119777899D01*
X105163025Y-119726294D01*
X105042218Y-119500280D01*
X104967825Y-119255040D01*
X104942706Y-119000000D01*
X104967825Y-118744960D01*
X105042218Y-118499720D01*
X105163025Y-118273706D01*
X105205376Y-118222101D01*
X105325603Y-118075603D01*
X105472101Y-117955376D01*
X105523706Y-117913025D01*
X105749720Y-117792218D01*
X105994960Y-117717825D01*
X106090528Y-117708412D01*
X106186094Y-117699000D01*
X106813906Y-117699000D01*
X106909472Y-117708412D01*
X106909472Y-117708412D01*
G37*
G36*
X119409472Y-117708412D02*
G01*
X119505040Y-117717825D01*
X119750280Y-117792218D01*
X119976294Y-117913025D01*
X120027899Y-117955376D01*
X120174397Y-118075603D01*
X120294624Y-118222101D01*
X120336975Y-118273706D01*
X120457782Y-118499720D01*
X120532175Y-118744960D01*
X120557294Y-119000000D01*
X120532175Y-119255040D01*
X120457782Y-119500280D01*
X120336975Y-119726294D01*
X120294624Y-119777899D01*
X120174397Y-119924397D01*
X120027899Y-120044624D01*
X119976294Y-120086975D01*
X119750280Y-120207782D01*
X119505040Y-120282175D01*
X119409473Y-120291587D01*
X119313906Y-120301000D01*
X118686094Y-120301000D01*
X118590527Y-120291587D01*
X118494960Y-120282175D01*
X118249720Y-120207782D01*
X118023706Y-120086975D01*
X117972101Y-120044624D01*
X117825603Y-119924397D01*
X117705376Y-119777899D01*
X117663025Y-119726294D01*
X117542218Y-119500280D01*
X117467825Y-119255040D01*
X117442706Y-119000000D01*
X117467825Y-118744960D01*
X117542218Y-118499720D01*
X117663025Y-118273706D01*
X117705376Y-118222101D01*
X117825603Y-118075603D01*
X117972101Y-117955376D01*
X118023706Y-117913025D01*
X118249720Y-117792218D01*
X118494960Y-117717825D01*
X118590528Y-117708412D01*
X118686094Y-117699000D01*
X119313906Y-117699000D01*
X119409472Y-117708412D01*
X119409472Y-117708412D01*
G37*
G36*
X165909472Y-117708412D02*
G01*
X166005040Y-117717825D01*
X166250280Y-117792218D01*
X166476294Y-117913025D01*
X166527899Y-117955376D01*
X166674397Y-118075603D01*
X166794624Y-118222101D01*
X166836975Y-118273706D01*
X166957782Y-118499720D01*
X167032175Y-118744960D01*
X167057294Y-119000000D01*
X167032175Y-119255040D01*
X166957782Y-119500280D01*
X166836975Y-119726294D01*
X166794624Y-119777899D01*
X166674397Y-119924397D01*
X166527899Y-120044624D01*
X166476294Y-120086975D01*
X166250280Y-120207782D01*
X166005040Y-120282175D01*
X165909473Y-120291587D01*
X165813906Y-120301000D01*
X165186094Y-120301000D01*
X165090527Y-120291587D01*
X164994960Y-120282175D01*
X164749720Y-120207782D01*
X164523706Y-120086975D01*
X164472101Y-120044624D01*
X164325603Y-119924397D01*
X164205376Y-119777899D01*
X164163025Y-119726294D01*
X164042218Y-119500280D01*
X163967825Y-119255040D01*
X163942706Y-119000000D01*
X163967825Y-118744960D01*
X164042218Y-118499720D01*
X164163025Y-118273706D01*
X164205376Y-118222101D01*
X164325603Y-118075603D01*
X164472101Y-117955376D01*
X164523706Y-117913025D01*
X164749720Y-117792218D01*
X164994960Y-117717825D01*
X165090528Y-117708412D01*
X165186094Y-117699000D01*
X165813906Y-117699000D01*
X165909472Y-117708412D01*
X165909472Y-117708412D01*
G37*
G36*
X96244098Y-108047033D02*
G01*
X96708350Y-108239332D01*
X96708352Y-108239333D01*
X97126168Y-108518509D01*
X97481491Y-108873832D01*
X97760667Y-109291648D01*
X97760668Y-109291650D01*
X97952967Y-109755902D01*
X98051000Y-110248747D01*
X98051000Y-110751253D01*
X97952967Y-111244098D01*
X97937250Y-111282042D01*
X97760667Y-111708352D01*
X97481491Y-112126168D01*
X97126168Y-112481491D01*
X96708352Y-112760667D01*
X96708351Y-112760668D01*
X96708350Y-112760668D01*
X96244098Y-112952967D01*
X95751253Y-113051000D01*
X95248747Y-113051000D01*
X94755902Y-112952967D01*
X94291650Y-112760668D01*
X94291649Y-112760668D01*
X94291648Y-112760667D01*
X93873832Y-112481491D01*
X93518509Y-112126168D01*
X93239333Y-111708352D01*
X93062750Y-111282042D01*
X93047033Y-111244098D01*
X92949000Y-110751253D01*
X92949000Y-110248747D01*
X93047033Y-109755902D01*
X93239332Y-109291650D01*
X93239333Y-109291648D01*
X93518509Y-108873832D01*
X93873832Y-108518509D01*
X94291648Y-108239333D01*
X94291650Y-108239332D01*
X94755902Y-108047033D01*
X95248747Y-107949000D01*
X95751253Y-107949000D01*
X96244098Y-108047033D01*
X96244098Y-108047033D01*
G37*
G36*
X189244098Y-108047033D02*
G01*
X189708350Y-108239332D01*
X189708352Y-108239333D01*
X190126168Y-108518509D01*
X190481491Y-108873832D01*
X190760667Y-109291648D01*
X190760668Y-109291650D01*
X190952967Y-109755902D01*
X191051000Y-110248747D01*
X191051000Y-110751253D01*
X190952967Y-111244098D01*
X190937250Y-111282042D01*
X190760667Y-111708352D01*
X190481491Y-112126168D01*
X190126168Y-112481491D01*
X189708352Y-112760667D01*
X189708351Y-112760668D01*
X189708350Y-112760668D01*
X189244098Y-112952967D01*
X188751253Y-113051000D01*
X188248747Y-113051000D01*
X187755902Y-112952967D01*
X187291650Y-112760668D01*
X187291649Y-112760668D01*
X187291648Y-112760667D01*
X186873832Y-112481491D01*
X186518509Y-112126168D01*
X186239333Y-111708352D01*
X186062750Y-111282042D01*
X186047033Y-111244098D01*
X185949000Y-110751253D01*
X185949000Y-110248747D01*
X186047033Y-109755902D01*
X186239332Y-109291650D01*
X186239333Y-109291648D01*
X186518509Y-108873832D01*
X186873832Y-108518509D01*
X187291648Y-108239333D01*
X187291650Y-108239332D01*
X187755902Y-108047033D01*
X188248747Y-107949000D01*
X188751253Y-107949000D01*
X189244098Y-108047033D01*
X189244098Y-108047033D01*
G37*
G36*
X113384468Y-102603565D02*
G01*
X113423138Y-102615296D01*
X113458777Y-102634346D01*
X113490017Y-102659983D01*
X113515654Y-102691223D01*
X113534704Y-102726862D01*
X113546435Y-102765532D01*
X113551000Y-102811888D01*
X113551000Y-103463112D01*
X113546435Y-103509468D01*
X113534704Y-103548138D01*
X113515654Y-103583777D01*
X113490017Y-103615017D01*
X113458777Y-103640654D01*
X113423138Y-103659704D01*
X113384468Y-103671435D01*
X113338112Y-103676000D01*
X112261888Y-103676000D01*
X112215532Y-103671435D01*
X112176862Y-103659704D01*
X112141223Y-103640654D01*
X112109983Y-103615017D01*
X112084346Y-103583777D01*
X112065296Y-103548138D01*
X112053565Y-103509468D01*
X112049000Y-103463112D01*
X112049000Y-102811888D01*
X112053565Y-102765532D01*
X112065296Y-102726862D01*
X112084346Y-102691223D01*
X112109983Y-102659983D01*
X112141223Y-102634346D01*
X112176862Y-102615296D01*
X112215532Y-102603565D01*
X112261888Y-102599000D01*
X113338112Y-102599000D01*
X113384468Y-102603565D01*
X113384468Y-102603565D01*
G37*
G36*
X109451000Y-103501000D02*
G01*
X107349000Y-103501000D01*
X107349000Y-98899000D01*
X109451000Y-98899000D01*
X109451000Y-103501000D01*
X109451000Y-103501000D01*
G37*
G36*
X113384468Y-100728565D02*
G01*
X113423138Y-100740296D01*
X113458777Y-100759346D01*
X113490017Y-100784983D01*
X113515654Y-100816223D01*
X113534704Y-100851862D01*
X113546435Y-100890532D01*
X113551000Y-100936888D01*
X113551000Y-101588112D01*
X113546435Y-101634468D01*
X113534704Y-101673138D01*
X113515654Y-101708777D01*
X113490017Y-101740017D01*
X113458777Y-101765654D01*
X113423138Y-101784704D01*
X113384468Y-101796435D01*
X113338112Y-101801000D01*
X112261888Y-101801000D01*
X112215532Y-101796435D01*
X112176862Y-101784704D01*
X112141223Y-101765654D01*
X112109983Y-101740017D01*
X112084346Y-101708777D01*
X112065296Y-101673138D01*
X112053565Y-101634468D01*
X112049000Y-101588112D01*
X112049000Y-100936888D01*
X112053565Y-100890532D01*
X112065296Y-100851862D01*
X112084346Y-100816223D01*
X112109983Y-100784983D01*
X112141223Y-100759346D01*
X112176862Y-100740296D01*
X112215532Y-100728565D01*
X112261888Y-100724000D01*
X113338112Y-100724000D01*
X113384468Y-100728565D01*
X113384468Y-100728565D01*
G37*
G36*
X95659928Y-98776764D02*
G01*
X95681009Y-98783160D01*
X95700445Y-98793548D01*
X95717476Y-98807524D01*
X95731452Y-98824555D01*
X95741840Y-98843991D01*
X95748236Y-98865072D01*
X95751000Y-98893140D01*
X95751000Y-100706860D01*
X95748236Y-100734928D01*
X95741840Y-100756009D01*
X95731452Y-100775445D01*
X95717476Y-100792476D01*
X95700445Y-100806452D01*
X95681009Y-100816840D01*
X95659928Y-100823236D01*
X95631860Y-100826000D01*
X95168140Y-100826000D01*
X95140072Y-100823236D01*
X95118991Y-100816840D01*
X95099555Y-100806452D01*
X95082524Y-100792476D01*
X95068548Y-100775445D01*
X95058160Y-100756009D01*
X95051764Y-100734928D01*
X95049000Y-100706860D01*
X95049000Y-98893140D01*
X95051764Y-98865072D01*
X95058160Y-98843991D01*
X95068548Y-98824555D01*
X95082524Y-98807524D01*
X95099555Y-98793548D01*
X95118991Y-98783160D01*
X95140072Y-98776764D01*
X95168140Y-98774000D01*
X95631860Y-98774000D01*
X95659928Y-98776764D01*
X95659928Y-98776764D01*
G37*
G36*
X94389928Y-98776764D02*
G01*
X94411009Y-98783160D01*
X94430445Y-98793548D01*
X94447476Y-98807524D01*
X94461452Y-98824555D01*
X94471840Y-98843991D01*
X94478236Y-98865072D01*
X94481000Y-98893140D01*
X94481000Y-100706860D01*
X94478236Y-100734928D01*
X94471840Y-100756009D01*
X94461452Y-100775445D01*
X94447476Y-100792476D01*
X94430445Y-100806452D01*
X94411009Y-100816840D01*
X94389928Y-100823236D01*
X94361860Y-100826000D01*
X93898140Y-100826000D01*
X93870072Y-100823236D01*
X93848991Y-100816840D01*
X93829555Y-100806452D01*
X93812524Y-100792476D01*
X93798548Y-100775445D01*
X93788160Y-100756009D01*
X93781764Y-100734928D01*
X93779000Y-100706860D01*
X93779000Y-98893140D01*
X93781764Y-98865072D01*
X93788160Y-98843991D01*
X93798548Y-98824555D01*
X93812524Y-98807524D01*
X93829555Y-98793548D01*
X93848991Y-98783160D01*
X93870072Y-98776764D01*
X93898140Y-98774000D01*
X94361860Y-98774000D01*
X94389928Y-98776764D01*
X94389928Y-98776764D01*
G37*
G36*
X96929928Y-98776764D02*
G01*
X96951009Y-98783160D01*
X96970445Y-98793548D01*
X96987476Y-98807524D01*
X97001452Y-98824555D01*
X97011840Y-98843991D01*
X97018236Y-98865072D01*
X97021000Y-98893140D01*
X97021000Y-100706860D01*
X97018236Y-100734928D01*
X97011840Y-100756009D01*
X97001452Y-100775445D01*
X96987476Y-100792476D01*
X96970445Y-100806452D01*
X96951009Y-100816840D01*
X96929928Y-100823236D01*
X96901860Y-100826000D01*
X96438140Y-100826000D01*
X96410072Y-100823236D01*
X96388991Y-100816840D01*
X96369555Y-100806452D01*
X96352524Y-100792476D01*
X96338548Y-100775445D01*
X96328160Y-100756009D01*
X96321764Y-100734928D01*
X96319000Y-100706860D01*
X96319000Y-98893140D01*
X96321764Y-98865072D01*
X96328160Y-98843991D01*
X96338548Y-98824555D01*
X96352524Y-98807524D01*
X96369555Y-98793548D01*
X96388991Y-98783160D01*
X96410072Y-98776764D01*
X96438140Y-98774000D01*
X96901860Y-98774000D01*
X96929928Y-98776764D01*
X96929928Y-98776764D01*
G37*
G36*
X98199928Y-98776764D02*
G01*
X98221009Y-98783160D01*
X98240445Y-98793548D01*
X98257476Y-98807524D01*
X98271452Y-98824555D01*
X98281840Y-98843991D01*
X98288236Y-98865072D01*
X98291000Y-98893140D01*
X98291000Y-100706860D01*
X98288236Y-100734928D01*
X98281840Y-100756009D01*
X98271452Y-100775445D01*
X98257476Y-100792476D01*
X98240445Y-100806452D01*
X98221009Y-100816840D01*
X98199928Y-100823236D01*
X98171860Y-100826000D01*
X97708140Y-100826000D01*
X97680072Y-100823236D01*
X97658991Y-100816840D01*
X97639555Y-100806452D01*
X97622524Y-100792476D01*
X97608548Y-100775445D01*
X97598160Y-100756009D01*
X97591764Y-100734928D01*
X97589000Y-100706860D01*
X97589000Y-98893140D01*
X97591764Y-98865072D01*
X97598160Y-98843991D01*
X97608548Y-98824555D01*
X97622524Y-98807524D01*
X97639555Y-98793548D01*
X97658991Y-98783160D01*
X97680072Y-98776764D01*
X97708140Y-98774000D01*
X98171860Y-98774000D01*
X98199928Y-98776764D01*
X98199928Y-98776764D01*
G37*
G36*
X100739928Y-98776764D02*
G01*
X100761009Y-98783160D01*
X100780445Y-98793548D01*
X100797476Y-98807524D01*
X100811452Y-98824555D01*
X100821840Y-98843991D01*
X100828236Y-98865072D01*
X100831000Y-98893140D01*
X100831000Y-100706860D01*
X100828236Y-100734928D01*
X100821840Y-100756009D01*
X100811452Y-100775445D01*
X100797476Y-100792476D01*
X100780445Y-100806452D01*
X100761009Y-100816840D01*
X100739928Y-100823236D01*
X100711860Y-100826000D01*
X100248140Y-100826000D01*
X100220072Y-100823236D01*
X100198991Y-100816840D01*
X100179555Y-100806452D01*
X100162524Y-100792476D01*
X100148548Y-100775445D01*
X100138160Y-100756009D01*
X100131764Y-100734928D01*
X100129000Y-100706860D01*
X100129000Y-98893140D01*
X100131764Y-98865072D01*
X100138160Y-98843991D01*
X100148548Y-98824555D01*
X100162524Y-98807524D01*
X100179555Y-98793548D01*
X100198991Y-98783160D01*
X100220072Y-98776764D01*
X100248140Y-98774000D01*
X100711860Y-98774000D01*
X100739928Y-98776764D01*
X100739928Y-98776764D01*
G37*
G36*
X103279928Y-98776764D02*
G01*
X103301009Y-98783160D01*
X103320445Y-98793548D01*
X103337476Y-98807524D01*
X103351452Y-98824555D01*
X103361840Y-98843991D01*
X103368236Y-98865072D01*
X103371000Y-98893140D01*
X103371000Y-100706860D01*
X103368236Y-100734928D01*
X103361840Y-100756009D01*
X103351452Y-100775445D01*
X103337476Y-100792476D01*
X103320445Y-100806452D01*
X103301009Y-100816840D01*
X103279928Y-100823236D01*
X103251860Y-100826000D01*
X102788140Y-100826000D01*
X102760072Y-100823236D01*
X102738991Y-100816840D01*
X102719555Y-100806452D01*
X102702524Y-100792476D01*
X102688548Y-100775445D01*
X102678160Y-100756009D01*
X102671764Y-100734928D01*
X102669000Y-100706860D01*
X102669000Y-98893140D01*
X102671764Y-98865072D01*
X102678160Y-98843991D01*
X102688548Y-98824555D01*
X102702524Y-98807524D01*
X102719555Y-98793548D01*
X102738991Y-98783160D01*
X102760072Y-98776764D01*
X102788140Y-98774000D01*
X103251860Y-98774000D01*
X103279928Y-98776764D01*
X103279928Y-98776764D01*
G37*
G36*
X102009928Y-98776764D02*
G01*
X102031009Y-98783160D01*
X102050445Y-98793548D01*
X102067476Y-98807524D01*
X102081452Y-98824555D01*
X102091840Y-98843991D01*
X102098236Y-98865072D01*
X102101000Y-98893140D01*
X102101000Y-100706860D01*
X102098236Y-100734928D01*
X102091840Y-100756009D01*
X102081452Y-100775445D01*
X102067476Y-100792476D01*
X102050445Y-100806452D01*
X102031009Y-100816840D01*
X102009928Y-100823236D01*
X101981860Y-100826000D01*
X101518140Y-100826000D01*
X101490072Y-100823236D01*
X101468991Y-100816840D01*
X101449555Y-100806452D01*
X101432524Y-100792476D01*
X101418548Y-100775445D01*
X101408160Y-100756009D01*
X101401764Y-100734928D01*
X101399000Y-100706860D01*
X101399000Y-98893140D01*
X101401764Y-98865072D01*
X101408160Y-98843991D01*
X101418548Y-98824555D01*
X101432524Y-98807524D01*
X101449555Y-98793548D01*
X101468991Y-98783160D01*
X101490072Y-98776764D01*
X101518140Y-98774000D01*
X101981860Y-98774000D01*
X102009928Y-98776764D01*
X102009928Y-98776764D01*
G37*
G36*
X99469928Y-98776764D02*
G01*
X99491009Y-98783160D01*
X99510445Y-98793548D01*
X99527476Y-98807524D01*
X99541452Y-98824555D01*
X99551840Y-98843991D01*
X99558236Y-98865072D01*
X99561000Y-98893140D01*
X99561000Y-100706860D01*
X99558236Y-100734928D01*
X99551840Y-100756009D01*
X99541452Y-100775445D01*
X99527476Y-100792476D01*
X99510445Y-100806452D01*
X99491009Y-100816840D01*
X99469928Y-100823236D01*
X99441860Y-100826000D01*
X98978140Y-100826000D01*
X98950072Y-100823236D01*
X98928991Y-100816840D01*
X98909555Y-100806452D01*
X98892524Y-100792476D01*
X98878548Y-100775445D01*
X98868160Y-100756009D01*
X98861764Y-100734928D01*
X98859000Y-100706860D01*
X98859000Y-98893140D01*
X98861764Y-98865072D01*
X98868160Y-98843991D01*
X98878548Y-98824555D01*
X98892524Y-98807524D01*
X98909555Y-98793548D01*
X98928991Y-98783160D01*
X98950072Y-98776764D01*
X98978140Y-98774000D01*
X99441860Y-98774000D01*
X99469928Y-98776764D01*
X99469928Y-98776764D01*
G37*
G36*
X95659928Y-93826764D02*
G01*
X95681009Y-93833160D01*
X95700445Y-93843548D01*
X95717476Y-93857524D01*
X95731452Y-93874555D01*
X95741840Y-93893991D01*
X95748236Y-93915072D01*
X95751000Y-93943140D01*
X95751000Y-95756860D01*
X95748236Y-95784928D01*
X95741840Y-95806009D01*
X95731452Y-95825445D01*
X95717476Y-95842476D01*
X95700445Y-95856452D01*
X95681009Y-95866840D01*
X95659928Y-95873236D01*
X95631860Y-95876000D01*
X95168140Y-95876000D01*
X95140072Y-95873236D01*
X95118991Y-95866840D01*
X95099555Y-95856452D01*
X95082524Y-95842476D01*
X95068548Y-95825445D01*
X95058160Y-95806009D01*
X95051764Y-95784928D01*
X95049000Y-95756860D01*
X95049000Y-93943140D01*
X95051764Y-93915072D01*
X95058160Y-93893991D01*
X95068548Y-93874555D01*
X95082524Y-93857524D01*
X95099555Y-93843548D01*
X95118991Y-93833160D01*
X95140072Y-93826764D01*
X95168140Y-93824000D01*
X95631860Y-93824000D01*
X95659928Y-93826764D01*
X95659928Y-93826764D01*
G37*
G36*
X99469928Y-93826764D02*
G01*
X99491009Y-93833160D01*
X99510445Y-93843548D01*
X99527476Y-93857524D01*
X99541452Y-93874555D01*
X99551840Y-93893991D01*
X99558236Y-93915072D01*
X99561000Y-93943140D01*
X99561000Y-95756860D01*
X99558236Y-95784928D01*
X99551840Y-95806009D01*
X99541452Y-95825445D01*
X99527476Y-95842476D01*
X99510445Y-95856452D01*
X99491009Y-95866840D01*
X99469928Y-95873236D01*
X99441860Y-95876000D01*
X98978140Y-95876000D01*
X98950072Y-95873236D01*
X98928991Y-95866840D01*
X98909555Y-95856452D01*
X98892524Y-95842476D01*
X98878548Y-95825445D01*
X98868160Y-95806009D01*
X98861764Y-95784928D01*
X98859000Y-95756860D01*
X98859000Y-93943140D01*
X98861764Y-93915072D01*
X98868160Y-93893991D01*
X98878548Y-93874555D01*
X98892524Y-93857524D01*
X98909555Y-93843548D01*
X98928991Y-93833160D01*
X98950072Y-93826764D01*
X98978140Y-93824000D01*
X99441860Y-93824000D01*
X99469928Y-93826764D01*
X99469928Y-93826764D01*
G37*
G36*
X96929928Y-93826764D02*
G01*
X96951009Y-93833160D01*
X96970445Y-93843548D01*
X96987476Y-93857524D01*
X97001452Y-93874555D01*
X97011840Y-93893991D01*
X97018236Y-93915072D01*
X97021000Y-93943140D01*
X97021000Y-95756860D01*
X97018236Y-95784928D01*
X97011840Y-95806009D01*
X97001452Y-95825445D01*
X96987476Y-95842476D01*
X96970445Y-95856452D01*
X96951009Y-95866840D01*
X96929928Y-95873236D01*
X96901860Y-95876000D01*
X96438140Y-95876000D01*
X96410072Y-95873236D01*
X96388991Y-95866840D01*
X96369555Y-95856452D01*
X96352524Y-95842476D01*
X96338548Y-95825445D01*
X96328160Y-95806009D01*
X96321764Y-95784928D01*
X96319000Y-95756860D01*
X96319000Y-93943140D01*
X96321764Y-93915072D01*
X96328160Y-93893991D01*
X96338548Y-93874555D01*
X96352524Y-93857524D01*
X96369555Y-93843548D01*
X96388991Y-93833160D01*
X96410072Y-93826764D01*
X96438140Y-93824000D01*
X96901860Y-93824000D01*
X96929928Y-93826764D01*
X96929928Y-93826764D01*
G37*
G36*
X94389928Y-93826764D02*
G01*
X94411009Y-93833160D01*
X94430445Y-93843548D01*
X94447476Y-93857524D01*
X94461452Y-93874555D01*
X94471840Y-93893991D01*
X94478236Y-93915072D01*
X94481000Y-93943140D01*
X94481000Y-95756860D01*
X94478236Y-95784928D01*
X94471840Y-95806009D01*
X94461452Y-95825445D01*
X94447476Y-95842476D01*
X94430445Y-95856452D01*
X94411009Y-95866840D01*
X94389928Y-95873236D01*
X94361860Y-95876000D01*
X93898140Y-95876000D01*
X93870072Y-95873236D01*
X93848991Y-95866840D01*
X93829555Y-95856452D01*
X93812524Y-95842476D01*
X93798548Y-95825445D01*
X93788160Y-95806009D01*
X93781764Y-95784928D01*
X93779000Y-95756860D01*
X93779000Y-93943140D01*
X93781764Y-93915072D01*
X93788160Y-93893991D01*
X93798548Y-93874555D01*
X93812524Y-93857524D01*
X93829555Y-93843548D01*
X93848991Y-93833160D01*
X93870072Y-93826764D01*
X93898140Y-93824000D01*
X94361860Y-93824000D01*
X94389928Y-93826764D01*
X94389928Y-93826764D01*
G37*
G36*
X100739928Y-93826764D02*
G01*
X100761009Y-93833160D01*
X100780445Y-93843548D01*
X100797476Y-93857524D01*
X100811452Y-93874555D01*
X100821840Y-93893991D01*
X100828236Y-93915072D01*
X100831000Y-93943140D01*
X100831000Y-95756860D01*
X100828236Y-95784928D01*
X100821840Y-95806009D01*
X100811452Y-95825445D01*
X100797476Y-95842476D01*
X100780445Y-95856452D01*
X100761009Y-95866840D01*
X100739928Y-95873236D01*
X100711860Y-95876000D01*
X100248140Y-95876000D01*
X100220072Y-95873236D01*
X100198991Y-95866840D01*
X100179555Y-95856452D01*
X100162524Y-95842476D01*
X100148548Y-95825445D01*
X100138160Y-95806009D01*
X100131764Y-95784928D01*
X100129000Y-95756860D01*
X100129000Y-93943140D01*
X100131764Y-93915072D01*
X100138160Y-93893991D01*
X100148548Y-93874555D01*
X100162524Y-93857524D01*
X100179555Y-93843548D01*
X100198991Y-93833160D01*
X100220072Y-93826764D01*
X100248140Y-93824000D01*
X100711860Y-93824000D01*
X100739928Y-93826764D01*
X100739928Y-93826764D01*
G37*
G36*
X102009928Y-93826764D02*
G01*
X102031009Y-93833160D01*
X102050445Y-93843548D01*
X102067476Y-93857524D01*
X102081452Y-93874555D01*
X102091840Y-93893991D01*
X102098236Y-93915072D01*
X102101000Y-93943140D01*
X102101000Y-95756860D01*
X102098236Y-95784928D01*
X102091840Y-95806009D01*
X102081452Y-95825445D01*
X102067476Y-95842476D01*
X102050445Y-95856452D01*
X102031009Y-95866840D01*
X102009928Y-95873236D01*
X101981860Y-95876000D01*
X101518140Y-95876000D01*
X101490072Y-95873236D01*
X101468991Y-95866840D01*
X101449555Y-95856452D01*
X101432524Y-95842476D01*
X101418548Y-95825445D01*
X101408160Y-95806009D01*
X101401764Y-95784928D01*
X101399000Y-95756860D01*
X101399000Y-93943140D01*
X101401764Y-93915072D01*
X101408160Y-93893991D01*
X101418548Y-93874555D01*
X101432524Y-93857524D01*
X101449555Y-93843548D01*
X101468991Y-93833160D01*
X101490072Y-93826764D01*
X101518140Y-93824000D01*
X101981860Y-93824000D01*
X102009928Y-93826764D01*
X102009928Y-93826764D01*
G37*
G36*
X103279928Y-93826764D02*
G01*
X103301009Y-93833160D01*
X103320445Y-93843548D01*
X103337476Y-93857524D01*
X103351452Y-93874555D01*
X103361840Y-93893991D01*
X103368236Y-93915072D01*
X103371000Y-93943140D01*
X103371000Y-95756860D01*
X103368236Y-95784928D01*
X103361840Y-95806009D01*
X103351452Y-95825445D01*
X103337476Y-95842476D01*
X103320445Y-95856452D01*
X103301009Y-95866840D01*
X103279928Y-95873236D01*
X103251860Y-95876000D01*
X102788140Y-95876000D01*
X102760072Y-95873236D01*
X102738991Y-95866840D01*
X102719555Y-95856452D01*
X102702524Y-95842476D01*
X102688548Y-95825445D01*
X102678160Y-95806009D01*
X102671764Y-95784928D01*
X102669000Y-95756860D01*
X102669000Y-93943140D01*
X102671764Y-93915072D01*
X102678160Y-93893991D01*
X102688548Y-93874555D01*
X102702524Y-93857524D01*
X102719555Y-93843548D01*
X102738991Y-93833160D01*
X102760072Y-93826764D01*
X102788140Y-93824000D01*
X103251860Y-93824000D01*
X103279928Y-93826764D01*
X103279928Y-93826764D01*
G37*
G36*
X98199928Y-93826764D02*
G01*
X98221009Y-93833160D01*
X98240445Y-93843548D01*
X98257476Y-93857524D01*
X98271452Y-93874555D01*
X98281840Y-93893991D01*
X98288236Y-93915072D01*
X98291000Y-93943140D01*
X98291000Y-95756860D01*
X98288236Y-95784928D01*
X98281840Y-95806009D01*
X98271452Y-95825445D01*
X98257476Y-95842476D01*
X98240445Y-95856452D01*
X98221009Y-95866840D01*
X98199928Y-95873236D01*
X98171860Y-95876000D01*
X97708140Y-95876000D01*
X97680072Y-95873236D01*
X97658991Y-95866840D01*
X97639555Y-95856452D01*
X97622524Y-95842476D01*
X97608548Y-95825445D01*
X97598160Y-95806009D01*
X97591764Y-95784928D01*
X97589000Y-95756860D01*
X97589000Y-93943140D01*
X97591764Y-93915072D01*
X97598160Y-93893991D01*
X97608548Y-93874555D01*
X97622524Y-93857524D01*
X97639555Y-93843548D01*
X97658991Y-93833160D01*
X97680072Y-93826764D01*
X97708140Y-93824000D01*
X98171860Y-93824000D01*
X98199928Y-93826764D01*
X98199928Y-93826764D01*
G37*
G36*
X109451000Y-95001000D02*
G01*
X107349000Y-95001000D01*
X107349000Y-90399000D01*
X109451000Y-90399000D01*
X109451000Y-95001000D01*
X109451000Y-95001000D01*
G37*
G36*
X113384468Y-92266065D02*
G01*
X113423138Y-92277796D01*
X113458777Y-92296846D01*
X113490017Y-92322483D01*
X113515654Y-92353723D01*
X113534704Y-92389362D01*
X113546435Y-92428032D01*
X113551000Y-92474388D01*
X113551000Y-93125612D01*
X113546435Y-93171968D01*
X113534704Y-93210638D01*
X113515654Y-93246277D01*
X113490017Y-93277517D01*
X113458777Y-93303154D01*
X113423138Y-93322204D01*
X113384468Y-93333935D01*
X113338112Y-93338500D01*
X112261888Y-93338500D01*
X112215532Y-93333935D01*
X112176862Y-93322204D01*
X112141223Y-93303154D01*
X112109983Y-93277517D01*
X112084346Y-93246277D01*
X112065296Y-93210638D01*
X112053565Y-93171968D01*
X112049000Y-93125612D01*
X112049000Y-92474388D01*
X112053565Y-92428032D01*
X112065296Y-92389362D01*
X112084346Y-92353723D01*
X112109983Y-92322483D01*
X112141223Y-92296846D01*
X112176862Y-92277796D01*
X112215532Y-92266065D01*
X112261888Y-92261500D01*
X113338112Y-92261500D01*
X113384468Y-92266065D01*
X113384468Y-92266065D01*
G37*
G36*
X95984468Y-91541065D02*
G01*
X96023138Y-91552796D01*
X96058777Y-91571846D01*
X96090017Y-91597483D01*
X96115654Y-91628723D01*
X96134704Y-91664362D01*
X96146435Y-91703032D01*
X96151000Y-91749388D01*
X96151000Y-92400612D01*
X96146435Y-92446968D01*
X96134704Y-92485638D01*
X96115654Y-92521277D01*
X96090017Y-92552517D01*
X96058777Y-92578154D01*
X96023138Y-92597204D01*
X95984468Y-92608935D01*
X95938112Y-92613500D01*
X94861888Y-92613500D01*
X94815532Y-92608935D01*
X94776862Y-92597204D01*
X94741223Y-92578154D01*
X94709983Y-92552517D01*
X94684346Y-92521277D01*
X94665296Y-92485638D01*
X94653565Y-92446968D01*
X94649000Y-92400612D01*
X94649000Y-91749388D01*
X94653565Y-91703032D01*
X94665296Y-91664362D01*
X94684346Y-91628723D01*
X94709983Y-91597483D01*
X94741223Y-91571846D01*
X94776862Y-91552796D01*
X94815532Y-91541065D01*
X94861888Y-91536500D01*
X95938112Y-91536500D01*
X95984468Y-91541065D01*
X95984468Y-91541065D01*
G37*
G36*
X113384468Y-90391065D02*
G01*
X113423138Y-90402796D01*
X113458777Y-90421846D01*
X113490017Y-90447483D01*
X113515654Y-90478723D01*
X113534704Y-90514362D01*
X113546435Y-90553032D01*
X113551000Y-90599388D01*
X113551000Y-91250612D01*
X113546435Y-91296968D01*
X113534704Y-91335638D01*
X113515654Y-91371277D01*
X113490017Y-91402517D01*
X113458777Y-91428154D01*
X113423138Y-91447204D01*
X113384468Y-91458935D01*
X113338112Y-91463500D01*
X112261888Y-91463500D01*
X112215532Y-91458935D01*
X112176862Y-91447204D01*
X112141223Y-91428154D01*
X112109983Y-91402517D01*
X112084346Y-91371277D01*
X112065296Y-91335638D01*
X112053565Y-91296968D01*
X112049000Y-91250612D01*
X112049000Y-90599388D01*
X112053565Y-90553032D01*
X112065296Y-90514362D01*
X112084346Y-90478723D01*
X112109983Y-90447483D01*
X112141223Y-90421846D01*
X112176862Y-90402796D01*
X112215532Y-90391065D01*
X112261888Y-90386500D01*
X113338112Y-90386500D01*
X113384468Y-90391065D01*
X113384468Y-90391065D01*
G37*
G36*
X95984468Y-89666065D02*
G01*
X96023138Y-89677796D01*
X96058777Y-89696846D01*
X96090017Y-89722483D01*
X96115654Y-89753723D01*
X96134704Y-89789362D01*
X96146435Y-89828032D01*
X96151000Y-89874388D01*
X96151000Y-90525612D01*
X96146435Y-90571968D01*
X96134704Y-90610638D01*
X96115654Y-90646277D01*
X96090017Y-90677517D01*
X96058777Y-90703154D01*
X96023138Y-90722204D01*
X95984468Y-90733935D01*
X95938112Y-90738500D01*
X94861888Y-90738500D01*
X94815532Y-90733935D01*
X94776862Y-90722204D01*
X94741223Y-90703154D01*
X94709983Y-90677517D01*
X94684346Y-90646277D01*
X94665296Y-90610638D01*
X94653565Y-90571968D01*
X94649000Y-90525612D01*
X94649000Y-89874388D01*
X94653565Y-89828032D01*
X94665296Y-89789362D01*
X94684346Y-89753723D01*
X94709983Y-89722483D01*
X94741223Y-89696846D01*
X94776862Y-89677796D01*
X94815532Y-89666065D01*
X94861888Y-89661500D01*
X95938112Y-89661500D01*
X95984468Y-89666065D01*
X95984468Y-89666065D01*
G37*
G36*
X106809468Y-85253565D02*
G01*
X106848138Y-85265296D01*
X106883777Y-85284346D01*
X106915017Y-85309983D01*
X106940654Y-85341223D01*
X106959704Y-85376862D01*
X106971435Y-85415532D01*
X106976000Y-85461888D01*
X106976000Y-86538112D01*
X106971435Y-86584468D01*
X106959704Y-86623138D01*
X106940654Y-86658777D01*
X106915017Y-86690017D01*
X106883777Y-86715654D01*
X106848138Y-86734704D01*
X106809468Y-86746435D01*
X106763112Y-86751000D01*
X106111888Y-86751000D01*
X106065532Y-86746435D01*
X106026862Y-86734704D01*
X105991223Y-86715654D01*
X105959983Y-86690017D01*
X105934346Y-86658777D01*
X105915296Y-86623138D01*
X105903565Y-86584468D01*
X105899000Y-86538112D01*
X105899000Y-85461888D01*
X105903565Y-85415532D01*
X105915296Y-85376862D01*
X105934346Y-85341223D01*
X105959983Y-85309983D01*
X105991223Y-85284346D01*
X106026862Y-85265296D01*
X106065532Y-85253565D01*
X106111888Y-85249000D01*
X106763112Y-85249000D01*
X106809468Y-85253565D01*
X106809468Y-85253565D01*
G37*
G36*
X104934468Y-85253565D02*
G01*
X104973138Y-85265296D01*
X105008777Y-85284346D01*
X105040017Y-85309983D01*
X105065654Y-85341223D01*
X105084704Y-85376862D01*
X105096435Y-85415532D01*
X105101000Y-85461888D01*
X105101000Y-86538112D01*
X105096435Y-86584468D01*
X105084704Y-86623138D01*
X105065654Y-86658777D01*
X105040017Y-86690017D01*
X105008777Y-86715654D01*
X104973138Y-86734704D01*
X104934468Y-86746435D01*
X104888112Y-86751000D01*
X104236888Y-86751000D01*
X104190532Y-86746435D01*
X104151862Y-86734704D01*
X104116223Y-86715654D01*
X104084983Y-86690017D01*
X104059346Y-86658777D01*
X104040296Y-86623138D01*
X104028565Y-86584468D01*
X104024000Y-86538112D01*
X104024000Y-85461888D01*
X104028565Y-85415532D01*
X104040296Y-85376862D01*
X104059346Y-85341223D01*
X104084983Y-85309983D01*
X104116223Y-85284346D01*
X104151862Y-85265296D01*
X104190532Y-85253565D01*
X104236888Y-85249000D01*
X104888112Y-85249000D01*
X104934468Y-85253565D01*
X104934468Y-85253565D01*
G37*
G36*
X182684468Y-83653565D02*
G01*
X182723138Y-83665296D01*
X182758777Y-83684346D01*
X182790017Y-83709983D01*
X182815654Y-83741223D01*
X182834704Y-83776862D01*
X182846435Y-83815532D01*
X182851000Y-83861888D01*
X182851000Y-84513112D01*
X182846435Y-84559468D01*
X182834704Y-84598138D01*
X182815654Y-84633777D01*
X182790017Y-84665017D01*
X182758777Y-84690654D01*
X182723138Y-84709704D01*
X182684468Y-84721435D01*
X182638112Y-84726000D01*
X181561888Y-84726000D01*
X181515532Y-84721435D01*
X181476862Y-84709704D01*
X181441223Y-84690654D01*
X181409983Y-84665017D01*
X181384346Y-84633777D01*
X181365296Y-84598138D01*
X181353565Y-84559468D01*
X181349000Y-84513112D01*
X181349000Y-83861888D01*
X181353565Y-83815532D01*
X181365296Y-83776862D01*
X181384346Y-83741223D01*
X181409983Y-83709983D01*
X181441223Y-83684346D01*
X181476862Y-83665296D01*
X181515532Y-83653565D01*
X181561888Y-83649000D01*
X182638112Y-83649000D01*
X182684468Y-83653565D01*
X182684468Y-83653565D01*
G37*
G36*
X178684468Y-83653565D02*
G01*
X178723138Y-83665296D01*
X178758777Y-83684346D01*
X178790017Y-83709983D01*
X178815654Y-83741223D01*
X178834704Y-83776862D01*
X178846435Y-83815532D01*
X178851000Y-83861888D01*
X178851000Y-84513112D01*
X178846435Y-84559468D01*
X178834704Y-84598138D01*
X178815654Y-84633777D01*
X178790017Y-84665017D01*
X178758777Y-84690654D01*
X178723138Y-84709704D01*
X178684468Y-84721435D01*
X178638112Y-84726000D01*
X177561888Y-84726000D01*
X177515532Y-84721435D01*
X177476862Y-84709704D01*
X177441223Y-84690654D01*
X177409983Y-84665017D01*
X177384346Y-84633777D01*
X177365296Y-84598138D01*
X177353565Y-84559468D01*
X177349000Y-84513112D01*
X177349000Y-83861888D01*
X177353565Y-83815532D01*
X177365296Y-83776862D01*
X177384346Y-83741223D01*
X177409983Y-83709983D01*
X177441223Y-83684346D01*
X177476862Y-83665296D01*
X177515532Y-83653565D01*
X177561888Y-83649000D01*
X178638112Y-83649000D01*
X178684468Y-83653565D01*
X178684468Y-83653565D01*
G37*
G36*
X178684468Y-81778565D02*
G01*
X178723138Y-81790296D01*
X178758777Y-81809346D01*
X178790017Y-81834983D01*
X178815654Y-81866223D01*
X178834704Y-81901862D01*
X178846435Y-81940532D01*
X178851000Y-81986888D01*
X178851000Y-82638112D01*
X178846435Y-82684468D01*
X178834704Y-82723138D01*
X178815654Y-82758777D01*
X178790017Y-82790017D01*
X178758777Y-82815654D01*
X178723138Y-82834704D01*
X178684468Y-82846435D01*
X178638112Y-82851000D01*
X177561888Y-82851000D01*
X177515532Y-82846435D01*
X177476862Y-82834704D01*
X177441223Y-82815654D01*
X177409983Y-82790017D01*
X177384346Y-82758777D01*
X177365296Y-82723138D01*
X177353565Y-82684468D01*
X177349000Y-82638112D01*
X177349000Y-81986888D01*
X177353565Y-81940532D01*
X177365296Y-81901862D01*
X177384346Y-81866223D01*
X177409983Y-81834983D01*
X177441223Y-81809346D01*
X177476862Y-81790296D01*
X177515532Y-81778565D01*
X177561888Y-81774000D01*
X178638112Y-81774000D01*
X178684468Y-81778565D01*
X178684468Y-81778565D01*
G37*
G36*
X182684468Y-81778565D02*
G01*
X182723138Y-81790296D01*
X182758777Y-81809346D01*
X182790017Y-81834983D01*
X182815654Y-81866223D01*
X182834704Y-81901862D01*
X182846435Y-81940532D01*
X182851000Y-81986888D01*
X182851000Y-82638112D01*
X182846435Y-82684468D01*
X182834704Y-82723138D01*
X182815654Y-82758777D01*
X182790017Y-82790017D01*
X182758777Y-82815654D01*
X182723138Y-82834704D01*
X182684468Y-82846435D01*
X182638112Y-82851000D01*
X181561888Y-82851000D01*
X181515532Y-82846435D01*
X181476862Y-82834704D01*
X181441223Y-82815654D01*
X181409983Y-82790017D01*
X181384346Y-82758777D01*
X181365296Y-82723138D01*
X181353565Y-82684468D01*
X181349000Y-82638112D01*
X181349000Y-81986888D01*
X181353565Y-81940532D01*
X181365296Y-81901862D01*
X181384346Y-81866223D01*
X181409983Y-81834983D01*
X181441223Y-81809346D01*
X181476862Y-81790296D01*
X181515532Y-81778565D01*
X181561888Y-81774000D01*
X182638112Y-81774000D01*
X182684468Y-81778565D01*
X182684468Y-81778565D01*
G37*
G36*
X103001000Y-82551000D02*
G01*
X101399000Y-82551000D01*
X101399000Y-80449000D01*
X103001000Y-80449000D01*
X103001000Y-82551000D01*
X103001000Y-82551000D01*
G37*
G36*
X107601000Y-82551000D02*
G01*
X105999000Y-82551000D01*
X105999000Y-80449000D01*
X107601000Y-80449000D01*
X107601000Y-82551000D01*
X107601000Y-82551000D01*
G37*
G36*
X105301000Y-82551000D02*
G01*
X103699000Y-82551000D01*
X103699000Y-80449000D01*
X105301000Y-80449000D01*
X105301000Y-82551000D01*
X105301000Y-82551000D01*
G37*
G36*
X178501000Y-80001000D02*
G01*
X177599000Y-80001000D01*
X177599000Y-78999000D01*
X178501000Y-78999000D01*
X178501000Y-80001000D01*
X178501000Y-80001000D01*
G37*
G36*
X176601000Y-80001000D02*
G01*
X175699000Y-80001000D01*
X175699000Y-78999000D01*
X176601000Y-78999000D01*
X176601000Y-80001000D01*
X176601000Y-80001000D01*
G37*
G36*
X182501000Y-80001000D02*
G01*
X181599000Y-80001000D01*
X181599000Y-78999000D01*
X182501000Y-78999000D01*
X182501000Y-80001000D01*
X182501000Y-80001000D01*
G37*
G36*
X180601000Y-80001000D02*
G01*
X179699000Y-80001000D01*
X179699000Y-78999000D01*
X180601000Y-78999000D01*
X180601000Y-80001000D01*
X180601000Y-80001000D01*
G37*
G36*
X181551000Y-78001000D02*
G01*
X180649000Y-78001000D01*
X180649000Y-76999000D01*
X181551000Y-76999000D01*
X181551000Y-78001000D01*
X181551000Y-78001000D01*
G37*
G36*
X177551000Y-78001000D02*
G01*
X176649000Y-78001000D01*
X176649000Y-76999000D01*
X177551000Y-76999000D01*
X177551000Y-78001000D01*
X177551000Y-78001000D01*
G37*
G36*
X100084468Y-76341065D02*
G01*
X100123138Y-76352796D01*
X100158777Y-76371846D01*
X100190017Y-76397483D01*
X100215654Y-76428723D01*
X100234704Y-76464362D01*
X100246435Y-76503032D01*
X100251000Y-76549388D01*
X100251000Y-77200612D01*
X100246435Y-77246968D01*
X100234704Y-77285638D01*
X100215654Y-77321277D01*
X100190017Y-77352517D01*
X100158777Y-77378154D01*
X100123138Y-77397204D01*
X100084468Y-77408935D01*
X100038112Y-77413500D01*
X98961888Y-77413500D01*
X98915532Y-77408935D01*
X98876862Y-77397204D01*
X98841223Y-77378154D01*
X98809983Y-77352517D01*
X98784346Y-77321277D01*
X98765296Y-77285638D01*
X98753565Y-77246968D01*
X98749000Y-77200612D01*
X98749000Y-76549388D01*
X98753565Y-76503032D01*
X98765296Y-76464362D01*
X98784346Y-76428723D01*
X98809983Y-76397483D01*
X98841223Y-76371846D01*
X98876862Y-76352796D01*
X98915532Y-76341065D01*
X98961888Y-76336500D01*
X100038112Y-76336500D01*
X100084468Y-76341065D01*
X100084468Y-76341065D01*
G37*
G36*
X106451000Y-76251000D02*
G01*
X102549000Y-76251000D01*
X102549000Y-74149000D01*
X106451000Y-74149000D01*
X106451000Y-76251000D01*
X106451000Y-76251000D01*
G37*
G36*
X136121968Y-74503565D02*
G01*
X136160638Y-74515296D01*
X136196277Y-74534346D01*
X136227517Y-74559983D01*
X136253154Y-74591223D01*
X136272204Y-74626862D01*
X136283935Y-74665532D01*
X136288500Y-74711888D01*
X136288500Y-75788112D01*
X136283935Y-75834468D01*
X136272204Y-75873138D01*
X136253154Y-75908777D01*
X136227517Y-75940017D01*
X136196277Y-75965654D01*
X136160638Y-75984704D01*
X136121968Y-75996435D01*
X136075612Y-76001000D01*
X135424388Y-76001000D01*
X135378032Y-75996435D01*
X135339362Y-75984704D01*
X135303723Y-75965654D01*
X135272483Y-75940017D01*
X135246846Y-75908777D01*
X135227796Y-75873138D01*
X135216065Y-75834468D01*
X135211500Y-75788112D01*
X135211500Y-74711888D01*
X135216065Y-74665532D01*
X135227796Y-74626862D01*
X135246846Y-74591223D01*
X135272483Y-74559983D01*
X135303723Y-74534346D01*
X135339362Y-74515296D01*
X135378032Y-74503565D01*
X135424388Y-74499000D01*
X136075612Y-74499000D01*
X136121968Y-74503565D01*
X136121968Y-74503565D01*
G37*
G36*
X152246968Y-74503565D02*
G01*
X152285638Y-74515296D01*
X152321277Y-74534346D01*
X152352517Y-74559983D01*
X152378154Y-74591223D01*
X152397204Y-74626862D01*
X152408935Y-74665532D01*
X152413500Y-74711888D01*
X152413500Y-75788112D01*
X152408935Y-75834468D01*
X152397204Y-75873138D01*
X152378154Y-75908777D01*
X152352517Y-75940017D01*
X152321277Y-75965654D01*
X152285638Y-75984704D01*
X152246968Y-75996435D01*
X152200612Y-76001000D01*
X151549388Y-76001000D01*
X151503032Y-75996435D01*
X151464362Y-75984704D01*
X151428723Y-75965654D01*
X151397483Y-75940017D01*
X151371846Y-75908777D01*
X151352796Y-75873138D01*
X151341065Y-75834468D01*
X151336500Y-75788112D01*
X151336500Y-74711888D01*
X151341065Y-74665532D01*
X151352796Y-74626862D01*
X151371846Y-74591223D01*
X151397483Y-74559983D01*
X151428723Y-74534346D01*
X151464362Y-74515296D01*
X151503032Y-74503565D01*
X151549388Y-74499000D01*
X152200612Y-74499000D01*
X152246968Y-74503565D01*
X152246968Y-74503565D01*
G37*
G36*
X134246968Y-74503565D02*
G01*
X134285638Y-74515296D01*
X134321277Y-74534346D01*
X134352517Y-74559983D01*
X134378154Y-74591223D01*
X134397204Y-74626862D01*
X134408935Y-74665532D01*
X134413500Y-74711888D01*
X134413500Y-75788112D01*
X134408935Y-75834468D01*
X134397204Y-75873138D01*
X134378154Y-75908777D01*
X134352517Y-75940017D01*
X134321277Y-75965654D01*
X134285638Y-75984704D01*
X134246968Y-75996435D01*
X134200612Y-76001000D01*
X133549388Y-76001000D01*
X133503032Y-75996435D01*
X133464362Y-75984704D01*
X133428723Y-75965654D01*
X133397483Y-75940017D01*
X133371846Y-75908777D01*
X133352796Y-75873138D01*
X133341065Y-75834468D01*
X133336500Y-75788112D01*
X133336500Y-74711888D01*
X133341065Y-74665532D01*
X133352796Y-74626862D01*
X133371846Y-74591223D01*
X133397483Y-74559983D01*
X133428723Y-74534346D01*
X133464362Y-74515296D01*
X133503032Y-74503565D01*
X133549388Y-74499000D01*
X134200612Y-74499000D01*
X134246968Y-74503565D01*
X134246968Y-74503565D01*
G37*
G36*
X150371968Y-74503565D02*
G01*
X150410638Y-74515296D01*
X150446277Y-74534346D01*
X150477517Y-74559983D01*
X150503154Y-74591223D01*
X150522204Y-74626862D01*
X150533935Y-74665532D01*
X150538500Y-74711888D01*
X150538500Y-75788112D01*
X150533935Y-75834468D01*
X150522204Y-75873138D01*
X150503154Y-75908777D01*
X150477517Y-75940017D01*
X150446277Y-75965654D01*
X150410638Y-75984704D01*
X150371968Y-75996435D01*
X150325612Y-76001000D01*
X149674388Y-76001000D01*
X149628032Y-75996435D01*
X149589362Y-75984704D01*
X149553723Y-75965654D01*
X149522483Y-75940017D01*
X149496846Y-75908777D01*
X149477796Y-75873138D01*
X149466065Y-75834468D01*
X149461500Y-75788112D01*
X149461500Y-74711888D01*
X149466065Y-74665532D01*
X149477796Y-74626862D01*
X149496846Y-74591223D01*
X149522483Y-74559983D01*
X149553723Y-74534346D01*
X149589362Y-74515296D01*
X149628032Y-74503565D01*
X149674388Y-74499000D01*
X150325612Y-74499000D01*
X150371968Y-74503565D01*
X150371968Y-74503565D01*
G37*
G36*
X146676000Y-75801000D02*
G01*
X143824000Y-75801000D01*
X143824000Y-74699000D01*
X146676000Y-74699000D01*
X146676000Y-75801000D01*
X146676000Y-75801000D01*
G37*
G36*
X140916000Y-75801000D02*
G01*
X138064000Y-75801000D01*
X138064000Y-74699000D01*
X140916000Y-74699000D01*
X140916000Y-75801000D01*
X140916000Y-75801000D01*
G37*
G36*
X100084468Y-74466065D02*
G01*
X100123138Y-74477796D01*
X100158777Y-74496846D01*
X100190017Y-74522483D01*
X100215654Y-74553723D01*
X100234704Y-74589362D01*
X100246435Y-74628032D01*
X100251000Y-74674388D01*
X100251000Y-75325612D01*
X100246435Y-75371968D01*
X100234704Y-75410638D01*
X100215654Y-75446277D01*
X100190017Y-75477517D01*
X100158777Y-75503154D01*
X100123138Y-75522204D01*
X100084468Y-75533935D01*
X100038112Y-75538500D01*
X98961888Y-75538500D01*
X98915532Y-75533935D01*
X98876862Y-75522204D01*
X98841223Y-75503154D01*
X98809983Y-75477517D01*
X98784346Y-75446277D01*
X98765296Y-75410638D01*
X98753565Y-75371968D01*
X98749000Y-75325612D01*
X98749000Y-74674388D01*
X98753565Y-74628032D01*
X98765296Y-74589362D01*
X98784346Y-74553723D01*
X98809983Y-74522483D01*
X98841223Y-74496846D01*
X98876862Y-74477796D01*
X98915532Y-74466065D01*
X98961888Y-74461500D01*
X100038112Y-74461500D01*
X100084468Y-74466065D01*
X100084468Y-74466065D01*
G37*
G36*
X158786000Y-74391000D02*
G01*
X157784000Y-74391000D01*
X157784000Y-72289000D01*
X158786000Y-72289000D01*
X158786000Y-74391000D01*
X158786000Y-74391000D01*
G37*
G36*
X168946000Y-74391000D02*
G01*
X167944000Y-74391000D01*
X167944000Y-72289000D01*
X168946000Y-72289000D01*
X168946000Y-74391000D01*
X168946000Y-74391000D01*
G37*
G36*
X170216000Y-74391000D02*
G01*
X169214000Y-74391000D01*
X169214000Y-72289000D01*
X170216000Y-72289000D01*
X170216000Y-74391000D01*
X170216000Y-74391000D01*
G37*
G36*
X165136000Y-74391000D02*
G01*
X164134000Y-74391000D01*
X164134000Y-72289000D01*
X165136000Y-72289000D01*
X165136000Y-74391000D01*
X165136000Y-74391000D01*
G37*
G36*
X166406000Y-74391000D02*
G01*
X165404000Y-74391000D01*
X165404000Y-72289000D01*
X166406000Y-72289000D01*
X166406000Y-74391000D01*
X166406000Y-74391000D01*
G37*
G36*
X163866000Y-74391000D02*
G01*
X162864000Y-74391000D01*
X162864000Y-72289000D01*
X163866000Y-72289000D01*
X163866000Y-74391000D01*
X163866000Y-74391000D01*
G37*
G36*
X160056000Y-74391000D02*
G01*
X159054000Y-74391000D01*
X159054000Y-72289000D01*
X160056000Y-72289000D01*
X160056000Y-74391000D01*
X160056000Y-74391000D01*
G37*
G36*
X162596000Y-74391000D02*
G01*
X161594000Y-74391000D01*
X161594000Y-72289000D01*
X162596000Y-72289000D01*
X162596000Y-74391000D01*
X162596000Y-74391000D01*
G37*
G36*
X167676000Y-74391000D02*
G01*
X166674000Y-74391000D01*
X166674000Y-72289000D01*
X167676000Y-72289000D01*
X167676000Y-74391000D01*
X167676000Y-74391000D01*
G37*
G36*
X161326000Y-74391000D02*
G01*
X160324000Y-74391000D01*
X160324000Y-72289000D01*
X161326000Y-72289000D01*
X161326000Y-74391000D01*
X161326000Y-74391000D01*
G37*
G36*
X152246968Y-72003565D02*
G01*
X152285638Y-72015296D01*
X152321277Y-72034346D01*
X152352517Y-72059983D01*
X152378154Y-72091223D01*
X152397204Y-72126862D01*
X152408935Y-72165532D01*
X152413500Y-72211888D01*
X152413500Y-73288112D01*
X152408935Y-73334468D01*
X152397204Y-73373138D01*
X152378154Y-73408777D01*
X152352517Y-73440017D01*
X152321277Y-73465654D01*
X152285638Y-73484704D01*
X152246968Y-73496435D01*
X152200612Y-73501000D01*
X151549388Y-73501000D01*
X151503032Y-73496435D01*
X151464362Y-73484704D01*
X151428723Y-73465654D01*
X151397483Y-73440017D01*
X151371846Y-73408777D01*
X151352796Y-73373138D01*
X151341065Y-73334468D01*
X151336500Y-73288112D01*
X151336500Y-72211888D01*
X151341065Y-72165532D01*
X151352796Y-72126862D01*
X151371846Y-72091223D01*
X151397483Y-72059983D01*
X151428723Y-72034346D01*
X151464362Y-72015296D01*
X151503032Y-72003565D01*
X151549388Y-71999000D01*
X152200612Y-71999000D01*
X152246968Y-72003565D01*
X152246968Y-72003565D01*
G37*
G36*
X150371968Y-72003565D02*
G01*
X150410638Y-72015296D01*
X150446277Y-72034346D01*
X150477517Y-72059983D01*
X150503154Y-72091223D01*
X150522204Y-72126862D01*
X150533935Y-72165532D01*
X150538500Y-72211888D01*
X150538500Y-73288112D01*
X150533935Y-73334468D01*
X150522204Y-73373138D01*
X150503154Y-73408777D01*
X150477517Y-73440017D01*
X150446277Y-73465654D01*
X150410638Y-73484704D01*
X150371968Y-73496435D01*
X150325612Y-73501000D01*
X149674388Y-73501000D01*
X149628032Y-73496435D01*
X149589362Y-73484704D01*
X149553723Y-73465654D01*
X149522483Y-73440017D01*
X149496846Y-73408777D01*
X149477796Y-73373138D01*
X149466065Y-73334468D01*
X149461500Y-73288112D01*
X149461500Y-72211888D01*
X149466065Y-72165532D01*
X149477796Y-72126862D01*
X149496846Y-72091223D01*
X149522483Y-72059983D01*
X149553723Y-72034346D01*
X149589362Y-72015296D01*
X149628032Y-72003565D01*
X149674388Y-71999000D01*
X150325612Y-71999000D01*
X150371968Y-72003565D01*
X150371968Y-72003565D01*
G37*
G36*
X156551000Y-72841000D02*
G01*
X154449000Y-72841000D01*
X154449000Y-71839000D01*
X156551000Y-71839000D01*
X156551000Y-72841000D01*
X156551000Y-72841000D01*
G37*
G36*
X173551000Y-72841000D02*
G01*
X171449000Y-72841000D01*
X171449000Y-71839000D01*
X173551000Y-71839000D01*
X173551000Y-72841000D01*
X173551000Y-72841000D01*
G37*
G36*
X140916000Y-71801000D02*
G01*
X138064000Y-71801000D01*
X138064000Y-70699000D01*
X140916000Y-70699000D01*
X140916000Y-71801000D01*
X140916000Y-71801000D01*
G37*
G36*
X146676000Y-71801000D02*
G01*
X143824000Y-71801000D01*
X143824000Y-70699000D01*
X146676000Y-70699000D01*
X146676000Y-71801000D01*
X146676000Y-71801000D01*
G37*
G36*
X156551000Y-71571000D02*
G01*
X154449000Y-71571000D01*
X154449000Y-70569000D01*
X156551000Y-70569000D01*
X156551000Y-71571000D01*
X156551000Y-71571000D01*
G37*
G36*
X173551000Y-71571000D02*
G01*
X171449000Y-71571000D01*
X171449000Y-70569000D01*
X173551000Y-70569000D01*
X173551000Y-71571000D01*
X173551000Y-71571000D01*
G37*
G36*
X186496968Y-70003565D02*
G01*
X186535638Y-70015296D01*
X186571277Y-70034346D01*
X186602517Y-70059983D01*
X186628154Y-70091223D01*
X186647204Y-70126862D01*
X186658935Y-70165532D01*
X186663500Y-70211888D01*
X186663500Y-71288112D01*
X186658935Y-71334468D01*
X186647204Y-71373138D01*
X186628154Y-71408777D01*
X186602517Y-71440017D01*
X186571277Y-71465654D01*
X186535638Y-71484704D01*
X186496968Y-71496435D01*
X186450612Y-71501000D01*
X185799388Y-71501000D01*
X185753032Y-71496435D01*
X185714362Y-71484704D01*
X185678723Y-71465654D01*
X185647483Y-71440017D01*
X185621846Y-71408777D01*
X185602796Y-71373138D01*
X185591065Y-71334468D01*
X185586500Y-71288112D01*
X185586500Y-70211888D01*
X185591065Y-70165532D01*
X185602796Y-70126862D01*
X185621846Y-70091223D01*
X185647483Y-70059983D01*
X185678723Y-70034346D01*
X185714362Y-70015296D01*
X185753032Y-70003565D01*
X185799388Y-69999000D01*
X186450612Y-69999000D01*
X186496968Y-70003565D01*
X186496968Y-70003565D01*
G37*
G36*
X188371968Y-70003565D02*
G01*
X188410638Y-70015296D01*
X188446277Y-70034346D01*
X188477517Y-70059983D01*
X188503154Y-70091223D01*
X188522204Y-70126862D01*
X188533935Y-70165532D01*
X188538500Y-70211888D01*
X188538500Y-71288112D01*
X188533935Y-71334468D01*
X188522204Y-71373138D01*
X188503154Y-71408777D01*
X188477517Y-71440017D01*
X188446277Y-71465654D01*
X188410638Y-71484704D01*
X188371968Y-71496435D01*
X188325612Y-71501000D01*
X187674388Y-71501000D01*
X187628032Y-71496435D01*
X187589362Y-71484704D01*
X187553723Y-71465654D01*
X187522483Y-71440017D01*
X187496846Y-71408777D01*
X187477796Y-71373138D01*
X187466065Y-71334468D01*
X187461500Y-71288112D01*
X187461500Y-70211888D01*
X187466065Y-70165532D01*
X187477796Y-70126862D01*
X187496846Y-70091223D01*
X187522483Y-70059983D01*
X187553723Y-70034346D01*
X187589362Y-70015296D01*
X187628032Y-70003565D01*
X187674388Y-69999000D01*
X188325612Y-69999000D01*
X188371968Y-70003565D01*
X188371968Y-70003565D01*
G37*
G36*
X156551000Y-70301000D02*
G01*
X154449000Y-70301000D01*
X154449000Y-69299000D01*
X156551000Y-69299000D01*
X156551000Y-70301000D01*
X156551000Y-70301000D01*
G37*
G36*
X173551000Y-70301000D02*
G01*
X171449000Y-70301000D01*
X171449000Y-69299000D01*
X173551000Y-69299000D01*
X173551000Y-70301000D01*
X173551000Y-70301000D01*
G37*
G36*
X173551000Y-69031000D02*
G01*
X171449000Y-69031000D01*
X171449000Y-68029000D01*
X173551000Y-68029000D01*
X173551000Y-69031000D01*
X173551000Y-69031000D01*
G37*
G36*
X156551000Y-69031000D02*
G01*
X154449000Y-69031000D01*
X154449000Y-68029000D01*
X156551000Y-68029000D01*
X156551000Y-69031000D01*
X156551000Y-69031000D01*
G37*
G36*
X156551000Y-67761000D02*
G01*
X154449000Y-67761000D01*
X154449000Y-66759000D01*
X156551000Y-66759000D01*
X156551000Y-67761000D01*
X156551000Y-67761000D01*
G37*
G36*
X173551000Y-67761000D02*
G01*
X171449000Y-67761000D01*
X171449000Y-66759000D01*
X173551000Y-66759000D01*
X173551000Y-67761000D01*
X173551000Y-67761000D01*
G37*
G36*
X183371968Y-66253565D02*
G01*
X183410638Y-66265296D01*
X183446277Y-66284346D01*
X183477517Y-66309983D01*
X183503154Y-66341223D01*
X183522204Y-66376862D01*
X183533935Y-66415532D01*
X183538500Y-66461888D01*
X183538500Y-67538112D01*
X183533935Y-67584468D01*
X183522204Y-67623138D01*
X183503154Y-67658777D01*
X183477517Y-67690017D01*
X183446277Y-67715654D01*
X183410638Y-67734704D01*
X183371968Y-67746435D01*
X183325612Y-67751000D01*
X182674388Y-67751000D01*
X182628032Y-67746435D01*
X182589362Y-67734704D01*
X182553723Y-67715654D01*
X182522483Y-67690017D01*
X182496846Y-67658777D01*
X182477796Y-67623138D01*
X182466065Y-67584468D01*
X182461500Y-67538112D01*
X182461500Y-66461888D01*
X182466065Y-66415532D01*
X182477796Y-66376862D01*
X182496846Y-66341223D01*
X182522483Y-66309983D01*
X182553723Y-66284346D01*
X182589362Y-66265296D01*
X182628032Y-66253565D01*
X182674388Y-66249000D01*
X183325612Y-66249000D01*
X183371968Y-66253565D01*
X183371968Y-66253565D01*
G37*
G36*
X181496968Y-66253565D02*
G01*
X181535638Y-66265296D01*
X181571277Y-66284346D01*
X181602517Y-66309983D01*
X181628154Y-66341223D01*
X181647204Y-66376862D01*
X181658935Y-66415532D01*
X181663500Y-66461888D01*
X181663500Y-67538112D01*
X181658935Y-67584468D01*
X181647204Y-67623138D01*
X181628154Y-67658777D01*
X181602517Y-67690017D01*
X181571277Y-67715654D01*
X181535638Y-67734704D01*
X181496968Y-67746435D01*
X181450612Y-67751000D01*
X180799388Y-67751000D01*
X180753032Y-67746435D01*
X180714362Y-67734704D01*
X180678723Y-67715654D01*
X180647483Y-67690017D01*
X180621846Y-67658777D01*
X180602796Y-67623138D01*
X180591065Y-67584468D01*
X180586500Y-67538112D01*
X180586500Y-66461888D01*
X180591065Y-66415532D01*
X180602796Y-66376862D01*
X180621846Y-66341223D01*
X180647483Y-66309983D01*
X180678723Y-66284346D01*
X180714362Y-66265296D01*
X180753032Y-66253565D01*
X180799388Y-66249000D01*
X181450612Y-66249000D01*
X181496968Y-66253565D01*
X181496968Y-66253565D01*
G37*
G36*
X100941132Y-65527810D02*
G01*
X100972423Y-65537302D01*
X101001263Y-65552717D01*
X101026539Y-65573461D01*
X101047283Y-65598737D01*
X101062698Y-65627577D01*
X101072190Y-65658868D01*
X101076000Y-65697551D01*
X101076000Y-67527449D01*
X101072190Y-67566132D01*
X101062698Y-67597423D01*
X101047283Y-67626263D01*
X101026539Y-67651539D01*
X101001263Y-67672283D01*
X100972423Y-67687698D01*
X100941132Y-67697190D01*
X100902449Y-67701000D01*
X98597551Y-67701000D01*
X98558868Y-67697190D01*
X98527577Y-67687698D01*
X98498737Y-67672283D01*
X98473461Y-67651539D01*
X98452717Y-67626263D01*
X98437302Y-67597423D01*
X98427810Y-67566132D01*
X98424000Y-67527449D01*
X98424000Y-65697551D01*
X98427810Y-65658868D01*
X98437302Y-65627577D01*
X98452717Y-65598737D01*
X98473461Y-65573461D01*
X98498737Y-65552717D01*
X98527577Y-65537302D01*
X98558868Y-65527810D01*
X98597551Y-65524000D01*
X100902449Y-65524000D01*
X100941132Y-65527810D01*
X100941132Y-65527810D01*
G37*
G36*
X193176000Y-67551000D02*
G01*
X190324000Y-67551000D01*
X190324000Y-66449000D01*
X193176000Y-66449000D01*
X193176000Y-67551000D01*
X193176000Y-67551000D01*
G37*
G36*
X187416000Y-67551000D02*
G01*
X184564000Y-67551000D01*
X184564000Y-66449000D01*
X187416000Y-66449000D01*
X187416000Y-67551000D01*
X187416000Y-67551000D01*
G37*
G36*
X156551000Y-66491000D02*
G01*
X154449000Y-66491000D01*
X154449000Y-65489000D01*
X156551000Y-65489000D01*
X156551000Y-66491000D01*
X156551000Y-66491000D01*
G37*
G36*
X173551000Y-66491000D02*
G01*
X171449000Y-66491000D01*
X171449000Y-65489000D01*
X173551000Y-65489000D01*
X173551000Y-66491000D01*
X173551000Y-66491000D01*
G37*
G36*
X167551000Y-65881000D02*
G01*
X162449000Y-65881000D01*
X162449000Y-60779000D01*
X167551000Y-60779000D01*
X167551000Y-65881000D01*
X167551000Y-65881000D01*
G37*
G36*
X156551000Y-65221000D02*
G01*
X154449000Y-65221000D01*
X154449000Y-64219000D01*
X156551000Y-64219000D01*
X156551000Y-65221000D01*
X156551000Y-65221000D01*
G37*
G36*
X173551000Y-65221000D02*
G01*
X171449000Y-65221000D01*
X171449000Y-64219000D01*
X173551000Y-64219000D01*
X173551000Y-65221000D01*
X173551000Y-65221000D01*
G37*
G36*
X183371968Y-63253565D02*
G01*
X183410638Y-63265296D01*
X183446277Y-63284346D01*
X183477517Y-63309983D01*
X183503154Y-63341223D01*
X183522204Y-63376862D01*
X183533935Y-63415532D01*
X183538500Y-63461888D01*
X183538500Y-64538112D01*
X183533935Y-64584468D01*
X183522204Y-64623138D01*
X183503154Y-64658777D01*
X183477517Y-64690017D01*
X183446277Y-64715654D01*
X183410638Y-64734704D01*
X183371968Y-64746435D01*
X183325612Y-64751000D01*
X182674388Y-64751000D01*
X182628032Y-64746435D01*
X182589362Y-64734704D01*
X182553723Y-64715654D01*
X182522483Y-64690017D01*
X182496846Y-64658777D01*
X182477796Y-64623138D01*
X182466065Y-64584468D01*
X182461500Y-64538112D01*
X182461500Y-63461888D01*
X182466065Y-63415532D01*
X182477796Y-63376862D01*
X182496846Y-63341223D01*
X182522483Y-63309983D01*
X182553723Y-63284346D01*
X182589362Y-63265296D01*
X182628032Y-63253565D01*
X182674388Y-63249000D01*
X183325612Y-63249000D01*
X183371968Y-63253565D01*
X183371968Y-63253565D01*
G37*
G36*
X181496968Y-63253565D02*
G01*
X181535638Y-63265296D01*
X181571277Y-63284346D01*
X181602517Y-63309983D01*
X181628154Y-63341223D01*
X181647204Y-63376862D01*
X181658935Y-63415532D01*
X181663500Y-63461888D01*
X181663500Y-64538112D01*
X181658935Y-64584468D01*
X181647204Y-64623138D01*
X181628154Y-64658777D01*
X181602517Y-64690017D01*
X181571277Y-64715654D01*
X181535638Y-64734704D01*
X181496968Y-64746435D01*
X181450612Y-64751000D01*
X180799388Y-64751000D01*
X180753032Y-64746435D01*
X180714362Y-64734704D01*
X180678723Y-64715654D01*
X180647483Y-64690017D01*
X180621846Y-64658777D01*
X180602796Y-64623138D01*
X180591065Y-64584468D01*
X180586500Y-64538112D01*
X180586500Y-63461888D01*
X180591065Y-63415532D01*
X180602796Y-63376862D01*
X180621846Y-63341223D01*
X180647483Y-63309983D01*
X180678723Y-63284346D01*
X180714362Y-63265296D01*
X180753032Y-63253565D01*
X180799388Y-63249000D01*
X181450612Y-63249000D01*
X181496968Y-63253565D01*
X181496968Y-63253565D01*
G37*
G36*
X156551000Y-63951000D02*
G01*
X154449000Y-63951000D01*
X154449000Y-62949000D01*
X156551000Y-62949000D01*
X156551000Y-63951000D01*
X156551000Y-63951000D01*
G37*
G36*
X173551000Y-63951000D02*
G01*
X171449000Y-63951000D01*
X171449000Y-62949000D01*
X173551000Y-62949000D01*
X173551000Y-63951000D01*
X173551000Y-63951000D01*
G37*
G36*
X193176000Y-63551000D02*
G01*
X190324000Y-63551000D01*
X190324000Y-62449000D01*
X193176000Y-62449000D01*
X193176000Y-63551000D01*
X193176000Y-63551000D01*
G37*
G36*
X187416000Y-63551000D02*
G01*
X184564000Y-63551000D01*
X184564000Y-62449000D01*
X187416000Y-62449000D01*
X187416000Y-63551000D01*
X187416000Y-63551000D01*
G37*
G36*
X110875589Y-61988876D02*
G01*
X110974893Y-62008629D01*
X111115206Y-62066748D01*
X111241484Y-62151125D01*
X111348875Y-62258516D01*
X111433252Y-62384794D01*
X111491371Y-62525107D01*
X111521000Y-62674063D01*
X111521000Y-62825937D01*
X111491371Y-62974893D01*
X111433252Y-63115206D01*
X111348875Y-63241484D01*
X111241484Y-63348875D01*
X111115206Y-63433252D01*
X110974893Y-63491371D01*
X110875589Y-63511124D01*
X110825938Y-63521000D01*
X110674062Y-63521000D01*
X110624411Y-63511124D01*
X110525107Y-63491371D01*
X110384794Y-63433252D01*
X110258516Y-63348875D01*
X110151125Y-63241484D01*
X110066748Y-63115206D01*
X110008629Y-62974893D01*
X109979000Y-62825937D01*
X109979000Y-62674063D01*
X110008629Y-62525107D01*
X110066748Y-62384794D01*
X110151125Y-62258516D01*
X110258516Y-62151125D01*
X110384794Y-62066748D01*
X110525107Y-62008629D01*
X110624411Y-61988876D01*
X110674062Y-61979000D01*
X110825938Y-61979000D01*
X110875589Y-61988876D01*
X110875589Y-61988876D01*
G37*
G36*
X105795589Y-61988876D02*
G01*
X105894893Y-62008629D01*
X106035206Y-62066748D01*
X106161484Y-62151125D01*
X106268875Y-62258516D01*
X106353252Y-62384794D01*
X106411371Y-62525107D01*
X106441000Y-62674063D01*
X106441000Y-62825937D01*
X106411371Y-62974893D01*
X106353252Y-63115206D01*
X106268875Y-63241484D01*
X106161484Y-63348875D01*
X106035206Y-63433252D01*
X105894893Y-63491371D01*
X105795589Y-63511124D01*
X105745938Y-63521000D01*
X105594062Y-63521000D01*
X105544411Y-63511124D01*
X105445107Y-63491371D01*
X105304794Y-63433252D01*
X105178516Y-63348875D01*
X105071125Y-63241484D01*
X104986748Y-63115206D01*
X104928629Y-62974893D01*
X104899000Y-62825937D01*
X104899000Y-62674063D01*
X104928629Y-62525107D01*
X104986748Y-62384794D01*
X105071125Y-62258516D01*
X105178516Y-62151125D01*
X105304794Y-62066748D01*
X105445107Y-62008629D01*
X105544411Y-61988876D01*
X105594062Y-61979000D01*
X105745938Y-61979000D01*
X105795589Y-61988876D01*
X105795589Y-61988876D01*
G37*
G36*
X156551000Y-62681000D02*
G01*
X154449000Y-62681000D01*
X154449000Y-61679000D01*
X156551000Y-61679000D01*
X156551000Y-62681000D01*
X156551000Y-62681000D01*
G37*
G36*
X173551000Y-62681000D02*
G01*
X171449000Y-62681000D01*
X171449000Y-61679000D01*
X173551000Y-61679000D01*
X173551000Y-62681000D01*
X173551000Y-62681000D01*
G37*
G36*
X100941132Y-59302810D02*
G01*
X100972423Y-59312302D01*
X101001263Y-59327717D01*
X101026539Y-59348461D01*
X101047283Y-59373737D01*
X101062698Y-59402577D01*
X101072190Y-59433868D01*
X101076000Y-59472551D01*
X101076000Y-61302449D01*
X101072190Y-61341132D01*
X101062698Y-61372423D01*
X101047283Y-61401263D01*
X101026539Y-61426539D01*
X101001263Y-61447283D01*
X100972423Y-61462698D01*
X100941132Y-61472190D01*
X100902449Y-61476000D01*
X98597551Y-61476000D01*
X98558868Y-61472190D01*
X98527577Y-61462698D01*
X98498737Y-61447283D01*
X98473461Y-61426539D01*
X98452717Y-61401263D01*
X98437302Y-61372423D01*
X98427810Y-61341132D01*
X98424000Y-61302449D01*
X98424000Y-59472551D01*
X98427810Y-59433868D01*
X98437302Y-59402577D01*
X98452717Y-59373737D01*
X98473461Y-59348461D01*
X98498737Y-59327717D01*
X98527577Y-59312302D01*
X98558868Y-59302810D01*
X98597551Y-59299000D01*
X100902449Y-59299000D01*
X100941132Y-59302810D01*
X100941132Y-59302810D01*
G37*
G36*
X173551000Y-61411000D02*
G01*
X171449000Y-61411000D01*
X171449000Y-60409000D01*
X173551000Y-60409000D01*
X173551000Y-61411000D01*
X173551000Y-61411000D01*
G37*
G36*
X156551000Y-61411000D02*
G01*
X154449000Y-61411000D01*
X154449000Y-60409000D01*
X156551000Y-60409000D01*
X156551000Y-61411000D01*
X156551000Y-61411000D01*
G37*
G36*
X108335589Y-59448876D02*
G01*
X108434893Y-59468629D01*
X108575206Y-59526748D01*
X108701484Y-59611125D01*
X108808875Y-59718516D01*
X108893252Y-59844794D01*
X108951371Y-59985107D01*
X108981000Y-60134063D01*
X108981000Y-60285937D01*
X108951371Y-60434893D01*
X108893252Y-60575206D01*
X108808875Y-60701484D01*
X108701484Y-60808875D01*
X108575206Y-60893252D01*
X108434893Y-60951371D01*
X108335589Y-60971124D01*
X108285938Y-60981000D01*
X108134062Y-60981000D01*
X108084411Y-60971124D01*
X107985107Y-60951371D01*
X107844794Y-60893252D01*
X107718516Y-60808875D01*
X107611125Y-60701484D01*
X107526748Y-60575206D01*
X107468629Y-60434893D01*
X107439000Y-60285937D01*
X107439000Y-60134063D01*
X107468629Y-59985107D01*
X107526748Y-59844794D01*
X107611125Y-59718516D01*
X107718516Y-59611125D01*
X107844794Y-59526748D01*
X107985107Y-59468629D01*
X108084411Y-59448876D01*
X108134062Y-59439000D01*
X108285938Y-59439000D01*
X108335589Y-59448876D01*
X108335589Y-59448876D01*
G37*
G36*
X173551000Y-60141000D02*
G01*
X171449000Y-60141000D01*
X171449000Y-59139000D01*
X173551000Y-59139000D01*
X173551000Y-60141000D01*
X173551000Y-60141000D01*
G37*
G36*
X156551000Y-60141000D02*
G01*
X154449000Y-60141000D01*
X154449000Y-59139000D01*
X156551000Y-59139000D01*
X156551000Y-60141000D01*
X156551000Y-60141000D01*
G37*
G36*
X173551000Y-58871000D02*
G01*
X171449000Y-58871000D01*
X171449000Y-57869000D01*
X173551000Y-57869000D01*
X173551000Y-58871000D01*
X173551000Y-58871000D01*
G37*
G36*
X156551000Y-58871000D02*
G01*
X154449000Y-58871000D01*
X154449000Y-57869000D01*
X156551000Y-57869000D01*
X156551000Y-58871000D01*
X156551000Y-58871000D01*
G37*
G36*
X177453632Y-55927810D02*
G01*
X177484923Y-55937302D01*
X177513763Y-55952717D01*
X177539039Y-55973461D01*
X177559783Y-55998737D01*
X177575198Y-56027577D01*
X177584690Y-56058868D01*
X177588500Y-56097551D01*
X177588500Y-58402449D01*
X177584690Y-58441132D01*
X177575198Y-58472423D01*
X177559783Y-58501263D01*
X177539039Y-58526539D01*
X177513763Y-58547283D01*
X177484923Y-58562698D01*
X177453632Y-58572190D01*
X177414949Y-58576000D01*
X175585051Y-58576000D01*
X175546368Y-58572190D01*
X175515077Y-58562698D01*
X175486237Y-58547283D01*
X175460961Y-58526539D01*
X175440217Y-58501263D01*
X175424802Y-58472423D01*
X175415310Y-58441132D01*
X175411500Y-58402449D01*
X175411500Y-56097551D01*
X175415310Y-56058868D01*
X175424802Y-56027577D01*
X175440217Y-55998737D01*
X175460961Y-55973461D01*
X175486237Y-55952717D01*
X175515077Y-55937302D01*
X175546368Y-55927810D01*
X175585051Y-55924000D01*
X177414949Y-55924000D01*
X177453632Y-55927810D01*
X177453632Y-55927810D01*
G37*
G36*
X183678632Y-55927810D02*
G01*
X183709923Y-55937302D01*
X183738763Y-55952717D01*
X183764039Y-55973461D01*
X183784783Y-55998737D01*
X183800198Y-56027577D01*
X183809690Y-56058868D01*
X183813500Y-56097551D01*
X183813500Y-58402449D01*
X183809690Y-58441132D01*
X183800198Y-58472423D01*
X183784783Y-58501263D01*
X183764039Y-58526539D01*
X183738763Y-58547283D01*
X183709923Y-58562698D01*
X183678632Y-58572190D01*
X183639949Y-58576000D01*
X181810051Y-58576000D01*
X181771368Y-58572190D01*
X181740077Y-58562698D01*
X181711237Y-58547283D01*
X181685961Y-58526539D01*
X181665217Y-58501263D01*
X181649802Y-58472423D01*
X181640310Y-58441132D01*
X181636500Y-58402449D01*
X181636500Y-56097551D01*
X181640310Y-56058868D01*
X181649802Y-56027577D01*
X181665217Y-55998737D01*
X181685961Y-55973461D01*
X181711237Y-55952717D01*
X181740077Y-55937302D01*
X181771368Y-55927810D01*
X181810051Y-55924000D01*
X183639949Y-55924000D01*
X183678632Y-55927810D01*
X183678632Y-55927810D01*
G37*
G36*
X96244098Y-53047033D02*
G01*
X96708350Y-53239332D01*
X96708352Y-53239333D01*
X97126168Y-53518509D01*
X97481491Y-53873832D01*
X97760667Y-54291648D01*
X97760668Y-54291650D01*
X97952967Y-54755902D01*
X98051000Y-55248747D01*
X98051000Y-55751253D01*
X97952967Y-56244098D01*
X97937250Y-56282042D01*
X97760667Y-56708352D01*
X97481491Y-57126168D01*
X97126168Y-57481491D01*
X96708352Y-57760667D01*
X96708351Y-57760668D01*
X96708350Y-57760668D01*
X96244098Y-57952967D01*
X95751253Y-58051000D01*
X95248747Y-58051000D01*
X94755902Y-57952967D01*
X94291650Y-57760668D01*
X94291649Y-57760668D01*
X94291648Y-57760667D01*
X93873832Y-57481491D01*
X93518509Y-57126168D01*
X93239333Y-56708352D01*
X93062750Y-56282042D01*
X93047033Y-56244098D01*
X92949000Y-55751253D01*
X92949000Y-55248747D01*
X93047033Y-54755902D01*
X93239332Y-54291650D01*
X93239333Y-54291648D01*
X93518509Y-53873832D01*
X93873832Y-53518509D01*
X94291648Y-53239333D01*
X94291650Y-53239332D01*
X94755902Y-53047033D01*
X95248747Y-52949000D01*
X95751253Y-52949000D01*
X96244098Y-53047033D01*
X96244098Y-53047033D01*
G37*
G36*
X189244098Y-53047033D02*
G01*
X189708350Y-53239332D01*
X189708352Y-53239333D01*
X190126168Y-53518509D01*
X190481491Y-53873832D01*
X190760667Y-54291648D01*
X190760668Y-54291650D01*
X190952967Y-54755902D01*
X191051000Y-55248747D01*
X191051000Y-55751253D01*
X190952967Y-56244098D01*
X190937250Y-56282042D01*
X190760667Y-56708352D01*
X190481491Y-57126168D01*
X190126168Y-57481491D01*
X189708352Y-57760667D01*
X189708351Y-57760668D01*
X189708350Y-57760668D01*
X189244098Y-57952967D01*
X188751253Y-58051000D01*
X188248747Y-58051000D01*
X187755902Y-57952967D01*
X187291650Y-57760668D01*
X187291649Y-57760668D01*
X187291648Y-57760667D01*
X186873832Y-57481491D01*
X186518509Y-57126168D01*
X186239333Y-56708352D01*
X186062750Y-56282042D01*
X186047033Y-56244098D01*
X185949000Y-55751253D01*
X185949000Y-55248747D01*
X186047033Y-54755902D01*
X186239332Y-54291650D01*
X186239333Y-54291648D01*
X186518509Y-53873832D01*
X186873832Y-53518509D01*
X187291648Y-53239333D01*
X187291650Y-53239332D01*
X187755902Y-53047033D01*
X188248747Y-52949000D01*
X188751253Y-52949000D01*
X189244098Y-53047033D01*
X189244098Y-53047033D01*
G37*
G36*
X173551000Y-57601000D02*
G01*
X171449000Y-57601000D01*
X171449000Y-56599000D01*
X173551000Y-56599000D01*
X173551000Y-57601000D01*
X173551000Y-57601000D01*
G37*
G36*
X156551000Y-57601000D02*
G01*
X154449000Y-57601000D01*
X154449000Y-56599000D01*
X156551000Y-56599000D01*
X156551000Y-57601000D01*
X156551000Y-57601000D01*
G37*
G36*
X105711823Y-54382182D02*
G01*
X105877044Y-54432301D01*
X106029312Y-54513691D01*
X106162778Y-54623222D01*
X106272309Y-54756687D01*
X106353699Y-54908955D01*
X106403818Y-55074176D01*
X106416500Y-55202940D01*
X106416500Y-55797060D01*
X106403818Y-55925824D01*
X106353699Y-56091045D01*
X106272309Y-56243313D01*
X106162778Y-56376778D01*
X106029313Y-56486309D01*
X105877045Y-56567699D01*
X105711824Y-56617818D01*
X105540000Y-56634741D01*
X105368177Y-56617818D01*
X105202956Y-56567699D01*
X105050688Y-56486309D01*
X104917223Y-56376778D01*
X104807692Y-56243313D01*
X104726301Y-56091045D01*
X104676182Y-55925824D01*
X104663500Y-55797060D01*
X104663500Y-55202941D01*
X104676182Y-55074177D01*
X104726301Y-54908956D01*
X104807691Y-54756688D01*
X104917222Y-54623222D01*
X105050687Y-54513691D01*
X105202955Y-54432301D01*
X105368176Y-54382182D01*
X105540000Y-54365259D01*
X105711823Y-54382182D01*
X105711823Y-54382182D01*
G37*
G36*
X128571823Y-54382182D02*
G01*
X128737044Y-54432301D01*
X128889312Y-54513691D01*
X129022778Y-54623222D01*
X129132309Y-54756687D01*
X129213699Y-54908955D01*
X129263818Y-55074176D01*
X129276500Y-55202940D01*
X129276500Y-55797060D01*
X129263818Y-55925824D01*
X129213699Y-56091045D01*
X129132309Y-56243313D01*
X129022778Y-56376778D01*
X128889313Y-56486309D01*
X128737045Y-56567699D01*
X128571824Y-56617818D01*
X128400000Y-56634741D01*
X128228177Y-56617818D01*
X128062956Y-56567699D01*
X127910688Y-56486309D01*
X127777223Y-56376778D01*
X127667692Y-56243313D01*
X127586301Y-56091045D01*
X127536182Y-55925824D01*
X127523500Y-55797060D01*
X127523500Y-55202941D01*
X127536182Y-55074177D01*
X127586301Y-54908956D01*
X127667691Y-54756688D01*
X127777222Y-54623222D01*
X127910687Y-54513691D01*
X128062955Y-54432301D01*
X128228176Y-54382182D01*
X128400000Y-54365259D01*
X128571823Y-54382182D01*
X128571823Y-54382182D01*
G37*
G36*
X138731823Y-54382182D02*
G01*
X138897044Y-54432301D01*
X139049312Y-54513691D01*
X139182778Y-54623222D01*
X139292309Y-54756687D01*
X139373699Y-54908955D01*
X139423818Y-55074176D01*
X139436500Y-55202940D01*
X139436500Y-55797060D01*
X139423818Y-55925824D01*
X139373699Y-56091045D01*
X139292309Y-56243313D01*
X139182778Y-56376778D01*
X139049313Y-56486309D01*
X138897045Y-56567699D01*
X138731824Y-56617818D01*
X138560000Y-56634741D01*
X138388177Y-56617818D01*
X138222956Y-56567699D01*
X138070688Y-56486309D01*
X137937223Y-56376778D01*
X137827692Y-56243313D01*
X137746301Y-56091045D01*
X137696182Y-55925824D01*
X137683500Y-55797060D01*
X137683500Y-55202941D01*
X137696182Y-55074177D01*
X137746301Y-54908956D01*
X137827691Y-54756688D01*
X137937222Y-54623222D01*
X138070687Y-54513691D01*
X138222955Y-54432301D01*
X138388176Y-54382182D01*
X138560000Y-54365259D01*
X138731823Y-54382182D01*
X138731823Y-54382182D01*
G37*
G36*
X133651823Y-54382182D02*
G01*
X133817044Y-54432301D01*
X133969312Y-54513691D01*
X134102778Y-54623222D01*
X134212309Y-54756687D01*
X134293699Y-54908955D01*
X134343818Y-55074176D01*
X134356500Y-55202940D01*
X134356500Y-55797060D01*
X134343818Y-55925824D01*
X134293699Y-56091045D01*
X134212309Y-56243313D01*
X134102778Y-56376778D01*
X133969313Y-56486309D01*
X133817045Y-56567699D01*
X133651824Y-56617818D01*
X133480000Y-56634741D01*
X133308177Y-56617818D01*
X133142956Y-56567699D01*
X132990688Y-56486309D01*
X132857223Y-56376778D01*
X132747692Y-56243313D01*
X132666301Y-56091045D01*
X132616182Y-55925824D01*
X132603500Y-55797060D01*
X132603500Y-55202941D01*
X132616182Y-55074177D01*
X132666301Y-54908956D01*
X132747691Y-54756688D01*
X132857222Y-54623222D01*
X132990687Y-54513691D01*
X133142955Y-54432301D01*
X133308176Y-54382182D01*
X133480000Y-54365259D01*
X133651823Y-54382182D01*
X133651823Y-54382182D01*
G37*
G36*
X108251823Y-54382182D02*
G01*
X108417044Y-54432301D01*
X108569312Y-54513691D01*
X108702778Y-54623222D01*
X108812309Y-54756687D01*
X108893699Y-54908955D01*
X108943818Y-55074176D01*
X108956500Y-55202940D01*
X108956500Y-55797060D01*
X108943818Y-55925824D01*
X108893699Y-56091045D01*
X108812309Y-56243313D01*
X108702778Y-56376778D01*
X108569313Y-56486309D01*
X108417045Y-56567699D01*
X108251824Y-56617818D01*
X108080000Y-56634741D01*
X107908177Y-56617818D01*
X107742956Y-56567699D01*
X107590688Y-56486309D01*
X107457223Y-56376778D01*
X107347692Y-56243313D01*
X107266301Y-56091045D01*
X107216182Y-55925824D01*
X107203500Y-55797060D01*
X107203500Y-55202941D01*
X107216182Y-55074177D01*
X107266301Y-54908956D01*
X107347691Y-54756688D01*
X107457222Y-54623222D01*
X107590687Y-54513691D01*
X107742955Y-54432301D01*
X107908176Y-54382182D01*
X108080000Y-54365259D01*
X108251823Y-54382182D01*
X108251823Y-54382182D01*
G37*
G36*
X110791823Y-54382182D02*
G01*
X110957044Y-54432301D01*
X111109312Y-54513691D01*
X111242778Y-54623222D01*
X111352309Y-54756687D01*
X111433699Y-54908955D01*
X111483818Y-55074176D01*
X111496500Y-55202940D01*
X111496500Y-55797060D01*
X111483818Y-55925824D01*
X111433699Y-56091045D01*
X111352309Y-56243313D01*
X111242778Y-56376778D01*
X111109313Y-56486309D01*
X110957045Y-56567699D01*
X110791824Y-56617818D01*
X110620000Y-56634741D01*
X110448177Y-56617818D01*
X110282956Y-56567699D01*
X110130688Y-56486309D01*
X109997223Y-56376778D01*
X109887692Y-56243313D01*
X109806301Y-56091045D01*
X109756182Y-55925824D01*
X109743500Y-55797060D01*
X109743500Y-55202941D01*
X109756182Y-55074177D01*
X109806301Y-54908956D01*
X109887691Y-54756688D01*
X109997222Y-54623222D01*
X110130687Y-54513691D01*
X110282955Y-54432301D01*
X110448176Y-54382182D01*
X110620000Y-54365259D01*
X110791823Y-54382182D01*
X110791823Y-54382182D01*
G37*
G36*
X113331823Y-54382182D02*
G01*
X113497044Y-54432301D01*
X113649312Y-54513691D01*
X113782778Y-54623222D01*
X113892309Y-54756687D01*
X113973699Y-54908955D01*
X114023818Y-55074176D01*
X114036500Y-55202940D01*
X114036500Y-55797060D01*
X114023818Y-55925824D01*
X113973699Y-56091045D01*
X113892309Y-56243313D01*
X113782778Y-56376778D01*
X113649313Y-56486309D01*
X113497045Y-56567699D01*
X113331824Y-56617818D01*
X113160000Y-56634741D01*
X112988177Y-56617818D01*
X112822956Y-56567699D01*
X112670688Y-56486309D01*
X112537223Y-56376778D01*
X112427692Y-56243313D01*
X112346301Y-56091045D01*
X112296182Y-55925824D01*
X112283500Y-55797060D01*
X112283500Y-55202941D01*
X112296182Y-55074177D01*
X112346301Y-54908956D01*
X112427691Y-54756688D01*
X112537222Y-54623222D01*
X112670687Y-54513691D01*
X112822955Y-54432301D01*
X112988176Y-54382182D01*
X113160000Y-54365259D01*
X113331823Y-54382182D01*
X113331823Y-54382182D01*
G37*
G36*
X115871823Y-54382182D02*
G01*
X116037044Y-54432301D01*
X116189312Y-54513691D01*
X116322778Y-54623222D01*
X116432309Y-54756687D01*
X116513699Y-54908955D01*
X116563818Y-55074176D01*
X116576500Y-55202940D01*
X116576500Y-55797060D01*
X116563818Y-55925824D01*
X116513699Y-56091045D01*
X116432309Y-56243313D01*
X116322778Y-56376778D01*
X116189313Y-56486309D01*
X116037045Y-56567699D01*
X115871824Y-56617818D01*
X115700000Y-56634741D01*
X115528177Y-56617818D01*
X115362956Y-56567699D01*
X115210688Y-56486309D01*
X115077223Y-56376778D01*
X114967692Y-56243313D01*
X114886301Y-56091045D01*
X114836182Y-55925824D01*
X114823500Y-55797060D01*
X114823500Y-55202941D01*
X114836182Y-55074177D01*
X114886301Y-54908956D01*
X114967691Y-54756688D01*
X115077222Y-54623222D01*
X115210687Y-54513691D01*
X115362955Y-54432301D01*
X115528176Y-54382182D01*
X115700000Y-54365259D01*
X115871823Y-54382182D01*
X115871823Y-54382182D01*
G37*
G36*
X118411823Y-54382182D02*
G01*
X118577044Y-54432301D01*
X118729312Y-54513691D01*
X118862778Y-54623222D01*
X118972309Y-54756687D01*
X119053699Y-54908955D01*
X119103818Y-55074176D01*
X119116500Y-55202940D01*
X119116500Y-55797060D01*
X119103818Y-55925824D01*
X119053699Y-56091045D01*
X118972309Y-56243313D01*
X118862778Y-56376778D01*
X118729313Y-56486309D01*
X118577045Y-56567699D01*
X118411824Y-56617818D01*
X118240000Y-56634741D01*
X118068177Y-56617818D01*
X117902956Y-56567699D01*
X117750688Y-56486309D01*
X117617223Y-56376778D01*
X117507692Y-56243313D01*
X117426301Y-56091045D01*
X117376182Y-55925824D01*
X117363500Y-55797060D01*
X117363500Y-55202941D01*
X117376182Y-55074177D01*
X117426301Y-54908956D01*
X117507691Y-54756688D01*
X117617222Y-54623222D01*
X117750687Y-54513691D01*
X117902955Y-54432301D01*
X118068176Y-54382182D01*
X118240000Y-54365259D01*
X118411823Y-54382182D01*
X118411823Y-54382182D01*
G37*
G36*
X120951823Y-54382182D02*
G01*
X121117044Y-54432301D01*
X121269312Y-54513691D01*
X121402778Y-54623222D01*
X121512309Y-54756687D01*
X121593699Y-54908955D01*
X121643818Y-55074176D01*
X121656500Y-55202940D01*
X121656500Y-55797060D01*
X121643818Y-55925824D01*
X121593699Y-56091045D01*
X121512309Y-56243313D01*
X121402778Y-56376778D01*
X121269313Y-56486309D01*
X121117045Y-56567699D01*
X120951824Y-56617818D01*
X120780000Y-56634741D01*
X120608177Y-56617818D01*
X120442956Y-56567699D01*
X120290688Y-56486309D01*
X120157223Y-56376778D01*
X120047692Y-56243313D01*
X119966301Y-56091045D01*
X119916182Y-55925824D01*
X119903500Y-55797060D01*
X119903500Y-55202941D01*
X119916182Y-55074177D01*
X119966301Y-54908956D01*
X120047691Y-54756688D01*
X120157222Y-54623222D01*
X120290687Y-54513691D01*
X120442955Y-54432301D01*
X120608176Y-54382182D01*
X120780000Y-54365259D01*
X120951823Y-54382182D01*
X120951823Y-54382182D01*
G37*
G36*
X126031823Y-54382182D02*
G01*
X126197044Y-54432301D01*
X126349312Y-54513691D01*
X126482778Y-54623222D01*
X126592309Y-54756687D01*
X126673699Y-54908955D01*
X126723818Y-55074176D01*
X126736500Y-55202940D01*
X126736500Y-55797060D01*
X126723818Y-55925824D01*
X126673699Y-56091045D01*
X126592309Y-56243313D01*
X126482778Y-56376778D01*
X126349313Y-56486309D01*
X126197045Y-56567699D01*
X126031824Y-56617818D01*
X125860000Y-56634741D01*
X125688177Y-56617818D01*
X125522956Y-56567699D01*
X125370688Y-56486309D01*
X125237223Y-56376778D01*
X125127692Y-56243313D01*
X125046301Y-56091045D01*
X124996182Y-55925824D01*
X124983500Y-55797060D01*
X124983500Y-55202941D01*
X124996182Y-55074177D01*
X125046301Y-54908956D01*
X125127691Y-54756688D01*
X125237222Y-54623222D01*
X125370687Y-54513691D01*
X125522955Y-54432301D01*
X125688176Y-54382182D01*
X125860000Y-54365259D01*
X126031823Y-54382182D01*
X126031823Y-54382182D01*
G37*
G36*
X131111823Y-54382182D02*
G01*
X131277044Y-54432301D01*
X131429312Y-54513691D01*
X131562778Y-54623222D01*
X131672309Y-54756687D01*
X131753699Y-54908955D01*
X131803818Y-55074176D01*
X131816500Y-55202940D01*
X131816500Y-55797060D01*
X131803818Y-55925824D01*
X131753699Y-56091045D01*
X131672309Y-56243313D01*
X131562778Y-56376778D01*
X131429313Y-56486309D01*
X131277045Y-56567699D01*
X131111824Y-56617818D01*
X130940000Y-56634741D01*
X130768177Y-56617818D01*
X130602956Y-56567699D01*
X130450688Y-56486309D01*
X130317223Y-56376778D01*
X130207692Y-56243313D01*
X130126301Y-56091045D01*
X130076182Y-55925824D01*
X130063500Y-55797060D01*
X130063500Y-55202941D01*
X130076182Y-55074177D01*
X130126301Y-54908956D01*
X130207691Y-54756688D01*
X130317222Y-54623222D01*
X130450687Y-54513691D01*
X130602955Y-54432301D01*
X130768176Y-54382182D01*
X130940000Y-54365259D01*
X131111823Y-54382182D01*
X131111823Y-54382182D01*
G37*
G36*
X136191823Y-54382182D02*
G01*
X136357044Y-54432301D01*
X136509312Y-54513691D01*
X136642778Y-54623222D01*
X136752309Y-54756687D01*
X136833699Y-54908955D01*
X136883818Y-55074176D01*
X136896500Y-55202940D01*
X136896500Y-55797060D01*
X136883818Y-55925824D01*
X136833699Y-56091045D01*
X136752309Y-56243313D01*
X136642778Y-56376778D01*
X136509313Y-56486309D01*
X136357045Y-56567699D01*
X136191824Y-56617818D01*
X136020000Y-56634741D01*
X135848177Y-56617818D01*
X135682956Y-56567699D01*
X135530688Y-56486309D01*
X135397223Y-56376778D01*
X135287692Y-56243313D01*
X135206301Y-56091045D01*
X135156182Y-55925824D01*
X135143500Y-55797060D01*
X135143500Y-55202941D01*
X135156182Y-55074177D01*
X135206301Y-54908956D01*
X135287691Y-54756688D01*
X135397222Y-54623222D01*
X135530687Y-54513691D01*
X135682955Y-54432301D01*
X135848176Y-54382182D01*
X136020000Y-54365259D01*
X136191823Y-54382182D01*
X136191823Y-54382182D01*
G37*
G36*
X141271823Y-54382182D02*
G01*
X141437044Y-54432301D01*
X141589312Y-54513691D01*
X141722778Y-54623222D01*
X141832309Y-54756687D01*
X141913699Y-54908955D01*
X141963818Y-55074176D01*
X141976500Y-55202940D01*
X141976500Y-55797060D01*
X141963818Y-55925824D01*
X141913699Y-56091045D01*
X141832309Y-56243313D01*
X141722778Y-56376778D01*
X141589313Y-56486309D01*
X141437045Y-56567699D01*
X141271824Y-56617818D01*
X141100000Y-56634741D01*
X140928177Y-56617818D01*
X140762956Y-56567699D01*
X140610688Y-56486309D01*
X140477223Y-56376778D01*
X140367692Y-56243313D01*
X140286301Y-56091045D01*
X140236182Y-55925824D01*
X140223500Y-55797060D01*
X140223500Y-55202941D01*
X140236182Y-55074177D01*
X140286301Y-54908956D01*
X140367691Y-54756688D01*
X140477222Y-54623222D01*
X140610687Y-54513691D01*
X140762955Y-54432301D01*
X140928176Y-54382182D01*
X141100000Y-54365259D01*
X141271823Y-54382182D01*
X141271823Y-54382182D01*
G37*
G36*
X123491823Y-54382182D02*
G01*
X123657044Y-54432301D01*
X123809312Y-54513691D01*
X123942778Y-54623222D01*
X124052309Y-54756687D01*
X124133699Y-54908955D01*
X124183818Y-55074176D01*
X124196500Y-55202940D01*
X124196500Y-55797060D01*
X124183818Y-55925824D01*
X124133699Y-56091045D01*
X124052309Y-56243313D01*
X123942778Y-56376778D01*
X123809313Y-56486309D01*
X123657045Y-56567699D01*
X123491824Y-56617818D01*
X123320000Y-56634741D01*
X123148177Y-56617818D01*
X122982956Y-56567699D01*
X122830688Y-56486309D01*
X122697223Y-56376778D01*
X122587692Y-56243313D01*
X122506301Y-56091045D01*
X122456182Y-55925824D01*
X122443500Y-55797060D01*
X122443500Y-55202941D01*
X122456182Y-55074177D01*
X122506301Y-54908956D01*
X122587691Y-54756688D01*
X122697222Y-54623222D01*
X122830687Y-54513691D01*
X122982955Y-54432301D01*
X123148176Y-54382182D01*
X123320000Y-54365259D01*
X123491823Y-54382182D01*
X123491823Y-54382182D01*
G37*
G36*
X103876500Y-56630500D02*
G01*
X102123500Y-56630500D01*
X102123500Y-54369500D01*
X103876500Y-54369500D01*
X103876500Y-56630500D01*
X103876500Y-56630500D01*
G37*
G36*
X173551000Y-56331000D02*
G01*
X171449000Y-56331000D01*
X171449000Y-55329000D01*
X173551000Y-55329000D01*
X173551000Y-56331000D01*
X173551000Y-56331000D01*
G37*
G36*
X156551000Y-56331000D02*
G01*
X154449000Y-56331000D01*
X154449000Y-55329000D01*
X156551000Y-55329000D01*
X156551000Y-56331000D01*
X156551000Y-56331000D01*
G37*
G36*
X100464795Y-50920156D02*
G01*
X100571150Y-50941311D01*
X100671334Y-50982809D01*
X100771520Y-51024307D01*
X100951844Y-51144795D01*
X101105205Y-51298156D01*
X101225693Y-51478480D01*
X101308689Y-51678851D01*
X101351000Y-51891560D01*
X101351000Y-52108440D01*
X101308689Y-52321149D01*
X101225693Y-52521520D01*
X101105205Y-52701844D01*
X100951844Y-52855205D01*
X100771520Y-52975693D01*
X100671334Y-53017191D01*
X100571150Y-53058689D01*
X100464794Y-53079845D01*
X100358440Y-53101000D01*
X100141560Y-53101000D01*
X100035206Y-53079845D01*
X99928850Y-53058689D01*
X99728480Y-52975693D01*
X99548156Y-52855205D01*
X99394795Y-52701844D01*
X99274307Y-52521520D01*
X99191311Y-52321149D01*
X99149000Y-52108440D01*
X99149000Y-51891560D01*
X99191311Y-51678851D01*
X99274307Y-51478480D01*
X99394795Y-51298156D01*
X99548156Y-51144795D01*
X99728480Y-51024307D01*
X99928850Y-50941311D01*
X100035205Y-50920156D01*
X100141560Y-50899000D01*
X100358440Y-50899000D01*
X100464795Y-50920156D01*
X100464795Y-50920156D01*
G37*
G36*
X204214795Y-50920156D02*
G01*
X204321150Y-50941311D01*
X204421334Y-50982809D01*
X204521520Y-51024307D01*
X204701844Y-51144795D01*
X204855205Y-51298156D01*
X204975693Y-51478480D01*
X205058689Y-51678851D01*
X205101000Y-51891560D01*
X205101000Y-52108440D01*
X205058689Y-52321149D01*
X204975693Y-52521520D01*
X204855205Y-52701844D01*
X204701844Y-52855205D01*
X204521520Y-52975693D01*
X204421334Y-53017191D01*
X204321150Y-53058689D01*
X204214794Y-53079845D01*
X204108440Y-53101000D01*
X203891560Y-53101000D01*
X203785206Y-53079845D01*
X203678850Y-53058689D01*
X203478480Y-52975693D01*
X203298156Y-52855205D01*
X203144795Y-52701844D01*
X203024307Y-52521520D01*
X202941311Y-52321149D01*
X202899000Y-52108440D01*
X202899000Y-51891560D01*
X202941311Y-51678851D01*
X203024307Y-51478480D01*
X203144795Y-51298156D01*
X203298156Y-51144795D01*
X203478480Y-51024307D01*
X203678850Y-50941311D01*
X203785205Y-50920156D01*
X203891560Y-50899000D01*
X204108440Y-50899000D01*
X204214795Y-50920156D01*
X204214795Y-50920156D01*
G37*
M02*
