G04 #@! TF.GenerationSoftware,KiCad,Pcbnew,5.1.2-f72e74a~84~ubuntu18.04.1*
G04 #@! TF.CreationDate,2019-08-20T01:18:15+05:30*
G04 #@! TF.ProjectId,ESP32_MESSAGE_DISPLAY,45535033-325f-44d4-9553-534147455f44,1.0*
G04 #@! TF.SameCoordinates,Original*
G04 #@! TF.FileFunction,Soldermask,Top*
G04 #@! TF.FilePolarity,Negative*
%FSLAX46Y46*%
G04 Gerber Fmt 4.6, Leading zero omitted, Abs format (unit mm)*
G04 Created by KiCad (PCBNEW 5.1.2-f72e74a~84~ubuntu18.04.1) date 2019-08-20 01:18:15*
%MOMM*%
%LPD*%
G04 APERTURE LIST*
%ADD10C,0.100000*%
G04 APERTURE END LIST*
D10*
G36*
X204214795Y-124920156D02*
G01*
X204321150Y-124941311D01*
X204421334Y-124982809D01*
X204521520Y-125024307D01*
X204701844Y-125144795D01*
X204855205Y-125298156D01*
X204975693Y-125478480D01*
X205058689Y-125678851D01*
X205101000Y-125891560D01*
X205101000Y-126108440D01*
X205058689Y-126321149D01*
X204975693Y-126521520D01*
X204855205Y-126701844D01*
X204701844Y-126855205D01*
X204521520Y-126975693D01*
X204321150Y-127058689D01*
X204214794Y-127079845D01*
X204108440Y-127101000D01*
X203891560Y-127101000D01*
X203785206Y-127079845D01*
X203678850Y-127058689D01*
X203478480Y-126975693D01*
X203298156Y-126855205D01*
X203144795Y-126701844D01*
X203024307Y-126521520D01*
X202941311Y-126321149D01*
X202899000Y-126108440D01*
X202899000Y-125891560D01*
X202941311Y-125678851D01*
X203024307Y-125478480D01*
X203144795Y-125298156D01*
X203298156Y-125144795D01*
X203478480Y-125024307D01*
X203578666Y-124982809D01*
X203678850Y-124941311D01*
X203785205Y-124920156D01*
X203891560Y-124899000D01*
X204108440Y-124899000D01*
X204214795Y-124920156D01*
X204214795Y-124920156D01*
G37*
G36*
X95214795Y-124920156D02*
G01*
X95321150Y-124941311D01*
X95421334Y-124982809D01*
X95521520Y-125024307D01*
X95701844Y-125144795D01*
X95855205Y-125298156D01*
X95975693Y-125478480D01*
X96058689Y-125678851D01*
X96101000Y-125891560D01*
X96101000Y-126108440D01*
X96058689Y-126321149D01*
X95975693Y-126521520D01*
X95855205Y-126701844D01*
X95701844Y-126855205D01*
X95521520Y-126975693D01*
X95321150Y-127058689D01*
X95214794Y-127079845D01*
X95108440Y-127101000D01*
X94891560Y-127101000D01*
X94785206Y-127079845D01*
X94678850Y-127058689D01*
X94478480Y-126975693D01*
X94298156Y-126855205D01*
X94144795Y-126701844D01*
X94024307Y-126521520D01*
X93941311Y-126321149D01*
X93899000Y-126108440D01*
X93899000Y-125891560D01*
X93941311Y-125678851D01*
X94024307Y-125478480D01*
X94144795Y-125298156D01*
X94298156Y-125144795D01*
X94478480Y-125024307D01*
X94578666Y-124982809D01*
X94678850Y-124941311D01*
X94785205Y-124920156D01*
X94891560Y-124899000D01*
X95108440Y-124899000D01*
X95214795Y-124920156D01*
X95214795Y-124920156D01*
G37*
G36*
X178409472Y-122708412D02*
G01*
X178505040Y-122717825D01*
X178750280Y-122792218D01*
X178976294Y-122913025D01*
X179027899Y-122955376D01*
X179174397Y-123075603D01*
X179294624Y-123222101D01*
X179336975Y-123273706D01*
X179457782Y-123499720D01*
X179532175Y-123744960D01*
X179557294Y-124000000D01*
X179532175Y-124255040D01*
X179457782Y-124500280D01*
X179336975Y-124726294D01*
X179294624Y-124777899D01*
X179174397Y-124924397D01*
X179052655Y-125024307D01*
X178976294Y-125086975D01*
X178750280Y-125207782D01*
X178505040Y-125282175D01*
X178409472Y-125291588D01*
X178313906Y-125301000D01*
X177686094Y-125301000D01*
X177590528Y-125291588D01*
X177494960Y-125282175D01*
X177249720Y-125207782D01*
X177023706Y-125086975D01*
X176947345Y-125024307D01*
X176825603Y-124924397D01*
X176705376Y-124777899D01*
X176663025Y-124726294D01*
X176542218Y-124500280D01*
X176467825Y-124255040D01*
X176442706Y-124000000D01*
X176467825Y-123744960D01*
X176542218Y-123499720D01*
X176663025Y-123273706D01*
X176705376Y-123222101D01*
X176825603Y-123075603D01*
X176972101Y-122955376D01*
X177023706Y-122913025D01*
X177249720Y-122792218D01*
X177494960Y-122717825D01*
X177590528Y-122708412D01*
X177686094Y-122699000D01*
X178313906Y-122699000D01*
X178409472Y-122708412D01*
X178409472Y-122708412D01*
G37*
G36*
X165909472Y-122708412D02*
G01*
X166005040Y-122717825D01*
X166250280Y-122792218D01*
X166476294Y-122913025D01*
X166527899Y-122955376D01*
X166674397Y-123075603D01*
X166794624Y-123222101D01*
X166836975Y-123273706D01*
X166957782Y-123499720D01*
X167032175Y-123744960D01*
X167057294Y-124000000D01*
X167032175Y-124255040D01*
X166957782Y-124500280D01*
X166836975Y-124726294D01*
X166794624Y-124777899D01*
X166674397Y-124924397D01*
X166552655Y-125024307D01*
X166476294Y-125086975D01*
X166250280Y-125207782D01*
X166005040Y-125282175D01*
X165909472Y-125291588D01*
X165813906Y-125301000D01*
X165186094Y-125301000D01*
X165090528Y-125291588D01*
X164994960Y-125282175D01*
X164749720Y-125207782D01*
X164523706Y-125086975D01*
X164447345Y-125024307D01*
X164325603Y-124924397D01*
X164205376Y-124777899D01*
X164163025Y-124726294D01*
X164042218Y-124500280D01*
X163967825Y-124255040D01*
X163942706Y-124000000D01*
X163967825Y-123744960D01*
X164042218Y-123499720D01*
X164163025Y-123273706D01*
X164205376Y-123222101D01*
X164325603Y-123075603D01*
X164472101Y-122955376D01*
X164523706Y-122913025D01*
X164749720Y-122792218D01*
X164994960Y-122717825D01*
X165090528Y-122708412D01*
X165186094Y-122699000D01*
X165813906Y-122699000D01*
X165909472Y-122708412D01*
X165909472Y-122708412D01*
G37*
G36*
X106909472Y-122708412D02*
G01*
X107005040Y-122717825D01*
X107250280Y-122792218D01*
X107476294Y-122913025D01*
X107527899Y-122955376D01*
X107674397Y-123075603D01*
X107794624Y-123222101D01*
X107836975Y-123273706D01*
X107957782Y-123499720D01*
X108032175Y-123744960D01*
X108057294Y-124000000D01*
X108032175Y-124255040D01*
X107957782Y-124500280D01*
X107836975Y-124726294D01*
X107794624Y-124777899D01*
X107674397Y-124924397D01*
X107552655Y-125024307D01*
X107476294Y-125086975D01*
X107250280Y-125207782D01*
X107005040Y-125282175D01*
X106909472Y-125291588D01*
X106813906Y-125301000D01*
X106186094Y-125301000D01*
X106090528Y-125291588D01*
X105994960Y-125282175D01*
X105749720Y-125207782D01*
X105523706Y-125086975D01*
X105447345Y-125024307D01*
X105325603Y-124924397D01*
X105205376Y-124777899D01*
X105163025Y-124726294D01*
X105042218Y-124500280D01*
X104967825Y-124255040D01*
X104942706Y-124000000D01*
X104967825Y-123744960D01*
X105042218Y-123499720D01*
X105163025Y-123273706D01*
X105205376Y-123222101D01*
X105325603Y-123075603D01*
X105472101Y-122955376D01*
X105523706Y-122913025D01*
X105749720Y-122792218D01*
X105994960Y-122717825D01*
X106090528Y-122708412D01*
X106186094Y-122699000D01*
X106813906Y-122699000D01*
X106909472Y-122708412D01*
X106909472Y-122708412D01*
G37*
G36*
X119409472Y-122708412D02*
G01*
X119505040Y-122717825D01*
X119750280Y-122792218D01*
X119976294Y-122913025D01*
X120027899Y-122955376D01*
X120174397Y-123075603D01*
X120294624Y-123222101D01*
X120336975Y-123273706D01*
X120457782Y-123499720D01*
X120532175Y-123744960D01*
X120557294Y-124000000D01*
X120532175Y-124255040D01*
X120457782Y-124500280D01*
X120336975Y-124726294D01*
X120294624Y-124777899D01*
X120174397Y-124924397D01*
X120052655Y-125024307D01*
X119976294Y-125086975D01*
X119750280Y-125207782D01*
X119505040Y-125282175D01*
X119409472Y-125291588D01*
X119313906Y-125301000D01*
X118686094Y-125301000D01*
X118590528Y-125291588D01*
X118494960Y-125282175D01*
X118249720Y-125207782D01*
X118023706Y-125086975D01*
X117947345Y-125024307D01*
X117825603Y-124924397D01*
X117705376Y-124777899D01*
X117663025Y-124726294D01*
X117542218Y-124500280D01*
X117467825Y-124255040D01*
X117442706Y-124000000D01*
X117467825Y-123744960D01*
X117542218Y-123499720D01*
X117663025Y-123273706D01*
X117705376Y-123222101D01*
X117825603Y-123075603D01*
X117972101Y-122955376D01*
X118023706Y-122913025D01*
X118249720Y-122792218D01*
X118494960Y-122717825D01*
X118590528Y-122708412D01*
X118686094Y-122699000D01*
X119313906Y-122699000D01*
X119409472Y-122708412D01*
X119409472Y-122708412D01*
G37*
G36*
X205246968Y-120003565D02*
G01*
X205285638Y-120015296D01*
X205321277Y-120034346D01*
X205352517Y-120059983D01*
X205378154Y-120091223D01*
X205397204Y-120126862D01*
X205408935Y-120165532D01*
X205413500Y-120211888D01*
X205413500Y-121288112D01*
X205408935Y-121334468D01*
X205397204Y-121373138D01*
X205378154Y-121408777D01*
X205352517Y-121440017D01*
X205321277Y-121465654D01*
X205285638Y-121484704D01*
X205246968Y-121496435D01*
X205200612Y-121501000D01*
X204549388Y-121501000D01*
X204503032Y-121496435D01*
X204464362Y-121484704D01*
X204428723Y-121465654D01*
X204397483Y-121440017D01*
X204371846Y-121408777D01*
X204352796Y-121373138D01*
X204341065Y-121334468D01*
X204336500Y-121288112D01*
X204336500Y-120211888D01*
X204341065Y-120165532D01*
X204352796Y-120126862D01*
X204371846Y-120091223D01*
X204397483Y-120059983D01*
X204428723Y-120034346D01*
X204464362Y-120015296D01*
X204503032Y-120003565D01*
X204549388Y-119999000D01*
X205200612Y-119999000D01*
X205246968Y-120003565D01*
X205246968Y-120003565D01*
G37*
G36*
X203371968Y-120003565D02*
G01*
X203410638Y-120015296D01*
X203446277Y-120034346D01*
X203477517Y-120059983D01*
X203503154Y-120091223D01*
X203522204Y-120126862D01*
X203533935Y-120165532D01*
X203538500Y-120211888D01*
X203538500Y-121288112D01*
X203533935Y-121334468D01*
X203522204Y-121373138D01*
X203503154Y-121408777D01*
X203477517Y-121440017D01*
X203446277Y-121465654D01*
X203410638Y-121484704D01*
X203371968Y-121496435D01*
X203325612Y-121501000D01*
X202674388Y-121501000D01*
X202628032Y-121496435D01*
X202589362Y-121484704D01*
X202553723Y-121465654D01*
X202522483Y-121440017D01*
X202496846Y-121408777D01*
X202477796Y-121373138D01*
X202466065Y-121334468D01*
X202461500Y-121288112D01*
X202461500Y-120211888D01*
X202466065Y-120165532D01*
X202477796Y-120126862D01*
X202496846Y-120091223D01*
X202522483Y-120059983D01*
X202553723Y-120034346D01*
X202589362Y-120015296D01*
X202628032Y-120003565D01*
X202674388Y-119999000D01*
X203325612Y-119999000D01*
X203371968Y-120003565D01*
X203371968Y-120003565D01*
G37*
G36*
X196151000Y-121051000D02*
G01*
X194049000Y-121051000D01*
X194049000Y-119849000D01*
X196151000Y-119849000D01*
X196151000Y-121051000D01*
X196151000Y-121051000D01*
G37*
G36*
X200951000Y-121051000D02*
G01*
X198849000Y-121051000D01*
X198849000Y-119849000D01*
X200951000Y-119849000D01*
X200951000Y-121051000D01*
X200951000Y-121051000D01*
G37*
G36*
X165909472Y-117708412D02*
G01*
X166005040Y-117717825D01*
X166250280Y-117792218D01*
X166476294Y-117913025D01*
X166527899Y-117955376D01*
X166674397Y-118075603D01*
X166786242Y-118211888D01*
X166836975Y-118273706D01*
X166957782Y-118499720D01*
X167032175Y-118744960D01*
X167057294Y-119000000D01*
X167032175Y-119255040D01*
X166957782Y-119500280D01*
X166836975Y-119726294D01*
X166816699Y-119751000D01*
X166674397Y-119924397D01*
X166540422Y-120034346D01*
X166476294Y-120086975D01*
X166250280Y-120207782D01*
X166005040Y-120282175D01*
X165909473Y-120291587D01*
X165813906Y-120301000D01*
X165186094Y-120301000D01*
X165090527Y-120291587D01*
X164994960Y-120282175D01*
X164749720Y-120207782D01*
X164523706Y-120086975D01*
X164459578Y-120034346D01*
X164325603Y-119924397D01*
X164183301Y-119751000D01*
X164163025Y-119726294D01*
X164042218Y-119500280D01*
X163967825Y-119255040D01*
X163942706Y-119000000D01*
X163967825Y-118744960D01*
X164042218Y-118499720D01*
X164163025Y-118273706D01*
X164213758Y-118211888D01*
X164325603Y-118075603D01*
X164472101Y-117955376D01*
X164523706Y-117913025D01*
X164749720Y-117792218D01*
X164994960Y-117717825D01*
X165090528Y-117708412D01*
X165186094Y-117699000D01*
X165813906Y-117699000D01*
X165909472Y-117708412D01*
X165909472Y-117708412D01*
G37*
G36*
X178409472Y-117708412D02*
G01*
X178505040Y-117717825D01*
X178750280Y-117792218D01*
X178976294Y-117913025D01*
X179027899Y-117955376D01*
X179174397Y-118075603D01*
X179286242Y-118211888D01*
X179336975Y-118273706D01*
X179457782Y-118499720D01*
X179532175Y-118744960D01*
X179557294Y-119000000D01*
X179532175Y-119255040D01*
X179457782Y-119500280D01*
X179336975Y-119726294D01*
X179316699Y-119751000D01*
X179174397Y-119924397D01*
X179040422Y-120034346D01*
X178976294Y-120086975D01*
X178750280Y-120207782D01*
X178505040Y-120282175D01*
X178409473Y-120291587D01*
X178313906Y-120301000D01*
X177686094Y-120301000D01*
X177590527Y-120291587D01*
X177494960Y-120282175D01*
X177249720Y-120207782D01*
X177023706Y-120086975D01*
X176959578Y-120034346D01*
X176825603Y-119924397D01*
X176683301Y-119751000D01*
X176663025Y-119726294D01*
X176542218Y-119500280D01*
X176467825Y-119255040D01*
X176442706Y-119000000D01*
X176467825Y-118744960D01*
X176542218Y-118499720D01*
X176663025Y-118273706D01*
X176713758Y-118211888D01*
X176825603Y-118075603D01*
X176972101Y-117955376D01*
X177023706Y-117913025D01*
X177249720Y-117792218D01*
X177494960Y-117717825D01*
X177590528Y-117708412D01*
X177686094Y-117699000D01*
X178313906Y-117699000D01*
X178409472Y-117708412D01*
X178409472Y-117708412D01*
G37*
G36*
X119409472Y-117708412D02*
G01*
X119505040Y-117717825D01*
X119750280Y-117792218D01*
X119976294Y-117913025D01*
X120027899Y-117955376D01*
X120174397Y-118075603D01*
X120286242Y-118211888D01*
X120336975Y-118273706D01*
X120457782Y-118499720D01*
X120532175Y-118744960D01*
X120557294Y-119000000D01*
X120532175Y-119255040D01*
X120457782Y-119500280D01*
X120336975Y-119726294D01*
X120316699Y-119751000D01*
X120174397Y-119924397D01*
X120040422Y-120034346D01*
X119976294Y-120086975D01*
X119750280Y-120207782D01*
X119505040Y-120282175D01*
X119409473Y-120291587D01*
X119313906Y-120301000D01*
X118686094Y-120301000D01*
X118590527Y-120291587D01*
X118494960Y-120282175D01*
X118249720Y-120207782D01*
X118023706Y-120086975D01*
X117959578Y-120034346D01*
X117825603Y-119924397D01*
X117683301Y-119751000D01*
X117663025Y-119726294D01*
X117542218Y-119500280D01*
X117467825Y-119255040D01*
X117442706Y-119000000D01*
X117467825Y-118744960D01*
X117542218Y-118499720D01*
X117663025Y-118273706D01*
X117713758Y-118211888D01*
X117825603Y-118075603D01*
X117972101Y-117955376D01*
X118023706Y-117913025D01*
X118249720Y-117792218D01*
X118494960Y-117717825D01*
X118590528Y-117708412D01*
X118686094Y-117699000D01*
X119313906Y-117699000D01*
X119409472Y-117708412D01*
X119409472Y-117708412D01*
G37*
G36*
X106909472Y-117708412D02*
G01*
X107005040Y-117717825D01*
X107250280Y-117792218D01*
X107476294Y-117913025D01*
X107527899Y-117955376D01*
X107674397Y-118075603D01*
X107786242Y-118211888D01*
X107836975Y-118273706D01*
X107957782Y-118499720D01*
X108032175Y-118744960D01*
X108057294Y-119000000D01*
X108032175Y-119255040D01*
X107957782Y-119500280D01*
X107836975Y-119726294D01*
X107816699Y-119751000D01*
X107674397Y-119924397D01*
X107540422Y-120034346D01*
X107476294Y-120086975D01*
X107250280Y-120207782D01*
X107005040Y-120282175D01*
X106909473Y-120291587D01*
X106813906Y-120301000D01*
X106186094Y-120301000D01*
X106090527Y-120291587D01*
X105994960Y-120282175D01*
X105749720Y-120207782D01*
X105523706Y-120086975D01*
X105459578Y-120034346D01*
X105325603Y-119924397D01*
X105183301Y-119751000D01*
X105163025Y-119726294D01*
X105042218Y-119500280D01*
X104967825Y-119255040D01*
X104942706Y-119000000D01*
X104967825Y-118744960D01*
X105042218Y-118499720D01*
X105163025Y-118273706D01*
X105213758Y-118211888D01*
X105325603Y-118075603D01*
X105472101Y-117955376D01*
X105523706Y-117913025D01*
X105749720Y-117792218D01*
X105994960Y-117717825D01*
X106090528Y-117708412D01*
X106186094Y-117699000D01*
X106813906Y-117699000D01*
X106909472Y-117708412D01*
X106909472Y-117708412D01*
G37*
G36*
X184371968Y-118253565D02*
G01*
X184410638Y-118265296D01*
X184446277Y-118284346D01*
X184477517Y-118309983D01*
X184503154Y-118341223D01*
X184522204Y-118376862D01*
X184533935Y-118415532D01*
X184538500Y-118461888D01*
X184538500Y-119538112D01*
X184533935Y-119584468D01*
X184522204Y-119623138D01*
X184503154Y-119658777D01*
X184477517Y-119690017D01*
X184446277Y-119715654D01*
X184410638Y-119734704D01*
X184371968Y-119746435D01*
X184325612Y-119751000D01*
X183674388Y-119751000D01*
X183628032Y-119746435D01*
X183589362Y-119734704D01*
X183553723Y-119715654D01*
X183522483Y-119690017D01*
X183496846Y-119658777D01*
X183477796Y-119623138D01*
X183466065Y-119584468D01*
X183461500Y-119538112D01*
X183461500Y-118461888D01*
X183466065Y-118415532D01*
X183477796Y-118376862D01*
X183496846Y-118341223D01*
X183522483Y-118309983D01*
X183553723Y-118284346D01*
X183589362Y-118265296D01*
X183628032Y-118253565D01*
X183674388Y-118249000D01*
X184325612Y-118249000D01*
X184371968Y-118253565D01*
X184371968Y-118253565D01*
G37*
G36*
X182496968Y-118253565D02*
G01*
X182535638Y-118265296D01*
X182571277Y-118284346D01*
X182602517Y-118309983D01*
X182628154Y-118341223D01*
X182647204Y-118376862D01*
X182658935Y-118415532D01*
X182663500Y-118461888D01*
X182663500Y-119538112D01*
X182658935Y-119584468D01*
X182647204Y-119623138D01*
X182628154Y-119658777D01*
X182602517Y-119690017D01*
X182571277Y-119715654D01*
X182535638Y-119734704D01*
X182496968Y-119746435D01*
X182450612Y-119751000D01*
X181799388Y-119751000D01*
X181753032Y-119746435D01*
X181714362Y-119734704D01*
X181678723Y-119715654D01*
X181647483Y-119690017D01*
X181621846Y-119658777D01*
X181602796Y-119623138D01*
X181591065Y-119584468D01*
X181586500Y-119538112D01*
X181586500Y-118461888D01*
X181591065Y-118415532D01*
X181602796Y-118376862D01*
X181621846Y-118341223D01*
X181647483Y-118309983D01*
X181678723Y-118284346D01*
X181714362Y-118265296D01*
X181753032Y-118253565D01*
X181799388Y-118249000D01*
X182450612Y-118249000D01*
X182496968Y-118253565D01*
X182496968Y-118253565D01*
G37*
G36*
X124084468Y-118566065D02*
G01*
X124123138Y-118577796D01*
X124158777Y-118596846D01*
X124190017Y-118622483D01*
X124215654Y-118653723D01*
X124234704Y-118689362D01*
X124246435Y-118728032D01*
X124251000Y-118774388D01*
X124251000Y-119425612D01*
X124246435Y-119471968D01*
X124234704Y-119510638D01*
X124215654Y-119546277D01*
X124190017Y-119577517D01*
X124158777Y-119603154D01*
X124123138Y-119622204D01*
X124084468Y-119633935D01*
X124038112Y-119638500D01*
X122961888Y-119638500D01*
X122915532Y-119633935D01*
X122876862Y-119622204D01*
X122841223Y-119603154D01*
X122809983Y-119577517D01*
X122784346Y-119546277D01*
X122765296Y-119510638D01*
X122753565Y-119471968D01*
X122749000Y-119425612D01*
X122749000Y-118774388D01*
X122753565Y-118728032D01*
X122765296Y-118689362D01*
X122784346Y-118653723D01*
X122809983Y-118622483D01*
X122841223Y-118596846D01*
X122876862Y-118577796D01*
X122915532Y-118566065D01*
X122961888Y-118561500D01*
X124038112Y-118561500D01*
X124084468Y-118566065D01*
X124084468Y-118566065D01*
G37*
G36*
X203371968Y-118003565D02*
G01*
X203410638Y-118015296D01*
X203446277Y-118034346D01*
X203477517Y-118059983D01*
X203503154Y-118091223D01*
X203522204Y-118126862D01*
X203533935Y-118165532D01*
X203538500Y-118211888D01*
X203538500Y-119288112D01*
X203533935Y-119334468D01*
X203522204Y-119373138D01*
X203503154Y-119408777D01*
X203477517Y-119440017D01*
X203446277Y-119465654D01*
X203410638Y-119484704D01*
X203371968Y-119496435D01*
X203325612Y-119501000D01*
X202674388Y-119501000D01*
X202628032Y-119496435D01*
X202589362Y-119484704D01*
X202553723Y-119465654D01*
X202522483Y-119440017D01*
X202496846Y-119408777D01*
X202477796Y-119373138D01*
X202466065Y-119334468D01*
X202461500Y-119288112D01*
X202461500Y-118211888D01*
X202466065Y-118165532D01*
X202477796Y-118126862D01*
X202496846Y-118091223D01*
X202522483Y-118059983D01*
X202553723Y-118034346D01*
X202589362Y-118015296D01*
X202628032Y-118003565D01*
X202674388Y-117999000D01*
X203325612Y-117999000D01*
X203371968Y-118003565D01*
X203371968Y-118003565D01*
G37*
G36*
X205246968Y-118003565D02*
G01*
X205285638Y-118015296D01*
X205321277Y-118034346D01*
X205352517Y-118059983D01*
X205378154Y-118091223D01*
X205397204Y-118126862D01*
X205408935Y-118165532D01*
X205413500Y-118211888D01*
X205413500Y-119288112D01*
X205408935Y-119334468D01*
X205397204Y-119373138D01*
X205378154Y-119408777D01*
X205352517Y-119440017D01*
X205321277Y-119465654D01*
X205285638Y-119484704D01*
X205246968Y-119496435D01*
X205200612Y-119501000D01*
X204549388Y-119501000D01*
X204503032Y-119496435D01*
X204464362Y-119484704D01*
X204428723Y-119465654D01*
X204397483Y-119440017D01*
X204371846Y-119408777D01*
X204352796Y-119373138D01*
X204341065Y-119334468D01*
X204336500Y-119288112D01*
X204336500Y-118211888D01*
X204341065Y-118165532D01*
X204352796Y-118126862D01*
X204371846Y-118091223D01*
X204397483Y-118059983D01*
X204428723Y-118034346D01*
X204464362Y-118015296D01*
X204503032Y-118003565D01*
X204549388Y-117999000D01*
X205200612Y-117999000D01*
X205246968Y-118003565D01*
X205246968Y-118003565D01*
G37*
G36*
X196151000Y-119351000D02*
G01*
X194049000Y-119351000D01*
X194049000Y-118149000D01*
X196151000Y-118149000D01*
X196151000Y-119351000D01*
X196151000Y-119351000D01*
G37*
G36*
X200951000Y-119351000D02*
G01*
X198849000Y-119351000D01*
X198849000Y-118149000D01*
X200951000Y-118149000D01*
X200951000Y-119351000D01*
X200951000Y-119351000D01*
G37*
G36*
X124084468Y-116691065D02*
G01*
X124123138Y-116702796D01*
X124158777Y-116721846D01*
X124190017Y-116747483D01*
X124215654Y-116778723D01*
X124234704Y-116814362D01*
X124246435Y-116853032D01*
X124251000Y-116899388D01*
X124251000Y-117550612D01*
X124246435Y-117596968D01*
X124234704Y-117635638D01*
X124215654Y-117671277D01*
X124190017Y-117702517D01*
X124158777Y-117728154D01*
X124123138Y-117747204D01*
X124084468Y-117758935D01*
X124038112Y-117763500D01*
X122961888Y-117763500D01*
X122915532Y-117758935D01*
X122876862Y-117747204D01*
X122841223Y-117728154D01*
X122809983Y-117702517D01*
X122784346Y-117671277D01*
X122765296Y-117635638D01*
X122753565Y-117596968D01*
X122749000Y-117550612D01*
X122749000Y-116899388D01*
X122753565Y-116853032D01*
X122765296Y-116814362D01*
X122784346Y-116778723D01*
X122809983Y-116747483D01*
X122841223Y-116721846D01*
X122876862Y-116702796D01*
X122915532Y-116691065D01*
X122961888Y-116686500D01*
X124038112Y-116686500D01*
X124084468Y-116691065D01*
X124084468Y-116691065D01*
G37*
G36*
X196151000Y-117651000D02*
G01*
X194049000Y-117651000D01*
X194049000Y-116449000D01*
X196151000Y-116449000D01*
X196151000Y-117651000D01*
X196151000Y-117651000D01*
G37*
G36*
X200951000Y-117651000D02*
G01*
X198849000Y-117651000D01*
X198849000Y-116449000D01*
X200951000Y-116449000D01*
X200951000Y-117651000D01*
X200951000Y-117651000D01*
G37*
G36*
X205246968Y-116003565D02*
G01*
X205285638Y-116015296D01*
X205321277Y-116034346D01*
X205352517Y-116059983D01*
X205378154Y-116091223D01*
X205397204Y-116126862D01*
X205408935Y-116165532D01*
X205413500Y-116211888D01*
X205413500Y-117288112D01*
X205408935Y-117334468D01*
X205397204Y-117373138D01*
X205378154Y-117408777D01*
X205352517Y-117440017D01*
X205321277Y-117465654D01*
X205285638Y-117484704D01*
X205246968Y-117496435D01*
X205200612Y-117501000D01*
X204549388Y-117501000D01*
X204503032Y-117496435D01*
X204464362Y-117484704D01*
X204428723Y-117465654D01*
X204397483Y-117440017D01*
X204371846Y-117408777D01*
X204352796Y-117373138D01*
X204341065Y-117334468D01*
X204336500Y-117288112D01*
X204336500Y-116211888D01*
X204341065Y-116165532D01*
X204352796Y-116126862D01*
X204371846Y-116091223D01*
X204397483Y-116059983D01*
X204428723Y-116034346D01*
X204464362Y-116015296D01*
X204503032Y-116003565D01*
X204549388Y-115999000D01*
X205200612Y-115999000D01*
X205246968Y-116003565D01*
X205246968Y-116003565D01*
G37*
G36*
X203371968Y-116003565D02*
G01*
X203410638Y-116015296D01*
X203446277Y-116034346D01*
X203477517Y-116059983D01*
X203503154Y-116091223D01*
X203522204Y-116126862D01*
X203533935Y-116165532D01*
X203538500Y-116211888D01*
X203538500Y-117288112D01*
X203533935Y-117334468D01*
X203522204Y-117373138D01*
X203503154Y-117408777D01*
X203477517Y-117440017D01*
X203446277Y-117465654D01*
X203410638Y-117484704D01*
X203371968Y-117496435D01*
X203325612Y-117501000D01*
X202674388Y-117501000D01*
X202628032Y-117496435D01*
X202589362Y-117484704D01*
X202553723Y-117465654D01*
X202522483Y-117440017D01*
X202496846Y-117408777D01*
X202477796Y-117373138D01*
X202466065Y-117334468D01*
X202461500Y-117288112D01*
X202461500Y-116211888D01*
X202466065Y-116165532D01*
X202477796Y-116126862D01*
X202496846Y-116091223D01*
X202522483Y-116059983D01*
X202553723Y-116034346D01*
X202589362Y-116015296D01*
X202628032Y-116003565D01*
X202674388Y-115999000D01*
X203325612Y-115999000D01*
X203371968Y-116003565D01*
X203371968Y-116003565D01*
G37*
G36*
X189244098Y-108047033D02*
G01*
X189708350Y-108239332D01*
X189708352Y-108239333D01*
X190126168Y-108518509D01*
X190481491Y-108873832D01*
X190760667Y-109291648D01*
X190760668Y-109291650D01*
X190952967Y-109755902D01*
X191051000Y-110248747D01*
X191051000Y-110751253D01*
X190952967Y-111244098D01*
X190937250Y-111282042D01*
X190760667Y-111708352D01*
X190481491Y-112126168D01*
X190126168Y-112481491D01*
X189708352Y-112760667D01*
X189708351Y-112760668D01*
X189708350Y-112760668D01*
X189244098Y-112952967D01*
X188751253Y-113051000D01*
X188248747Y-113051000D01*
X187755902Y-112952967D01*
X187291650Y-112760668D01*
X187291649Y-112760668D01*
X187291648Y-112760667D01*
X186873832Y-112481491D01*
X186518509Y-112126168D01*
X186239333Y-111708352D01*
X186062750Y-111282042D01*
X186047033Y-111244098D01*
X185949000Y-110751253D01*
X185949000Y-110248747D01*
X186047033Y-109755902D01*
X186239332Y-109291650D01*
X186239333Y-109291648D01*
X186518509Y-108873832D01*
X186873832Y-108518509D01*
X187291648Y-108239333D01*
X187291650Y-108239332D01*
X187755902Y-108047033D01*
X188248747Y-107949000D01*
X188751253Y-107949000D01*
X189244098Y-108047033D01*
X189244098Y-108047033D01*
G37*
G36*
X96244098Y-108047033D02*
G01*
X96708350Y-108239332D01*
X96708352Y-108239333D01*
X97126168Y-108518509D01*
X97481491Y-108873832D01*
X97760667Y-109291648D01*
X97760668Y-109291650D01*
X97952967Y-109755902D01*
X98051000Y-110248747D01*
X98051000Y-110751253D01*
X97952967Y-111244098D01*
X97937250Y-111282042D01*
X97760667Y-111708352D01*
X97481491Y-112126168D01*
X97126168Y-112481491D01*
X96708352Y-112760667D01*
X96708351Y-112760668D01*
X96708350Y-112760668D01*
X96244098Y-112952967D01*
X95751253Y-113051000D01*
X95248747Y-113051000D01*
X94755902Y-112952967D01*
X94291650Y-112760668D01*
X94291649Y-112760668D01*
X94291648Y-112760667D01*
X93873832Y-112481491D01*
X93518509Y-112126168D01*
X93239333Y-111708352D01*
X93062750Y-111282042D01*
X93047033Y-111244098D01*
X92949000Y-110751253D01*
X92949000Y-110248747D01*
X93047033Y-109755902D01*
X93239332Y-109291650D01*
X93239333Y-109291648D01*
X93518509Y-108873832D01*
X93873832Y-108518509D01*
X94291648Y-108239333D01*
X94291650Y-108239332D01*
X94755902Y-108047033D01*
X95248747Y-107949000D01*
X95751253Y-107949000D01*
X96244098Y-108047033D01*
X96244098Y-108047033D01*
G37*
G36*
X131684468Y-101341065D02*
G01*
X131723138Y-101352796D01*
X131758777Y-101371846D01*
X131790017Y-101397483D01*
X131815654Y-101428723D01*
X131834704Y-101464362D01*
X131846435Y-101503032D01*
X131851000Y-101549388D01*
X131851000Y-102200612D01*
X131846435Y-102246968D01*
X131834704Y-102285638D01*
X131815654Y-102321277D01*
X131790017Y-102352517D01*
X131758777Y-102378154D01*
X131723138Y-102397204D01*
X131684468Y-102408935D01*
X131638112Y-102413500D01*
X130561888Y-102413500D01*
X130515532Y-102408935D01*
X130476862Y-102397204D01*
X130441223Y-102378154D01*
X130409983Y-102352517D01*
X130384346Y-102321277D01*
X130365296Y-102285638D01*
X130353565Y-102246968D01*
X130349000Y-102200612D01*
X130349000Y-101549388D01*
X130353565Y-101503032D01*
X130365296Y-101464362D01*
X130384346Y-101428723D01*
X130409983Y-101397483D01*
X130441223Y-101371846D01*
X130476862Y-101352796D01*
X130515532Y-101341065D01*
X130561888Y-101336500D01*
X131638112Y-101336500D01*
X131684468Y-101341065D01*
X131684468Y-101341065D01*
G37*
G36*
X131684468Y-99466065D02*
G01*
X131723138Y-99477796D01*
X131758777Y-99496846D01*
X131790017Y-99522483D01*
X131815654Y-99553723D01*
X131834704Y-99589362D01*
X131846435Y-99628032D01*
X131851000Y-99674388D01*
X131851000Y-100325612D01*
X131846435Y-100371968D01*
X131834704Y-100410638D01*
X131815654Y-100446277D01*
X131790017Y-100477517D01*
X131758777Y-100503154D01*
X131723138Y-100522204D01*
X131684468Y-100533935D01*
X131638112Y-100538500D01*
X130561888Y-100538500D01*
X130515532Y-100533935D01*
X130476862Y-100522204D01*
X130441223Y-100503154D01*
X130409983Y-100477517D01*
X130384346Y-100446277D01*
X130365296Y-100410638D01*
X130353565Y-100371968D01*
X130349000Y-100325612D01*
X130349000Y-99674388D01*
X130353565Y-99628032D01*
X130365296Y-99589362D01*
X130384346Y-99553723D01*
X130409983Y-99522483D01*
X130441223Y-99496846D01*
X130476862Y-99477796D01*
X130515532Y-99466065D01*
X130561888Y-99461500D01*
X131638112Y-99461500D01*
X131684468Y-99466065D01*
X131684468Y-99466065D01*
G37*
G36*
X203371968Y-98753565D02*
G01*
X203410638Y-98765296D01*
X203446277Y-98784346D01*
X203477517Y-98809983D01*
X203503154Y-98841223D01*
X203522204Y-98876862D01*
X203533935Y-98915532D01*
X203538500Y-98961888D01*
X203538500Y-100038112D01*
X203533935Y-100084468D01*
X203522204Y-100123138D01*
X203503154Y-100158777D01*
X203477517Y-100190017D01*
X203446277Y-100215654D01*
X203410638Y-100234704D01*
X203371968Y-100246435D01*
X203325612Y-100251000D01*
X202674388Y-100251000D01*
X202628032Y-100246435D01*
X202589362Y-100234704D01*
X202553723Y-100215654D01*
X202522483Y-100190017D01*
X202496846Y-100158777D01*
X202477796Y-100123138D01*
X202466065Y-100084468D01*
X202461500Y-100038112D01*
X202461500Y-98961888D01*
X202466065Y-98915532D01*
X202477796Y-98876862D01*
X202496846Y-98841223D01*
X202522483Y-98809983D01*
X202553723Y-98784346D01*
X202589362Y-98765296D01*
X202628032Y-98753565D01*
X202674388Y-98749000D01*
X203325612Y-98749000D01*
X203371968Y-98753565D01*
X203371968Y-98753565D01*
G37*
G36*
X205246968Y-98753565D02*
G01*
X205285638Y-98765296D01*
X205321277Y-98784346D01*
X205352517Y-98809983D01*
X205378154Y-98841223D01*
X205397204Y-98876862D01*
X205408935Y-98915532D01*
X205413500Y-98961888D01*
X205413500Y-100038112D01*
X205408935Y-100084468D01*
X205397204Y-100123138D01*
X205378154Y-100158777D01*
X205352517Y-100190017D01*
X205321277Y-100215654D01*
X205285638Y-100234704D01*
X205246968Y-100246435D01*
X205200612Y-100251000D01*
X204549388Y-100251000D01*
X204503032Y-100246435D01*
X204464362Y-100234704D01*
X204428723Y-100215654D01*
X204397483Y-100190017D01*
X204371846Y-100158777D01*
X204352796Y-100123138D01*
X204341065Y-100084468D01*
X204336500Y-100038112D01*
X204336500Y-98961888D01*
X204341065Y-98915532D01*
X204352796Y-98876862D01*
X204371846Y-98841223D01*
X204397483Y-98809983D01*
X204428723Y-98784346D01*
X204464362Y-98765296D01*
X204503032Y-98753565D01*
X204549388Y-98749000D01*
X205200612Y-98749000D01*
X205246968Y-98753565D01*
X205246968Y-98753565D01*
G37*
G36*
X144796968Y-98553565D02*
G01*
X144835638Y-98565296D01*
X144871277Y-98584346D01*
X144902517Y-98609983D01*
X144928154Y-98641223D01*
X144947204Y-98676862D01*
X144958935Y-98715532D01*
X144963500Y-98761888D01*
X144963500Y-99838112D01*
X144958935Y-99884468D01*
X144947204Y-99923138D01*
X144928154Y-99958777D01*
X144902517Y-99990017D01*
X144871277Y-100015654D01*
X144835638Y-100034704D01*
X144796968Y-100046435D01*
X144750612Y-100051000D01*
X144099388Y-100051000D01*
X144053032Y-100046435D01*
X144014362Y-100034704D01*
X143978723Y-100015654D01*
X143947483Y-99990017D01*
X143921846Y-99958777D01*
X143902796Y-99923138D01*
X143891065Y-99884468D01*
X143886500Y-99838112D01*
X143886500Y-98761888D01*
X143891065Y-98715532D01*
X143902796Y-98676862D01*
X143921846Y-98641223D01*
X143947483Y-98609983D01*
X143978723Y-98584346D01*
X144014362Y-98565296D01*
X144053032Y-98553565D01*
X144099388Y-98549000D01*
X144750612Y-98549000D01*
X144796968Y-98553565D01*
X144796968Y-98553565D01*
G37*
G36*
X146671968Y-98553565D02*
G01*
X146710638Y-98565296D01*
X146746277Y-98584346D01*
X146777517Y-98609983D01*
X146803154Y-98641223D01*
X146822204Y-98676862D01*
X146833935Y-98715532D01*
X146838500Y-98761888D01*
X146838500Y-99838112D01*
X146833935Y-99884468D01*
X146822204Y-99923138D01*
X146803154Y-99958777D01*
X146777517Y-99990017D01*
X146746277Y-100015654D01*
X146710638Y-100034704D01*
X146671968Y-100046435D01*
X146625612Y-100051000D01*
X145974388Y-100051000D01*
X145928032Y-100046435D01*
X145889362Y-100034704D01*
X145853723Y-100015654D01*
X145822483Y-99990017D01*
X145796846Y-99958777D01*
X145777796Y-99923138D01*
X145766065Y-99884468D01*
X145761500Y-99838112D01*
X145761500Y-98761888D01*
X145766065Y-98715532D01*
X145777796Y-98676862D01*
X145796846Y-98641223D01*
X145822483Y-98609983D01*
X145853723Y-98584346D01*
X145889362Y-98565296D01*
X145928032Y-98553565D01*
X145974388Y-98549000D01*
X146625612Y-98549000D01*
X146671968Y-98553565D01*
X146671968Y-98553565D01*
G37*
G36*
X200951000Y-99801000D02*
G01*
X198849000Y-99801000D01*
X198849000Y-98599000D01*
X200951000Y-98599000D01*
X200951000Y-99801000D01*
X200951000Y-99801000D01*
G37*
G36*
X196151000Y-99801000D02*
G01*
X194049000Y-99801000D01*
X194049000Y-98599000D01*
X196151000Y-98599000D01*
X196151000Y-99801000D01*
X196151000Y-99801000D01*
G37*
G36*
X137259928Y-98856764D02*
G01*
X137281009Y-98863160D01*
X137300445Y-98873548D01*
X137317476Y-98887524D01*
X137331452Y-98904555D01*
X137341840Y-98923991D01*
X137348236Y-98945072D01*
X137351000Y-98973140D01*
X137351000Y-99436860D01*
X137348236Y-99464928D01*
X137341840Y-99486009D01*
X137331452Y-99505445D01*
X137317476Y-99522476D01*
X137300445Y-99536452D01*
X137281009Y-99546840D01*
X137259928Y-99553236D01*
X137231860Y-99556000D01*
X135418140Y-99556000D01*
X135390072Y-99553236D01*
X135368991Y-99546840D01*
X135349555Y-99536452D01*
X135332524Y-99522476D01*
X135318548Y-99505445D01*
X135308160Y-99486009D01*
X135301764Y-99464928D01*
X135299000Y-99436860D01*
X135299000Y-98973140D01*
X135301764Y-98945072D01*
X135308160Y-98923991D01*
X135318548Y-98904555D01*
X135332524Y-98887524D01*
X135349555Y-98873548D01*
X135368991Y-98863160D01*
X135390072Y-98856764D01*
X135418140Y-98854000D01*
X137231860Y-98854000D01*
X137259928Y-98856764D01*
X137259928Y-98856764D01*
G37*
G36*
X142209928Y-98856764D02*
G01*
X142231009Y-98863160D01*
X142250445Y-98873548D01*
X142267476Y-98887524D01*
X142281452Y-98904555D01*
X142291840Y-98923991D01*
X142298236Y-98945072D01*
X142301000Y-98973140D01*
X142301000Y-99436860D01*
X142298236Y-99464928D01*
X142291840Y-99486009D01*
X142281452Y-99505445D01*
X142267476Y-99522476D01*
X142250445Y-99536452D01*
X142231009Y-99546840D01*
X142209928Y-99553236D01*
X142181860Y-99556000D01*
X140368140Y-99556000D01*
X140340072Y-99553236D01*
X140318991Y-99546840D01*
X140299555Y-99536452D01*
X140282524Y-99522476D01*
X140268548Y-99505445D01*
X140258160Y-99486009D01*
X140251764Y-99464928D01*
X140249000Y-99436860D01*
X140249000Y-98973140D01*
X140251764Y-98945072D01*
X140258160Y-98923991D01*
X140268548Y-98904555D01*
X140282524Y-98887524D01*
X140299555Y-98873548D01*
X140318991Y-98863160D01*
X140340072Y-98856764D01*
X140368140Y-98854000D01*
X142181860Y-98854000D01*
X142209928Y-98856764D01*
X142209928Y-98856764D01*
G37*
G36*
X132051000Y-98526000D02*
G01*
X130149000Y-98526000D01*
X130149000Y-96674000D01*
X132051000Y-96674000D01*
X132051000Y-98526000D01*
X132051000Y-98526000D01*
G37*
G36*
X142209928Y-97586764D02*
G01*
X142231009Y-97593160D01*
X142250445Y-97603548D01*
X142267476Y-97617524D01*
X142281452Y-97634555D01*
X142291840Y-97653991D01*
X142298236Y-97675072D01*
X142301000Y-97703140D01*
X142301000Y-98166860D01*
X142298236Y-98194928D01*
X142291840Y-98216009D01*
X142281452Y-98235445D01*
X142267476Y-98252476D01*
X142250445Y-98266452D01*
X142231009Y-98276840D01*
X142209928Y-98283236D01*
X142181860Y-98286000D01*
X140368140Y-98286000D01*
X140340072Y-98283236D01*
X140318991Y-98276840D01*
X140299555Y-98266452D01*
X140282524Y-98252476D01*
X140268548Y-98235445D01*
X140258160Y-98216009D01*
X140251764Y-98194928D01*
X140249000Y-98166860D01*
X140249000Y-97703140D01*
X140251764Y-97675072D01*
X140258160Y-97653991D01*
X140268548Y-97634555D01*
X140282524Y-97617524D01*
X140299555Y-97603548D01*
X140318991Y-97593160D01*
X140340072Y-97586764D01*
X140368140Y-97584000D01*
X142181860Y-97584000D01*
X142209928Y-97586764D01*
X142209928Y-97586764D01*
G37*
G36*
X137259928Y-97586764D02*
G01*
X137281009Y-97593160D01*
X137300445Y-97603548D01*
X137317476Y-97617524D01*
X137331452Y-97634555D01*
X137341840Y-97653991D01*
X137348236Y-97675072D01*
X137351000Y-97703140D01*
X137351000Y-98166860D01*
X137348236Y-98194928D01*
X137341840Y-98216009D01*
X137331452Y-98235445D01*
X137317476Y-98252476D01*
X137300445Y-98266452D01*
X137281009Y-98276840D01*
X137259928Y-98283236D01*
X137231860Y-98286000D01*
X135418140Y-98286000D01*
X135390072Y-98283236D01*
X135368991Y-98276840D01*
X135349555Y-98266452D01*
X135332524Y-98252476D01*
X135318548Y-98235445D01*
X135308160Y-98216009D01*
X135301764Y-98194928D01*
X135299000Y-98166860D01*
X135299000Y-97703140D01*
X135301764Y-97675072D01*
X135308160Y-97653991D01*
X135318548Y-97634555D01*
X135332524Y-97617524D01*
X135349555Y-97603548D01*
X135368991Y-97593160D01*
X135390072Y-97586764D01*
X135418140Y-97584000D01*
X137231860Y-97584000D01*
X137259928Y-97586764D01*
X137259928Y-97586764D01*
G37*
G36*
X205246968Y-96753565D02*
G01*
X205285638Y-96765296D01*
X205321277Y-96784346D01*
X205352517Y-96809983D01*
X205378154Y-96841223D01*
X205397204Y-96876862D01*
X205408935Y-96915532D01*
X205413500Y-96961888D01*
X205413500Y-98038112D01*
X205408935Y-98084468D01*
X205397204Y-98123138D01*
X205378154Y-98158777D01*
X205352517Y-98190017D01*
X205321277Y-98215654D01*
X205285638Y-98234704D01*
X205246968Y-98246435D01*
X205200612Y-98251000D01*
X204549388Y-98251000D01*
X204503032Y-98246435D01*
X204464362Y-98234704D01*
X204428723Y-98215654D01*
X204397483Y-98190017D01*
X204371846Y-98158777D01*
X204352796Y-98123138D01*
X204341065Y-98084468D01*
X204336500Y-98038112D01*
X204336500Y-96961888D01*
X204341065Y-96915532D01*
X204352796Y-96876862D01*
X204371846Y-96841223D01*
X204397483Y-96809983D01*
X204428723Y-96784346D01*
X204464362Y-96765296D01*
X204503032Y-96753565D01*
X204549388Y-96749000D01*
X205200612Y-96749000D01*
X205246968Y-96753565D01*
X205246968Y-96753565D01*
G37*
G36*
X203371968Y-96753565D02*
G01*
X203410638Y-96765296D01*
X203446277Y-96784346D01*
X203477517Y-96809983D01*
X203503154Y-96841223D01*
X203522204Y-96876862D01*
X203533935Y-96915532D01*
X203538500Y-96961888D01*
X203538500Y-98038112D01*
X203533935Y-98084468D01*
X203522204Y-98123138D01*
X203503154Y-98158777D01*
X203477517Y-98190017D01*
X203446277Y-98215654D01*
X203410638Y-98234704D01*
X203371968Y-98246435D01*
X203325612Y-98251000D01*
X202674388Y-98251000D01*
X202628032Y-98246435D01*
X202589362Y-98234704D01*
X202553723Y-98215654D01*
X202522483Y-98190017D01*
X202496846Y-98158777D01*
X202477796Y-98123138D01*
X202466065Y-98084468D01*
X202461500Y-98038112D01*
X202461500Y-96961888D01*
X202466065Y-96915532D01*
X202477796Y-96876862D01*
X202496846Y-96841223D01*
X202522483Y-96809983D01*
X202553723Y-96784346D01*
X202589362Y-96765296D01*
X202628032Y-96753565D01*
X202674388Y-96749000D01*
X203325612Y-96749000D01*
X203371968Y-96753565D01*
X203371968Y-96753565D01*
G37*
G36*
X200951000Y-98101000D02*
G01*
X198849000Y-98101000D01*
X198849000Y-96899000D01*
X200951000Y-96899000D01*
X200951000Y-98101000D01*
X200951000Y-98101000D01*
G37*
G36*
X196151000Y-98101000D02*
G01*
X194049000Y-98101000D01*
X194049000Y-96899000D01*
X196151000Y-96899000D01*
X196151000Y-98101000D01*
X196151000Y-98101000D01*
G37*
G36*
X146646968Y-96253565D02*
G01*
X146685638Y-96265296D01*
X146721277Y-96284346D01*
X146752517Y-96309983D01*
X146778154Y-96341223D01*
X146797204Y-96376862D01*
X146808935Y-96415532D01*
X146813500Y-96461888D01*
X146813500Y-97538112D01*
X146808935Y-97584468D01*
X146797204Y-97623138D01*
X146778154Y-97658777D01*
X146752517Y-97690017D01*
X146721277Y-97715654D01*
X146685638Y-97734704D01*
X146646968Y-97746435D01*
X146600612Y-97751000D01*
X145949388Y-97751000D01*
X145903032Y-97746435D01*
X145864362Y-97734704D01*
X145828723Y-97715654D01*
X145797483Y-97690017D01*
X145771846Y-97658777D01*
X145752796Y-97623138D01*
X145741065Y-97584468D01*
X145736500Y-97538112D01*
X145736500Y-96461888D01*
X145741065Y-96415532D01*
X145752796Y-96376862D01*
X145771846Y-96341223D01*
X145797483Y-96309983D01*
X145828723Y-96284346D01*
X145864362Y-96265296D01*
X145903032Y-96253565D01*
X145949388Y-96249000D01*
X146600612Y-96249000D01*
X146646968Y-96253565D01*
X146646968Y-96253565D01*
G37*
G36*
X144771968Y-96253565D02*
G01*
X144810638Y-96265296D01*
X144846277Y-96284346D01*
X144877517Y-96309983D01*
X144903154Y-96341223D01*
X144922204Y-96376862D01*
X144933935Y-96415532D01*
X144938500Y-96461888D01*
X144938500Y-97538112D01*
X144933935Y-97584468D01*
X144922204Y-97623138D01*
X144903154Y-97658777D01*
X144877517Y-97690017D01*
X144846277Y-97715654D01*
X144810638Y-97734704D01*
X144771968Y-97746435D01*
X144725612Y-97751000D01*
X144074388Y-97751000D01*
X144028032Y-97746435D01*
X143989362Y-97734704D01*
X143953723Y-97715654D01*
X143922483Y-97690017D01*
X143896846Y-97658777D01*
X143877796Y-97623138D01*
X143866065Y-97584468D01*
X143861500Y-97538112D01*
X143861500Y-96461888D01*
X143866065Y-96415532D01*
X143877796Y-96376862D01*
X143896846Y-96341223D01*
X143922483Y-96309983D01*
X143953723Y-96284346D01*
X143989362Y-96265296D01*
X144028032Y-96253565D01*
X144074388Y-96249000D01*
X144725612Y-96249000D01*
X144771968Y-96253565D01*
X144771968Y-96253565D01*
G37*
G36*
X142209928Y-96316764D02*
G01*
X142231009Y-96323160D01*
X142250445Y-96333548D01*
X142267476Y-96347524D01*
X142281452Y-96364555D01*
X142291840Y-96383991D01*
X142298236Y-96405072D01*
X142301000Y-96433140D01*
X142301000Y-96896860D01*
X142298236Y-96924928D01*
X142291840Y-96946009D01*
X142281452Y-96965445D01*
X142267476Y-96982476D01*
X142250445Y-96996452D01*
X142231009Y-97006840D01*
X142209928Y-97013236D01*
X142181860Y-97016000D01*
X140368140Y-97016000D01*
X140340072Y-97013236D01*
X140318991Y-97006840D01*
X140299555Y-96996452D01*
X140282524Y-96982476D01*
X140268548Y-96965445D01*
X140258160Y-96946009D01*
X140251764Y-96924928D01*
X140249000Y-96896860D01*
X140249000Y-96433140D01*
X140251764Y-96405072D01*
X140258160Y-96383991D01*
X140268548Y-96364555D01*
X140282524Y-96347524D01*
X140299555Y-96333548D01*
X140318991Y-96323160D01*
X140340072Y-96316764D01*
X140368140Y-96314000D01*
X142181860Y-96314000D01*
X142209928Y-96316764D01*
X142209928Y-96316764D01*
G37*
G36*
X137259928Y-96316764D02*
G01*
X137281009Y-96323160D01*
X137300445Y-96333548D01*
X137317476Y-96347524D01*
X137331452Y-96364555D01*
X137341840Y-96383991D01*
X137348236Y-96405072D01*
X137351000Y-96433140D01*
X137351000Y-96896860D01*
X137348236Y-96924928D01*
X137341840Y-96946009D01*
X137331452Y-96965445D01*
X137317476Y-96982476D01*
X137300445Y-96996452D01*
X137281009Y-97006840D01*
X137259928Y-97013236D01*
X137231860Y-97016000D01*
X135418140Y-97016000D01*
X135390072Y-97013236D01*
X135368991Y-97006840D01*
X135349555Y-96996452D01*
X135332524Y-96982476D01*
X135318548Y-96965445D01*
X135308160Y-96946009D01*
X135301764Y-96924928D01*
X135299000Y-96896860D01*
X135299000Y-96433140D01*
X135301764Y-96405072D01*
X135308160Y-96383991D01*
X135318548Y-96364555D01*
X135332524Y-96347524D01*
X135349555Y-96333548D01*
X135368991Y-96323160D01*
X135390072Y-96316764D01*
X135418140Y-96314000D01*
X137231860Y-96314000D01*
X137259928Y-96316764D01*
X137259928Y-96316764D01*
G37*
G36*
X196151000Y-96401000D02*
G01*
X194049000Y-96401000D01*
X194049000Y-95199000D01*
X196151000Y-95199000D01*
X196151000Y-96401000D01*
X196151000Y-96401000D01*
G37*
G36*
X200951000Y-96401000D02*
G01*
X198849000Y-96401000D01*
X198849000Y-95199000D01*
X200951000Y-95199000D01*
X200951000Y-96401000D01*
X200951000Y-96401000D01*
G37*
G36*
X203371968Y-94753565D02*
G01*
X203410638Y-94765296D01*
X203446277Y-94784346D01*
X203477517Y-94809983D01*
X203503154Y-94841223D01*
X203522204Y-94876862D01*
X203533935Y-94915532D01*
X203538500Y-94961888D01*
X203538500Y-96038112D01*
X203533935Y-96084468D01*
X203522204Y-96123138D01*
X203503154Y-96158777D01*
X203477517Y-96190017D01*
X203446277Y-96215654D01*
X203410638Y-96234704D01*
X203371968Y-96246435D01*
X203325612Y-96251000D01*
X202674388Y-96251000D01*
X202628032Y-96246435D01*
X202589362Y-96234704D01*
X202553723Y-96215654D01*
X202522483Y-96190017D01*
X202496846Y-96158777D01*
X202477796Y-96123138D01*
X202466065Y-96084468D01*
X202461500Y-96038112D01*
X202461500Y-94961888D01*
X202466065Y-94915532D01*
X202477796Y-94876862D01*
X202496846Y-94841223D01*
X202522483Y-94809983D01*
X202553723Y-94784346D01*
X202589362Y-94765296D01*
X202628032Y-94753565D01*
X202674388Y-94749000D01*
X203325612Y-94749000D01*
X203371968Y-94753565D01*
X203371968Y-94753565D01*
G37*
G36*
X205246968Y-94753565D02*
G01*
X205285638Y-94765296D01*
X205321277Y-94784346D01*
X205352517Y-94809983D01*
X205378154Y-94841223D01*
X205397204Y-94876862D01*
X205408935Y-94915532D01*
X205413500Y-94961888D01*
X205413500Y-96038112D01*
X205408935Y-96084468D01*
X205397204Y-96123138D01*
X205378154Y-96158777D01*
X205352517Y-96190017D01*
X205321277Y-96215654D01*
X205285638Y-96234704D01*
X205246968Y-96246435D01*
X205200612Y-96251000D01*
X204549388Y-96251000D01*
X204503032Y-96246435D01*
X204464362Y-96234704D01*
X204428723Y-96215654D01*
X204397483Y-96190017D01*
X204371846Y-96158777D01*
X204352796Y-96123138D01*
X204341065Y-96084468D01*
X204336500Y-96038112D01*
X204336500Y-94961888D01*
X204341065Y-94915532D01*
X204352796Y-94876862D01*
X204371846Y-94841223D01*
X204397483Y-94809983D01*
X204428723Y-94784346D01*
X204464362Y-94765296D01*
X204503032Y-94753565D01*
X204549388Y-94749000D01*
X205200612Y-94749000D01*
X205246968Y-94753565D01*
X205246968Y-94753565D01*
G37*
G36*
X137259928Y-95046764D02*
G01*
X137281009Y-95053160D01*
X137300445Y-95063548D01*
X137317476Y-95077524D01*
X137331452Y-95094555D01*
X137341840Y-95113991D01*
X137348236Y-95135072D01*
X137351000Y-95163140D01*
X137351000Y-95626860D01*
X137348236Y-95654928D01*
X137341840Y-95676009D01*
X137331452Y-95695445D01*
X137317476Y-95712476D01*
X137300445Y-95726452D01*
X137281009Y-95736840D01*
X137259928Y-95743236D01*
X137231860Y-95746000D01*
X135418140Y-95746000D01*
X135390072Y-95743236D01*
X135368991Y-95736840D01*
X135349555Y-95726452D01*
X135332524Y-95712476D01*
X135318548Y-95695445D01*
X135308160Y-95676009D01*
X135301764Y-95654928D01*
X135299000Y-95626860D01*
X135299000Y-95163140D01*
X135301764Y-95135072D01*
X135308160Y-95113991D01*
X135318548Y-95094555D01*
X135332524Y-95077524D01*
X135349555Y-95063548D01*
X135368991Y-95053160D01*
X135390072Y-95046764D01*
X135418140Y-95044000D01*
X137231860Y-95044000D01*
X137259928Y-95046764D01*
X137259928Y-95046764D01*
G37*
G36*
X142209928Y-95046764D02*
G01*
X142231009Y-95053160D01*
X142250445Y-95063548D01*
X142267476Y-95077524D01*
X142281452Y-95094555D01*
X142291840Y-95113991D01*
X142298236Y-95135072D01*
X142301000Y-95163140D01*
X142301000Y-95626860D01*
X142298236Y-95654928D01*
X142291840Y-95676009D01*
X142281452Y-95695445D01*
X142267476Y-95712476D01*
X142250445Y-95726452D01*
X142231009Y-95736840D01*
X142209928Y-95743236D01*
X142181860Y-95746000D01*
X140368140Y-95746000D01*
X140340072Y-95743236D01*
X140318991Y-95736840D01*
X140299555Y-95726452D01*
X140282524Y-95712476D01*
X140268548Y-95695445D01*
X140258160Y-95676009D01*
X140251764Y-95654928D01*
X140249000Y-95626860D01*
X140249000Y-95163140D01*
X140251764Y-95135072D01*
X140258160Y-95113991D01*
X140268548Y-95094555D01*
X140282524Y-95077524D01*
X140299555Y-95063548D01*
X140318991Y-95053160D01*
X140340072Y-95046764D01*
X140368140Y-95044000D01*
X142181860Y-95044000D01*
X142209928Y-95046764D01*
X142209928Y-95046764D01*
G37*
G36*
X132051000Y-95276000D02*
G01*
X130149000Y-95276000D01*
X130149000Y-93424000D01*
X132051000Y-93424000D01*
X132051000Y-95276000D01*
X132051000Y-95276000D01*
G37*
G36*
X138496968Y-91453565D02*
G01*
X138535638Y-91465296D01*
X138571277Y-91484346D01*
X138602517Y-91509983D01*
X138628154Y-91541223D01*
X138647204Y-91576862D01*
X138658935Y-91615532D01*
X138663500Y-91661888D01*
X138663500Y-92738112D01*
X138658935Y-92784468D01*
X138647204Y-92823138D01*
X138628154Y-92858777D01*
X138602517Y-92890017D01*
X138571277Y-92915654D01*
X138535638Y-92934704D01*
X138496968Y-92946435D01*
X138450612Y-92951000D01*
X137799388Y-92951000D01*
X137753032Y-92946435D01*
X137714362Y-92934704D01*
X137678723Y-92915654D01*
X137647483Y-92890017D01*
X137621846Y-92858777D01*
X137602796Y-92823138D01*
X137591065Y-92784468D01*
X137586500Y-92738112D01*
X137586500Y-91661888D01*
X137591065Y-91615532D01*
X137602796Y-91576862D01*
X137621846Y-91541223D01*
X137647483Y-91509983D01*
X137678723Y-91484346D01*
X137714362Y-91465296D01*
X137753032Y-91453565D01*
X137799388Y-91449000D01*
X138450612Y-91449000D01*
X138496968Y-91453565D01*
X138496968Y-91453565D01*
G37*
G36*
X140371968Y-91453565D02*
G01*
X140410638Y-91465296D01*
X140446277Y-91484346D01*
X140477517Y-91509983D01*
X140503154Y-91541223D01*
X140522204Y-91576862D01*
X140533935Y-91615532D01*
X140538500Y-91661888D01*
X140538500Y-92738112D01*
X140533935Y-92784468D01*
X140522204Y-92823138D01*
X140503154Y-92858777D01*
X140477517Y-92890017D01*
X140446277Y-92915654D01*
X140410638Y-92934704D01*
X140371968Y-92946435D01*
X140325612Y-92951000D01*
X139674388Y-92951000D01*
X139628032Y-92946435D01*
X139589362Y-92934704D01*
X139553723Y-92915654D01*
X139522483Y-92890017D01*
X139496846Y-92858777D01*
X139477796Y-92823138D01*
X139466065Y-92784468D01*
X139461500Y-92738112D01*
X139461500Y-91661888D01*
X139466065Y-91615532D01*
X139477796Y-91576862D01*
X139496846Y-91541223D01*
X139522483Y-91509983D01*
X139553723Y-91484346D01*
X139589362Y-91465296D01*
X139628032Y-91453565D01*
X139674388Y-91449000D01*
X140325612Y-91449000D01*
X140371968Y-91453565D01*
X140371968Y-91453565D01*
G37*
G36*
X131684468Y-91241065D02*
G01*
X131723138Y-91252796D01*
X131758777Y-91271846D01*
X131790017Y-91297483D01*
X131815654Y-91328723D01*
X131834704Y-91364362D01*
X131846435Y-91403032D01*
X131851000Y-91449388D01*
X131851000Y-92100612D01*
X131846435Y-92146968D01*
X131834704Y-92185638D01*
X131815654Y-92221277D01*
X131790017Y-92252517D01*
X131758777Y-92278154D01*
X131723138Y-92297204D01*
X131684468Y-92308935D01*
X131638112Y-92313500D01*
X130561888Y-92313500D01*
X130515532Y-92308935D01*
X130476862Y-92297204D01*
X130441223Y-92278154D01*
X130409983Y-92252517D01*
X130384346Y-92221277D01*
X130365296Y-92185638D01*
X130353565Y-92146968D01*
X130349000Y-92100612D01*
X130349000Y-91449388D01*
X130353565Y-91403032D01*
X130365296Y-91364362D01*
X130384346Y-91328723D01*
X130409983Y-91297483D01*
X130441223Y-91271846D01*
X130476862Y-91252796D01*
X130515532Y-91241065D01*
X130561888Y-91236500D01*
X131638112Y-91236500D01*
X131684468Y-91241065D01*
X131684468Y-91241065D01*
G37*
G36*
X131684468Y-89366065D02*
G01*
X131723138Y-89377796D01*
X131758777Y-89396846D01*
X131790017Y-89422483D01*
X131815654Y-89453723D01*
X131834704Y-89489362D01*
X131846435Y-89528032D01*
X131851000Y-89574388D01*
X131851000Y-90225612D01*
X131846435Y-90271968D01*
X131834704Y-90310638D01*
X131815654Y-90346277D01*
X131790017Y-90377517D01*
X131758777Y-90403154D01*
X131723138Y-90422204D01*
X131684468Y-90433935D01*
X131638112Y-90438500D01*
X130561888Y-90438500D01*
X130515532Y-90433935D01*
X130476862Y-90422204D01*
X130441223Y-90403154D01*
X130409983Y-90377517D01*
X130384346Y-90346277D01*
X130365296Y-90310638D01*
X130353565Y-90271968D01*
X130349000Y-90225612D01*
X130349000Y-89574388D01*
X130353565Y-89528032D01*
X130365296Y-89489362D01*
X130384346Y-89453723D01*
X130409983Y-89422483D01*
X130441223Y-89396846D01*
X130476862Y-89377796D01*
X130515532Y-89366065D01*
X130561888Y-89361500D01*
X131638112Y-89361500D01*
X131684468Y-89366065D01*
X131684468Y-89366065D01*
G37*
G36*
X93451000Y-80534001D02*
G01*
X93453402Y-80558387D01*
X93460515Y-80581836D01*
X93472066Y-80603447D01*
X93487611Y-80622389D01*
X93506553Y-80637934D01*
X93528164Y-80649485D01*
X93551613Y-80656598D01*
X93575999Y-80659000D01*
X95851000Y-80659000D01*
X95851000Y-87161000D01*
X93575999Y-87161000D01*
X93551613Y-87163402D01*
X93528164Y-87170515D01*
X93506553Y-87182066D01*
X93487611Y-87197611D01*
X93472066Y-87216553D01*
X93460515Y-87238164D01*
X93453402Y-87261613D01*
X93451000Y-87285999D01*
X93451000Y-88058500D01*
X91449000Y-88058500D01*
X91449000Y-84111500D01*
X93451000Y-84111500D01*
X93451000Y-85459001D01*
X93453402Y-85483387D01*
X93460515Y-85506836D01*
X93472066Y-85528447D01*
X93487611Y-85547389D01*
X93506553Y-85562934D01*
X93528164Y-85574485D01*
X93551613Y-85581598D01*
X93575999Y-85584000D01*
X94244001Y-85584000D01*
X94268387Y-85581598D01*
X94291836Y-85574485D01*
X94313447Y-85562934D01*
X94332389Y-85547389D01*
X94347934Y-85528447D01*
X94359485Y-85506836D01*
X94366598Y-85483387D01*
X94369000Y-85459001D01*
X94369000Y-82360999D01*
X94366598Y-82336613D01*
X94359485Y-82313164D01*
X94347934Y-82291553D01*
X94332389Y-82272611D01*
X94313447Y-82257066D01*
X94291836Y-82245515D01*
X94268387Y-82238402D01*
X94244001Y-82236000D01*
X93575999Y-82236000D01*
X93551613Y-82238402D01*
X93528164Y-82245515D01*
X93506553Y-82257066D01*
X93487611Y-82272611D01*
X93472066Y-82291553D01*
X93460515Y-82313164D01*
X93453402Y-82336613D01*
X93451000Y-82360999D01*
X93451000Y-83708500D01*
X91449000Y-83708500D01*
X91449000Y-79761500D01*
X93451000Y-79761500D01*
X93451000Y-80534001D01*
X93451000Y-80534001D01*
G37*
G36*
X205246968Y-77753565D02*
G01*
X205285638Y-77765296D01*
X205321277Y-77784346D01*
X205352517Y-77809983D01*
X205378154Y-77841223D01*
X205397204Y-77876862D01*
X205408935Y-77915532D01*
X205413500Y-77961888D01*
X205413500Y-79038112D01*
X205408935Y-79084468D01*
X205397204Y-79123138D01*
X205378154Y-79158777D01*
X205352517Y-79190017D01*
X205321277Y-79215654D01*
X205285638Y-79234704D01*
X205246968Y-79246435D01*
X205200612Y-79251000D01*
X204549388Y-79251000D01*
X204503032Y-79246435D01*
X204464362Y-79234704D01*
X204428723Y-79215654D01*
X204397483Y-79190017D01*
X204371846Y-79158777D01*
X204352796Y-79123138D01*
X204341065Y-79084468D01*
X204336500Y-79038112D01*
X204336500Y-77961888D01*
X204341065Y-77915532D01*
X204352796Y-77876862D01*
X204371846Y-77841223D01*
X204397483Y-77809983D01*
X204428723Y-77784346D01*
X204464362Y-77765296D01*
X204503032Y-77753565D01*
X204549388Y-77749000D01*
X205200612Y-77749000D01*
X205246968Y-77753565D01*
X205246968Y-77753565D01*
G37*
G36*
X203371968Y-77753565D02*
G01*
X203410638Y-77765296D01*
X203446277Y-77784346D01*
X203477517Y-77809983D01*
X203503154Y-77841223D01*
X203522204Y-77876862D01*
X203533935Y-77915532D01*
X203538500Y-77961888D01*
X203538500Y-79038112D01*
X203533935Y-79084468D01*
X203522204Y-79123138D01*
X203503154Y-79158777D01*
X203477517Y-79190017D01*
X203446277Y-79215654D01*
X203410638Y-79234704D01*
X203371968Y-79246435D01*
X203325612Y-79251000D01*
X202674388Y-79251000D01*
X202628032Y-79246435D01*
X202589362Y-79234704D01*
X202553723Y-79215654D01*
X202522483Y-79190017D01*
X202496846Y-79158777D01*
X202477796Y-79123138D01*
X202466065Y-79084468D01*
X202461500Y-79038112D01*
X202461500Y-77961888D01*
X202466065Y-77915532D01*
X202477796Y-77876862D01*
X202496846Y-77841223D01*
X202522483Y-77809983D01*
X202553723Y-77784346D01*
X202589362Y-77765296D01*
X202628032Y-77753565D01*
X202674388Y-77749000D01*
X203325612Y-77749000D01*
X203371968Y-77753565D01*
X203371968Y-77753565D01*
G37*
G36*
X200951000Y-78801000D02*
G01*
X198849000Y-78801000D01*
X198849000Y-77599000D01*
X200951000Y-77599000D01*
X200951000Y-78801000D01*
X200951000Y-78801000D01*
G37*
G36*
X196151000Y-78801000D02*
G01*
X194049000Y-78801000D01*
X194049000Y-77599000D01*
X196151000Y-77599000D01*
X196151000Y-78801000D01*
X196151000Y-78801000D01*
G37*
G36*
X205246968Y-75753565D02*
G01*
X205285638Y-75765296D01*
X205321277Y-75784346D01*
X205352517Y-75809983D01*
X205378154Y-75841223D01*
X205397204Y-75876862D01*
X205408935Y-75915532D01*
X205413500Y-75961888D01*
X205413500Y-77038112D01*
X205408935Y-77084468D01*
X205397204Y-77123138D01*
X205378154Y-77158777D01*
X205352517Y-77190017D01*
X205321277Y-77215654D01*
X205285638Y-77234704D01*
X205246968Y-77246435D01*
X205200612Y-77251000D01*
X204549388Y-77251000D01*
X204503032Y-77246435D01*
X204464362Y-77234704D01*
X204428723Y-77215654D01*
X204397483Y-77190017D01*
X204371846Y-77158777D01*
X204352796Y-77123138D01*
X204341065Y-77084468D01*
X204336500Y-77038112D01*
X204336500Y-75961888D01*
X204341065Y-75915532D01*
X204352796Y-75876862D01*
X204371846Y-75841223D01*
X204397483Y-75809983D01*
X204428723Y-75784346D01*
X204464362Y-75765296D01*
X204503032Y-75753565D01*
X204549388Y-75749000D01*
X205200612Y-75749000D01*
X205246968Y-75753565D01*
X205246968Y-75753565D01*
G37*
G36*
X203371968Y-75753565D02*
G01*
X203410638Y-75765296D01*
X203446277Y-75784346D01*
X203477517Y-75809983D01*
X203503154Y-75841223D01*
X203522204Y-75876862D01*
X203533935Y-75915532D01*
X203538500Y-75961888D01*
X203538500Y-77038112D01*
X203533935Y-77084468D01*
X203522204Y-77123138D01*
X203503154Y-77158777D01*
X203477517Y-77190017D01*
X203446277Y-77215654D01*
X203410638Y-77234704D01*
X203371968Y-77246435D01*
X203325612Y-77251000D01*
X202674388Y-77251000D01*
X202628032Y-77246435D01*
X202589362Y-77234704D01*
X202553723Y-77215654D01*
X202522483Y-77190017D01*
X202496846Y-77158777D01*
X202477796Y-77123138D01*
X202466065Y-77084468D01*
X202461500Y-77038112D01*
X202461500Y-75961888D01*
X202466065Y-75915532D01*
X202477796Y-75876862D01*
X202496846Y-75841223D01*
X202522483Y-75809983D01*
X202553723Y-75784346D01*
X202589362Y-75765296D01*
X202628032Y-75753565D01*
X202674388Y-75749000D01*
X203325612Y-75749000D01*
X203371968Y-75753565D01*
X203371968Y-75753565D01*
G37*
G36*
X196151000Y-77101000D02*
G01*
X194049000Y-77101000D01*
X194049000Y-75899000D01*
X196151000Y-75899000D01*
X196151000Y-77101000D01*
X196151000Y-77101000D01*
G37*
G36*
X200951000Y-77101000D02*
G01*
X198849000Y-77101000D01*
X198849000Y-75899000D01*
X200951000Y-75899000D01*
X200951000Y-77101000D01*
X200951000Y-77101000D01*
G37*
G36*
X196151000Y-75401000D02*
G01*
X194049000Y-75401000D01*
X194049000Y-74199000D01*
X196151000Y-74199000D01*
X196151000Y-75401000D01*
X196151000Y-75401000D01*
G37*
G36*
X200951000Y-75401000D02*
G01*
X198849000Y-75401000D01*
X198849000Y-74199000D01*
X200951000Y-74199000D01*
X200951000Y-75401000D01*
X200951000Y-75401000D01*
G37*
G36*
X205246968Y-73753565D02*
G01*
X205285638Y-73765296D01*
X205321277Y-73784346D01*
X205352517Y-73809983D01*
X205378154Y-73841223D01*
X205397204Y-73876862D01*
X205408935Y-73915532D01*
X205413500Y-73961888D01*
X205413500Y-75038112D01*
X205408935Y-75084468D01*
X205397204Y-75123138D01*
X205378154Y-75158777D01*
X205352517Y-75190017D01*
X205321277Y-75215654D01*
X205285638Y-75234704D01*
X205246968Y-75246435D01*
X205200612Y-75251000D01*
X204549388Y-75251000D01*
X204503032Y-75246435D01*
X204464362Y-75234704D01*
X204428723Y-75215654D01*
X204397483Y-75190017D01*
X204371846Y-75158777D01*
X204352796Y-75123138D01*
X204341065Y-75084468D01*
X204336500Y-75038112D01*
X204336500Y-73961888D01*
X204341065Y-73915532D01*
X204352796Y-73876862D01*
X204371846Y-73841223D01*
X204397483Y-73809983D01*
X204428723Y-73784346D01*
X204464362Y-73765296D01*
X204503032Y-73753565D01*
X204549388Y-73749000D01*
X205200612Y-73749000D01*
X205246968Y-73753565D01*
X205246968Y-73753565D01*
G37*
G36*
X203371968Y-73753565D02*
G01*
X203410638Y-73765296D01*
X203446277Y-73784346D01*
X203477517Y-73809983D01*
X203503154Y-73841223D01*
X203522204Y-73876862D01*
X203533935Y-73915532D01*
X203538500Y-73961888D01*
X203538500Y-75038112D01*
X203533935Y-75084468D01*
X203522204Y-75123138D01*
X203503154Y-75158777D01*
X203477517Y-75190017D01*
X203446277Y-75215654D01*
X203410638Y-75234704D01*
X203371968Y-75246435D01*
X203325612Y-75251000D01*
X202674388Y-75251000D01*
X202628032Y-75246435D01*
X202589362Y-75234704D01*
X202553723Y-75215654D01*
X202522483Y-75190017D01*
X202496846Y-75158777D01*
X202477796Y-75123138D01*
X202466065Y-75084468D01*
X202461500Y-75038112D01*
X202461500Y-73961888D01*
X202466065Y-73915532D01*
X202477796Y-73876862D01*
X202496846Y-73841223D01*
X202522483Y-73809983D01*
X202553723Y-73784346D01*
X202589362Y-73765296D01*
X202628032Y-73753565D01*
X202674388Y-73749000D01*
X203325612Y-73749000D01*
X203371968Y-73753565D01*
X203371968Y-73753565D01*
G37*
G36*
X110875589Y-61988876D02*
G01*
X110974893Y-62008629D01*
X111115206Y-62066748D01*
X111241484Y-62151125D01*
X111348875Y-62258516D01*
X111433252Y-62384794D01*
X111491371Y-62525107D01*
X111521000Y-62674063D01*
X111521000Y-62825937D01*
X111491371Y-62974893D01*
X111433252Y-63115206D01*
X111348875Y-63241484D01*
X111241484Y-63348875D01*
X111115206Y-63433252D01*
X110974893Y-63491371D01*
X110875589Y-63511124D01*
X110825938Y-63521000D01*
X110674062Y-63521000D01*
X110624411Y-63511124D01*
X110525107Y-63491371D01*
X110384794Y-63433252D01*
X110258516Y-63348875D01*
X110151125Y-63241484D01*
X110066748Y-63115206D01*
X110008629Y-62974893D01*
X109979000Y-62825937D01*
X109979000Y-62674063D01*
X110008629Y-62525107D01*
X110066748Y-62384794D01*
X110151125Y-62258516D01*
X110258516Y-62151125D01*
X110384794Y-62066748D01*
X110525107Y-62008629D01*
X110624411Y-61988876D01*
X110674062Y-61979000D01*
X110825938Y-61979000D01*
X110875589Y-61988876D01*
X110875589Y-61988876D01*
G37*
G36*
X105795589Y-61988876D02*
G01*
X105894893Y-62008629D01*
X106035206Y-62066748D01*
X106161484Y-62151125D01*
X106268875Y-62258516D01*
X106353252Y-62384794D01*
X106411371Y-62525107D01*
X106441000Y-62674063D01*
X106441000Y-62825937D01*
X106411371Y-62974893D01*
X106353252Y-63115206D01*
X106268875Y-63241484D01*
X106161484Y-63348875D01*
X106035206Y-63433252D01*
X105894893Y-63491371D01*
X105795589Y-63511124D01*
X105745938Y-63521000D01*
X105594062Y-63521000D01*
X105544411Y-63511124D01*
X105445107Y-63491371D01*
X105304794Y-63433252D01*
X105178516Y-63348875D01*
X105071125Y-63241484D01*
X104986748Y-63115206D01*
X104928629Y-62974893D01*
X104899000Y-62825937D01*
X104899000Y-62674063D01*
X104928629Y-62525107D01*
X104986748Y-62384794D01*
X105071125Y-62258516D01*
X105178516Y-62151125D01*
X105304794Y-62066748D01*
X105445107Y-62008629D01*
X105544411Y-61988876D01*
X105594062Y-61979000D01*
X105745938Y-61979000D01*
X105795589Y-61988876D01*
X105795589Y-61988876D01*
G37*
G36*
X203296968Y-60253565D02*
G01*
X203335638Y-60265296D01*
X203371277Y-60284346D01*
X203402517Y-60309983D01*
X203428154Y-60341223D01*
X203447204Y-60376862D01*
X203458935Y-60415532D01*
X203463500Y-60461888D01*
X203463500Y-61538112D01*
X203458935Y-61584468D01*
X203447204Y-61623138D01*
X203428154Y-61658777D01*
X203402517Y-61690017D01*
X203371277Y-61715654D01*
X203335638Y-61734704D01*
X203296968Y-61746435D01*
X203250612Y-61751000D01*
X202599388Y-61751000D01*
X202553032Y-61746435D01*
X202514362Y-61734704D01*
X202478723Y-61715654D01*
X202447483Y-61690017D01*
X202421846Y-61658777D01*
X202402796Y-61623138D01*
X202391065Y-61584468D01*
X202386500Y-61538112D01*
X202386500Y-60461888D01*
X202391065Y-60415532D01*
X202402796Y-60376862D01*
X202421846Y-60341223D01*
X202447483Y-60309983D01*
X202478723Y-60284346D01*
X202514362Y-60265296D01*
X202553032Y-60253565D01*
X202599388Y-60249000D01*
X203250612Y-60249000D01*
X203296968Y-60253565D01*
X203296968Y-60253565D01*
G37*
G36*
X205171968Y-60253565D02*
G01*
X205210638Y-60265296D01*
X205246277Y-60284346D01*
X205277517Y-60309983D01*
X205303154Y-60341223D01*
X205322204Y-60376862D01*
X205333935Y-60415532D01*
X205338500Y-60461888D01*
X205338500Y-61538112D01*
X205333935Y-61584468D01*
X205322204Y-61623138D01*
X205303154Y-61658777D01*
X205277517Y-61690017D01*
X205246277Y-61715654D01*
X205210638Y-61734704D01*
X205171968Y-61746435D01*
X205125612Y-61751000D01*
X204474388Y-61751000D01*
X204428032Y-61746435D01*
X204389362Y-61734704D01*
X204353723Y-61715654D01*
X204322483Y-61690017D01*
X204296846Y-61658777D01*
X204277796Y-61623138D01*
X204266065Y-61584468D01*
X204261500Y-61538112D01*
X204261500Y-60461888D01*
X204266065Y-60415532D01*
X204277796Y-60376862D01*
X204296846Y-60341223D01*
X204322483Y-60309983D01*
X204353723Y-60284346D01*
X204389362Y-60265296D01*
X204428032Y-60253565D01*
X204474388Y-60249000D01*
X205125612Y-60249000D01*
X205171968Y-60253565D01*
X205171968Y-60253565D01*
G37*
G36*
X200951000Y-61301000D02*
G01*
X198849000Y-61301000D01*
X198849000Y-60099000D01*
X200951000Y-60099000D01*
X200951000Y-61301000D01*
X200951000Y-61301000D01*
G37*
G36*
X196151000Y-61301000D02*
G01*
X194049000Y-61301000D01*
X194049000Y-60099000D01*
X196151000Y-60099000D01*
X196151000Y-61301000D01*
X196151000Y-61301000D01*
G37*
G36*
X139084468Y-60091065D02*
G01*
X139123138Y-60102796D01*
X139158777Y-60121846D01*
X139190017Y-60147483D01*
X139215654Y-60178723D01*
X139234704Y-60214362D01*
X139246435Y-60253032D01*
X139251000Y-60299388D01*
X139251000Y-60950612D01*
X139246435Y-60996968D01*
X139234704Y-61035638D01*
X139215654Y-61071277D01*
X139190017Y-61102517D01*
X139158777Y-61128154D01*
X139123138Y-61147204D01*
X139084468Y-61158935D01*
X139038112Y-61163500D01*
X137961888Y-61163500D01*
X137915532Y-61158935D01*
X137876862Y-61147204D01*
X137841223Y-61128154D01*
X137809983Y-61102517D01*
X137784346Y-61071277D01*
X137765296Y-61035638D01*
X137753565Y-60996968D01*
X137749000Y-60950612D01*
X137749000Y-60299388D01*
X137753565Y-60253032D01*
X137765296Y-60214362D01*
X137784346Y-60178723D01*
X137809983Y-60147483D01*
X137841223Y-60121846D01*
X137876862Y-60102796D01*
X137915532Y-60091065D01*
X137961888Y-60086500D01*
X139038112Y-60086500D01*
X139084468Y-60091065D01*
X139084468Y-60091065D01*
G37*
G36*
X108335589Y-59448876D02*
G01*
X108434893Y-59468629D01*
X108575206Y-59526748D01*
X108701484Y-59611125D01*
X108808875Y-59718516D01*
X108893252Y-59844794D01*
X108951371Y-59985107D01*
X108951371Y-59985109D01*
X108981000Y-60134062D01*
X108981000Y-60285938D01*
X108977562Y-60303222D01*
X108951371Y-60434893D01*
X108893252Y-60575206D01*
X108808875Y-60701484D01*
X108701484Y-60808875D01*
X108575206Y-60893252D01*
X108434893Y-60951371D01*
X108335589Y-60971124D01*
X108285938Y-60981000D01*
X108134062Y-60981000D01*
X108084411Y-60971124D01*
X107985107Y-60951371D01*
X107844794Y-60893252D01*
X107718516Y-60808875D01*
X107611125Y-60701484D01*
X107526748Y-60575206D01*
X107468629Y-60434893D01*
X107442438Y-60303222D01*
X107439000Y-60285938D01*
X107439000Y-60134062D01*
X107468629Y-59985109D01*
X107468629Y-59985107D01*
X107526748Y-59844794D01*
X107611125Y-59718516D01*
X107718516Y-59611125D01*
X107844794Y-59526748D01*
X107985107Y-59468629D01*
X108084411Y-59448876D01*
X108134062Y-59439000D01*
X108285938Y-59439000D01*
X108335589Y-59448876D01*
X108335589Y-59448876D01*
G37*
G36*
X205171968Y-58253565D02*
G01*
X205210638Y-58265296D01*
X205246277Y-58284346D01*
X205277517Y-58309983D01*
X205303154Y-58341223D01*
X205322204Y-58376862D01*
X205333935Y-58415532D01*
X205338500Y-58461888D01*
X205338500Y-59538112D01*
X205333935Y-59584468D01*
X205322204Y-59623138D01*
X205303154Y-59658777D01*
X205277517Y-59690017D01*
X205246277Y-59715654D01*
X205210638Y-59734704D01*
X205171968Y-59746435D01*
X205125612Y-59751000D01*
X204474388Y-59751000D01*
X204428032Y-59746435D01*
X204389362Y-59734704D01*
X204353723Y-59715654D01*
X204322483Y-59690017D01*
X204296846Y-59658777D01*
X204277796Y-59623138D01*
X204266065Y-59584468D01*
X204261500Y-59538112D01*
X204261500Y-58461888D01*
X204266065Y-58415532D01*
X204277796Y-58376862D01*
X204296846Y-58341223D01*
X204322483Y-58309983D01*
X204353723Y-58284346D01*
X204389362Y-58265296D01*
X204428032Y-58253565D01*
X204474388Y-58249000D01*
X205125612Y-58249000D01*
X205171968Y-58253565D01*
X205171968Y-58253565D01*
G37*
G36*
X203296968Y-58253565D02*
G01*
X203335638Y-58265296D01*
X203371277Y-58284346D01*
X203402517Y-58309983D01*
X203428154Y-58341223D01*
X203447204Y-58376862D01*
X203458935Y-58415532D01*
X203463500Y-58461888D01*
X203463500Y-59538112D01*
X203458935Y-59584468D01*
X203447204Y-59623138D01*
X203428154Y-59658777D01*
X203402517Y-59690017D01*
X203371277Y-59715654D01*
X203335638Y-59734704D01*
X203296968Y-59746435D01*
X203250612Y-59751000D01*
X202599388Y-59751000D01*
X202553032Y-59746435D01*
X202514362Y-59734704D01*
X202478723Y-59715654D01*
X202447483Y-59690017D01*
X202421846Y-59658777D01*
X202402796Y-59623138D01*
X202391065Y-59584468D01*
X202386500Y-59538112D01*
X202386500Y-58461888D01*
X202391065Y-58415532D01*
X202402796Y-58376862D01*
X202421846Y-58341223D01*
X202447483Y-58309983D01*
X202478723Y-58284346D01*
X202514362Y-58265296D01*
X202553032Y-58253565D01*
X202599388Y-58249000D01*
X203250612Y-58249000D01*
X203296968Y-58253565D01*
X203296968Y-58253565D01*
G37*
G36*
X200951000Y-59601000D02*
G01*
X198849000Y-59601000D01*
X198849000Y-58399000D01*
X200951000Y-58399000D01*
X200951000Y-59601000D01*
X200951000Y-59601000D01*
G37*
G36*
X196151000Y-59601000D02*
G01*
X194049000Y-59601000D01*
X194049000Y-58399000D01*
X196151000Y-58399000D01*
X196151000Y-59601000D01*
X196151000Y-59601000D01*
G37*
G36*
X139084468Y-58216065D02*
G01*
X139123138Y-58227796D01*
X139158777Y-58246846D01*
X139190017Y-58272483D01*
X139215654Y-58303723D01*
X139234704Y-58339362D01*
X139246435Y-58378032D01*
X139251000Y-58424388D01*
X139251000Y-59075612D01*
X139246435Y-59121968D01*
X139234704Y-59160638D01*
X139215654Y-59196277D01*
X139190017Y-59227517D01*
X139158777Y-59253154D01*
X139123138Y-59272204D01*
X139084468Y-59283935D01*
X139038112Y-59288500D01*
X137961888Y-59288500D01*
X137915532Y-59283935D01*
X137876862Y-59272204D01*
X137841223Y-59253154D01*
X137809983Y-59227517D01*
X137784346Y-59196277D01*
X137765296Y-59160638D01*
X137753565Y-59121968D01*
X137749000Y-59075612D01*
X137749000Y-58424388D01*
X137753565Y-58378032D01*
X137765296Y-58339362D01*
X137784346Y-58303723D01*
X137809983Y-58272483D01*
X137841223Y-58246846D01*
X137876862Y-58227796D01*
X137915532Y-58216065D01*
X137961888Y-58211500D01*
X139038112Y-58211500D01*
X139084468Y-58216065D01*
X139084468Y-58216065D01*
G37*
G36*
X96244098Y-53047033D02*
G01*
X96708350Y-53239332D01*
X96708352Y-53239333D01*
X97126168Y-53518509D01*
X97481491Y-53873832D01*
X97760667Y-54291648D01*
X97760668Y-54291650D01*
X97952967Y-54755902D01*
X98051000Y-55248747D01*
X98051000Y-55751253D01*
X97952967Y-56244098D01*
X97825243Y-56552451D01*
X97760667Y-56708352D01*
X97481491Y-57126168D01*
X97126168Y-57481491D01*
X96708352Y-57760667D01*
X96708351Y-57760668D01*
X96708350Y-57760668D01*
X96244098Y-57952967D01*
X95751253Y-58051000D01*
X95248747Y-58051000D01*
X94755902Y-57952967D01*
X94291650Y-57760668D01*
X94291649Y-57760668D01*
X94291648Y-57760667D01*
X93873832Y-57481491D01*
X93518509Y-57126168D01*
X93239333Y-56708352D01*
X93174757Y-56552451D01*
X93047033Y-56244098D01*
X92949000Y-55751253D01*
X92949000Y-55248747D01*
X93047033Y-54755902D01*
X93239332Y-54291650D01*
X93239333Y-54291648D01*
X93518509Y-53873832D01*
X93873832Y-53518509D01*
X94291648Y-53239333D01*
X94291650Y-53239332D01*
X94755902Y-53047033D01*
X95248747Y-52949000D01*
X95751253Y-52949000D01*
X96244098Y-53047033D01*
X96244098Y-53047033D01*
G37*
G36*
X189244098Y-53047033D02*
G01*
X189708350Y-53239332D01*
X189708352Y-53239333D01*
X190126168Y-53518509D01*
X190481491Y-53873832D01*
X190760667Y-54291648D01*
X190760668Y-54291650D01*
X190952967Y-54755902D01*
X191051000Y-55248747D01*
X191051000Y-55751253D01*
X190952967Y-56244098D01*
X190825243Y-56552451D01*
X190760667Y-56708352D01*
X190481491Y-57126168D01*
X190126168Y-57481491D01*
X189708352Y-57760667D01*
X189708351Y-57760668D01*
X189708350Y-57760668D01*
X189244098Y-57952967D01*
X188751253Y-58051000D01*
X188248747Y-58051000D01*
X187755902Y-57952967D01*
X187291650Y-57760668D01*
X187291649Y-57760668D01*
X187291648Y-57760667D01*
X186873832Y-57481491D01*
X186518509Y-57126168D01*
X186239333Y-56708352D01*
X186174757Y-56552451D01*
X186047033Y-56244098D01*
X185949000Y-55751253D01*
X185949000Y-55248747D01*
X186047033Y-54755902D01*
X186239332Y-54291650D01*
X186239333Y-54291648D01*
X186518509Y-53873832D01*
X186873832Y-53518509D01*
X187291648Y-53239333D01*
X187291650Y-53239332D01*
X187755902Y-53047033D01*
X188248747Y-52949000D01*
X188751253Y-52949000D01*
X189244098Y-53047033D01*
X189244098Y-53047033D01*
G37*
G36*
X196151000Y-57901000D02*
G01*
X194049000Y-57901000D01*
X194049000Y-56699000D01*
X196151000Y-56699000D01*
X196151000Y-57901000D01*
X196151000Y-57901000D01*
G37*
G36*
X200951000Y-57901000D02*
G01*
X198849000Y-57901000D01*
X198849000Y-56699000D01*
X200951000Y-56699000D01*
X200951000Y-57901000D01*
X200951000Y-57901000D01*
G37*
G36*
X203296968Y-56253565D02*
G01*
X203335638Y-56265296D01*
X203371277Y-56284346D01*
X203402517Y-56309983D01*
X203428154Y-56341223D01*
X203447204Y-56376862D01*
X203458935Y-56415532D01*
X203463500Y-56461888D01*
X203463500Y-57538112D01*
X203458935Y-57584468D01*
X203447204Y-57623138D01*
X203428154Y-57658777D01*
X203402517Y-57690017D01*
X203371277Y-57715654D01*
X203335638Y-57734704D01*
X203296968Y-57746435D01*
X203250612Y-57751000D01*
X202599388Y-57751000D01*
X202553032Y-57746435D01*
X202514362Y-57734704D01*
X202478723Y-57715654D01*
X202447483Y-57690017D01*
X202421846Y-57658777D01*
X202402796Y-57623138D01*
X202391065Y-57584468D01*
X202386500Y-57538112D01*
X202386500Y-56461888D01*
X202391065Y-56415532D01*
X202402796Y-56376862D01*
X202421846Y-56341223D01*
X202447483Y-56309983D01*
X202478723Y-56284346D01*
X202514362Y-56265296D01*
X202553032Y-56253565D01*
X202599388Y-56249000D01*
X203250612Y-56249000D01*
X203296968Y-56253565D01*
X203296968Y-56253565D01*
G37*
G36*
X205171968Y-56253565D02*
G01*
X205210638Y-56265296D01*
X205246277Y-56284346D01*
X205277517Y-56309983D01*
X205303154Y-56341223D01*
X205322204Y-56376862D01*
X205333935Y-56415532D01*
X205338500Y-56461888D01*
X205338500Y-57538112D01*
X205333935Y-57584468D01*
X205322204Y-57623138D01*
X205303154Y-57658777D01*
X205277517Y-57690017D01*
X205246277Y-57715654D01*
X205210638Y-57734704D01*
X205171968Y-57746435D01*
X205125612Y-57751000D01*
X204474388Y-57751000D01*
X204428032Y-57746435D01*
X204389362Y-57734704D01*
X204353723Y-57715654D01*
X204322483Y-57690017D01*
X204296846Y-57658777D01*
X204277796Y-57623138D01*
X204266065Y-57584468D01*
X204261500Y-57538112D01*
X204261500Y-56461888D01*
X204266065Y-56415532D01*
X204277796Y-56376862D01*
X204296846Y-56341223D01*
X204322483Y-56309983D01*
X204353723Y-56284346D01*
X204389362Y-56265296D01*
X204428032Y-56253565D01*
X204474388Y-56249000D01*
X205125612Y-56249000D01*
X205171968Y-56253565D01*
X205171968Y-56253565D01*
G37*
G36*
X115871823Y-54382182D02*
G01*
X116037044Y-54432301D01*
X116189312Y-54513691D01*
X116322778Y-54623222D01*
X116432309Y-54756687D01*
X116513699Y-54908955D01*
X116563818Y-55074176D01*
X116576500Y-55202940D01*
X116576500Y-55797060D01*
X116563818Y-55925824D01*
X116513699Y-56091045D01*
X116432309Y-56243313D01*
X116322778Y-56376778D01*
X116189313Y-56486309D01*
X116037045Y-56567699D01*
X115871824Y-56617818D01*
X115700000Y-56634741D01*
X115528177Y-56617818D01*
X115362956Y-56567699D01*
X115210688Y-56486309D01*
X115077223Y-56376778D01*
X114967692Y-56243313D01*
X114886301Y-56091045D01*
X114836182Y-55925824D01*
X114823500Y-55797060D01*
X114823500Y-55202941D01*
X114836182Y-55074177D01*
X114886301Y-54908956D01*
X114967691Y-54756688D01*
X115077222Y-54623222D01*
X115210687Y-54513691D01*
X115362955Y-54432301D01*
X115528176Y-54382182D01*
X115700000Y-54365259D01*
X115871823Y-54382182D01*
X115871823Y-54382182D01*
G37*
G36*
X105711823Y-54382182D02*
G01*
X105877044Y-54432301D01*
X106029312Y-54513691D01*
X106162778Y-54623222D01*
X106272309Y-54756687D01*
X106353699Y-54908955D01*
X106403818Y-55074176D01*
X106416500Y-55202940D01*
X106416500Y-55797060D01*
X106403818Y-55925824D01*
X106353699Y-56091045D01*
X106272309Y-56243313D01*
X106162778Y-56376778D01*
X106029313Y-56486309D01*
X105877045Y-56567699D01*
X105711824Y-56617818D01*
X105540000Y-56634741D01*
X105368177Y-56617818D01*
X105202956Y-56567699D01*
X105050688Y-56486309D01*
X104917223Y-56376778D01*
X104807692Y-56243313D01*
X104726301Y-56091045D01*
X104676182Y-55925824D01*
X104663500Y-55797060D01*
X104663500Y-55202941D01*
X104676182Y-55074177D01*
X104726301Y-54908956D01*
X104807691Y-54756688D01*
X104917222Y-54623222D01*
X105050687Y-54513691D01*
X105202955Y-54432301D01*
X105368176Y-54382182D01*
X105540000Y-54365259D01*
X105711823Y-54382182D01*
X105711823Y-54382182D01*
G37*
G36*
X133651823Y-54382182D02*
G01*
X133817044Y-54432301D01*
X133969312Y-54513691D01*
X134102778Y-54623222D01*
X134212309Y-54756687D01*
X134293699Y-54908955D01*
X134343818Y-55074176D01*
X134356500Y-55202940D01*
X134356500Y-55797060D01*
X134343818Y-55925824D01*
X134293699Y-56091045D01*
X134212309Y-56243313D01*
X134102778Y-56376778D01*
X133969313Y-56486309D01*
X133817045Y-56567699D01*
X133651824Y-56617818D01*
X133480000Y-56634741D01*
X133308177Y-56617818D01*
X133142956Y-56567699D01*
X132990688Y-56486309D01*
X132857223Y-56376778D01*
X132747692Y-56243313D01*
X132666301Y-56091045D01*
X132616182Y-55925824D01*
X132603500Y-55797060D01*
X132603500Y-55202941D01*
X132616182Y-55074177D01*
X132666301Y-54908956D01*
X132747691Y-54756688D01*
X132857222Y-54623222D01*
X132990687Y-54513691D01*
X133142955Y-54432301D01*
X133308176Y-54382182D01*
X133480000Y-54365259D01*
X133651823Y-54382182D01*
X133651823Y-54382182D01*
G37*
G36*
X138731823Y-54382182D02*
G01*
X138897044Y-54432301D01*
X139049312Y-54513691D01*
X139182778Y-54623222D01*
X139292309Y-54756687D01*
X139373699Y-54908955D01*
X139423818Y-55074176D01*
X139436500Y-55202940D01*
X139436500Y-55797060D01*
X139423818Y-55925824D01*
X139373699Y-56091045D01*
X139292309Y-56243313D01*
X139182778Y-56376778D01*
X139049313Y-56486309D01*
X138897045Y-56567699D01*
X138731824Y-56617818D01*
X138560000Y-56634741D01*
X138388177Y-56617818D01*
X138222956Y-56567699D01*
X138070688Y-56486309D01*
X137937223Y-56376778D01*
X137827692Y-56243313D01*
X137746301Y-56091045D01*
X137696182Y-55925824D01*
X137683500Y-55797060D01*
X137683500Y-55202941D01*
X137696182Y-55074177D01*
X137746301Y-54908956D01*
X137827691Y-54756688D01*
X137937222Y-54623222D01*
X138070687Y-54513691D01*
X138222955Y-54432301D01*
X138388176Y-54382182D01*
X138560000Y-54365259D01*
X138731823Y-54382182D01*
X138731823Y-54382182D01*
G37*
G36*
X141271823Y-54382182D02*
G01*
X141437044Y-54432301D01*
X141589312Y-54513691D01*
X141722778Y-54623222D01*
X141832309Y-54756687D01*
X141913699Y-54908955D01*
X141963818Y-55074176D01*
X141976500Y-55202940D01*
X141976500Y-55797060D01*
X141963818Y-55925824D01*
X141913699Y-56091045D01*
X141832309Y-56243313D01*
X141722778Y-56376778D01*
X141589313Y-56486309D01*
X141437045Y-56567699D01*
X141271824Y-56617818D01*
X141100000Y-56634741D01*
X140928177Y-56617818D01*
X140762956Y-56567699D01*
X140610688Y-56486309D01*
X140477223Y-56376778D01*
X140367692Y-56243313D01*
X140286301Y-56091045D01*
X140236182Y-55925824D01*
X140223500Y-55797060D01*
X140223500Y-55202941D01*
X140236182Y-55074177D01*
X140286301Y-54908956D01*
X140367691Y-54756688D01*
X140477222Y-54623222D01*
X140610687Y-54513691D01*
X140762955Y-54432301D01*
X140928176Y-54382182D01*
X141100000Y-54365259D01*
X141271823Y-54382182D01*
X141271823Y-54382182D01*
G37*
G36*
X131111823Y-54382182D02*
G01*
X131277044Y-54432301D01*
X131429312Y-54513691D01*
X131562778Y-54623222D01*
X131672309Y-54756687D01*
X131753699Y-54908955D01*
X131803818Y-55074176D01*
X131816500Y-55202940D01*
X131816500Y-55797060D01*
X131803818Y-55925824D01*
X131753699Y-56091045D01*
X131672309Y-56243313D01*
X131562778Y-56376778D01*
X131429313Y-56486309D01*
X131277045Y-56567699D01*
X131111824Y-56617818D01*
X130940000Y-56634741D01*
X130768177Y-56617818D01*
X130602956Y-56567699D01*
X130450688Y-56486309D01*
X130317223Y-56376778D01*
X130207692Y-56243313D01*
X130126301Y-56091045D01*
X130076182Y-55925824D01*
X130063500Y-55797060D01*
X130063500Y-55202941D01*
X130076182Y-55074177D01*
X130126301Y-54908956D01*
X130207691Y-54756688D01*
X130317222Y-54623222D01*
X130450687Y-54513691D01*
X130602955Y-54432301D01*
X130768176Y-54382182D01*
X130940000Y-54365259D01*
X131111823Y-54382182D01*
X131111823Y-54382182D01*
G37*
G36*
X128571823Y-54382182D02*
G01*
X128737044Y-54432301D01*
X128889312Y-54513691D01*
X129022778Y-54623222D01*
X129132309Y-54756687D01*
X129213699Y-54908955D01*
X129263818Y-55074176D01*
X129276500Y-55202940D01*
X129276500Y-55797060D01*
X129263818Y-55925824D01*
X129213699Y-56091045D01*
X129132309Y-56243313D01*
X129022778Y-56376778D01*
X128889313Y-56486309D01*
X128737045Y-56567699D01*
X128571824Y-56617818D01*
X128400000Y-56634741D01*
X128228177Y-56617818D01*
X128062956Y-56567699D01*
X127910688Y-56486309D01*
X127777223Y-56376778D01*
X127667692Y-56243313D01*
X127586301Y-56091045D01*
X127536182Y-55925824D01*
X127523500Y-55797060D01*
X127523500Y-55202941D01*
X127536182Y-55074177D01*
X127586301Y-54908956D01*
X127667691Y-54756688D01*
X127777222Y-54623222D01*
X127910687Y-54513691D01*
X128062955Y-54432301D01*
X128228176Y-54382182D01*
X128400000Y-54365259D01*
X128571823Y-54382182D01*
X128571823Y-54382182D01*
G37*
G36*
X126031823Y-54382182D02*
G01*
X126197044Y-54432301D01*
X126349312Y-54513691D01*
X126482778Y-54623222D01*
X126592309Y-54756687D01*
X126673699Y-54908955D01*
X126723818Y-55074176D01*
X126736500Y-55202940D01*
X126736500Y-55797060D01*
X126723818Y-55925824D01*
X126673699Y-56091045D01*
X126592309Y-56243313D01*
X126482778Y-56376778D01*
X126349313Y-56486309D01*
X126197045Y-56567699D01*
X126031824Y-56617818D01*
X125860000Y-56634741D01*
X125688177Y-56617818D01*
X125522956Y-56567699D01*
X125370688Y-56486309D01*
X125237223Y-56376778D01*
X125127692Y-56243313D01*
X125046301Y-56091045D01*
X124996182Y-55925824D01*
X124983500Y-55797060D01*
X124983500Y-55202941D01*
X124996182Y-55074177D01*
X125046301Y-54908956D01*
X125127691Y-54756688D01*
X125237222Y-54623222D01*
X125370687Y-54513691D01*
X125522955Y-54432301D01*
X125688176Y-54382182D01*
X125860000Y-54365259D01*
X126031823Y-54382182D01*
X126031823Y-54382182D01*
G37*
G36*
X123491823Y-54382182D02*
G01*
X123657044Y-54432301D01*
X123809312Y-54513691D01*
X123942778Y-54623222D01*
X124052309Y-54756687D01*
X124133699Y-54908955D01*
X124183818Y-55074176D01*
X124196500Y-55202940D01*
X124196500Y-55797060D01*
X124183818Y-55925824D01*
X124133699Y-56091045D01*
X124052309Y-56243313D01*
X123942778Y-56376778D01*
X123809313Y-56486309D01*
X123657045Y-56567699D01*
X123491824Y-56617818D01*
X123320000Y-56634741D01*
X123148177Y-56617818D01*
X122982956Y-56567699D01*
X122830688Y-56486309D01*
X122697223Y-56376778D01*
X122587692Y-56243313D01*
X122506301Y-56091045D01*
X122456182Y-55925824D01*
X122443500Y-55797060D01*
X122443500Y-55202941D01*
X122456182Y-55074177D01*
X122506301Y-54908956D01*
X122587691Y-54756688D01*
X122697222Y-54623222D01*
X122830687Y-54513691D01*
X122982955Y-54432301D01*
X123148176Y-54382182D01*
X123320000Y-54365259D01*
X123491823Y-54382182D01*
X123491823Y-54382182D01*
G37*
G36*
X120951823Y-54382182D02*
G01*
X121117044Y-54432301D01*
X121269312Y-54513691D01*
X121402778Y-54623222D01*
X121512309Y-54756687D01*
X121593699Y-54908955D01*
X121643818Y-55074176D01*
X121656500Y-55202940D01*
X121656500Y-55797060D01*
X121643818Y-55925824D01*
X121593699Y-56091045D01*
X121512309Y-56243313D01*
X121402778Y-56376778D01*
X121269313Y-56486309D01*
X121117045Y-56567699D01*
X120951824Y-56617818D01*
X120780000Y-56634741D01*
X120608177Y-56617818D01*
X120442956Y-56567699D01*
X120290688Y-56486309D01*
X120157223Y-56376778D01*
X120047692Y-56243313D01*
X119966301Y-56091045D01*
X119916182Y-55925824D01*
X119903500Y-55797060D01*
X119903500Y-55202941D01*
X119916182Y-55074177D01*
X119966301Y-54908956D01*
X120047691Y-54756688D01*
X120157222Y-54623222D01*
X120290687Y-54513691D01*
X120442955Y-54432301D01*
X120608176Y-54382182D01*
X120780000Y-54365259D01*
X120951823Y-54382182D01*
X120951823Y-54382182D01*
G37*
G36*
X118411823Y-54382182D02*
G01*
X118577044Y-54432301D01*
X118729312Y-54513691D01*
X118862778Y-54623222D01*
X118972309Y-54756687D01*
X119053699Y-54908955D01*
X119103818Y-55074176D01*
X119116500Y-55202940D01*
X119116500Y-55797060D01*
X119103818Y-55925824D01*
X119053699Y-56091045D01*
X118972309Y-56243313D01*
X118862778Y-56376778D01*
X118729313Y-56486309D01*
X118577045Y-56567699D01*
X118411824Y-56617818D01*
X118240000Y-56634741D01*
X118068177Y-56617818D01*
X117902956Y-56567699D01*
X117750688Y-56486309D01*
X117617223Y-56376778D01*
X117507692Y-56243313D01*
X117426301Y-56091045D01*
X117376182Y-55925824D01*
X117363500Y-55797060D01*
X117363500Y-55202941D01*
X117376182Y-55074177D01*
X117426301Y-54908956D01*
X117507691Y-54756688D01*
X117617222Y-54623222D01*
X117750687Y-54513691D01*
X117902955Y-54432301D01*
X118068176Y-54382182D01*
X118240000Y-54365259D01*
X118411823Y-54382182D01*
X118411823Y-54382182D01*
G37*
G36*
X113331823Y-54382182D02*
G01*
X113497044Y-54432301D01*
X113649312Y-54513691D01*
X113782778Y-54623222D01*
X113892309Y-54756687D01*
X113973699Y-54908955D01*
X114023818Y-55074176D01*
X114036500Y-55202940D01*
X114036500Y-55797060D01*
X114023818Y-55925824D01*
X113973699Y-56091045D01*
X113892309Y-56243313D01*
X113782778Y-56376778D01*
X113649313Y-56486309D01*
X113497045Y-56567699D01*
X113331824Y-56617818D01*
X113160000Y-56634741D01*
X112988177Y-56617818D01*
X112822956Y-56567699D01*
X112670688Y-56486309D01*
X112537223Y-56376778D01*
X112427692Y-56243313D01*
X112346301Y-56091045D01*
X112296182Y-55925824D01*
X112283500Y-55797060D01*
X112283500Y-55202941D01*
X112296182Y-55074177D01*
X112346301Y-54908956D01*
X112427691Y-54756688D01*
X112537222Y-54623222D01*
X112670687Y-54513691D01*
X112822955Y-54432301D01*
X112988176Y-54382182D01*
X113160000Y-54365259D01*
X113331823Y-54382182D01*
X113331823Y-54382182D01*
G37*
G36*
X110791823Y-54382182D02*
G01*
X110957044Y-54432301D01*
X111109312Y-54513691D01*
X111242778Y-54623222D01*
X111352309Y-54756687D01*
X111433699Y-54908955D01*
X111483818Y-55074176D01*
X111496500Y-55202940D01*
X111496500Y-55797060D01*
X111483818Y-55925824D01*
X111433699Y-56091045D01*
X111352309Y-56243313D01*
X111242778Y-56376778D01*
X111109313Y-56486309D01*
X110957045Y-56567699D01*
X110791824Y-56617818D01*
X110620000Y-56634741D01*
X110448177Y-56617818D01*
X110282956Y-56567699D01*
X110130688Y-56486309D01*
X109997223Y-56376778D01*
X109887692Y-56243313D01*
X109806301Y-56091045D01*
X109756182Y-55925824D01*
X109743500Y-55797060D01*
X109743500Y-55202941D01*
X109756182Y-55074177D01*
X109806301Y-54908956D01*
X109887691Y-54756688D01*
X109997222Y-54623222D01*
X110130687Y-54513691D01*
X110282955Y-54432301D01*
X110448176Y-54382182D01*
X110620000Y-54365259D01*
X110791823Y-54382182D01*
X110791823Y-54382182D01*
G37*
G36*
X136191823Y-54382182D02*
G01*
X136357044Y-54432301D01*
X136509312Y-54513691D01*
X136642778Y-54623222D01*
X136752309Y-54756687D01*
X136833699Y-54908955D01*
X136883818Y-55074176D01*
X136896500Y-55202940D01*
X136896500Y-55797060D01*
X136883818Y-55925824D01*
X136833699Y-56091045D01*
X136752309Y-56243313D01*
X136642778Y-56376778D01*
X136509313Y-56486309D01*
X136357045Y-56567699D01*
X136191824Y-56617818D01*
X136020000Y-56634741D01*
X135848177Y-56617818D01*
X135682956Y-56567699D01*
X135530688Y-56486309D01*
X135397223Y-56376778D01*
X135287692Y-56243313D01*
X135206301Y-56091045D01*
X135156182Y-55925824D01*
X135143500Y-55797060D01*
X135143500Y-55202941D01*
X135156182Y-55074177D01*
X135206301Y-54908956D01*
X135287691Y-54756688D01*
X135397222Y-54623222D01*
X135530687Y-54513691D01*
X135682955Y-54432301D01*
X135848176Y-54382182D01*
X136020000Y-54365259D01*
X136191823Y-54382182D01*
X136191823Y-54382182D01*
G37*
G36*
X108251823Y-54382182D02*
G01*
X108417044Y-54432301D01*
X108569312Y-54513691D01*
X108702778Y-54623222D01*
X108812309Y-54756687D01*
X108893699Y-54908955D01*
X108943818Y-55074176D01*
X108956500Y-55202940D01*
X108956500Y-55797060D01*
X108943818Y-55925824D01*
X108893699Y-56091045D01*
X108812309Y-56243313D01*
X108702778Y-56376778D01*
X108569313Y-56486309D01*
X108417045Y-56567699D01*
X108251824Y-56617818D01*
X108080000Y-56634741D01*
X107908177Y-56617818D01*
X107742956Y-56567699D01*
X107590688Y-56486309D01*
X107457223Y-56376778D01*
X107347692Y-56243313D01*
X107266301Y-56091045D01*
X107216182Y-55925824D01*
X107203500Y-55797060D01*
X107203500Y-55202941D01*
X107216182Y-55074177D01*
X107266301Y-54908956D01*
X107347691Y-54756688D01*
X107457222Y-54623222D01*
X107590687Y-54513691D01*
X107742955Y-54432301D01*
X107908176Y-54382182D01*
X108080000Y-54365259D01*
X108251823Y-54382182D01*
X108251823Y-54382182D01*
G37*
G36*
X103876500Y-56630500D02*
G01*
X102123500Y-56630500D01*
X102123500Y-54369500D01*
X103876500Y-54369500D01*
X103876500Y-56630500D01*
X103876500Y-56630500D01*
G37*
G36*
X100464795Y-50920156D02*
G01*
X100571150Y-50941311D01*
X100671334Y-50982809D01*
X100771520Y-51024307D01*
X100951844Y-51144795D01*
X101105205Y-51298156D01*
X101225693Y-51478480D01*
X101308689Y-51678851D01*
X101351000Y-51891560D01*
X101351000Y-52108440D01*
X101308689Y-52321149D01*
X101225693Y-52521520D01*
X101105205Y-52701844D01*
X100951844Y-52855205D01*
X100771520Y-52975693D01*
X100671334Y-53017191D01*
X100571150Y-53058689D01*
X100464794Y-53079845D01*
X100358440Y-53101000D01*
X100141560Y-53101000D01*
X100035206Y-53079845D01*
X99928850Y-53058689D01*
X99728480Y-52975693D01*
X99548156Y-52855205D01*
X99394795Y-52701844D01*
X99274307Y-52521520D01*
X99191311Y-52321149D01*
X99149000Y-52108440D01*
X99149000Y-51891560D01*
X99191311Y-51678851D01*
X99274307Y-51478480D01*
X99394795Y-51298156D01*
X99548156Y-51144795D01*
X99728480Y-51024307D01*
X99928850Y-50941311D01*
X100035205Y-50920156D01*
X100141560Y-50899000D01*
X100358440Y-50899000D01*
X100464795Y-50920156D01*
X100464795Y-50920156D01*
G37*
G36*
X204214795Y-50920156D02*
G01*
X204321150Y-50941311D01*
X204421334Y-50982809D01*
X204521520Y-51024307D01*
X204701844Y-51144795D01*
X204855205Y-51298156D01*
X204975693Y-51478480D01*
X205058689Y-51678851D01*
X205101000Y-51891560D01*
X205101000Y-52108440D01*
X205058689Y-52321149D01*
X204975693Y-52521520D01*
X204855205Y-52701844D01*
X204701844Y-52855205D01*
X204521520Y-52975693D01*
X204421334Y-53017191D01*
X204321150Y-53058689D01*
X204214794Y-53079845D01*
X204108440Y-53101000D01*
X203891560Y-53101000D01*
X203785206Y-53079845D01*
X203678850Y-53058689D01*
X203478480Y-52975693D01*
X203298156Y-52855205D01*
X203144795Y-52701844D01*
X203024307Y-52521520D01*
X202941311Y-52321149D01*
X202899000Y-52108440D01*
X202899000Y-51891560D01*
X202941311Y-51678851D01*
X203024307Y-51478480D01*
X203144795Y-51298156D01*
X203298156Y-51144795D01*
X203478480Y-51024307D01*
X203678850Y-50941311D01*
X203785205Y-50920156D01*
X203891560Y-50899000D01*
X204108440Y-50899000D01*
X204214795Y-50920156D01*
X204214795Y-50920156D01*
G37*
M02*
