G04 #@! TF.GenerationSoftware,KiCad,Pcbnew,5.1.2-f72e74a~84~ubuntu18.04.1*
G04 #@! TF.CreationDate,2019-08-20T01:18:15+05:30*
G04 #@! TF.ProjectId,ESP32_MESSAGE_DISPLAY,45535033-325f-44d4-9553-534147455f44,1.0*
G04 #@! TF.SameCoordinates,Original*
G04 #@! TF.FileFunction,Legend,Top*
G04 #@! TF.FilePolarity,Positive*
%FSLAX46Y46*%
G04 Gerber Fmt 4.6, Leading zero omitted, Abs format (unit mm)*
G04 Created by KiCad (PCBNEW 5.1.2-f72e74a~84~ubuntu18.04.1) date 2019-08-20 01:18:15*
%MOMM*%
%LPD*%
G04 APERTURE LIST*
%ADD10C,0.150000*%
%ADD11C,0.120000*%
%ADD12C,0.300000*%
%ADD13C,0.304800*%
G04 APERTURE END LIST*
D10*
X145452380Y-27182380D02*
X144880952Y-27182380D01*
X145166666Y-27182380D02*
X145166666Y-26182380D01*
X145071428Y-26325238D01*
X144976190Y-26420476D01*
X144880952Y-26468095D01*
X146404761Y-27182380D02*
X145833333Y-27182380D01*
X146119047Y-27182380D02*
X146119047Y-26182380D01*
X146023809Y-26325238D01*
X145928571Y-26420476D01*
X145833333Y-26468095D01*
X146738095Y-26182380D02*
X147404761Y-26182380D01*
X146976190Y-27182380D01*
X147785714Y-27087142D02*
X147833333Y-27134761D01*
X147785714Y-27182380D01*
X147738095Y-27134761D01*
X147785714Y-27087142D01*
X147785714Y-27182380D01*
X148452380Y-26182380D02*
X148547619Y-26182380D01*
X148642857Y-26230000D01*
X148690476Y-26277619D01*
X148738095Y-26372857D01*
X148785714Y-26563333D01*
X148785714Y-26801428D01*
X148738095Y-26991904D01*
X148690476Y-27087142D01*
X148642857Y-27134761D01*
X148547619Y-27182380D01*
X148452380Y-27182380D01*
X148357142Y-27134761D01*
X148309523Y-27087142D01*
X148261904Y-26991904D01*
X148214285Y-26801428D01*
X148214285Y-26563333D01*
X148261904Y-26372857D01*
X148309523Y-26277619D01*
X148357142Y-26230000D01*
X148452380Y-26182380D01*
X149404761Y-26182380D02*
X149500000Y-26182380D01*
X149595238Y-26230000D01*
X149642857Y-26277619D01*
X149690476Y-26372857D01*
X149738095Y-26563333D01*
X149738095Y-26801428D01*
X149690476Y-26991904D01*
X149642857Y-27087142D01*
X149595238Y-27134761D01*
X149500000Y-27182380D01*
X149404761Y-27182380D01*
X149309523Y-27134761D01*
X149261904Y-27087142D01*
X149214285Y-26991904D01*
X149166666Y-26801428D01*
X149166666Y-26563333D01*
X149214285Y-26372857D01*
X149261904Y-26277619D01*
X149309523Y-26230000D01*
X149404761Y-26182380D01*
X150357142Y-26182380D02*
X150452380Y-26182380D01*
X150547619Y-26230000D01*
X150595238Y-26277619D01*
X150642857Y-26372857D01*
X150690476Y-26563333D01*
X150690476Y-26801428D01*
X150642857Y-26991904D01*
X150595238Y-27087142D01*
X150547619Y-27134761D01*
X150452380Y-27182380D01*
X150357142Y-27182380D01*
X150261904Y-27134761D01*
X150214285Y-27087142D01*
X150166666Y-26991904D01*
X150119047Y-26801428D01*
X150119047Y-26563333D01*
X150166666Y-26372857D01*
X150214285Y-26277619D01*
X150261904Y-26230000D01*
X150357142Y-26182380D01*
X151880952Y-27182380D02*
X151880952Y-26515714D01*
X151880952Y-26610952D02*
X151928571Y-26563333D01*
X152023809Y-26515714D01*
X152166666Y-26515714D01*
X152261904Y-26563333D01*
X152309523Y-26658571D01*
X152309523Y-27182380D01*
X152309523Y-26658571D02*
X152357142Y-26563333D01*
X152452380Y-26515714D01*
X152595238Y-26515714D01*
X152690476Y-26563333D01*
X152738095Y-26658571D01*
X152738095Y-27182380D01*
X153214285Y-27182380D02*
X153214285Y-26515714D01*
X153214285Y-26610952D02*
X153261904Y-26563333D01*
X153357142Y-26515714D01*
X153500000Y-26515714D01*
X153595238Y-26563333D01*
X153642857Y-26658571D01*
X153642857Y-27182380D01*
X153642857Y-26658571D02*
X153690476Y-26563333D01*
X153785714Y-26515714D01*
X153928571Y-26515714D01*
X154023809Y-26563333D01*
X154071428Y-26658571D01*
X154071428Y-27182380D01*
D11*
X91000000Y-28000000D02*
X208000000Y-28000000D01*
X91000000Y-48000000D02*
X91000000Y-27413579D01*
X208000000Y-48000000D02*
X208000000Y-27413579D01*
X208000000Y-28000000D02*
X206873496Y-28586421D01*
X208000000Y-28000000D02*
X206873496Y-27413579D01*
X91000000Y-28000000D02*
X92126504Y-28586421D01*
X91000000Y-28000000D02*
X92126504Y-27413579D01*
D10*
X233389047Y-85047619D02*
X233436666Y-84952380D01*
X233484285Y-84904761D01*
X233579523Y-84857142D01*
X233627142Y-84857142D01*
X233722380Y-84904761D01*
X233770000Y-84952380D01*
X233817619Y-85047619D01*
X233817619Y-85238095D01*
X233770000Y-85333333D01*
X233722380Y-85380952D01*
X233627142Y-85428571D01*
X233579523Y-85428571D01*
X233484285Y-85380952D01*
X233436666Y-85333333D01*
X233389047Y-85238095D01*
X233389047Y-85047619D01*
X233341428Y-84952380D01*
X233293809Y-84904761D01*
X233198571Y-84857142D01*
X233008095Y-84857142D01*
X232912857Y-84904761D01*
X232865238Y-84952380D01*
X232817619Y-85047619D01*
X232817619Y-85238095D01*
X232865238Y-85333333D01*
X232912857Y-85380952D01*
X233008095Y-85428571D01*
X233198571Y-85428571D01*
X233293809Y-85380952D01*
X233341428Y-85333333D01*
X233389047Y-85238095D01*
X233722380Y-85809523D02*
X233770000Y-85857142D01*
X233817619Y-85952380D01*
X233817619Y-86190476D01*
X233770000Y-86285714D01*
X233722380Y-86333333D01*
X233627142Y-86380952D01*
X233531904Y-86380952D01*
X233389047Y-86333333D01*
X232817619Y-85761904D01*
X232817619Y-86380952D01*
X232912857Y-86809523D02*
X232865238Y-86857142D01*
X232817619Y-86809523D01*
X232865238Y-86761904D01*
X232912857Y-86809523D01*
X232817619Y-86809523D01*
X233817619Y-87476190D02*
X233817619Y-87571428D01*
X233770000Y-87666666D01*
X233722380Y-87714285D01*
X233627142Y-87761904D01*
X233436666Y-87809523D01*
X233198571Y-87809523D01*
X233008095Y-87761904D01*
X232912857Y-87714285D01*
X232865238Y-87666666D01*
X232817619Y-87571428D01*
X232817619Y-87476190D01*
X232865238Y-87380952D01*
X232912857Y-87333333D01*
X233008095Y-87285714D01*
X233198571Y-87238095D01*
X233436666Y-87238095D01*
X233627142Y-87285714D01*
X233722380Y-87333333D01*
X233770000Y-87380952D01*
X233817619Y-87476190D01*
X233817619Y-88428571D02*
X233817619Y-88523809D01*
X233770000Y-88619047D01*
X233722380Y-88666666D01*
X233627142Y-88714285D01*
X233436666Y-88761904D01*
X233198571Y-88761904D01*
X233008095Y-88714285D01*
X232912857Y-88666666D01*
X232865238Y-88619047D01*
X232817619Y-88523809D01*
X232817619Y-88428571D01*
X232865238Y-88333333D01*
X232912857Y-88285714D01*
X233008095Y-88238095D01*
X233198571Y-88190476D01*
X233436666Y-88190476D01*
X233627142Y-88238095D01*
X233722380Y-88285714D01*
X233770000Y-88333333D01*
X233817619Y-88428571D01*
X233817619Y-89380952D02*
X233817619Y-89476190D01*
X233770000Y-89571428D01*
X233722380Y-89619047D01*
X233627142Y-89666666D01*
X233436666Y-89714285D01*
X233198571Y-89714285D01*
X233008095Y-89666666D01*
X232912857Y-89619047D01*
X232865238Y-89571428D01*
X232817619Y-89476190D01*
X232817619Y-89380952D01*
X232865238Y-89285714D01*
X232912857Y-89238095D01*
X233008095Y-89190476D01*
X233198571Y-89142857D01*
X233436666Y-89142857D01*
X233627142Y-89190476D01*
X233722380Y-89238095D01*
X233770000Y-89285714D01*
X233817619Y-89380952D01*
X232817619Y-90904761D02*
X233484285Y-90904761D01*
X233389047Y-90904761D02*
X233436666Y-90952380D01*
X233484285Y-91047619D01*
X233484285Y-91190476D01*
X233436666Y-91285714D01*
X233341428Y-91333333D01*
X232817619Y-91333333D01*
X233341428Y-91333333D02*
X233436666Y-91380952D01*
X233484285Y-91476190D01*
X233484285Y-91619047D01*
X233436666Y-91714285D01*
X233341428Y-91761904D01*
X232817619Y-91761904D01*
X232817619Y-92238095D02*
X233484285Y-92238095D01*
X233389047Y-92238095D02*
X233436666Y-92285714D01*
X233484285Y-92380952D01*
X233484285Y-92523809D01*
X233436666Y-92619047D01*
X233341428Y-92666666D01*
X232817619Y-92666666D01*
X233341428Y-92666666D02*
X233436666Y-92714285D01*
X233484285Y-92809523D01*
X233484285Y-92952380D01*
X233436666Y-93047619D01*
X233341428Y-93095238D01*
X232817619Y-93095238D01*
D11*
X232000000Y-48000000D02*
X232000000Y-130000000D01*
X208000000Y-48000000D02*
X232586421Y-48000000D01*
X208000000Y-130000000D02*
X232586421Y-130000000D01*
X232000000Y-130000000D02*
X231413579Y-128873496D01*
X232000000Y-130000000D02*
X232586421Y-128873496D01*
X232000000Y-48000000D02*
X231413579Y-49126504D01*
X232000000Y-48000000D02*
X232586421Y-49126504D01*
D12*
X181542857Y-127250000D02*
X182257142Y-127250000D01*
X181400000Y-127678571D02*
X181900000Y-126178571D01*
X182400000Y-127678571D01*
X183757142Y-127535714D02*
X183685714Y-127607142D01*
X183471428Y-127678571D01*
X183328571Y-127678571D01*
X183114285Y-127607142D01*
X182971428Y-127464285D01*
X182900000Y-127321428D01*
X182828571Y-127035714D01*
X182828571Y-126821428D01*
X182900000Y-126535714D01*
X182971428Y-126392857D01*
X183114285Y-126250000D01*
X183328571Y-126178571D01*
X183471428Y-126178571D01*
X183685714Y-126250000D01*
X183757142Y-126321428D01*
X184400000Y-127678571D02*
X184400000Y-126178571D01*
X185257142Y-127678571D02*
X184614285Y-126821428D01*
X185257142Y-126178571D02*
X184400000Y-127035714D01*
X121971428Y-127607142D02*
X122185714Y-127678571D01*
X122542857Y-127678571D01*
X122685714Y-127607142D01*
X122757142Y-127535714D01*
X122828571Y-127392857D01*
X122828571Y-127250000D01*
X122757142Y-127107142D01*
X122685714Y-127035714D01*
X122542857Y-126964285D01*
X122257142Y-126892857D01*
X122114285Y-126821428D01*
X122042857Y-126750000D01*
X121971428Y-126607142D01*
X121971428Y-126464285D01*
X122042857Y-126321428D01*
X122114285Y-126250000D01*
X122257142Y-126178571D01*
X122614285Y-126178571D01*
X122828571Y-126250000D01*
X124328571Y-127535714D02*
X124257142Y-127607142D01*
X124042857Y-127678571D01*
X123900000Y-127678571D01*
X123685714Y-127607142D01*
X123542857Y-127464285D01*
X123471428Y-127321428D01*
X123400000Y-127035714D01*
X123400000Y-126821428D01*
X123471428Y-126535714D01*
X123542857Y-126392857D01*
X123685714Y-126250000D01*
X123900000Y-126178571D01*
X124042857Y-126178571D01*
X124257142Y-126250000D01*
X124328571Y-126321428D01*
X125828571Y-127678571D02*
X125328571Y-126964285D01*
X124971428Y-127678571D02*
X124971428Y-126178571D01*
X125542857Y-126178571D01*
X125685714Y-126250000D01*
X125757142Y-126321428D01*
X125828571Y-126464285D01*
X125828571Y-126678571D01*
X125757142Y-126821428D01*
X125685714Y-126892857D01*
X125542857Y-126964285D01*
X124971428Y-126964285D01*
X126757142Y-126178571D02*
X127042857Y-126178571D01*
X127185714Y-126250000D01*
X127328571Y-126392857D01*
X127400000Y-126678571D01*
X127400000Y-127178571D01*
X127328571Y-127464285D01*
X127185714Y-127607142D01*
X127042857Y-127678571D01*
X126757142Y-127678571D01*
X126614285Y-127607142D01*
X126471428Y-127464285D01*
X126400000Y-127178571D01*
X126400000Y-126678571D01*
X126471428Y-126392857D01*
X126614285Y-126250000D01*
X126757142Y-126178571D01*
X128757142Y-127678571D02*
X128042857Y-127678571D01*
X128042857Y-126178571D01*
X129971428Y-127678571D02*
X129257142Y-127678571D01*
X129257142Y-126178571D01*
D11*
X132000000Y-93275000D02*
X130200000Y-93275000D01*
X130150000Y-95425000D02*
X130150000Y-96525000D01*
X132050000Y-95425000D02*
X132050000Y-96525000D01*
X138800000Y-94740000D02*
X135350000Y-94740000D01*
X138800000Y-94740000D02*
X140750000Y-94740000D01*
X138800000Y-99860000D02*
X136850000Y-99860000D01*
X138800000Y-99860000D02*
X140750000Y-99860000D01*
X145596078Y-96290000D02*
X145078922Y-96290000D01*
X145596078Y-97710000D02*
X145078922Y-97710000D01*
X145621078Y-98590000D02*
X145103922Y-98590000D01*
X145621078Y-100010000D02*
X145103922Y-100010000D01*
X138803922Y-92910000D02*
X139321078Y-92910000D01*
X138803922Y-91490000D02*
X139321078Y-91490000D01*
X130390000Y-100678922D02*
X130390000Y-101196078D01*
X131810000Y-100678922D02*
X131810000Y-101196078D01*
X131810000Y-91096078D02*
X131810000Y-90578922D01*
X130390000Y-91096078D02*
X130390000Y-90578922D01*
D10*
X93000000Y-53000000D02*
X191000000Y-53000000D01*
X191000000Y-53000000D02*
X191000000Y-113000000D01*
X191000000Y-113000000D02*
X93000000Y-113000000D01*
X93000000Y-113000000D02*
X93000000Y-53000000D01*
X104760000Y-68700000D02*
X104760000Y-97910000D01*
X104760000Y-68700000D02*
X179690000Y-68700000D01*
X179690000Y-68700000D02*
X179690000Y-97910000D01*
X179690000Y-97910000D02*
X104760000Y-97910000D01*
X98410000Y-64890000D02*
X186040000Y-64890000D01*
X186040000Y-64890000D02*
X186040000Y-101720000D01*
X186040000Y-101720000D02*
X98410000Y-101720000D01*
X98410000Y-101720000D02*
X98410000Y-64890000D01*
D11*
X203678922Y-121460000D02*
X204196078Y-121460000D01*
X203678922Y-120040000D02*
X204196078Y-120040000D01*
X203678922Y-117460000D02*
X204196078Y-117460000D01*
X203678922Y-116040000D02*
X204196078Y-116040000D01*
X203678922Y-119460000D02*
X204196078Y-119460000D01*
X203678922Y-118040000D02*
X204196078Y-118040000D01*
X203678922Y-100210000D02*
X204196078Y-100210000D01*
X203678922Y-98790000D02*
X204196078Y-98790000D01*
X203678922Y-96210000D02*
X204196078Y-96210000D01*
X203678922Y-94790000D02*
X204196078Y-94790000D01*
X203678922Y-98210000D02*
X204196078Y-98210000D01*
X203678922Y-96790000D02*
X204196078Y-96790000D01*
X203678922Y-79210000D02*
X204196078Y-79210000D01*
X203678922Y-77790000D02*
X204196078Y-77790000D01*
X203678922Y-75210000D02*
X204196078Y-75210000D01*
X203678922Y-73790000D02*
X204196078Y-73790000D01*
X203678922Y-77210000D02*
X204196078Y-77210000D01*
X203678922Y-75790000D02*
X204196078Y-75790000D01*
X200000000Y-121450000D02*
X195000000Y-121450000D01*
X193900000Y-117150000D02*
X193900000Y-116050000D01*
X193900000Y-116050000D02*
X200000000Y-116050000D01*
X200000000Y-100200000D02*
X195000000Y-100200000D01*
X193900000Y-95900000D02*
X193900000Y-94800000D01*
X193900000Y-94800000D02*
X200000000Y-94800000D01*
X200000000Y-79200000D02*
X195000000Y-79200000D01*
X193900000Y-74900000D02*
X193900000Y-73800000D01*
X193900000Y-73800000D02*
X200000000Y-73800000D01*
X200000000Y-61700000D02*
X195000000Y-61700000D01*
X193900000Y-57400000D02*
X193900000Y-56300000D01*
X193900000Y-56300000D02*
X200000000Y-56300000D01*
X91050000Y-80100000D02*
X91310000Y-80100000D01*
X93590000Y-80100000D02*
X95360000Y-80100000D01*
X95360000Y-80100000D02*
X95360000Y-80480000D01*
X95360000Y-87720000D02*
X93590000Y-87720000D01*
X91310000Y-87720000D02*
X91050000Y-87720000D01*
X95360000Y-87720000D02*
X95360000Y-87340000D01*
X124210000Y-117903922D02*
X124210000Y-118421078D01*
X122790000Y-117903922D02*
X122790000Y-118421078D01*
X183321078Y-118290000D02*
X182803922Y-118290000D01*
X183321078Y-119710000D02*
X182803922Y-119710000D01*
X137790000Y-59946078D02*
X137790000Y-59428922D01*
X139210000Y-59946078D02*
X139210000Y-59428922D01*
X203603922Y-58290000D02*
X204121078Y-58290000D01*
X203603922Y-59710000D02*
X204121078Y-59710000D01*
X203603922Y-57710000D02*
X204121078Y-57710000D01*
X203603922Y-56290000D02*
X204121078Y-56290000D01*
X203603922Y-60290000D02*
X204121078Y-60290000D01*
X203603922Y-61710000D02*
X204121078Y-61710000D01*
X106600000Y-122470000D02*
X106600000Y-120530000D01*
X106600000Y-127650000D02*
X106600000Y-125530000D01*
X118900000Y-127650000D02*
X106600000Y-127650000D01*
X118900000Y-125530000D02*
X118900000Y-127650000D01*
X118900000Y-120530000D02*
X118900000Y-122470000D01*
X118900000Y-115350000D02*
X118900000Y-117470000D01*
X106600000Y-115350000D02*
X118900000Y-115350000D01*
X106600000Y-117470000D02*
X106600000Y-115350000D01*
X117429050Y-121540000D02*
G75*
G03X117429050Y-121540000I-4579050J0D01*
G01*
X176429050Y-121540000D02*
G75*
G03X176429050Y-121540000I-4579050J0D01*
G01*
X165600000Y-117470000D02*
X165600000Y-115350000D01*
X165600000Y-115350000D02*
X177900000Y-115350000D01*
X177900000Y-115350000D02*
X177900000Y-117470000D01*
X177900000Y-120530000D02*
X177900000Y-122470000D01*
X177900000Y-125530000D02*
X177900000Y-127650000D01*
X177900000Y-127650000D02*
X165600000Y-127650000D01*
X165600000Y-127650000D02*
X165600000Y-125530000D01*
X165600000Y-122470000D02*
X165600000Y-120530000D01*
D10*
X94738095Y-51752380D02*
X94738095Y-50752380D01*
X94738095Y-51228571D02*
X95309523Y-51228571D01*
X95309523Y-51752380D02*
X95309523Y-50752380D01*
X95928571Y-51180952D02*
X95833333Y-51133333D01*
X95785714Y-51085714D01*
X95738095Y-50990476D01*
X95738095Y-50942857D01*
X95785714Y-50847619D01*
X95833333Y-50800000D01*
X95928571Y-50752380D01*
X96119047Y-50752380D01*
X96214285Y-50800000D01*
X96261904Y-50847619D01*
X96309523Y-50942857D01*
X96309523Y-50990476D01*
X96261904Y-51085714D01*
X96214285Y-51133333D01*
X96119047Y-51180952D01*
X95928571Y-51180952D01*
X95833333Y-51228571D01*
X95785714Y-51276190D01*
X95738095Y-51371428D01*
X95738095Y-51561904D01*
X95785714Y-51657142D01*
X95833333Y-51704761D01*
X95928571Y-51752380D01*
X96119047Y-51752380D01*
X96214285Y-51704761D01*
X96261904Y-51657142D01*
X96309523Y-51561904D01*
X96309523Y-51371428D01*
X96261904Y-51276190D01*
X96214285Y-51228571D01*
X96119047Y-51180952D01*
X187738095Y-51752380D02*
X187738095Y-50752380D01*
X187738095Y-51228571D02*
X188309523Y-51228571D01*
X188309523Y-51752380D02*
X188309523Y-50752380D01*
X188690476Y-50752380D02*
X189357142Y-50752380D01*
X188928571Y-51752380D01*
X187738095Y-106752380D02*
X187738095Y-105752380D01*
X187738095Y-106228571D02*
X188309523Y-106228571D01*
X188309523Y-106752380D02*
X188309523Y-105752380D01*
X189214285Y-105752380D02*
X189023809Y-105752380D01*
X188928571Y-105800000D01*
X188880952Y-105847619D01*
X188785714Y-105990476D01*
X188738095Y-106180952D01*
X188738095Y-106561904D01*
X188785714Y-106657142D01*
X188833333Y-106704761D01*
X188928571Y-106752380D01*
X189119047Y-106752380D01*
X189214285Y-106704761D01*
X189261904Y-106657142D01*
X189309523Y-106561904D01*
X189309523Y-106323809D01*
X189261904Y-106228571D01*
X189214285Y-106180952D01*
X189119047Y-106133333D01*
X188928571Y-106133333D01*
X188833333Y-106180952D01*
X188785714Y-106228571D01*
X188738095Y-106323809D01*
X94738095Y-106752380D02*
X94738095Y-105752380D01*
X94738095Y-106228571D02*
X95309523Y-106228571D01*
X95309523Y-106752380D02*
X95309523Y-105752380D01*
X96261904Y-105752380D02*
X95785714Y-105752380D01*
X95738095Y-106228571D01*
X95785714Y-106180952D01*
X95880952Y-106133333D01*
X96119047Y-106133333D01*
X96214285Y-106180952D01*
X96261904Y-106228571D01*
X96309523Y-106323809D01*
X96309523Y-106561904D01*
X96261904Y-106657142D01*
X96214285Y-106704761D01*
X96119047Y-106752380D01*
X95880952Y-106752380D01*
X95785714Y-106704761D01*
X95738095Y-106657142D01*
X129176190Y-96476190D02*
X129652380Y-96476190D01*
X128652380Y-96809523D02*
X129176190Y-96476190D01*
X128652380Y-96142857D01*
X128747619Y-95857142D02*
X128700000Y-95809523D01*
X128652380Y-95714285D01*
X128652380Y-95476190D01*
X128700000Y-95380952D01*
X128747619Y-95333333D01*
X128842857Y-95285714D01*
X128938095Y-95285714D01*
X129080952Y-95333333D01*
X129652380Y-95904761D01*
X129652380Y-95285714D01*
X138038095Y-93352380D02*
X138038095Y-94161904D01*
X138085714Y-94257142D01*
X138133333Y-94304761D01*
X138228571Y-94352380D01*
X138419047Y-94352380D01*
X138514285Y-94304761D01*
X138561904Y-94257142D01*
X138609523Y-94161904D01*
X138609523Y-93352380D01*
X139561904Y-93352380D02*
X139085714Y-93352380D01*
X139038095Y-93828571D01*
X139085714Y-93780952D01*
X139180952Y-93733333D01*
X139419047Y-93733333D01*
X139514285Y-93780952D01*
X139561904Y-93828571D01*
X139609523Y-93923809D01*
X139609523Y-94161904D01*
X139561904Y-94257142D01*
X139514285Y-94304761D01*
X139419047Y-94352380D01*
X139180952Y-94352380D01*
X139085714Y-94304761D01*
X139038095Y-94257142D01*
X147957142Y-97652380D02*
X147623809Y-97176190D01*
X147385714Y-97652380D02*
X147385714Y-96652380D01*
X147766666Y-96652380D01*
X147861904Y-96700000D01*
X147909523Y-96747619D01*
X147957142Y-96842857D01*
X147957142Y-96985714D01*
X147909523Y-97080952D01*
X147861904Y-97128571D01*
X147766666Y-97176190D01*
X147385714Y-97176190D01*
X148338095Y-96747619D02*
X148385714Y-96700000D01*
X148480952Y-96652380D01*
X148719047Y-96652380D01*
X148814285Y-96700000D01*
X148861904Y-96747619D01*
X148909523Y-96842857D01*
X148909523Y-96938095D01*
X148861904Y-97080952D01*
X148290476Y-97652380D01*
X148909523Y-97652380D01*
X149766666Y-96985714D02*
X149766666Y-97652380D01*
X149528571Y-96604761D02*
X149290476Y-97319047D01*
X149909523Y-97319047D01*
X148057142Y-99852380D02*
X147723809Y-99376190D01*
X147485714Y-99852380D02*
X147485714Y-98852380D01*
X147866666Y-98852380D01*
X147961904Y-98900000D01*
X148009523Y-98947619D01*
X148057142Y-99042857D01*
X148057142Y-99185714D01*
X148009523Y-99280952D01*
X147961904Y-99328571D01*
X147866666Y-99376190D01*
X147485714Y-99376190D01*
X148438095Y-98947619D02*
X148485714Y-98900000D01*
X148580952Y-98852380D01*
X148819047Y-98852380D01*
X148914285Y-98900000D01*
X148961904Y-98947619D01*
X149009523Y-99042857D01*
X149009523Y-99138095D01*
X148961904Y-99280952D01*
X148390476Y-99852380D01*
X149009523Y-99852380D01*
X149342857Y-98852380D02*
X149961904Y-98852380D01*
X149628571Y-99233333D01*
X149771428Y-99233333D01*
X149866666Y-99280952D01*
X149914285Y-99328571D01*
X149961904Y-99423809D01*
X149961904Y-99661904D01*
X149914285Y-99757142D01*
X149866666Y-99804761D01*
X149771428Y-99852380D01*
X149485714Y-99852380D01*
X149390476Y-99804761D01*
X149342857Y-99757142D01*
X138419642Y-90907142D02*
X138372023Y-90954761D01*
X138229166Y-91002380D01*
X138133928Y-91002380D01*
X137991071Y-90954761D01*
X137895833Y-90859523D01*
X137848214Y-90764285D01*
X137800595Y-90573809D01*
X137800595Y-90430952D01*
X137848214Y-90240476D01*
X137895833Y-90145238D01*
X137991071Y-90050000D01*
X138133928Y-90002380D01*
X138229166Y-90002380D01*
X138372023Y-90050000D01*
X138419642Y-90097619D01*
X139372023Y-91002380D02*
X138800595Y-91002380D01*
X139086309Y-91002380D02*
X139086309Y-90002380D01*
X138991071Y-90145238D01*
X138895833Y-90240476D01*
X138800595Y-90288095D01*
X140324404Y-91002380D02*
X139752976Y-91002380D01*
X140038690Y-91002380D02*
X140038690Y-90002380D01*
X139943452Y-90145238D01*
X139848214Y-90240476D01*
X139752976Y-90288095D01*
X129457142Y-101742857D02*
X129504761Y-101790476D01*
X129552380Y-101933333D01*
X129552380Y-102028571D01*
X129504761Y-102171428D01*
X129409523Y-102266666D01*
X129314285Y-102314285D01*
X129123809Y-102361904D01*
X128980952Y-102361904D01*
X128790476Y-102314285D01*
X128695238Y-102266666D01*
X128600000Y-102171428D01*
X128552380Y-102028571D01*
X128552380Y-101933333D01*
X128600000Y-101790476D01*
X128647619Y-101742857D01*
X129552380Y-100790476D02*
X129552380Y-101361904D01*
X129552380Y-101076190D02*
X128552380Y-101076190D01*
X128695238Y-101171428D01*
X128790476Y-101266666D01*
X128838095Y-101361904D01*
X128552380Y-100171428D02*
X128552380Y-100076190D01*
X128600000Y-99980952D01*
X128647619Y-99933333D01*
X128742857Y-99885714D01*
X128933333Y-99838095D01*
X129171428Y-99838095D01*
X129361904Y-99885714D01*
X129457142Y-99933333D01*
X129504761Y-99980952D01*
X129552380Y-100076190D01*
X129552380Y-100171428D01*
X129504761Y-100266666D01*
X129457142Y-100314285D01*
X129361904Y-100361904D01*
X129171428Y-100409523D01*
X128933333Y-100409523D01*
X128742857Y-100361904D01*
X128647619Y-100314285D01*
X128600000Y-100266666D01*
X128552380Y-100171428D01*
X129807142Y-91004166D02*
X129854761Y-91051785D01*
X129902380Y-91194642D01*
X129902380Y-91289880D01*
X129854761Y-91432738D01*
X129759523Y-91527976D01*
X129664285Y-91575595D01*
X129473809Y-91623214D01*
X129330952Y-91623214D01*
X129140476Y-91575595D01*
X129045238Y-91527976D01*
X128950000Y-91432738D01*
X128902380Y-91289880D01*
X128902380Y-91194642D01*
X128950000Y-91051785D01*
X128997619Y-91004166D01*
X128902380Y-90099404D02*
X128902380Y-90575595D01*
X129378571Y-90623214D01*
X129330952Y-90575595D01*
X129283333Y-90480357D01*
X129283333Y-90242261D01*
X129330952Y-90147023D01*
X129378571Y-90099404D01*
X129473809Y-90051785D01*
X129711904Y-90051785D01*
X129807142Y-90099404D01*
X129854761Y-90147023D01*
X129902380Y-90242261D01*
X129902380Y-90480357D01*
X129854761Y-90575595D01*
X129807142Y-90623214D01*
D13*
X119585333Y-77426333D02*
X119585333Y-78865666D01*
X119670000Y-79035000D01*
X119754666Y-79119666D01*
X119924000Y-79204333D01*
X120262666Y-79204333D01*
X120432000Y-79119666D01*
X120516666Y-79035000D01*
X120601333Y-78865666D01*
X120601333Y-77426333D01*
X122210000Y-78019000D02*
X122210000Y-79204333D01*
X121786666Y-77341666D02*
X121363333Y-78611666D01*
X122464000Y-78611666D01*
X111330333Y-83014333D02*
X110737666Y-82167666D01*
X110314333Y-83014333D02*
X110314333Y-81236333D01*
X110991666Y-81236333D01*
X111161000Y-81321000D01*
X111245666Y-81405666D01*
X111330333Y-81575000D01*
X111330333Y-81829000D01*
X111245666Y-81998333D01*
X111161000Y-82083000D01*
X110991666Y-82167666D01*
X110314333Y-82167666D01*
X113023666Y-81321000D02*
X112854333Y-81236333D01*
X112600333Y-81236333D01*
X112346333Y-81321000D01*
X112177000Y-81490333D01*
X112092333Y-81659666D01*
X112007666Y-81998333D01*
X112007666Y-82252333D01*
X112092333Y-82591000D01*
X112177000Y-82760333D01*
X112346333Y-82929666D01*
X112600333Y-83014333D01*
X112769666Y-83014333D01*
X113023666Y-82929666D01*
X113108333Y-82845000D01*
X113108333Y-82252333D01*
X112769666Y-82252333D01*
X113785666Y-81405666D02*
X113870333Y-81321000D01*
X114039666Y-81236333D01*
X114463000Y-81236333D01*
X114632333Y-81321000D01*
X114717000Y-81405666D01*
X114801666Y-81575000D01*
X114801666Y-81744333D01*
X114717000Y-81998333D01*
X113701000Y-83014333D01*
X114801666Y-83014333D01*
X115902333Y-81236333D02*
X116071666Y-81236333D01*
X116241000Y-81321000D01*
X116325666Y-81405666D01*
X116410333Y-81575000D01*
X116495000Y-81913666D01*
X116495000Y-82337000D01*
X116410333Y-82675666D01*
X116325666Y-82845000D01*
X116241000Y-82929666D01*
X116071666Y-83014333D01*
X115902333Y-83014333D01*
X115733000Y-82929666D01*
X115648333Y-82845000D01*
X115563666Y-82675666D01*
X115479000Y-82337000D01*
X115479000Y-81913666D01*
X115563666Y-81575000D01*
X115648333Y-81405666D01*
X115733000Y-81321000D01*
X115902333Y-81236333D01*
X117595666Y-81236333D02*
X117765000Y-81236333D01*
X117934333Y-81321000D01*
X118019000Y-81405666D01*
X118103666Y-81575000D01*
X118188333Y-81913666D01*
X118188333Y-82337000D01*
X118103666Y-82675666D01*
X118019000Y-82845000D01*
X117934333Y-82929666D01*
X117765000Y-83014333D01*
X117595666Y-83014333D01*
X117426333Y-82929666D01*
X117341666Y-82845000D01*
X117257000Y-82675666D01*
X117172333Y-82337000D01*
X117172333Y-81913666D01*
X117257000Y-81575000D01*
X117341666Y-81405666D01*
X117426333Y-81321000D01*
X117595666Y-81236333D01*
X119712333Y-81829000D02*
X119712333Y-83014333D01*
X119289000Y-81151666D02*
X118865666Y-82421666D01*
X119966333Y-82421666D01*
X120559000Y-82506333D02*
X121405666Y-82506333D01*
X120389666Y-83014333D02*
X120982333Y-81236333D01*
X121575000Y-83014333D01*
X124030333Y-83691666D02*
X123945666Y-83607000D01*
X123776333Y-83353000D01*
X123691666Y-83183666D01*
X123607000Y-82929666D01*
X123522333Y-82506333D01*
X123522333Y-82167666D01*
X123607000Y-81744333D01*
X123691666Y-81490333D01*
X123776333Y-81321000D01*
X123945666Y-81067000D01*
X124030333Y-80982333D01*
X124623000Y-81405666D02*
X124707666Y-81321000D01*
X124877000Y-81236333D01*
X125300333Y-81236333D01*
X125469666Y-81321000D01*
X125554333Y-81405666D01*
X125639000Y-81575000D01*
X125639000Y-81744333D01*
X125554333Y-81998333D01*
X124538333Y-83014333D01*
X125639000Y-83014333D01*
X126739666Y-81236333D02*
X126909000Y-81236333D01*
X127078333Y-81321000D01*
X127163000Y-81405666D01*
X127247666Y-81575000D01*
X127332333Y-81913666D01*
X127332333Y-82337000D01*
X127247666Y-82675666D01*
X127163000Y-82845000D01*
X127078333Y-82929666D01*
X126909000Y-83014333D01*
X126739666Y-83014333D01*
X126570333Y-82929666D01*
X126485666Y-82845000D01*
X126401000Y-82675666D01*
X126316333Y-82337000D01*
X126316333Y-81913666D01*
X126401000Y-81575000D01*
X126485666Y-81405666D01*
X126570333Y-81321000D01*
X126739666Y-81236333D01*
X127925000Y-83014333D02*
X128856333Y-81829000D01*
X127925000Y-81829000D02*
X128856333Y-83014333D01*
X130295666Y-81829000D02*
X130295666Y-83014333D01*
X129872333Y-81151666D02*
X129449000Y-82421666D01*
X130549666Y-82421666D01*
X131057666Y-83691666D02*
X131142333Y-83607000D01*
X131311666Y-83353000D01*
X131396333Y-83183666D01*
X131481000Y-82929666D01*
X131565666Y-82506333D01*
X131565666Y-82167666D01*
X131481000Y-81744333D01*
X131396333Y-81490333D01*
X131311666Y-81321000D01*
X131142333Y-81067000D01*
X131057666Y-80982333D01*
D10*
X206952380Y-122142857D02*
X206476190Y-122476190D01*
X206952380Y-122714285D02*
X205952380Y-122714285D01*
X205952380Y-122333333D01*
X206000000Y-122238095D01*
X206047619Y-122190476D01*
X206142857Y-122142857D01*
X206285714Y-122142857D01*
X206380952Y-122190476D01*
X206428571Y-122238095D01*
X206476190Y-122333333D01*
X206476190Y-122714285D01*
X206047619Y-121761904D02*
X206000000Y-121714285D01*
X205952380Y-121619047D01*
X205952380Y-121380952D01*
X206000000Y-121285714D01*
X206047619Y-121238095D01*
X206142857Y-121190476D01*
X206238095Y-121190476D01*
X206380952Y-121238095D01*
X206952380Y-121809523D01*
X206952380Y-121190476D01*
X206047619Y-120809523D02*
X206000000Y-120761904D01*
X205952380Y-120666666D01*
X205952380Y-120428571D01*
X206000000Y-120333333D01*
X206047619Y-120285714D01*
X206142857Y-120238095D01*
X206238095Y-120238095D01*
X206380952Y-120285714D01*
X206952380Y-120857142D01*
X206952380Y-120238095D01*
X206952380Y-116642857D02*
X206476190Y-116976190D01*
X206952380Y-117214285D02*
X205952380Y-117214285D01*
X205952380Y-116833333D01*
X206000000Y-116738095D01*
X206047619Y-116690476D01*
X206142857Y-116642857D01*
X206285714Y-116642857D01*
X206380952Y-116690476D01*
X206428571Y-116738095D01*
X206476190Y-116833333D01*
X206476190Y-117214285D01*
X206047619Y-116261904D02*
X206000000Y-116214285D01*
X205952380Y-116119047D01*
X205952380Y-115880952D01*
X206000000Y-115785714D01*
X206047619Y-115738095D01*
X206142857Y-115690476D01*
X206238095Y-115690476D01*
X206380952Y-115738095D01*
X206952380Y-116309523D01*
X206952380Y-115690476D01*
X206952380Y-114738095D02*
X206952380Y-115309523D01*
X206952380Y-115023809D02*
X205952380Y-115023809D01*
X206095238Y-115119047D01*
X206190476Y-115214285D01*
X206238095Y-115309523D01*
X206952380Y-119392857D02*
X206476190Y-119726190D01*
X206952380Y-119964285D02*
X205952380Y-119964285D01*
X205952380Y-119583333D01*
X206000000Y-119488095D01*
X206047619Y-119440476D01*
X206142857Y-119392857D01*
X206285714Y-119392857D01*
X206380952Y-119440476D01*
X206428571Y-119488095D01*
X206476190Y-119583333D01*
X206476190Y-119964285D01*
X206047619Y-119011904D02*
X206000000Y-118964285D01*
X205952380Y-118869047D01*
X205952380Y-118630952D01*
X206000000Y-118535714D01*
X206047619Y-118488095D01*
X206142857Y-118440476D01*
X206238095Y-118440476D01*
X206380952Y-118488095D01*
X206952380Y-119059523D01*
X206952380Y-118440476D01*
X205952380Y-117821428D02*
X205952380Y-117726190D01*
X206000000Y-117630952D01*
X206047619Y-117583333D01*
X206142857Y-117535714D01*
X206333333Y-117488095D01*
X206571428Y-117488095D01*
X206761904Y-117535714D01*
X206857142Y-117583333D01*
X206904761Y-117630952D01*
X206952380Y-117726190D01*
X206952380Y-117821428D01*
X206904761Y-117916666D01*
X206857142Y-117964285D01*
X206761904Y-118011904D01*
X206571428Y-118059523D01*
X206333333Y-118059523D01*
X206142857Y-118011904D01*
X206047619Y-117964285D01*
X206000000Y-117916666D01*
X205952380Y-117821428D01*
X206952380Y-101142857D02*
X206476190Y-101476190D01*
X206952380Y-101714285D02*
X205952380Y-101714285D01*
X205952380Y-101333333D01*
X206000000Y-101238095D01*
X206047619Y-101190476D01*
X206142857Y-101142857D01*
X206285714Y-101142857D01*
X206380952Y-101190476D01*
X206428571Y-101238095D01*
X206476190Y-101333333D01*
X206476190Y-101714285D01*
X206952380Y-100190476D02*
X206952380Y-100761904D01*
X206952380Y-100476190D02*
X205952380Y-100476190D01*
X206095238Y-100571428D01*
X206190476Y-100666666D01*
X206238095Y-100761904D01*
X206952380Y-99714285D02*
X206952380Y-99523809D01*
X206904761Y-99428571D01*
X206857142Y-99380952D01*
X206714285Y-99285714D01*
X206523809Y-99238095D01*
X206142857Y-99238095D01*
X206047619Y-99285714D01*
X206000000Y-99333333D01*
X205952380Y-99428571D01*
X205952380Y-99619047D01*
X206000000Y-99714285D01*
X206047619Y-99761904D01*
X206142857Y-99809523D01*
X206380952Y-99809523D01*
X206476190Y-99761904D01*
X206523809Y-99714285D01*
X206571428Y-99619047D01*
X206571428Y-99428571D01*
X206523809Y-99333333D01*
X206476190Y-99285714D01*
X206380952Y-99238095D01*
X206952380Y-95142857D02*
X206476190Y-95476190D01*
X206952380Y-95714285D02*
X205952380Y-95714285D01*
X205952380Y-95333333D01*
X206000000Y-95238095D01*
X206047619Y-95190476D01*
X206142857Y-95142857D01*
X206285714Y-95142857D01*
X206380952Y-95190476D01*
X206428571Y-95238095D01*
X206476190Y-95333333D01*
X206476190Y-95714285D01*
X206952380Y-94190476D02*
X206952380Y-94761904D01*
X206952380Y-94476190D02*
X205952380Y-94476190D01*
X206095238Y-94571428D01*
X206190476Y-94666666D01*
X206238095Y-94761904D01*
X206380952Y-93619047D02*
X206333333Y-93714285D01*
X206285714Y-93761904D01*
X206190476Y-93809523D01*
X206142857Y-93809523D01*
X206047619Y-93761904D01*
X206000000Y-93714285D01*
X205952380Y-93619047D01*
X205952380Y-93428571D01*
X206000000Y-93333333D01*
X206047619Y-93285714D01*
X206142857Y-93238095D01*
X206190476Y-93238095D01*
X206285714Y-93285714D01*
X206333333Y-93333333D01*
X206380952Y-93428571D01*
X206380952Y-93619047D01*
X206428571Y-93714285D01*
X206476190Y-93761904D01*
X206571428Y-93809523D01*
X206761904Y-93809523D01*
X206857142Y-93761904D01*
X206904761Y-93714285D01*
X206952380Y-93619047D01*
X206952380Y-93428571D01*
X206904761Y-93333333D01*
X206857142Y-93285714D01*
X206761904Y-93238095D01*
X206571428Y-93238095D01*
X206476190Y-93285714D01*
X206428571Y-93333333D01*
X206380952Y-93428571D01*
X206952380Y-98142857D02*
X206476190Y-98476190D01*
X206952380Y-98714285D02*
X205952380Y-98714285D01*
X205952380Y-98333333D01*
X206000000Y-98238095D01*
X206047619Y-98190476D01*
X206142857Y-98142857D01*
X206285714Y-98142857D01*
X206380952Y-98190476D01*
X206428571Y-98238095D01*
X206476190Y-98333333D01*
X206476190Y-98714285D01*
X206952380Y-97190476D02*
X206952380Y-97761904D01*
X206952380Y-97476190D02*
X205952380Y-97476190D01*
X206095238Y-97571428D01*
X206190476Y-97666666D01*
X206238095Y-97761904D01*
X205952380Y-96857142D02*
X205952380Y-96190476D01*
X206952380Y-96619047D01*
X206952380Y-80142857D02*
X206476190Y-80476190D01*
X206952380Y-80714285D02*
X205952380Y-80714285D01*
X205952380Y-80333333D01*
X206000000Y-80238095D01*
X206047619Y-80190476D01*
X206142857Y-80142857D01*
X206285714Y-80142857D01*
X206380952Y-80190476D01*
X206428571Y-80238095D01*
X206476190Y-80333333D01*
X206476190Y-80714285D01*
X206952380Y-79190476D02*
X206952380Y-79761904D01*
X206952380Y-79476190D02*
X205952380Y-79476190D01*
X206095238Y-79571428D01*
X206190476Y-79666666D01*
X206238095Y-79761904D01*
X205952380Y-78333333D02*
X205952380Y-78523809D01*
X206000000Y-78619047D01*
X206047619Y-78666666D01*
X206190476Y-78761904D01*
X206380952Y-78809523D01*
X206761904Y-78809523D01*
X206857142Y-78761904D01*
X206904761Y-78714285D01*
X206952380Y-78619047D01*
X206952380Y-78428571D01*
X206904761Y-78333333D01*
X206857142Y-78285714D01*
X206761904Y-78238095D01*
X206523809Y-78238095D01*
X206428571Y-78285714D01*
X206380952Y-78333333D01*
X206333333Y-78428571D01*
X206333333Y-78619047D01*
X206380952Y-78714285D01*
X206428571Y-78761904D01*
X206523809Y-78809523D01*
X206952380Y-74142857D02*
X206476190Y-74476190D01*
X206952380Y-74714285D02*
X205952380Y-74714285D01*
X205952380Y-74333333D01*
X206000000Y-74238095D01*
X206047619Y-74190476D01*
X206142857Y-74142857D01*
X206285714Y-74142857D01*
X206380952Y-74190476D01*
X206428571Y-74238095D01*
X206476190Y-74333333D01*
X206476190Y-74714285D01*
X206952380Y-73190476D02*
X206952380Y-73761904D01*
X206952380Y-73476190D02*
X205952380Y-73476190D01*
X206095238Y-73571428D01*
X206190476Y-73666666D01*
X206238095Y-73761904D01*
X205952380Y-72285714D02*
X205952380Y-72761904D01*
X206428571Y-72809523D01*
X206380952Y-72761904D01*
X206333333Y-72666666D01*
X206333333Y-72428571D01*
X206380952Y-72333333D01*
X206428571Y-72285714D01*
X206523809Y-72238095D01*
X206761904Y-72238095D01*
X206857142Y-72285714D01*
X206904761Y-72333333D01*
X206952380Y-72428571D01*
X206952380Y-72666666D01*
X206904761Y-72761904D01*
X206857142Y-72809523D01*
X206952380Y-77142857D02*
X206476190Y-77476190D01*
X206952380Y-77714285D02*
X205952380Y-77714285D01*
X205952380Y-77333333D01*
X206000000Y-77238095D01*
X206047619Y-77190476D01*
X206142857Y-77142857D01*
X206285714Y-77142857D01*
X206380952Y-77190476D01*
X206428571Y-77238095D01*
X206476190Y-77333333D01*
X206476190Y-77714285D01*
X206952380Y-76190476D02*
X206952380Y-76761904D01*
X206952380Y-76476190D02*
X205952380Y-76476190D01*
X206095238Y-76571428D01*
X206190476Y-76666666D01*
X206238095Y-76761904D01*
X206285714Y-75333333D02*
X206952380Y-75333333D01*
X205904761Y-75571428D02*
X206619047Y-75809523D01*
X206619047Y-75190476D01*
X196380952Y-115702380D02*
X195904761Y-115702380D01*
X195904761Y-114702380D01*
X196714285Y-115178571D02*
X197047619Y-115178571D01*
X197190476Y-115702380D02*
X196714285Y-115702380D01*
X196714285Y-114702380D01*
X197190476Y-114702380D01*
X197619047Y-115702380D02*
X197619047Y-114702380D01*
X197857142Y-114702380D01*
X198000000Y-114750000D01*
X198095238Y-114845238D01*
X198142857Y-114940476D01*
X198190476Y-115130952D01*
X198190476Y-115273809D01*
X198142857Y-115464285D01*
X198095238Y-115559523D01*
X198000000Y-115654761D01*
X197857142Y-115702380D01*
X197619047Y-115702380D01*
X199047619Y-115035714D02*
X199047619Y-115702380D01*
X198809523Y-114654761D02*
X198571428Y-115369047D01*
X199190476Y-115369047D01*
X196380952Y-94452380D02*
X195904761Y-94452380D01*
X195904761Y-93452380D01*
X196714285Y-93928571D02*
X197047619Y-93928571D01*
X197190476Y-94452380D02*
X196714285Y-94452380D01*
X196714285Y-93452380D01*
X197190476Y-93452380D01*
X197619047Y-94452380D02*
X197619047Y-93452380D01*
X197857142Y-93452380D01*
X198000000Y-93500000D01*
X198095238Y-93595238D01*
X198142857Y-93690476D01*
X198190476Y-93880952D01*
X198190476Y-94023809D01*
X198142857Y-94214285D01*
X198095238Y-94309523D01*
X198000000Y-94404761D01*
X197857142Y-94452380D01*
X197619047Y-94452380D01*
X198523809Y-93452380D02*
X199142857Y-93452380D01*
X198809523Y-93833333D01*
X198952380Y-93833333D01*
X199047619Y-93880952D01*
X199095238Y-93928571D01*
X199142857Y-94023809D01*
X199142857Y-94261904D01*
X199095238Y-94357142D01*
X199047619Y-94404761D01*
X198952380Y-94452380D01*
X198666666Y-94452380D01*
X198571428Y-94404761D01*
X198523809Y-94357142D01*
X196380952Y-73452380D02*
X195904761Y-73452380D01*
X195904761Y-72452380D01*
X196714285Y-72928571D02*
X197047619Y-72928571D01*
X197190476Y-73452380D02*
X196714285Y-73452380D01*
X196714285Y-72452380D01*
X197190476Y-72452380D01*
X197619047Y-73452380D02*
X197619047Y-72452380D01*
X197857142Y-72452380D01*
X198000000Y-72500000D01*
X198095238Y-72595238D01*
X198142857Y-72690476D01*
X198190476Y-72880952D01*
X198190476Y-73023809D01*
X198142857Y-73214285D01*
X198095238Y-73309523D01*
X198000000Y-73404761D01*
X197857142Y-73452380D01*
X197619047Y-73452380D01*
X198571428Y-72547619D02*
X198619047Y-72500000D01*
X198714285Y-72452380D01*
X198952380Y-72452380D01*
X199047619Y-72500000D01*
X199095238Y-72547619D01*
X199142857Y-72642857D01*
X199142857Y-72738095D01*
X199095238Y-72880952D01*
X198523809Y-73452380D01*
X199142857Y-73452380D01*
X196380952Y-55952380D02*
X195904761Y-55952380D01*
X195904761Y-54952380D01*
X196714285Y-55428571D02*
X197047619Y-55428571D01*
X197190476Y-55952380D02*
X196714285Y-55952380D01*
X196714285Y-54952380D01*
X197190476Y-54952380D01*
X197619047Y-55952380D02*
X197619047Y-54952380D01*
X197857142Y-54952380D01*
X198000000Y-55000000D01*
X198095238Y-55095238D01*
X198142857Y-55190476D01*
X198190476Y-55380952D01*
X198190476Y-55523809D01*
X198142857Y-55714285D01*
X198095238Y-55809523D01*
X198000000Y-55904761D01*
X197857142Y-55952380D01*
X197619047Y-55952380D01*
X199142857Y-55952380D02*
X198571428Y-55952380D01*
X198857142Y-55952380D02*
X198857142Y-54952380D01*
X198761904Y-55095238D01*
X198666666Y-55190476D01*
X198571428Y-55238095D01*
X96402380Y-84243333D02*
X97116666Y-84243333D01*
X97259523Y-84290952D01*
X97354761Y-84386190D01*
X97402380Y-84529047D01*
X97402380Y-84624285D01*
X97402380Y-83243333D02*
X97402380Y-83814761D01*
X97402380Y-83529047D02*
X96402380Y-83529047D01*
X96545238Y-83624285D01*
X96640476Y-83719523D01*
X96688095Y-83814761D01*
X103738095Y-52452380D02*
X103738095Y-51452380D01*
X103738095Y-51928571D02*
X104309523Y-51928571D01*
X104309523Y-52452380D02*
X104309523Y-51452380D01*
X105309523Y-52452380D02*
X104738095Y-52452380D01*
X105023809Y-52452380D02*
X105023809Y-51452380D01*
X104928571Y-51595238D01*
X104833333Y-51690476D01*
X104738095Y-51738095D01*
X98988095Y-126452380D02*
X98988095Y-125452380D01*
X98988095Y-125928571D02*
X99559523Y-125928571D01*
X99559523Y-126452380D02*
X99559523Y-125452380D01*
X99988095Y-125547619D02*
X100035714Y-125500000D01*
X100130952Y-125452380D01*
X100369047Y-125452380D01*
X100464285Y-125500000D01*
X100511904Y-125547619D01*
X100559523Y-125642857D01*
X100559523Y-125738095D01*
X100511904Y-125880952D01*
X99940476Y-126452380D01*
X100559523Y-126452380D01*
X198488095Y-126452380D02*
X198488095Y-125452380D01*
X198488095Y-125928571D02*
X199059523Y-125928571D01*
X199059523Y-126452380D02*
X199059523Y-125452380D01*
X199440476Y-125452380D02*
X200059523Y-125452380D01*
X199726190Y-125833333D01*
X199869047Y-125833333D01*
X199964285Y-125880952D01*
X200011904Y-125928571D01*
X200059523Y-126023809D01*
X200059523Y-126261904D01*
X200011904Y-126357142D01*
X199964285Y-126404761D01*
X199869047Y-126452380D01*
X199583333Y-126452380D01*
X199488095Y-126404761D01*
X199440476Y-126357142D01*
X198988095Y-52452380D02*
X198988095Y-51452380D01*
X198988095Y-51928571D02*
X199559523Y-51928571D01*
X199559523Y-52452380D02*
X199559523Y-51452380D01*
X200464285Y-51785714D02*
X200464285Y-52452380D01*
X200226190Y-51404761D02*
X199988095Y-52119047D01*
X200607142Y-52119047D01*
X125602380Y-118329166D02*
X125126190Y-118662500D01*
X125602380Y-118900595D02*
X124602380Y-118900595D01*
X124602380Y-118519642D01*
X124650000Y-118424404D01*
X124697619Y-118376785D01*
X124792857Y-118329166D01*
X124935714Y-118329166D01*
X125030952Y-118376785D01*
X125078571Y-118424404D01*
X125126190Y-118519642D01*
X125126190Y-118900595D01*
X125030952Y-117757738D02*
X124983333Y-117852976D01*
X124935714Y-117900595D01*
X124840476Y-117948214D01*
X124792857Y-117948214D01*
X124697619Y-117900595D01*
X124650000Y-117852976D01*
X124602380Y-117757738D01*
X124602380Y-117567261D01*
X124650000Y-117472023D01*
X124697619Y-117424404D01*
X124792857Y-117376785D01*
X124840476Y-117376785D01*
X124935714Y-117424404D01*
X124983333Y-117472023D01*
X125030952Y-117567261D01*
X125030952Y-117757738D01*
X125078571Y-117852976D01*
X125126190Y-117900595D01*
X125221428Y-117948214D01*
X125411904Y-117948214D01*
X125507142Y-117900595D01*
X125554761Y-117852976D01*
X125602380Y-117757738D01*
X125602380Y-117567261D01*
X125554761Y-117472023D01*
X125507142Y-117424404D01*
X125411904Y-117376785D01*
X125221428Y-117376785D01*
X125126190Y-117424404D01*
X125078571Y-117472023D01*
X125030952Y-117567261D01*
X182895833Y-121102380D02*
X182562500Y-120626190D01*
X182324404Y-121102380D02*
X182324404Y-120102380D01*
X182705357Y-120102380D01*
X182800595Y-120150000D01*
X182848214Y-120197619D01*
X182895833Y-120292857D01*
X182895833Y-120435714D01*
X182848214Y-120530952D01*
X182800595Y-120578571D01*
X182705357Y-120626190D01*
X182324404Y-120626190D01*
X183372023Y-121102380D02*
X183562500Y-121102380D01*
X183657738Y-121054761D01*
X183705357Y-121007142D01*
X183800595Y-120864285D01*
X183848214Y-120673809D01*
X183848214Y-120292857D01*
X183800595Y-120197619D01*
X183752976Y-120150000D01*
X183657738Y-120102380D01*
X183467261Y-120102380D01*
X183372023Y-120150000D01*
X183324404Y-120197619D01*
X183276785Y-120292857D01*
X183276785Y-120530952D01*
X183324404Y-120626190D01*
X183372023Y-120673809D01*
X183467261Y-120721428D01*
X183657738Y-120721428D01*
X183752976Y-120673809D01*
X183800595Y-120626190D01*
X183848214Y-120530952D01*
X137302380Y-60330357D02*
X136826190Y-60663690D01*
X137302380Y-60901785D02*
X136302380Y-60901785D01*
X136302380Y-60520833D01*
X136350000Y-60425595D01*
X136397619Y-60377976D01*
X136492857Y-60330357D01*
X136635714Y-60330357D01*
X136730952Y-60377976D01*
X136778571Y-60425595D01*
X136826190Y-60520833D01*
X136826190Y-60901785D01*
X137302380Y-59377976D02*
X137302380Y-59949404D01*
X137302380Y-59663690D02*
X136302380Y-59663690D01*
X136445238Y-59758928D01*
X136540476Y-59854166D01*
X136588095Y-59949404D01*
X136302380Y-58758928D02*
X136302380Y-58663690D01*
X136350000Y-58568452D01*
X136397619Y-58520833D01*
X136492857Y-58473214D01*
X136683333Y-58425595D01*
X136921428Y-58425595D01*
X137111904Y-58473214D01*
X137207142Y-58520833D01*
X137254761Y-58568452D01*
X137302380Y-58663690D01*
X137302380Y-58758928D01*
X137254761Y-58854166D01*
X137207142Y-58901785D01*
X137111904Y-58949404D01*
X136921428Y-58997023D01*
X136683333Y-58997023D01*
X136492857Y-58949404D01*
X136397619Y-58901785D01*
X136350000Y-58854166D01*
X136302380Y-58758928D01*
X206952380Y-59642857D02*
X206476190Y-59976190D01*
X206952380Y-60214285D02*
X205952380Y-60214285D01*
X205952380Y-59833333D01*
X206000000Y-59738095D01*
X206047619Y-59690476D01*
X206142857Y-59642857D01*
X206285714Y-59642857D01*
X206380952Y-59690476D01*
X206428571Y-59738095D01*
X206476190Y-59833333D01*
X206476190Y-60214285D01*
X206952380Y-58690476D02*
X206952380Y-59261904D01*
X206952380Y-58976190D02*
X205952380Y-58976190D01*
X206095238Y-59071428D01*
X206190476Y-59166666D01*
X206238095Y-59261904D01*
X206952380Y-57738095D02*
X206952380Y-58309523D01*
X206952380Y-58023809D02*
X205952380Y-58023809D01*
X206095238Y-58119047D01*
X206190476Y-58214285D01*
X206238095Y-58309523D01*
X206952380Y-56892857D02*
X206476190Y-57226190D01*
X206952380Y-57464285D02*
X205952380Y-57464285D01*
X205952380Y-57083333D01*
X206000000Y-56988095D01*
X206047619Y-56940476D01*
X206142857Y-56892857D01*
X206285714Y-56892857D01*
X206380952Y-56940476D01*
X206428571Y-56988095D01*
X206476190Y-57083333D01*
X206476190Y-57464285D01*
X206952380Y-55940476D02*
X206952380Y-56511904D01*
X206952380Y-56226190D02*
X205952380Y-56226190D01*
X206095238Y-56321428D01*
X206190476Y-56416666D01*
X206238095Y-56511904D01*
X206047619Y-55559523D02*
X206000000Y-55511904D01*
X205952380Y-55416666D01*
X205952380Y-55178571D01*
X206000000Y-55083333D01*
X206047619Y-55035714D01*
X206142857Y-54988095D01*
X206238095Y-54988095D01*
X206380952Y-55035714D01*
X206952380Y-55607142D01*
X206952380Y-54988095D01*
X206952380Y-62392857D02*
X206476190Y-62726190D01*
X206952380Y-62964285D02*
X205952380Y-62964285D01*
X205952380Y-62583333D01*
X206000000Y-62488095D01*
X206047619Y-62440476D01*
X206142857Y-62392857D01*
X206285714Y-62392857D01*
X206380952Y-62440476D01*
X206428571Y-62488095D01*
X206476190Y-62583333D01*
X206476190Y-62964285D01*
X206952380Y-61440476D02*
X206952380Y-62011904D01*
X206952380Y-61726190D02*
X205952380Y-61726190D01*
X206095238Y-61821428D01*
X206190476Y-61916666D01*
X206238095Y-62011904D01*
X205952380Y-61107142D02*
X205952380Y-60488095D01*
X206333333Y-60821428D01*
X206333333Y-60678571D01*
X206380952Y-60583333D01*
X206428571Y-60535714D01*
X206523809Y-60488095D01*
X206761904Y-60488095D01*
X206857142Y-60535714D01*
X206904761Y-60583333D01*
X206952380Y-60678571D01*
X206952380Y-60964285D01*
X206904761Y-61059523D01*
X206857142Y-61107142D01*
X111516666Y-114744761D02*
X111659523Y-114792380D01*
X111897619Y-114792380D01*
X111992857Y-114744761D01*
X112040476Y-114697142D01*
X112088095Y-114601904D01*
X112088095Y-114506666D01*
X112040476Y-114411428D01*
X111992857Y-114363809D01*
X111897619Y-114316190D01*
X111707142Y-114268571D01*
X111611904Y-114220952D01*
X111564285Y-114173333D01*
X111516666Y-114078095D01*
X111516666Y-113982857D01*
X111564285Y-113887619D01*
X111611904Y-113840000D01*
X111707142Y-113792380D01*
X111945238Y-113792380D01*
X112088095Y-113840000D01*
X112421428Y-113792380D02*
X112659523Y-114792380D01*
X112850000Y-114078095D01*
X113040476Y-114792380D01*
X113278571Y-113792380D01*
X113564285Y-113792380D02*
X114183333Y-113792380D01*
X113850000Y-114173333D01*
X113992857Y-114173333D01*
X114088095Y-114220952D01*
X114135714Y-114268571D01*
X114183333Y-114363809D01*
X114183333Y-114601904D01*
X114135714Y-114697142D01*
X114088095Y-114744761D01*
X113992857Y-114792380D01*
X113707142Y-114792380D01*
X113611904Y-114744761D01*
X113564285Y-114697142D01*
X170516666Y-114744761D02*
X170659523Y-114792380D01*
X170897619Y-114792380D01*
X170992857Y-114744761D01*
X171040476Y-114697142D01*
X171088095Y-114601904D01*
X171088095Y-114506666D01*
X171040476Y-114411428D01*
X170992857Y-114363809D01*
X170897619Y-114316190D01*
X170707142Y-114268571D01*
X170611904Y-114220952D01*
X170564285Y-114173333D01*
X170516666Y-114078095D01*
X170516666Y-113982857D01*
X170564285Y-113887619D01*
X170611904Y-113840000D01*
X170707142Y-113792380D01*
X170945238Y-113792380D01*
X171088095Y-113840000D01*
X171421428Y-113792380D02*
X171659523Y-114792380D01*
X171850000Y-114078095D01*
X172040476Y-114792380D01*
X172278571Y-113792380D01*
X173088095Y-114125714D02*
X173088095Y-114792380D01*
X172850000Y-113744761D02*
X172611904Y-114459047D01*
X173230952Y-114459047D01*
M02*
