G04 #@! TF.GenerationSoftware,KiCad,Pcbnew,5.1.2-f72e74a~84~ubuntu18.04.1*
G04 #@! TF.CreationDate,2019-08-20T01:18:15+05:30*
G04 #@! TF.ProjectId,ESP32_MESSAGE_DISPLAY,45535033-325f-44d4-9553-534147455f44,1.0*
G04 #@! TF.SameCoordinates,Original*
G04 #@! TF.FileFunction,Paste,Top*
G04 #@! TF.FilePolarity,Positive*
%FSLAX46Y46*%
G04 Gerber Fmt 4.6, Leading zero omitted, Abs format (unit mm)*
G04 Created by KiCad (PCBNEW 5.1.2-f72e74a~84~ubuntu18.04.1) date 2019-08-20 01:18:15*
%MOMM*%
%LPD*%
G04 APERTURE LIST*
%ADD10R,1.800000X1.750000*%
%ADD11C,0.100000*%
%ADD12C,0.600000*%
%ADD13C,0.975000*%
%ADD14R,2.000000X1.100000*%
%ADD15R,1.900000X1.175000*%
%ADD16R,1.900000X2.375000*%
%ADD17R,2.100000X1.475000*%
%ADD18R,1.380000X0.450000*%
G04 APERTURE END LIST*
D10*
X131100000Y-97600000D03*
X131100000Y-94350000D03*
D11*
G36*
X142114703Y-95095722D02*
G01*
X142129264Y-95097882D01*
X142143543Y-95101459D01*
X142157403Y-95106418D01*
X142170710Y-95112712D01*
X142183336Y-95120280D01*
X142195159Y-95129048D01*
X142206066Y-95138934D01*
X142215952Y-95149841D01*
X142224720Y-95161664D01*
X142232288Y-95174290D01*
X142238582Y-95187597D01*
X142243541Y-95201457D01*
X142247118Y-95215736D01*
X142249278Y-95230297D01*
X142250000Y-95245000D01*
X142250000Y-95545000D01*
X142249278Y-95559703D01*
X142247118Y-95574264D01*
X142243541Y-95588543D01*
X142238582Y-95602403D01*
X142232288Y-95615710D01*
X142224720Y-95628336D01*
X142215952Y-95640159D01*
X142206066Y-95651066D01*
X142195159Y-95660952D01*
X142183336Y-95669720D01*
X142170710Y-95677288D01*
X142157403Y-95683582D01*
X142143543Y-95688541D01*
X142129264Y-95692118D01*
X142114703Y-95694278D01*
X142100000Y-95695000D01*
X140450000Y-95695000D01*
X140435297Y-95694278D01*
X140420736Y-95692118D01*
X140406457Y-95688541D01*
X140392597Y-95683582D01*
X140379290Y-95677288D01*
X140366664Y-95669720D01*
X140354841Y-95660952D01*
X140343934Y-95651066D01*
X140334048Y-95640159D01*
X140325280Y-95628336D01*
X140317712Y-95615710D01*
X140311418Y-95602403D01*
X140306459Y-95588543D01*
X140302882Y-95574264D01*
X140300722Y-95559703D01*
X140300000Y-95545000D01*
X140300000Y-95245000D01*
X140300722Y-95230297D01*
X140302882Y-95215736D01*
X140306459Y-95201457D01*
X140311418Y-95187597D01*
X140317712Y-95174290D01*
X140325280Y-95161664D01*
X140334048Y-95149841D01*
X140343934Y-95138934D01*
X140354841Y-95129048D01*
X140366664Y-95120280D01*
X140379290Y-95112712D01*
X140392597Y-95106418D01*
X140406457Y-95101459D01*
X140420736Y-95097882D01*
X140435297Y-95095722D01*
X140450000Y-95095000D01*
X142100000Y-95095000D01*
X142114703Y-95095722D01*
X142114703Y-95095722D01*
G37*
D12*
X141275000Y-95395000D03*
D11*
G36*
X142114703Y-96365722D02*
G01*
X142129264Y-96367882D01*
X142143543Y-96371459D01*
X142157403Y-96376418D01*
X142170710Y-96382712D01*
X142183336Y-96390280D01*
X142195159Y-96399048D01*
X142206066Y-96408934D01*
X142215952Y-96419841D01*
X142224720Y-96431664D01*
X142232288Y-96444290D01*
X142238582Y-96457597D01*
X142243541Y-96471457D01*
X142247118Y-96485736D01*
X142249278Y-96500297D01*
X142250000Y-96515000D01*
X142250000Y-96815000D01*
X142249278Y-96829703D01*
X142247118Y-96844264D01*
X142243541Y-96858543D01*
X142238582Y-96872403D01*
X142232288Y-96885710D01*
X142224720Y-96898336D01*
X142215952Y-96910159D01*
X142206066Y-96921066D01*
X142195159Y-96930952D01*
X142183336Y-96939720D01*
X142170710Y-96947288D01*
X142157403Y-96953582D01*
X142143543Y-96958541D01*
X142129264Y-96962118D01*
X142114703Y-96964278D01*
X142100000Y-96965000D01*
X140450000Y-96965000D01*
X140435297Y-96964278D01*
X140420736Y-96962118D01*
X140406457Y-96958541D01*
X140392597Y-96953582D01*
X140379290Y-96947288D01*
X140366664Y-96939720D01*
X140354841Y-96930952D01*
X140343934Y-96921066D01*
X140334048Y-96910159D01*
X140325280Y-96898336D01*
X140317712Y-96885710D01*
X140311418Y-96872403D01*
X140306459Y-96858543D01*
X140302882Y-96844264D01*
X140300722Y-96829703D01*
X140300000Y-96815000D01*
X140300000Y-96515000D01*
X140300722Y-96500297D01*
X140302882Y-96485736D01*
X140306459Y-96471457D01*
X140311418Y-96457597D01*
X140317712Y-96444290D01*
X140325280Y-96431664D01*
X140334048Y-96419841D01*
X140343934Y-96408934D01*
X140354841Y-96399048D01*
X140366664Y-96390280D01*
X140379290Y-96382712D01*
X140392597Y-96376418D01*
X140406457Y-96371459D01*
X140420736Y-96367882D01*
X140435297Y-96365722D01*
X140450000Y-96365000D01*
X142100000Y-96365000D01*
X142114703Y-96365722D01*
X142114703Y-96365722D01*
G37*
D12*
X141275000Y-96665000D03*
D11*
G36*
X142114703Y-97635722D02*
G01*
X142129264Y-97637882D01*
X142143543Y-97641459D01*
X142157403Y-97646418D01*
X142170710Y-97652712D01*
X142183336Y-97660280D01*
X142195159Y-97669048D01*
X142206066Y-97678934D01*
X142215952Y-97689841D01*
X142224720Y-97701664D01*
X142232288Y-97714290D01*
X142238582Y-97727597D01*
X142243541Y-97741457D01*
X142247118Y-97755736D01*
X142249278Y-97770297D01*
X142250000Y-97785000D01*
X142250000Y-98085000D01*
X142249278Y-98099703D01*
X142247118Y-98114264D01*
X142243541Y-98128543D01*
X142238582Y-98142403D01*
X142232288Y-98155710D01*
X142224720Y-98168336D01*
X142215952Y-98180159D01*
X142206066Y-98191066D01*
X142195159Y-98200952D01*
X142183336Y-98209720D01*
X142170710Y-98217288D01*
X142157403Y-98223582D01*
X142143543Y-98228541D01*
X142129264Y-98232118D01*
X142114703Y-98234278D01*
X142100000Y-98235000D01*
X140450000Y-98235000D01*
X140435297Y-98234278D01*
X140420736Y-98232118D01*
X140406457Y-98228541D01*
X140392597Y-98223582D01*
X140379290Y-98217288D01*
X140366664Y-98209720D01*
X140354841Y-98200952D01*
X140343934Y-98191066D01*
X140334048Y-98180159D01*
X140325280Y-98168336D01*
X140317712Y-98155710D01*
X140311418Y-98142403D01*
X140306459Y-98128543D01*
X140302882Y-98114264D01*
X140300722Y-98099703D01*
X140300000Y-98085000D01*
X140300000Y-97785000D01*
X140300722Y-97770297D01*
X140302882Y-97755736D01*
X140306459Y-97741457D01*
X140311418Y-97727597D01*
X140317712Y-97714290D01*
X140325280Y-97701664D01*
X140334048Y-97689841D01*
X140343934Y-97678934D01*
X140354841Y-97669048D01*
X140366664Y-97660280D01*
X140379290Y-97652712D01*
X140392597Y-97646418D01*
X140406457Y-97641459D01*
X140420736Y-97637882D01*
X140435297Y-97635722D01*
X140450000Y-97635000D01*
X142100000Y-97635000D01*
X142114703Y-97635722D01*
X142114703Y-97635722D01*
G37*
D12*
X141275000Y-97935000D03*
D11*
G36*
X142114703Y-98905722D02*
G01*
X142129264Y-98907882D01*
X142143543Y-98911459D01*
X142157403Y-98916418D01*
X142170710Y-98922712D01*
X142183336Y-98930280D01*
X142195159Y-98939048D01*
X142206066Y-98948934D01*
X142215952Y-98959841D01*
X142224720Y-98971664D01*
X142232288Y-98984290D01*
X142238582Y-98997597D01*
X142243541Y-99011457D01*
X142247118Y-99025736D01*
X142249278Y-99040297D01*
X142250000Y-99055000D01*
X142250000Y-99355000D01*
X142249278Y-99369703D01*
X142247118Y-99384264D01*
X142243541Y-99398543D01*
X142238582Y-99412403D01*
X142232288Y-99425710D01*
X142224720Y-99438336D01*
X142215952Y-99450159D01*
X142206066Y-99461066D01*
X142195159Y-99470952D01*
X142183336Y-99479720D01*
X142170710Y-99487288D01*
X142157403Y-99493582D01*
X142143543Y-99498541D01*
X142129264Y-99502118D01*
X142114703Y-99504278D01*
X142100000Y-99505000D01*
X140450000Y-99505000D01*
X140435297Y-99504278D01*
X140420736Y-99502118D01*
X140406457Y-99498541D01*
X140392597Y-99493582D01*
X140379290Y-99487288D01*
X140366664Y-99479720D01*
X140354841Y-99470952D01*
X140343934Y-99461066D01*
X140334048Y-99450159D01*
X140325280Y-99438336D01*
X140317712Y-99425710D01*
X140311418Y-99412403D01*
X140306459Y-99398543D01*
X140302882Y-99384264D01*
X140300722Y-99369703D01*
X140300000Y-99355000D01*
X140300000Y-99055000D01*
X140300722Y-99040297D01*
X140302882Y-99025736D01*
X140306459Y-99011457D01*
X140311418Y-98997597D01*
X140317712Y-98984290D01*
X140325280Y-98971664D01*
X140334048Y-98959841D01*
X140343934Y-98948934D01*
X140354841Y-98939048D01*
X140366664Y-98930280D01*
X140379290Y-98922712D01*
X140392597Y-98916418D01*
X140406457Y-98911459D01*
X140420736Y-98907882D01*
X140435297Y-98905722D01*
X140450000Y-98905000D01*
X142100000Y-98905000D01*
X142114703Y-98905722D01*
X142114703Y-98905722D01*
G37*
D12*
X141275000Y-99205000D03*
D11*
G36*
X137164703Y-98905722D02*
G01*
X137179264Y-98907882D01*
X137193543Y-98911459D01*
X137207403Y-98916418D01*
X137220710Y-98922712D01*
X137233336Y-98930280D01*
X137245159Y-98939048D01*
X137256066Y-98948934D01*
X137265952Y-98959841D01*
X137274720Y-98971664D01*
X137282288Y-98984290D01*
X137288582Y-98997597D01*
X137293541Y-99011457D01*
X137297118Y-99025736D01*
X137299278Y-99040297D01*
X137300000Y-99055000D01*
X137300000Y-99355000D01*
X137299278Y-99369703D01*
X137297118Y-99384264D01*
X137293541Y-99398543D01*
X137288582Y-99412403D01*
X137282288Y-99425710D01*
X137274720Y-99438336D01*
X137265952Y-99450159D01*
X137256066Y-99461066D01*
X137245159Y-99470952D01*
X137233336Y-99479720D01*
X137220710Y-99487288D01*
X137207403Y-99493582D01*
X137193543Y-99498541D01*
X137179264Y-99502118D01*
X137164703Y-99504278D01*
X137150000Y-99505000D01*
X135500000Y-99505000D01*
X135485297Y-99504278D01*
X135470736Y-99502118D01*
X135456457Y-99498541D01*
X135442597Y-99493582D01*
X135429290Y-99487288D01*
X135416664Y-99479720D01*
X135404841Y-99470952D01*
X135393934Y-99461066D01*
X135384048Y-99450159D01*
X135375280Y-99438336D01*
X135367712Y-99425710D01*
X135361418Y-99412403D01*
X135356459Y-99398543D01*
X135352882Y-99384264D01*
X135350722Y-99369703D01*
X135350000Y-99355000D01*
X135350000Y-99055000D01*
X135350722Y-99040297D01*
X135352882Y-99025736D01*
X135356459Y-99011457D01*
X135361418Y-98997597D01*
X135367712Y-98984290D01*
X135375280Y-98971664D01*
X135384048Y-98959841D01*
X135393934Y-98948934D01*
X135404841Y-98939048D01*
X135416664Y-98930280D01*
X135429290Y-98922712D01*
X135442597Y-98916418D01*
X135456457Y-98911459D01*
X135470736Y-98907882D01*
X135485297Y-98905722D01*
X135500000Y-98905000D01*
X137150000Y-98905000D01*
X137164703Y-98905722D01*
X137164703Y-98905722D01*
G37*
D12*
X136325000Y-99205000D03*
D11*
G36*
X137164703Y-97635722D02*
G01*
X137179264Y-97637882D01*
X137193543Y-97641459D01*
X137207403Y-97646418D01*
X137220710Y-97652712D01*
X137233336Y-97660280D01*
X137245159Y-97669048D01*
X137256066Y-97678934D01*
X137265952Y-97689841D01*
X137274720Y-97701664D01*
X137282288Y-97714290D01*
X137288582Y-97727597D01*
X137293541Y-97741457D01*
X137297118Y-97755736D01*
X137299278Y-97770297D01*
X137300000Y-97785000D01*
X137300000Y-98085000D01*
X137299278Y-98099703D01*
X137297118Y-98114264D01*
X137293541Y-98128543D01*
X137288582Y-98142403D01*
X137282288Y-98155710D01*
X137274720Y-98168336D01*
X137265952Y-98180159D01*
X137256066Y-98191066D01*
X137245159Y-98200952D01*
X137233336Y-98209720D01*
X137220710Y-98217288D01*
X137207403Y-98223582D01*
X137193543Y-98228541D01*
X137179264Y-98232118D01*
X137164703Y-98234278D01*
X137150000Y-98235000D01*
X135500000Y-98235000D01*
X135485297Y-98234278D01*
X135470736Y-98232118D01*
X135456457Y-98228541D01*
X135442597Y-98223582D01*
X135429290Y-98217288D01*
X135416664Y-98209720D01*
X135404841Y-98200952D01*
X135393934Y-98191066D01*
X135384048Y-98180159D01*
X135375280Y-98168336D01*
X135367712Y-98155710D01*
X135361418Y-98142403D01*
X135356459Y-98128543D01*
X135352882Y-98114264D01*
X135350722Y-98099703D01*
X135350000Y-98085000D01*
X135350000Y-97785000D01*
X135350722Y-97770297D01*
X135352882Y-97755736D01*
X135356459Y-97741457D01*
X135361418Y-97727597D01*
X135367712Y-97714290D01*
X135375280Y-97701664D01*
X135384048Y-97689841D01*
X135393934Y-97678934D01*
X135404841Y-97669048D01*
X135416664Y-97660280D01*
X135429290Y-97652712D01*
X135442597Y-97646418D01*
X135456457Y-97641459D01*
X135470736Y-97637882D01*
X135485297Y-97635722D01*
X135500000Y-97635000D01*
X137150000Y-97635000D01*
X137164703Y-97635722D01*
X137164703Y-97635722D01*
G37*
D12*
X136325000Y-97935000D03*
D11*
G36*
X137164703Y-96365722D02*
G01*
X137179264Y-96367882D01*
X137193543Y-96371459D01*
X137207403Y-96376418D01*
X137220710Y-96382712D01*
X137233336Y-96390280D01*
X137245159Y-96399048D01*
X137256066Y-96408934D01*
X137265952Y-96419841D01*
X137274720Y-96431664D01*
X137282288Y-96444290D01*
X137288582Y-96457597D01*
X137293541Y-96471457D01*
X137297118Y-96485736D01*
X137299278Y-96500297D01*
X137300000Y-96515000D01*
X137300000Y-96815000D01*
X137299278Y-96829703D01*
X137297118Y-96844264D01*
X137293541Y-96858543D01*
X137288582Y-96872403D01*
X137282288Y-96885710D01*
X137274720Y-96898336D01*
X137265952Y-96910159D01*
X137256066Y-96921066D01*
X137245159Y-96930952D01*
X137233336Y-96939720D01*
X137220710Y-96947288D01*
X137207403Y-96953582D01*
X137193543Y-96958541D01*
X137179264Y-96962118D01*
X137164703Y-96964278D01*
X137150000Y-96965000D01*
X135500000Y-96965000D01*
X135485297Y-96964278D01*
X135470736Y-96962118D01*
X135456457Y-96958541D01*
X135442597Y-96953582D01*
X135429290Y-96947288D01*
X135416664Y-96939720D01*
X135404841Y-96930952D01*
X135393934Y-96921066D01*
X135384048Y-96910159D01*
X135375280Y-96898336D01*
X135367712Y-96885710D01*
X135361418Y-96872403D01*
X135356459Y-96858543D01*
X135352882Y-96844264D01*
X135350722Y-96829703D01*
X135350000Y-96815000D01*
X135350000Y-96515000D01*
X135350722Y-96500297D01*
X135352882Y-96485736D01*
X135356459Y-96471457D01*
X135361418Y-96457597D01*
X135367712Y-96444290D01*
X135375280Y-96431664D01*
X135384048Y-96419841D01*
X135393934Y-96408934D01*
X135404841Y-96399048D01*
X135416664Y-96390280D01*
X135429290Y-96382712D01*
X135442597Y-96376418D01*
X135456457Y-96371459D01*
X135470736Y-96367882D01*
X135485297Y-96365722D01*
X135500000Y-96365000D01*
X137150000Y-96365000D01*
X137164703Y-96365722D01*
X137164703Y-96365722D01*
G37*
D12*
X136325000Y-96665000D03*
D11*
G36*
X137164703Y-95095722D02*
G01*
X137179264Y-95097882D01*
X137193543Y-95101459D01*
X137207403Y-95106418D01*
X137220710Y-95112712D01*
X137233336Y-95120280D01*
X137245159Y-95129048D01*
X137256066Y-95138934D01*
X137265952Y-95149841D01*
X137274720Y-95161664D01*
X137282288Y-95174290D01*
X137288582Y-95187597D01*
X137293541Y-95201457D01*
X137297118Y-95215736D01*
X137299278Y-95230297D01*
X137300000Y-95245000D01*
X137300000Y-95545000D01*
X137299278Y-95559703D01*
X137297118Y-95574264D01*
X137293541Y-95588543D01*
X137288582Y-95602403D01*
X137282288Y-95615710D01*
X137274720Y-95628336D01*
X137265952Y-95640159D01*
X137256066Y-95651066D01*
X137245159Y-95660952D01*
X137233336Y-95669720D01*
X137220710Y-95677288D01*
X137207403Y-95683582D01*
X137193543Y-95688541D01*
X137179264Y-95692118D01*
X137164703Y-95694278D01*
X137150000Y-95695000D01*
X135500000Y-95695000D01*
X135485297Y-95694278D01*
X135470736Y-95692118D01*
X135456457Y-95688541D01*
X135442597Y-95683582D01*
X135429290Y-95677288D01*
X135416664Y-95669720D01*
X135404841Y-95660952D01*
X135393934Y-95651066D01*
X135384048Y-95640159D01*
X135375280Y-95628336D01*
X135367712Y-95615710D01*
X135361418Y-95602403D01*
X135356459Y-95588543D01*
X135352882Y-95574264D01*
X135350722Y-95559703D01*
X135350000Y-95545000D01*
X135350000Y-95245000D01*
X135350722Y-95230297D01*
X135352882Y-95215736D01*
X135356459Y-95201457D01*
X135361418Y-95187597D01*
X135367712Y-95174290D01*
X135375280Y-95161664D01*
X135384048Y-95149841D01*
X135393934Y-95138934D01*
X135404841Y-95129048D01*
X135416664Y-95120280D01*
X135429290Y-95112712D01*
X135442597Y-95106418D01*
X135456457Y-95101459D01*
X135470736Y-95097882D01*
X135485297Y-95095722D01*
X135500000Y-95095000D01*
X137150000Y-95095000D01*
X137164703Y-95095722D01*
X137164703Y-95095722D01*
G37*
D12*
X136325000Y-95395000D03*
D11*
G36*
X144667642Y-96301174D02*
G01*
X144691303Y-96304684D01*
X144714507Y-96310496D01*
X144737029Y-96318554D01*
X144758653Y-96328782D01*
X144779170Y-96341079D01*
X144798383Y-96355329D01*
X144816107Y-96371393D01*
X144832171Y-96389117D01*
X144846421Y-96408330D01*
X144858718Y-96428847D01*
X144868946Y-96450471D01*
X144877004Y-96472993D01*
X144882816Y-96496197D01*
X144886326Y-96519858D01*
X144887500Y-96543750D01*
X144887500Y-97456250D01*
X144886326Y-97480142D01*
X144882816Y-97503803D01*
X144877004Y-97527007D01*
X144868946Y-97549529D01*
X144858718Y-97571153D01*
X144846421Y-97591670D01*
X144832171Y-97610883D01*
X144816107Y-97628607D01*
X144798383Y-97644671D01*
X144779170Y-97658921D01*
X144758653Y-97671218D01*
X144737029Y-97681446D01*
X144714507Y-97689504D01*
X144691303Y-97695316D01*
X144667642Y-97698826D01*
X144643750Y-97700000D01*
X144156250Y-97700000D01*
X144132358Y-97698826D01*
X144108697Y-97695316D01*
X144085493Y-97689504D01*
X144062971Y-97681446D01*
X144041347Y-97671218D01*
X144020830Y-97658921D01*
X144001617Y-97644671D01*
X143983893Y-97628607D01*
X143967829Y-97610883D01*
X143953579Y-97591670D01*
X143941282Y-97571153D01*
X143931054Y-97549529D01*
X143922996Y-97527007D01*
X143917184Y-97503803D01*
X143913674Y-97480142D01*
X143912500Y-97456250D01*
X143912500Y-96543750D01*
X143913674Y-96519858D01*
X143917184Y-96496197D01*
X143922996Y-96472993D01*
X143931054Y-96450471D01*
X143941282Y-96428847D01*
X143953579Y-96408330D01*
X143967829Y-96389117D01*
X143983893Y-96371393D01*
X144001617Y-96355329D01*
X144020830Y-96341079D01*
X144041347Y-96328782D01*
X144062971Y-96318554D01*
X144085493Y-96310496D01*
X144108697Y-96304684D01*
X144132358Y-96301174D01*
X144156250Y-96300000D01*
X144643750Y-96300000D01*
X144667642Y-96301174D01*
X144667642Y-96301174D01*
G37*
D13*
X144400000Y-97000000D03*
D11*
G36*
X146542642Y-96301174D02*
G01*
X146566303Y-96304684D01*
X146589507Y-96310496D01*
X146612029Y-96318554D01*
X146633653Y-96328782D01*
X146654170Y-96341079D01*
X146673383Y-96355329D01*
X146691107Y-96371393D01*
X146707171Y-96389117D01*
X146721421Y-96408330D01*
X146733718Y-96428847D01*
X146743946Y-96450471D01*
X146752004Y-96472993D01*
X146757816Y-96496197D01*
X146761326Y-96519858D01*
X146762500Y-96543750D01*
X146762500Y-97456250D01*
X146761326Y-97480142D01*
X146757816Y-97503803D01*
X146752004Y-97527007D01*
X146743946Y-97549529D01*
X146733718Y-97571153D01*
X146721421Y-97591670D01*
X146707171Y-97610883D01*
X146691107Y-97628607D01*
X146673383Y-97644671D01*
X146654170Y-97658921D01*
X146633653Y-97671218D01*
X146612029Y-97681446D01*
X146589507Y-97689504D01*
X146566303Y-97695316D01*
X146542642Y-97698826D01*
X146518750Y-97700000D01*
X146031250Y-97700000D01*
X146007358Y-97698826D01*
X145983697Y-97695316D01*
X145960493Y-97689504D01*
X145937971Y-97681446D01*
X145916347Y-97671218D01*
X145895830Y-97658921D01*
X145876617Y-97644671D01*
X145858893Y-97628607D01*
X145842829Y-97610883D01*
X145828579Y-97591670D01*
X145816282Y-97571153D01*
X145806054Y-97549529D01*
X145797996Y-97527007D01*
X145792184Y-97503803D01*
X145788674Y-97480142D01*
X145787500Y-97456250D01*
X145787500Y-96543750D01*
X145788674Y-96519858D01*
X145792184Y-96496197D01*
X145797996Y-96472993D01*
X145806054Y-96450471D01*
X145816282Y-96428847D01*
X145828579Y-96408330D01*
X145842829Y-96389117D01*
X145858893Y-96371393D01*
X145876617Y-96355329D01*
X145895830Y-96341079D01*
X145916347Y-96328782D01*
X145937971Y-96318554D01*
X145960493Y-96310496D01*
X145983697Y-96304684D01*
X146007358Y-96301174D01*
X146031250Y-96300000D01*
X146518750Y-96300000D01*
X146542642Y-96301174D01*
X146542642Y-96301174D01*
G37*
D13*
X146275000Y-97000000D03*
D11*
G36*
X144692642Y-98601174D02*
G01*
X144716303Y-98604684D01*
X144739507Y-98610496D01*
X144762029Y-98618554D01*
X144783653Y-98628782D01*
X144804170Y-98641079D01*
X144823383Y-98655329D01*
X144841107Y-98671393D01*
X144857171Y-98689117D01*
X144871421Y-98708330D01*
X144883718Y-98728847D01*
X144893946Y-98750471D01*
X144902004Y-98772993D01*
X144907816Y-98796197D01*
X144911326Y-98819858D01*
X144912500Y-98843750D01*
X144912500Y-99756250D01*
X144911326Y-99780142D01*
X144907816Y-99803803D01*
X144902004Y-99827007D01*
X144893946Y-99849529D01*
X144883718Y-99871153D01*
X144871421Y-99891670D01*
X144857171Y-99910883D01*
X144841107Y-99928607D01*
X144823383Y-99944671D01*
X144804170Y-99958921D01*
X144783653Y-99971218D01*
X144762029Y-99981446D01*
X144739507Y-99989504D01*
X144716303Y-99995316D01*
X144692642Y-99998826D01*
X144668750Y-100000000D01*
X144181250Y-100000000D01*
X144157358Y-99998826D01*
X144133697Y-99995316D01*
X144110493Y-99989504D01*
X144087971Y-99981446D01*
X144066347Y-99971218D01*
X144045830Y-99958921D01*
X144026617Y-99944671D01*
X144008893Y-99928607D01*
X143992829Y-99910883D01*
X143978579Y-99891670D01*
X143966282Y-99871153D01*
X143956054Y-99849529D01*
X143947996Y-99827007D01*
X143942184Y-99803803D01*
X143938674Y-99780142D01*
X143937500Y-99756250D01*
X143937500Y-98843750D01*
X143938674Y-98819858D01*
X143942184Y-98796197D01*
X143947996Y-98772993D01*
X143956054Y-98750471D01*
X143966282Y-98728847D01*
X143978579Y-98708330D01*
X143992829Y-98689117D01*
X144008893Y-98671393D01*
X144026617Y-98655329D01*
X144045830Y-98641079D01*
X144066347Y-98628782D01*
X144087971Y-98618554D01*
X144110493Y-98610496D01*
X144133697Y-98604684D01*
X144157358Y-98601174D01*
X144181250Y-98600000D01*
X144668750Y-98600000D01*
X144692642Y-98601174D01*
X144692642Y-98601174D01*
G37*
D13*
X144425000Y-99300000D03*
D11*
G36*
X146567642Y-98601174D02*
G01*
X146591303Y-98604684D01*
X146614507Y-98610496D01*
X146637029Y-98618554D01*
X146658653Y-98628782D01*
X146679170Y-98641079D01*
X146698383Y-98655329D01*
X146716107Y-98671393D01*
X146732171Y-98689117D01*
X146746421Y-98708330D01*
X146758718Y-98728847D01*
X146768946Y-98750471D01*
X146777004Y-98772993D01*
X146782816Y-98796197D01*
X146786326Y-98819858D01*
X146787500Y-98843750D01*
X146787500Y-99756250D01*
X146786326Y-99780142D01*
X146782816Y-99803803D01*
X146777004Y-99827007D01*
X146768946Y-99849529D01*
X146758718Y-99871153D01*
X146746421Y-99891670D01*
X146732171Y-99910883D01*
X146716107Y-99928607D01*
X146698383Y-99944671D01*
X146679170Y-99958921D01*
X146658653Y-99971218D01*
X146637029Y-99981446D01*
X146614507Y-99989504D01*
X146591303Y-99995316D01*
X146567642Y-99998826D01*
X146543750Y-100000000D01*
X146056250Y-100000000D01*
X146032358Y-99998826D01*
X146008697Y-99995316D01*
X145985493Y-99989504D01*
X145962971Y-99981446D01*
X145941347Y-99971218D01*
X145920830Y-99958921D01*
X145901617Y-99944671D01*
X145883893Y-99928607D01*
X145867829Y-99910883D01*
X145853579Y-99891670D01*
X145841282Y-99871153D01*
X145831054Y-99849529D01*
X145822996Y-99827007D01*
X145817184Y-99803803D01*
X145813674Y-99780142D01*
X145812500Y-99756250D01*
X145812500Y-98843750D01*
X145813674Y-98819858D01*
X145817184Y-98796197D01*
X145822996Y-98772993D01*
X145831054Y-98750471D01*
X145841282Y-98728847D01*
X145853579Y-98708330D01*
X145867829Y-98689117D01*
X145883893Y-98671393D01*
X145901617Y-98655329D01*
X145920830Y-98641079D01*
X145941347Y-98628782D01*
X145962971Y-98618554D01*
X145985493Y-98610496D01*
X146008697Y-98604684D01*
X146032358Y-98601174D01*
X146056250Y-98600000D01*
X146543750Y-98600000D01*
X146567642Y-98601174D01*
X146567642Y-98601174D01*
G37*
D13*
X146300000Y-99300000D03*
D11*
G36*
X140267642Y-91501174D02*
G01*
X140291303Y-91504684D01*
X140314507Y-91510496D01*
X140337029Y-91518554D01*
X140358653Y-91528782D01*
X140379170Y-91541079D01*
X140398383Y-91555329D01*
X140416107Y-91571393D01*
X140432171Y-91589117D01*
X140446421Y-91608330D01*
X140458718Y-91628847D01*
X140468946Y-91650471D01*
X140477004Y-91672993D01*
X140482816Y-91696197D01*
X140486326Y-91719858D01*
X140487500Y-91743750D01*
X140487500Y-92656250D01*
X140486326Y-92680142D01*
X140482816Y-92703803D01*
X140477004Y-92727007D01*
X140468946Y-92749529D01*
X140458718Y-92771153D01*
X140446421Y-92791670D01*
X140432171Y-92810883D01*
X140416107Y-92828607D01*
X140398383Y-92844671D01*
X140379170Y-92858921D01*
X140358653Y-92871218D01*
X140337029Y-92881446D01*
X140314507Y-92889504D01*
X140291303Y-92895316D01*
X140267642Y-92898826D01*
X140243750Y-92900000D01*
X139756250Y-92900000D01*
X139732358Y-92898826D01*
X139708697Y-92895316D01*
X139685493Y-92889504D01*
X139662971Y-92881446D01*
X139641347Y-92871218D01*
X139620830Y-92858921D01*
X139601617Y-92844671D01*
X139583893Y-92828607D01*
X139567829Y-92810883D01*
X139553579Y-92791670D01*
X139541282Y-92771153D01*
X139531054Y-92749529D01*
X139522996Y-92727007D01*
X139517184Y-92703803D01*
X139513674Y-92680142D01*
X139512500Y-92656250D01*
X139512500Y-91743750D01*
X139513674Y-91719858D01*
X139517184Y-91696197D01*
X139522996Y-91672993D01*
X139531054Y-91650471D01*
X139541282Y-91628847D01*
X139553579Y-91608330D01*
X139567829Y-91589117D01*
X139583893Y-91571393D01*
X139601617Y-91555329D01*
X139620830Y-91541079D01*
X139641347Y-91528782D01*
X139662971Y-91518554D01*
X139685493Y-91510496D01*
X139708697Y-91504684D01*
X139732358Y-91501174D01*
X139756250Y-91500000D01*
X140243750Y-91500000D01*
X140267642Y-91501174D01*
X140267642Y-91501174D01*
G37*
D13*
X140000000Y-92200000D03*
D11*
G36*
X138392642Y-91501174D02*
G01*
X138416303Y-91504684D01*
X138439507Y-91510496D01*
X138462029Y-91518554D01*
X138483653Y-91528782D01*
X138504170Y-91541079D01*
X138523383Y-91555329D01*
X138541107Y-91571393D01*
X138557171Y-91589117D01*
X138571421Y-91608330D01*
X138583718Y-91628847D01*
X138593946Y-91650471D01*
X138602004Y-91672993D01*
X138607816Y-91696197D01*
X138611326Y-91719858D01*
X138612500Y-91743750D01*
X138612500Y-92656250D01*
X138611326Y-92680142D01*
X138607816Y-92703803D01*
X138602004Y-92727007D01*
X138593946Y-92749529D01*
X138583718Y-92771153D01*
X138571421Y-92791670D01*
X138557171Y-92810883D01*
X138541107Y-92828607D01*
X138523383Y-92844671D01*
X138504170Y-92858921D01*
X138483653Y-92871218D01*
X138462029Y-92881446D01*
X138439507Y-92889504D01*
X138416303Y-92895316D01*
X138392642Y-92898826D01*
X138368750Y-92900000D01*
X137881250Y-92900000D01*
X137857358Y-92898826D01*
X137833697Y-92895316D01*
X137810493Y-92889504D01*
X137787971Y-92881446D01*
X137766347Y-92871218D01*
X137745830Y-92858921D01*
X137726617Y-92844671D01*
X137708893Y-92828607D01*
X137692829Y-92810883D01*
X137678579Y-92791670D01*
X137666282Y-92771153D01*
X137656054Y-92749529D01*
X137647996Y-92727007D01*
X137642184Y-92703803D01*
X137638674Y-92680142D01*
X137637500Y-92656250D01*
X137637500Y-91743750D01*
X137638674Y-91719858D01*
X137642184Y-91696197D01*
X137647996Y-91672993D01*
X137656054Y-91650471D01*
X137666282Y-91628847D01*
X137678579Y-91608330D01*
X137692829Y-91589117D01*
X137708893Y-91571393D01*
X137726617Y-91555329D01*
X137745830Y-91541079D01*
X137766347Y-91528782D01*
X137787971Y-91518554D01*
X137810493Y-91510496D01*
X137833697Y-91504684D01*
X137857358Y-91501174D01*
X137881250Y-91500000D01*
X138368750Y-91500000D01*
X138392642Y-91501174D01*
X138392642Y-91501174D01*
G37*
D13*
X138125000Y-92200000D03*
D11*
G36*
X131580142Y-101388674D02*
G01*
X131603803Y-101392184D01*
X131627007Y-101397996D01*
X131649529Y-101406054D01*
X131671153Y-101416282D01*
X131691670Y-101428579D01*
X131710883Y-101442829D01*
X131728607Y-101458893D01*
X131744671Y-101476617D01*
X131758921Y-101495830D01*
X131771218Y-101516347D01*
X131781446Y-101537971D01*
X131789504Y-101560493D01*
X131795316Y-101583697D01*
X131798826Y-101607358D01*
X131800000Y-101631250D01*
X131800000Y-102118750D01*
X131798826Y-102142642D01*
X131795316Y-102166303D01*
X131789504Y-102189507D01*
X131781446Y-102212029D01*
X131771218Y-102233653D01*
X131758921Y-102254170D01*
X131744671Y-102273383D01*
X131728607Y-102291107D01*
X131710883Y-102307171D01*
X131691670Y-102321421D01*
X131671153Y-102333718D01*
X131649529Y-102343946D01*
X131627007Y-102352004D01*
X131603803Y-102357816D01*
X131580142Y-102361326D01*
X131556250Y-102362500D01*
X130643750Y-102362500D01*
X130619858Y-102361326D01*
X130596197Y-102357816D01*
X130572993Y-102352004D01*
X130550471Y-102343946D01*
X130528847Y-102333718D01*
X130508330Y-102321421D01*
X130489117Y-102307171D01*
X130471393Y-102291107D01*
X130455329Y-102273383D01*
X130441079Y-102254170D01*
X130428782Y-102233653D01*
X130418554Y-102212029D01*
X130410496Y-102189507D01*
X130404684Y-102166303D01*
X130401174Y-102142642D01*
X130400000Y-102118750D01*
X130400000Y-101631250D01*
X130401174Y-101607358D01*
X130404684Y-101583697D01*
X130410496Y-101560493D01*
X130418554Y-101537971D01*
X130428782Y-101516347D01*
X130441079Y-101495830D01*
X130455329Y-101476617D01*
X130471393Y-101458893D01*
X130489117Y-101442829D01*
X130508330Y-101428579D01*
X130528847Y-101416282D01*
X130550471Y-101406054D01*
X130572993Y-101397996D01*
X130596197Y-101392184D01*
X130619858Y-101388674D01*
X130643750Y-101387500D01*
X131556250Y-101387500D01*
X131580142Y-101388674D01*
X131580142Y-101388674D01*
G37*
D13*
X131100000Y-101875000D03*
D11*
G36*
X131580142Y-99513674D02*
G01*
X131603803Y-99517184D01*
X131627007Y-99522996D01*
X131649529Y-99531054D01*
X131671153Y-99541282D01*
X131691670Y-99553579D01*
X131710883Y-99567829D01*
X131728607Y-99583893D01*
X131744671Y-99601617D01*
X131758921Y-99620830D01*
X131771218Y-99641347D01*
X131781446Y-99662971D01*
X131789504Y-99685493D01*
X131795316Y-99708697D01*
X131798826Y-99732358D01*
X131800000Y-99756250D01*
X131800000Y-100243750D01*
X131798826Y-100267642D01*
X131795316Y-100291303D01*
X131789504Y-100314507D01*
X131781446Y-100337029D01*
X131771218Y-100358653D01*
X131758921Y-100379170D01*
X131744671Y-100398383D01*
X131728607Y-100416107D01*
X131710883Y-100432171D01*
X131691670Y-100446421D01*
X131671153Y-100458718D01*
X131649529Y-100468946D01*
X131627007Y-100477004D01*
X131603803Y-100482816D01*
X131580142Y-100486326D01*
X131556250Y-100487500D01*
X130643750Y-100487500D01*
X130619858Y-100486326D01*
X130596197Y-100482816D01*
X130572993Y-100477004D01*
X130550471Y-100468946D01*
X130528847Y-100458718D01*
X130508330Y-100446421D01*
X130489117Y-100432171D01*
X130471393Y-100416107D01*
X130455329Y-100398383D01*
X130441079Y-100379170D01*
X130428782Y-100358653D01*
X130418554Y-100337029D01*
X130410496Y-100314507D01*
X130404684Y-100291303D01*
X130401174Y-100267642D01*
X130400000Y-100243750D01*
X130400000Y-99756250D01*
X130401174Y-99732358D01*
X130404684Y-99708697D01*
X130410496Y-99685493D01*
X130418554Y-99662971D01*
X130428782Y-99641347D01*
X130441079Y-99620830D01*
X130455329Y-99601617D01*
X130471393Y-99583893D01*
X130489117Y-99567829D01*
X130508330Y-99553579D01*
X130528847Y-99541282D01*
X130550471Y-99531054D01*
X130572993Y-99522996D01*
X130596197Y-99517184D01*
X130619858Y-99513674D01*
X130643750Y-99512500D01*
X131556250Y-99512500D01*
X131580142Y-99513674D01*
X131580142Y-99513674D01*
G37*
D13*
X131100000Y-100000000D03*
D11*
G36*
X131580142Y-89413674D02*
G01*
X131603803Y-89417184D01*
X131627007Y-89422996D01*
X131649529Y-89431054D01*
X131671153Y-89441282D01*
X131691670Y-89453579D01*
X131710883Y-89467829D01*
X131728607Y-89483893D01*
X131744671Y-89501617D01*
X131758921Y-89520830D01*
X131771218Y-89541347D01*
X131781446Y-89562971D01*
X131789504Y-89585493D01*
X131795316Y-89608697D01*
X131798826Y-89632358D01*
X131800000Y-89656250D01*
X131800000Y-90143750D01*
X131798826Y-90167642D01*
X131795316Y-90191303D01*
X131789504Y-90214507D01*
X131781446Y-90237029D01*
X131771218Y-90258653D01*
X131758921Y-90279170D01*
X131744671Y-90298383D01*
X131728607Y-90316107D01*
X131710883Y-90332171D01*
X131691670Y-90346421D01*
X131671153Y-90358718D01*
X131649529Y-90368946D01*
X131627007Y-90377004D01*
X131603803Y-90382816D01*
X131580142Y-90386326D01*
X131556250Y-90387500D01*
X130643750Y-90387500D01*
X130619858Y-90386326D01*
X130596197Y-90382816D01*
X130572993Y-90377004D01*
X130550471Y-90368946D01*
X130528847Y-90358718D01*
X130508330Y-90346421D01*
X130489117Y-90332171D01*
X130471393Y-90316107D01*
X130455329Y-90298383D01*
X130441079Y-90279170D01*
X130428782Y-90258653D01*
X130418554Y-90237029D01*
X130410496Y-90214507D01*
X130404684Y-90191303D01*
X130401174Y-90167642D01*
X130400000Y-90143750D01*
X130400000Y-89656250D01*
X130401174Y-89632358D01*
X130404684Y-89608697D01*
X130410496Y-89585493D01*
X130418554Y-89562971D01*
X130428782Y-89541347D01*
X130441079Y-89520830D01*
X130455329Y-89501617D01*
X130471393Y-89483893D01*
X130489117Y-89467829D01*
X130508330Y-89453579D01*
X130528847Y-89441282D01*
X130550471Y-89431054D01*
X130572993Y-89422996D01*
X130596197Y-89417184D01*
X130619858Y-89413674D01*
X130643750Y-89412500D01*
X131556250Y-89412500D01*
X131580142Y-89413674D01*
X131580142Y-89413674D01*
G37*
D13*
X131100000Y-89900000D03*
D11*
G36*
X131580142Y-91288674D02*
G01*
X131603803Y-91292184D01*
X131627007Y-91297996D01*
X131649529Y-91306054D01*
X131671153Y-91316282D01*
X131691670Y-91328579D01*
X131710883Y-91342829D01*
X131728607Y-91358893D01*
X131744671Y-91376617D01*
X131758921Y-91395830D01*
X131771218Y-91416347D01*
X131781446Y-91437971D01*
X131789504Y-91460493D01*
X131795316Y-91483697D01*
X131798826Y-91507358D01*
X131800000Y-91531250D01*
X131800000Y-92018750D01*
X131798826Y-92042642D01*
X131795316Y-92066303D01*
X131789504Y-92089507D01*
X131781446Y-92112029D01*
X131771218Y-92133653D01*
X131758921Y-92154170D01*
X131744671Y-92173383D01*
X131728607Y-92191107D01*
X131710883Y-92207171D01*
X131691670Y-92221421D01*
X131671153Y-92233718D01*
X131649529Y-92243946D01*
X131627007Y-92252004D01*
X131603803Y-92257816D01*
X131580142Y-92261326D01*
X131556250Y-92262500D01*
X130643750Y-92262500D01*
X130619858Y-92261326D01*
X130596197Y-92257816D01*
X130572993Y-92252004D01*
X130550471Y-92243946D01*
X130528847Y-92233718D01*
X130508330Y-92221421D01*
X130489117Y-92207171D01*
X130471393Y-92191107D01*
X130455329Y-92173383D01*
X130441079Y-92154170D01*
X130428782Y-92133653D01*
X130418554Y-92112029D01*
X130410496Y-92089507D01*
X130404684Y-92066303D01*
X130401174Y-92042642D01*
X130400000Y-92018750D01*
X130400000Y-91531250D01*
X130401174Y-91507358D01*
X130404684Y-91483697D01*
X130410496Y-91460493D01*
X130418554Y-91437971D01*
X130428782Y-91416347D01*
X130441079Y-91395830D01*
X130455329Y-91376617D01*
X130471393Y-91358893D01*
X130489117Y-91342829D01*
X130508330Y-91328579D01*
X130528847Y-91316282D01*
X130550471Y-91306054D01*
X130572993Y-91297996D01*
X130596197Y-91292184D01*
X130619858Y-91288674D01*
X130643750Y-91287500D01*
X131556250Y-91287500D01*
X131580142Y-91288674D01*
X131580142Y-91288674D01*
G37*
D13*
X131100000Y-91775000D03*
D11*
G36*
X205142642Y-120051174D02*
G01*
X205166303Y-120054684D01*
X205189507Y-120060496D01*
X205212029Y-120068554D01*
X205233653Y-120078782D01*
X205254170Y-120091079D01*
X205273383Y-120105329D01*
X205291107Y-120121393D01*
X205307171Y-120139117D01*
X205321421Y-120158330D01*
X205333718Y-120178847D01*
X205343946Y-120200471D01*
X205352004Y-120222993D01*
X205357816Y-120246197D01*
X205361326Y-120269858D01*
X205362500Y-120293750D01*
X205362500Y-121206250D01*
X205361326Y-121230142D01*
X205357816Y-121253803D01*
X205352004Y-121277007D01*
X205343946Y-121299529D01*
X205333718Y-121321153D01*
X205321421Y-121341670D01*
X205307171Y-121360883D01*
X205291107Y-121378607D01*
X205273383Y-121394671D01*
X205254170Y-121408921D01*
X205233653Y-121421218D01*
X205212029Y-121431446D01*
X205189507Y-121439504D01*
X205166303Y-121445316D01*
X205142642Y-121448826D01*
X205118750Y-121450000D01*
X204631250Y-121450000D01*
X204607358Y-121448826D01*
X204583697Y-121445316D01*
X204560493Y-121439504D01*
X204537971Y-121431446D01*
X204516347Y-121421218D01*
X204495830Y-121408921D01*
X204476617Y-121394671D01*
X204458893Y-121378607D01*
X204442829Y-121360883D01*
X204428579Y-121341670D01*
X204416282Y-121321153D01*
X204406054Y-121299529D01*
X204397996Y-121277007D01*
X204392184Y-121253803D01*
X204388674Y-121230142D01*
X204387500Y-121206250D01*
X204387500Y-120293750D01*
X204388674Y-120269858D01*
X204392184Y-120246197D01*
X204397996Y-120222993D01*
X204406054Y-120200471D01*
X204416282Y-120178847D01*
X204428579Y-120158330D01*
X204442829Y-120139117D01*
X204458893Y-120121393D01*
X204476617Y-120105329D01*
X204495830Y-120091079D01*
X204516347Y-120078782D01*
X204537971Y-120068554D01*
X204560493Y-120060496D01*
X204583697Y-120054684D01*
X204607358Y-120051174D01*
X204631250Y-120050000D01*
X205118750Y-120050000D01*
X205142642Y-120051174D01*
X205142642Y-120051174D01*
G37*
D13*
X204875000Y-120750000D03*
D11*
G36*
X203267642Y-120051174D02*
G01*
X203291303Y-120054684D01*
X203314507Y-120060496D01*
X203337029Y-120068554D01*
X203358653Y-120078782D01*
X203379170Y-120091079D01*
X203398383Y-120105329D01*
X203416107Y-120121393D01*
X203432171Y-120139117D01*
X203446421Y-120158330D01*
X203458718Y-120178847D01*
X203468946Y-120200471D01*
X203477004Y-120222993D01*
X203482816Y-120246197D01*
X203486326Y-120269858D01*
X203487500Y-120293750D01*
X203487500Y-121206250D01*
X203486326Y-121230142D01*
X203482816Y-121253803D01*
X203477004Y-121277007D01*
X203468946Y-121299529D01*
X203458718Y-121321153D01*
X203446421Y-121341670D01*
X203432171Y-121360883D01*
X203416107Y-121378607D01*
X203398383Y-121394671D01*
X203379170Y-121408921D01*
X203358653Y-121421218D01*
X203337029Y-121431446D01*
X203314507Y-121439504D01*
X203291303Y-121445316D01*
X203267642Y-121448826D01*
X203243750Y-121450000D01*
X202756250Y-121450000D01*
X202732358Y-121448826D01*
X202708697Y-121445316D01*
X202685493Y-121439504D01*
X202662971Y-121431446D01*
X202641347Y-121421218D01*
X202620830Y-121408921D01*
X202601617Y-121394671D01*
X202583893Y-121378607D01*
X202567829Y-121360883D01*
X202553579Y-121341670D01*
X202541282Y-121321153D01*
X202531054Y-121299529D01*
X202522996Y-121277007D01*
X202517184Y-121253803D01*
X202513674Y-121230142D01*
X202512500Y-121206250D01*
X202512500Y-120293750D01*
X202513674Y-120269858D01*
X202517184Y-120246197D01*
X202522996Y-120222993D01*
X202531054Y-120200471D01*
X202541282Y-120178847D01*
X202553579Y-120158330D01*
X202567829Y-120139117D01*
X202583893Y-120121393D01*
X202601617Y-120105329D01*
X202620830Y-120091079D01*
X202641347Y-120078782D01*
X202662971Y-120068554D01*
X202685493Y-120060496D01*
X202708697Y-120054684D01*
X202732358Y-120051174D01*
X202756250Y-120050000D01*
X203243750Y-120050000D01*
X203267642Y-120051174D01*
X203267642Y-120051174D01*
G37*
D13*
X203000000Y-120750000D03*
D11*
G36*
X205142642Y-116051174D02*
G01*
X205166303Y-116054684D01*
X205189507Y-116060496D01*
X205212029Y-116068554D01*
X205233653Y-116078782D01*
X205254170Y-116091079D01*
X205273383Y-116105329D01*
X205291107Y-116121393D01*
X205307171Y-116139117D01*
X205321421Y-116158330D01*
X205333718Y-116178847D01*
X205343946Y-116200471D01*
X205352004Y-116222993D01*
X205357816Y-116246197D01*
X205361326Y-116269858D01*
X205362500Y-116293750D01*
X205362500Y-117206250D01*
X205361326Y-117230142D01*
X205357816Y-117253803D01*
X205352004Y-117277007D01*
X205343946Y-117299529D01*
X205333718Y-117321153D01*
X205321421Y-117341670D01*
X205307171Y-117360883D01*
X205291107Y-117378607D01*
X205273383Y-117394671D01*
X205254170Y-117408921D01*
X205233653Y-117421218D01*
X205212029Y-117431446D01*
X205189507Y-117439504D01*
X205166303Y-117445316D01*
X205142642Y-117448826D01*
X205118750Y-117450000D01*
X204631250Y-117450000D01*
X204607358Y-117448826D01*
X204583697Y-117445316D01*
X204560493Y-117439504D01*
X204537971Y-117431446D01*
X204516347Y-117421218D01*
X204495830Y-117408921D01*
X204476617Y-117394671D01*
X204458893Y-117378607D01*
X204442829Y-117360883D01*
X204428579Y-117341670D01*
X204416282Y-117321153D01*
X204406054Y-117299529D01*
X204397996Y-117277007D01*
X204392184Y-117253803D01*
X204388674Y-117230142D01*
X204387500Y-117206250D01*
X204387500Y-116293750D01*
X204388674Y-116269858D01*
X204392184Y-116246197D01*
X204397996Y-116222993D01*
X204406054Y-116200471D01*
X204416282Y-116178847D01*
X204428579Y-116158330D01*
X204442829Y-116139117D01*
X204458893Y-116121393D01*
X204476617Y-116105329D01*
X204495830Y-116091079D01*
X204516347Y-116078782D01*
X204537971Y-116068554D01*
X204560493Y-116060496D01*
X204583697Y-116054684D01*
X204607358Y-116051174D01*
X204631250Y-116050000D01*
X205118750Y-116050000D01*
X205142642Y-116051174D01*
X205142642Y-116051174D01*
G37*
D13*
X204875000Y-116750000D03*
D11*
G36*
X203267642Y-116051174D02*
G01*
X203291303Y-116054684D01*
X203314507Y-116060496D01*
X203337029Y-116068554D01*
X203358653Y-116078782D01*
X203379170Y-116091079D01*
X203398383Y-116105329D01*
X203416107Y-116121393D01*
X203432171Y-116139117D01*
X203446421Y-116158330D01*
X203458718Y-116178847D01*
X203468946Y-116200471D01*
X203477004Y-116222993D01*
X203482816Y-116246197D01*
X203486326Y-116269858D01*
X203487500Y-116293750D01*
X203487500Y-117206250D01*
X203486326Y-117230142D01*
X203482816Y-117253803D01*
X203477004Y-117277007D01*
X203468946Y-117299529D01*
X203458718Y-117321153D01*
X203446421Y-117341670D01*
X203432171Y-117360883D01*
X203416107Y-117378607D01*
X203398383Y-117394671D01*
X203379170Y-117408921D01*
X203358653Y-117421218D01*
X203337029Y-117431446D01*
X203314507Y-117439504D01*
X203291303Y-117445316D01*
X203267642Y-117448826D01*
X203243750Y-117450000D01*
X202756250Y-117450000D01*
X202732358Y-117448826D01*
X202708697Y-117445316D01*
X202685493Y-117439504D01*
X202662971Y-117431446D01*
X202641347Y-117421218D01*
X202620830Y-117408921D01*
X202601617Y-117394671D01*
X202583893Y-117378607D01*
X202567829Y-117360883D01*
X202553579Y-117341670D01*
X202541282Y-117321153D01*
X202531054Y-117299529D01*
X202522996Y-117277007D01*
X202517184Y-117253803D01*
X202513674Y-117230142D01*
X202512500Y-117206250D01*
X202512500Y-116293750D01*
X202513674Y-116269858D01*
X202517184Y-116246197D01*
X202522996Y-116222993D01*
X202531054Y-116200471D01*
X202541282Y-116178847D01*
X202553579Y-116158330D01*
X202567829Y-116139117D01*
X202583893Y-116121393D01*
X202601617Y-116105329D01*
X202620830Y-116091079D01*
X202641347Y-116078782D01*
X202662971Y-116068554D01*
X202685493Y-116060496D01*
X202708697Y-116054684D01*
X202732358Y-116051174D01*
X202756250Y-116050000D01*
X203243750Y-116050000D01*
X203267642Y-116051174D01*
X203267642Y-116051174D01*
G37*
D13*
X203000000Y-116750000D03*
D11*
G36*
X205142642Y-118051174D02*
G01*
X205166303Y-118054684D01*
X205189507Y-118060496D01*
X205212029Y-118068554D01*
X205233653Y-118078782D01*
X205254170Y-118091079D01*
X205273383Y-118105329D01*
X205291107Y-118121393D01*
X205307171Y-118139117D01*
X205321421Y-118158330D01*
X205333718Y-118178847D01*
X205343946Y-118200471D01*
X205352004Y-118222993D01*
X205357816Y-118246197D01*
X205361326Y-118269858D01*
X205362500Y-118293750D01*
X205362500Y-119206250D01*
X205361326Y-119230142D01*
X205357816Y-119253803D01*
X205352004Y-119277007D01*
X205343946Y-119299529D01*
X205333718Y-119321153D01*
X205321421Y-119341670D01*
X205307171Y-119360883D01*
X205291107Y-119378607D01*
X205273383Y-119394671D01*
X205254170Y-119408921D01*
X205233653Y-119421218D01*
X205212029Y-119431446D01*
X205189507Y-119439504D01*
X205166303Y-119445316D01*
X205142642Y-119448826D01*
X205118750Y-119450000D01*
X204631250Y-119450000D01*
X204607358Y-119448826D01*
X204583697Y-119445316D01*
X204560493Y-119439504D01*
X204537971Y-119431446D01*
X204516347Y-119421218D01*
X204495830Y-119408921D01*
X204476617Y-119394671D01*
X204458893Y-119378607D01*
X204442829Y-119360883D01*
X204428579Y-119341670D01*
X204416282Y-119321153D01*
X204406054Y-119299529D01*
X204397996Y-119277007D01*
X204392184Y-119253803D01*
X204388674Y-119230142D01*
X204387500Y-119206250D01*
X204387500Y-118293750D01*
X204388674Y-118269858D01*
X204392184Y-118246197D01*
X204397996Y-118222993D01*
X204406054Y-118200471D01*
X204416282Y-118178847D01*
X204428579Y-118158330D01*
X204442829Y-118139117D01*
X204458893Y-118121393D01*
X204476617Y-118105329D01*
X204495830Y-118091079D01*
X204516347Y-118078782D01*
X204537971Y-118068554D01*
X204560493Y-118060496D01*
X204583697Y-118054684D01*
X204607358Y-118051174D01*
X204631250Y-118050000D01*
X205118750Y-118050000D01*
X205142642Y-118051174D01*
X205142642Y-118051174D01*
G37*
D13*
X204875000Y-118750000D03*
D11*
G36*
X203267642Y-118051174D02*
G01*
X203291303Y-118054684D01*
X203314507Y-118060496D01*
X203337029Y-118068554D01*
X203358653Y-118078782D01*
X203379170Y-118091079D01*
X203398383Y-118105329D01*
X203416107Y-118121393D01*
X203432171Y-118139117D01*
X203446421Y-118158330D01*
X203458718Y-118178847D01*
X203468946Y-118200471D01*
X203477004Y-118222993D01*
X203482816Y-118246197D01*
X203486326Y-118269858D01*
X203487500Y-118293750D01*
X203487500Y-119206250D01*
X203486326Y-119230142D01*
X203482816Y-119253803D01*
X203477004Y-119277007D01*
X203468946Y-119299529D01*
X203458718Y-119321153D01*
X203446421Y-119341670D01*
X203432171Y-119360883D01*
X203416107Y-119378607D01*
X203398383Y-119394671D01*
X203379170Y-119408921D01*
X203358653Y-119421218D01*
X203337029Y-119431446D01*
X203314507Y-119439504D01*
X203291303Y-119445316D01*
X203267642Y-119448826D01*
X203243750Y-119450000D01*
X202756250Y-119450000D01*
X202732358Y-119448826D01*
X202708697Y-119445316D01*
X202685493Y-119439504D01*
X202662971Y-119431446D01*
X202641347Y-119421218D01*
X202620830Y-119408921D01*
X202601617Y-119394671D01*
X202583893Y-119378607D01*
X202567829Y-119360883D01*
X202553579Y-119341670D01*
X202541282Y-119321153D01*
X202531054Y-119299529D01*
X202522996Y-119277007D01*
X202517184Y-119253803D01*
X202513674Y-119230142D01*
X202512500Y-119206250D01*
X202512500Y-118293750D01*
X202513674Y-118269858D01*
X202517184Y-118246197D01*
X202522996Y-118222993D01*
X202531054Y-118200471D01*
X202541282Y-118178847D01*
X202553579Y-118158330D01*
X202567829Y-118139117D01*
X202583893Y-118121393D01*
X202601617Y-118105329D01*
X202620830Y-118091079D01*
X202641347Y-118078782D01*
X202662971Y-118068554D01*
X202685493Y-118060496D01*
X202708697Y-118054684D01*
X202732358Y-118051174D01*
X202756250Y-118050000D01*
X203243750Y-118050000D01*
X203267642Y-118051174D01*
X203267642Y-118051174D01*
G37*
D13*
X203000000Y-118750000D03*
D11*
G36*
X205142642Y-98801174D02*
G01*
X205166303Y-98804684D01*
X205189507Y-98810496D01*
X205212029Y-98818554D01*
X205233653Y-98828782D01*
X205254170Y-98841079D01*
X205273383Y-98855329D01*
X205291107Y-98871393D01*
X205307171Y-98889117D01*
X205321421Y-98908330D01*
X205333718Y-98928847D01*
X205343946Y-98950471D01*
X205352004Y-98972993D01*
X205357816Y-98996197D01*
X205361326Y-99019858D01*
X205362500Y-99043750D01*
X205362500Y-99956250D01*
X205361326Y-99980142D01*
X205357816Y-100003803D01*
X205352004Y-100027007D01*
X205343946Y-100049529D01*
X205333718Y-100071153D01*
X205321421Y-100091670D01*
X205307171Y-100110883D01*
X205291107Y-100128607D01*
X205273383Y-100144671D01*
X205254170Y-100158921D01*
X205233653Y-100171218D01*
X205212029Y-100181446D01*
X205189507Y-100189504D01*
X205166303Y-100195316D01*
X205142642Y-100198826D01*
X205118750Y-100200000D01*
X204631250Y-100200000D01*
X204607358Y-100198826D01*
X204583697Y-100195316D01*
X204560493Y-100189504D01*
X204537971Y-100181446D01*
X204516347Y-100171218D01*
X204495830Y-100158921D01*
X204476617Y-100144671D01*
X204458893Y-100128607D01*
X204442829Y-100110883D01*
X204428579Y-100091670D01*
X204416282Y-100071153D01*
X204406054Y-100049529D01*
X204397996Y-100027007D01*
X204392184Y-100003803D01*
X204388674Y-99980142D01*
X204387500Y-99956250D01*
X204387500Y-99043750D01*
X204388674Y-99019858D01*
X204392184Y-98996197D01*
X204397996Y-98972993D01*
X204406054Y-98950471D01*
X204416282Y-98928847D01*
X204428579Y-98908330D01*
X204442829Y-98889117D01*
X204458893Y-98871393D01*
X204476617Y-98855329D01*
X204495830Y-98841079D01*
X204516347Y-98828782D01*
X204537971Y-98818554D01*
X204560493Y-98810496D01*
X204583697Y-98804684D01*
X204607358Y-98801174D01*
X204631250Y-98800000D01*
X205118750Y-98800000D01*
X205142642Y-98801174D01*
X205142642Y-98801174D01*
G37*
D13*
X204875000Y-99500000D03*
D11*
G36*
X203267642Y-98801174D02*
G01*
X203291303Y-98804684D01*
X203314507Y-98810496D01*
X203337029Y-98818554D01*
X203358653Y-98828782D01*
X203379170Y-98841079D01*
X203398383Y-98855329D01*
X203416107Y-98871393D01*
X203432171Y-98889117D01*
X203446421Y-98908330D01*
X203458718Y-98928847D01*
X203468946Y-98950471D01*
X203477004Y-98972993D01*
X203482816Y-98996197D01*
X203486326Y-99019858D01*
X203487500Y-99043750D01*
X203487500Y-99956250D01*
X203486326Y-99980142D01*
X203482816Y-100003803D01*
X203477004Y-100027007D01*
X203468946Y-100049529D01*
X203458718Y-100071153D01*
X203446421Y-100091670D01*
X203432171Y-100110883D01*
X203416107Y-100128607D01*
X203398383Y-100144671D01*
X203379170Y-100158921D01*
X203358653Y-100171218D01*
X203337029Y-100181446D01*
X203314507Y-100189504D01*
X203291303Y-100195316D01*
X203267642Y-100198826D01*
X203243750Y-100200000D01*
X202756250Y-100200000D01*
X202732358Y-100198826D01*
X202708697Y-100195316D01*
X202685493Y-100189504D01*
X202662971Y-100181446D01*
X202641347Y-100171218D01*
X202620830Y-100158921D01*
X202601617Y-100144671D01*
X202583893Y-100128607D01*
X202567829Y-100110883D01*
X202553579Y-100091670D01*
X202541282Y-100071153D01*
X202531054Y-100049529D01*
X202522996Y-100027007D01*
X202517184Y-100003803D01*
X202513674Y-99980142D01*
X202512500Y-99956250D01*
X202512500Y-99043750D01*
X202513674Y-99019858D01*
X202517184Y-98996197D01*
X202522996Y-98972993D01*
X202531054Y-98950471D01*
X202541282Y-98928847D01*
X202553579Y-98908330D01*
X202567829Y-98889117D01*
X202583893Y-98871393D01*
X202601617Y-98855329D01*
X202620830Y-98841079D01*
X202641347Y-98828782D01*
X202662971Y-98818554D01*
X202685493Y-98810496D01*
X202708697Y-98804684D01*
X202732358Y-98801174D01*
X202756250Y-98800000D01*
X203243750Y-98800000D01*
X203267642Y-98801174D01*
X203267642Y-98801174D01*
G37*
D13*
X203000000Y-99500000D03*
D11*
G36*
X205142642Y-94801174D02*
G01*
X205166303Y-94804684D01*
X205189507Y-94810496D01*
X205212029Y-94818554D01*
X205233653Y-94828782D01*
X205254170Y-94841079D01*
X205273383Y-94855329D01*
X205291107Y-94871393D01*
X205307171Y-94889117D01*
X205321421Y-94908330D01*
X205333718Y-94928847D01*
X205343946Y-94950471D01*
X205352004Y-94972993D01*
X205357816Y-94996197D01*
X205361326Y-95019858D01*
X205362500Y-95043750D01*
X205362500Y-95956250D01*
X205361326Y-95980142D01*
X205357816Y-96003803D01*
X205352004Y-96027007D01*
X205343946Y-96049529D01*
X205333718Y-96071153D01*
X205321421Y-96091670D01*
X205307171Y-96110883D01*
X205291107Y-96128607D01*
X205273383Y-96144671D01*
X205254170Y-96158921D01*
X205233653Y-96171218D01*
X205212029Y-96181446D01*
X205189507Y-96189504D01*
X205166303Y-96195316D01*
X205142642Y-96198826D01*
X205118750Y-96200000D01*
X204631250Y-96200000D01*
X204607358Y-96198826D01*
X204583697Y-96195316D01*
X204560493Y-96189504D01*
X204537971Y-96181446D01*
X204516347Y-96171218D01*
X204495830Y-96158921D01*
X204476617Y-96144671D01*
X204458893Y-96128607D01*
X204442829Y-96110883D01*
X204428579Y-96091670D01*
X204416282Y-96071153D01*
X204406054Y-96049529D01*
X204397996Y-96027007D01*
X204392184Y-96003803D01*
X204388674Y-95980142D01*
X204387500Y-95956250D01*
X204387500Y-95043750D01*
X204388674Y-95019858D01*
X204392184Y-94996197D01*
X204397996Y-94972993D01*
X204406054Y-94950471D01*
X204416282Y-94928847D01*
X204428579Y-94908330D01*
X204442829Y-94889117D01*
X204458893Y-94871393D01*
X204476617Y-94855329D01*
X204495830Y-94841079D01*
X204516347Y-94828782D01*
X204537971Y-94818554D01*
X204560493Y-94810496D01*
X204583697Y-94804684D01*
X204607358Y-94801174D01*
X204631250Y-94800000D01*
X205118750Y-94800000D01*
X205142642Y-94801174D01*
X205142642Y-94801174D01*
G37*
D13*
X204875000Y-95500000D03*
D11*
G36*
X203267642Y-94801174D02*
G01*
X203291303Y-94804684D01*
X203314507Y-94810496D01*
X203337029Y-94818554D01*
X203358653Y-94828782D01*
X203379170Y-94841079D01*
X203398383Y-94855329D01*
X203416107Y-94871393D01*
X203432171Y-94889117D01*
X203446421Y-94908330D01*
X203458718Y-94928847D01*
X203468946Y-94950471D01*
X203477004Y-94972993D01*
X203482816Y-94996197D01*
X203486326Y-95019858D01*
X203487500Y-95043750D01*
X203487500Y-95956250D01*
X203486326Y-95980142D01*
X203482816Y-96003803D01*
X203477004Y-96027007D01*
X203468946Y-96049529D01*
X203458718Y-96071153D01*
X203446421Y-96091670D01*
X203432171Y-96110883D01*
X203416107Y-96128607D01*
X203398383Y-96144671D01*
X203379170Y-96158921D01*
X203358653Y-96171218D01*
X203337029Y-96181446D01*
X203314507Y-96189504D01*
X203291303Y-96195316D01*
X203267642Y-96198826D01*
X203243750Y-96200000D01*
X202756250Y-96200000D01*
X202732358Y-96198826D01*
X202708697Y-96195316D01*
X202685493Y-96189504D01*
X202662971Y-96181446D01*
X202641347Y-96171218D01*
X202620830Y-96158921D01*
X202601617Y-96144671D01*
X202583893Y-96128607D01*
X202567829Y-96110883D01*
X202553579Y-96091670D01*
X202541282Y-96071153D01*
X202531054Y-96049529D01*
X202522996Y-96027007D01*
X202517184Y-96003803D01*
X202513674Y-95980142D01*
X202512500Y-95956250D01*
X202512500Y-95043750D01*
X202513674Y-95019858D01*
X202517184Y-94996197D01*
X202522996Y-94972993D01*
X202531054Y-94950471D01*
X202541282Y-94928847D01*
X202553579Y-94908330D01*
X202567829Y-94889117D01*
X202583893Y-94871393D01*
X202601617Y-94855329D01*
X202620830Y-94841079D01*
X202641347Y-94828782D01*
X202662971Y-94818554D01*
X202685493Y-94810496D01*
X202708697Y-94804684D01*
X202732358Y-94801174D01*
X202756250Y-94800000D01*
X203243750Y-94800000D01*
X203267642Y-94801174D01*
X203267642Y-94801174D01*
G37*
D13*
X203000000Y-95500000D03*
D11*
G36*
X205142642Y-96801174D02*
G01*
X205166303Y-96804684D01*
X205189507Y-96810496D01*
X205212029Y-96818554D01*
X205233653Y-96828782D01*
X205254170Y-96841079D01*
X205273383Y-96855329D01*
X205291107Y-96871393D01*
X205307171Y-96889117D01*
X205321421Y-96908330D01*
X205333718Y-96928847D01*
X205343946Y-96950471D01*
X205352004Y-96972993D01*
X205357816Y-96996197D01*
X205361326Y-97019858D01*
X205362500Y-97043750D01*
X205362500Y-97956250D01*
X205361326Y-97980142D01*
X205357816Y-98003803D01*
X205352004Y-98027007D01*
X205343946Y-98049529D01*
X205333718Y-98071153D01*
X205321421Y-98091670D01*
X205307171Y-98110883D01*
X205291107Y-98128607D01*
X205273383Y-98144671D01*
X205254170Y-98158921D01*
X205233653Y-98171218D01*
X205212029Y-98181446D01*
X205189507Y-98189504D01*
X205166303Y-98195316D01*
X205142642Y-98198826D01*
X205118750Y-98200000D01*
X204631250Y-98200000D01*
X204607358Y-98198826D01*
X204583697Y-98195316D01*
X204560493Y-98189504D01*
X204537971Y-98181446D01*
X204516347Y-98171218D01*
X204495830Y-98158921D01*
X204476617Y-98144671D01*
X204458893Y-98128607D01*
X204442829Y-98110883D01*
X204428579Y-98091670D01*
X204416282Y-98071153D01*
X204406054Y-98049529D01*
X204397996Y-98027007D01*
X204392184Y-98003803D01*
X204388674Y-97980142D01*
X204387500Y-97956250D01*
X204387500Y-97043750D01*
X204388674Y-97019858D01*
X204392184Y-96996197D01*
X204397996Y-96972993D01*
X204406054Y-96950471D01*
X204416282Y-96928847D01*
X204428579Y-96908330D01*
X204442829Y-96889117D01*
X204458893Y-96871393D01*
X204476617Y-96855329D01*
X204495830Y-96841079D01*
X204516347Y-96828782D01*
X204537971Y-96818554D01*
X204560493Y-96810496D01*
X204583697Y-96804684D01*
X204607358Y-96801174D01*
X204631250Y-96800000D01*
X205118750Y-96800000D01*
X205142642Y-96801174D01*
X205142642Y-96801174D01*
G37*
D13*
X204875000Y-97500000D03*
D11*
G36*
X203267642Y-96801174D02*
G01*
X203291303Y-96804684D01*
X203314507Y-96810496D01*
X203337029Y-96818554D01*
X203358653Y-96828782D01*
X203379170Y-96841079D01*
X203398383Y-96855329D01*
X203416107Y-96871393D01*
X203432171Y-96889117D01*
X203446421Y-96908330D01*
X203458718Y-96928847D01*
X203468946Y-96950471D01*
X203477004Y-96972993D01*
X203482816Y-96996197D01*
X203486326Y-97019858D01*
X203487500Y-97043750D01*
X203487500Y-97956250D01*
X203486326Y-97980142D01*
X203482816Y-98003803D01*
X203477004Y-98027007D01*
X203468946Y-98049529D01*
X203458718Y-98071153D01*
X203446421Y-98091670D01*
X203432171Y-98110883D01*
X203416107Y-98128607D01*
X203398383Y-98144671D01*
X203379170Y-98158921D01*
X203358653Y-98171218D01*
X203337029Y-98181446D01*
X203314507Y-98189504D01*
X203291303Y-98195316D01*
X203267642Y-98198826D01*
X203243750Y-98200000D01*
X202756250Y-98200000D01*
X202732358Y-98198826D01*
X202708697Y-98195316D01*
X202685493Y-98189504D01*
X202662971Y-98181446D01*
X202641347Y-98171218D01*
X202620830Y-98158921D01*
X202601617Y-98144671D01*
X202583893Y-98128607D01*
X202567829Y-98110883D01*
X202553579Y-98091670D01*
X202541282Y-98071153D01*
X202531054Y-98049529D01*
X202522996Y-98027007D01*
X202517184Y-98003803D01*
X202513674Y-97980142D01*
X202512500Y-97956250D01*
X202512500Y-97043750D01*
X202513674Y-97019858D01*
X202517184Y-96996197D01*
X202522996Y-96972993D01*
X202531054Y-96950471D01*
X202541282Y-96928847D01*
X202553579Y-96908330D01*
X202567829Y-96889117D01*
X202583893Y-96871393D01*
X202601617Y-96855329D01*
X202620830Y-96841079D01*
X202641347Y-96828782D01*
X202662971Y-96818554D01*
X202685493Y-96810496D01*
X202708697Y-96804684D01*
X202732358Y-96801174D01*
X202756250Y-96800000D01*
X203243750Y-96800000D01*
X203267642Y-96801174D01*
X203267642Y-96801174D01*
G37*
D13*
X203000000Y-97500000D03*
D11*
G36*
X205142642Y-77801174D02*
G01*
X205166303Y-77804684D01*
X205189507Y-77810496D01*
X205212029Y-77818554D01*
X205233653Y-77828782D01*
X205254170Y-77841079D01*
X205273383Y-77855329D01*
X205291107Y-77871393D01*
X205307171Y-77889117D01*
X205321421Y-77908330D01*
X205333718Y-77928847D01*
X205343946Y-77950471D01*
X205352004Y-77972993D01*
X205357816Y-77996197D01*
X205361326Y-78019858D01*
X205362500Y-78043750D01*
X205362500Y-78956250D01*
X205361326Y-78980142D01*
X205357816Y-79003803D01*
X205352004Y-79027007D01*
X205343946Y-79049529D01*
X205333718Y-79071153D01*
X205321421Y-79091670D01*
X205307171Y-79110883D01*
X205291107Y-79128607D01*
X205273383Y-79144671D01*
X205254170Y-79158921D01*
X205233653Y-79171218D01*
X205212029Y-79181446D01*
X205189507Y-79189504D01*
X205166303Y-79195316D01*
X205142642Y-79198826D01*
X205118750Y-79200000D01*
X204631250Y-79200000D01*
X204607358Y-79198826D01*
X204583697Y-79195316D01*
X204560493Y-79189504D01*
X204537971Y-79181446D01*
X204516347Y-79171218D01*
X204495830Y-79158921D01*
X204476617Y-79144671D01*
X204458893Y-79128607D01*
X204442829Y-79110883D01*
X204428579Y-79091670D01*
X204416282Y-79071153D01*
X204406054Y-79049529D01*
X204397996Y-79027007D01*
X204392184Y-79003803D01*
X204388674Y-78980142D01*
X204387500Y-78956250D01*
X204387500Y-78043750D01*
X204388674Y-78019858D01*
X204392184Y-77996197D01*
X204397996Y-77972993D01*
X204406054Y-77950471D01*
X204416282Y-77928847D01*
X204428579Y-77908330D01*
X204442829Y-77889117D01*
X204458893Y-77871393D01*
X204476617Y-77855329D01*
X204495830Y-77841079D01*
X204516347Y-77828782D01*
X204537971Y-77818554D01*
X204560493Y-77810496D01*
X204583697Y-77804684D01*
X204607358Y-77801174D01*
X204631250Y-77800000D01*
X205118750Y-77800000D01*
X205142642Y-77801174D01*
X205142642Y-77801174D01*
G37*
D13*
X204875000Y-78500000D03*
D11*
G36*
X203267642Y-77801174D02*
G01*
X203291303Y-77804684D01*
X203314507Y-77810496D01*
X203337029Y-77818554D01*
X203358653Y-77828782D01*
X203379170Y-77841079D01*
X203398383Y-77855329D01*
X203416107Y-77871393D01*
X203432171Y-77889117D01*
X203446421Y-77908330D01*
X203458718Y-77928847D01*
X203468946Y-77950471D01*
X203477004Y-77972993D01*
X203482816Y-77996197D01*
X203486326Y-78019858D01*
X203487500Y-78043750D01*
X203487500Y-78956250D01*
X203486326Y-78980142D01*
X203482816Y-79003803D01*
X203477004Y-79027007D01*
X203468946Y-79049529D01*
X203458718Y-79071153D01*
X203446421Y-79091670D01*
X203432171Y-79110883D01*
X203416107Y-79128607D01*
X203398383Y-79144671D01*
X203379170Y-79158921D01*
X203358653Y-79171218D01*
X203337029Y-79181446D01*
X203314507Y-79189504D01*
X203291303Y-79195316D01*
X203267642Y-79198826D01*
X203243750Y-79200000D01*
X202756250Y-79200000D01*
X202732358Y-79198826D01*
X202708697Y-79195316D01*
X202685493Y-79189504D01*
X202662971Y-79181446D01*
X202641347Y-79171218D01*
X202620830Y-79158921D01*
X202601617Y-79144671D01*
X202583893Y-79128607D01*
X202567829Y-79110883D01*
X202553579Y-79091670D01*
X202541282Y-79071153D01*
X202531054Y-79049529D01*
X202522996Y-79027007D01*
X202517184Y-79003803D01*
X202513674Y-78980142D01*
X202512500Y-78956250D01*
X202512500Y-78043750D01*
X202513674Y-78019858D01*
X202517184Y-77996197D01*
X202522996Y-77972993D01*
X202531054Y-77950471D01*
X202541282Y-77928847D01*
X202553579Y-77908330D01*
X202567829Y-77889117D01*
X202583893Y-77871393D01*
X202601617Y-77855329D01*
X202620830Y-77841079D01*
X202641347Y-77828782D01*
X202662971Y-77818554D01*
X202685493Y-77810496D01*
X202708697Y-77804684D01*
X202732358Y-77801174D01*
X202756250Y-77800000D01*
X203243750Y-77800000D01*
X203267642Y-77801174D01*
X203267642Y-77801174D01*
G37*
D13*
X203000000Y-78500000D03*
D11*
G36*
X205142642Y-73801174D02*
G01*
X205166303Y-73804684D01*
X205189507Y-73810496D01*
X205212029Y-73818554D01*
X205233653Y-73828782D01*
X205254170Y-73841079D01*
X205273383Y-73855329D01*
X205291107Y-73871393D01*
X205307171Y-73889117D01*
X205321421Y-73908330D01*
X205333718Y-73928847D01*
X205343946Y-73950471D01*
X205352004Y-73972993D01*
X205357816Y-73996197D01*
X205361326Y-74019858D01*
X205362500Y-74043750D01*
X205362500Y-74956250D01*
X205361326Y-74980142D01*
X205357816Y-75003803D01*
X205352004Y-75027007D01*
X205343946Y-75049529D01*
X205333718Y-75071153D01*
X205321421Y-75091670D01*
X205307171Y-75110883D01*
X205291107Y-75128607D01*
X205273383Y-75144671D01*
X205254170Y-75158921D01*
X205233653Y-75171218D01*
X205212029Y-75181446D01*
X205189507Y-75189504D01*
X205166303Y-75195316D01*
X205142642Y-75198826D01*
X205118750Y-75200000D01*
X204631250Y-75200000D01*
X204607358Y-75198826D01*
X204583697Y-75195316D01*
X204560493Y-75189504D01*
X204537971Y-75181446D01*
X204516347Y-75171218D01*
X204495830Y-75158921D01*
X204476617Y-75144671D01*
X204458893Y-75128607D01*
X204442829Y-75110883D01*
X204428579Y-75091670D01*
X204416282Y-75071153D01*
X204406054Y-75049529D01*
X204397996Y-75027007D01*
X204392184Y-75003803D01*
X204388674Y-74980142D01*
X204387500Y-74956250D01*
X204387500Y-74043750D01*
X204388674Y-74019858D01*
X204392184Y-73996197D01*
X204397996Y-73972993D01*
X204406054Y-73950471D01*
X204416282Y-73928847D01*
X204428579Y-73908330D01*
X204442829Y-73889117D01*
X204458893Y-73871393D01*
X204476617Y-73855329D01*
X204495830Y-73841079D01*
X204516347Y-73828782D01*
X204537971Y-73818554D01*
X204560493Y-73810496D01*
X204583697Y-73804684D01*
X204607358Y-73801174D01*
X204631250Y-73800000D01*
X205118750Y-73800000D01*
X205142642Y-73801174D01*
X205142642Y-73801174D01*
G37*
D13*
X204875000Y-74500000D03*
D11*
G36*
X203267642Y-73801174D02*
G01*
X203291303Y-73804684D01*
X203314507Y-73810496D01*
X203337029Y-73818554D01*
X203358653Y-73828782D01*
X203379170Y-73841079D01*
X203398383Y-73855329D01*
X203416107Y-73871393D01*
X203432171Y-73889117D01*
X203446421Y-73908330D01*
X203458718Y-73928847D01*
X203468946Y-73950471D01*
X203477004Y-73972993D01*
X203482816Y-73996197D01*
X203486326Y-74019858D01*
X203487500Y-74043750D01*
X203487500Y-74956250D01*
X203486326Y-74980142D01*
X203482816Y-75003803D01*
X203477004Y-75027007D01*
X203468946Y-75049529D01*
X203458718Y-75071153D01*
X203446421Y-75091670D01*
X203432171Y-75110883D01*
X203416107Y-75128607D01*
X203398383Y-75144671D01*
X203379170Y-75158921D01*
X203358653Y-75171218D01*
X203337029Y-75181446D01*
X203314507Y-75189504D01*
X203291303Y-75195316D01*
X203267642Y-75198826D01*
X203243750Y-75200000D01*
X202756250Y-75200000D01*
X202732358Y-75198826D01*
X202708697Y-75195316D01*
X202685493Y-75189504D01*
X202662971Y-75181446D01*
X202641347Y-75171218D01*
X202620830Y-75158921D01*
X202601617Y-75144671D01*
X202583893Y-75128607D01*
X202567829Y-75110883D01*
X202553579Y-75091670D01*
X202541282Y-75071153D01*
X202531054Y-75049529D01*
X202522996Y-75027007D01*
X202517184Y-75003803D01*
X202513674Y-74980142D01*
X202512500Y-74956250D01*
X202512500Y-74043750D01*
X202513674Y-74019858D01*
X202517184Y-73996197D01*
X202522996Y-73972993D01*
X202531054Y-73950471D01*
X202541282Y-73928847D01*
X202553579Y-73908330D01*
X202567829Y-73889117D01*
X202583893Y-73871393D01*
X202601617Y-73855329D01*
X202620830Y-73841079D01*
X202641347Y-73828782D01*
X202662971Y-73818554D01*
X202685493Y-73810496D01*
X202708697Y-73804684D01*
X202732358Y-73801174D01*
X202756250Y-73800000D01*
X203243750Y-73800000D01*
X203267642Y-73801174D01*
X203267642Y-73801174D01*
G37*
D13*
X203000000Y-74500000D03*
D11*
G36*
X205142642Y-75801174D02*
G01*
X205166303Y-75804684D01*
X205189507Y-75810496D01*
X205212029Y-75818554D01*
X205233653Y-75828782D01*
X205254170Y-75841079D01*
X205273383Y-75855329D01*
X205291107Y-75871393D01*
X205307171Y-75889117D01*
X205321421Y-75908330D01*
X205333718Y-75928847D01*
X205343946Y-75950471D01*
X205352004Y-75972993D01*
X205357816Y-75996197D01*
X205361326Y-76019858D01*
X205362500Y-76043750D01*
X205362500Y-76956250D01*
X205361326Y-76980142D01*
X205357816Y-77003803D01*
X205352004Y-77027007D01*
X205343946Y-77049529D01*
X205333718Y-77071153D01*
X205321421Y-77091670D01*
X205307171Y-77110883D01*
X205291107Y-77128607D01*
X205273383Y-77144671D01*
X205254170Y-77158921D01*
X205233653Y-77171218D01*
X205212029Y-77181446D01*
X205189507Y-77189504D01*
X205166303Y-77195316D01*
X205142642Y-77198826D01*
X205118750Y-77200000D01*
X204631250Y-77200000D01*
X204607358Y-77198826D01*
X204583697Y-77195316D01*
X204560493Y-77189504D01*
X204537971Y-77181446D01*
X204516347Y-77171218D01*
X204495830Y-77158921D01*
X204476617Y-77144671D01*
X204458893Y-77128607D01*
X204442829Y-77110883D01*
X204428579Y-77091670D01*
X204416282Y-77071153D01*
X204406054Y-77049529D01*
X204397996Y-77027007D01*
X204392184Y-77003803D01*
X204388674Y-76980142D01*
X204387500Y-76956250D01*
X204387500Y-76043750D01*
X204388674Y-76019858D01*
X204392184Y-75996197D01*
X204397996Y-75972993D01*
X204406054Y-75950471D01*
X204416282Y-75928847D01*
X204428579Y-75908330D01*
X204442829Y-75889117D01*
X204458893Y-75871393D01*
X204476617Y-75855329D01*
X204495830Y-75841079D01*
X204516347Y-75828782D01*
X204537971Y-75818554D01*
X204560493Y-75810496D01*
X204583697Y-75804684D01*
X204607358Y-75801174D01*
X204631250Y-75800000D01*
X205118750Y-75800000D01*
X205142642Y-75801174D01*
X205142642Y-75801174D01*
G37*
D13*
X204875000Y-76500000D03*
D11*
G36*
X203267642Y-75801174D02*
G01*
X203291303Y-75804684D01*
X203314507Y-75810496D01*
X203337029Y-75818554D01*
X203358653Y-75828782D01*
X203379170Y-75841079D01*
X203398383Y-75855329D01*
X203416107Y-75871393D01*
X203432171Y-75889117D01*
X203446421Y-75908330D01*
X203458718Y-75928847D01*
X203468946Y-75950471D01*
X203477004Y-75972993D01*
X203482816Y-75996197D01*
X203486326Y-76019858D01*
X203487500Y-76043750D01*
X203487500Y-76956250D01*
X203486326Y-76980142D01*
X203482816Y-77003803D01*
X203477004Y-77027007D01*
X203468946Y-77049529D01*
X203458718Y-77071153D01*
X203446421Y-77091670D01*
X203432171Y-77110883D01*
X203416107Y-77128607D01*
X203398383Y-77144671D01*
X203379170Y-77158921D01*
X203358653Y-77171218D01*
X203337029Y-77181446D01*
X203314507Y-77189504D01*
X203291303Y-77195316D01*
X203267642Y-77198826D01*
X203243750Y-77200000D01*
X202756250Y-77200000D01*
X202732358Y-77198826D01*
X202708697Y-77195316D01*
X202685493Y-77189504D01*
X202662971Y-77181446D01*
X202641347Y-77171218D01*
X202620830Y-77158921D01*
X202601617Y-77144671D01*
X202583893Y-77128607D01*
X202567829Y-77110883D01*
X202553579Y-77091670D01*
X202541282Y-77071153D01*
X202531054Y-77049529D01*
X202522996Y-77027007D01*
X202517184Y-77003803D01*
X202513674Y-76980142D01*
X202512500Y-76956250D01*
X202512500Y-76043750D01*
X202513674Y-76019858D01*
X202517184Y-75996197D01*
X202522996Y-75972993D01*
X202531054Y-75950471D01*
X202541282Y-75928847D01*
X202553579Y-75908330D01*
X202567829Y-75889117D01*
X202583893Y-75871393D01*
X202601617Y-75855329D01*
X202620830Y-75841079D01*
X202641347Y-75828782D01*
X202662971Y-75818554D01*
X202685493Y-75810496D01*
X202708697Y-75804684D01*
X202732358Y-75801174D01*
X202756250Y-75800000D01*
X203243750Y-75800000D01*
X203267642Y-75801174D01*
X203267642Y-75801174D01*
G37*
D13*
X203000000Y-76500000D03*
D14*
X199900000Y-117050000D03*
X199900000Y-118750000D03*
X199900000Y-120450000D03*
X195100000Y-120450000D03*
X195100000Y-118750000D03*
X195100000Y-117050000D03*
X199900000Y-95800000D03*
X199900000Y-97500000D03*
X199900000Y-99200000D03*
X195100000Y-99200000D03*
X195100000Y-97500000D03*
X195100000Y-95800000D03*
X199900000Y-74800000D03*
X199900000Y-76500000D03*
X199900000Y-78200000D03*
X195100000Y-78200000D03*
X195100000Y-76500000D03*
X195100000Y-74800000D03*
X199900000Y-57300000D03*
X199900000Y-59000000D03*
X199900000Y-60700000D03*
X195100000Y-60700000D03*
X195100000Y-59000000D03*
X195100000Y-57300000D03*
D15*
X92450000Y-84750000D03*
X92450000Y-83070000D03*
D16*
X92450000Y-86820000D03*
X92450000Y-81000000D03*
D17*
X94750000Y-86372500D03*
X94750000Y-81447500D03*
D18*
X95110000Y-85210000D03*
X95110000Y-84560000D03*
X95110000Y-83910000D03*
X95110000Y-83260000D03*
X95110000Y-82610000D03*
D11*
G36*
X123980142Y-116738674D02*
G01*
X124003803Y-116742184D01*
X124027007Y-116747996D01*
X124049529Y-116756054D01*
X124071153Y-116766282D01*
X124091670Y-116778579D01*
X124110883Y-116792829D01*
X124128607Y-116808893D01*
X124144671Y-116826617D01*
X124158921Y-116845830D01*
X124171218Y-116866347D01*
X124181446Y-116887971D01*
X124189504Y-116910493D01*
X124195316Y-116933697D01*
X124198826Y-116957358D01*
X124200000Y-116981250D01*
X124200000Y-117468750D01*
X124198826Y-117492642D01*
X124195316Y-117516303D01*
X124189504Y-117539507D01*
X124181446Y-117562029D01*
X124171218Y-117583653D01*
X124158921Y-117604170D01*
X124144671Y-117623383D01*
X124128607Y-117641107D01*
X124110883Y-117657171D01*
X124091670Y-117671421D01*
X124071153Y-117683718D01*
X124049529Y-117693946D01*
X124027007Y-117702004D01*
X124003803Y-117707816D01*
X123980142Y-117711326D01*
X123956250Y-117712500D01*
X123043750Y-117712500D01*
X123019858Y-117711326D01*
X122996197Y-117707816D01*
X122972993Y-117702004D01*
X122950471Y-117693946D01*
X122928847Y-117683718D01*
X122908330Y-117671421D01*
X122889117Y-117657171D01*
X122871393Y-117641107D01*
X122855329Y-117623383D01*
X122841079Y-117604170D01*
X122828782Y-117583653D01*
X122818554Y-117562029D01*
X122810496Y-117539507D01*
X122804684Y-117516303D01*
X122801174Y-117492642D01*
X122800000Y-117468750D01*
X122800000Y-116981250D01*
X122801174Y-116957358D01*
X122804684Y-116933697D01*
X122810496Y-116910493D01*
X122818554Y-116887971D01*
X122828782Y-116866347D01*
X122841079Y-116845830D01*
X122855329Y-116826617D01*
X122871393Y-116808893D01*
X122889117Y-116792829D01*
X122908330Y-116778579D01*
X122928847Y-116766282D01*
X122950471Y-116756054D01*
X122972993Y-116747996D01*
X122996197Y-116742184D01*
X123019858Y-116738674D01*
X123043750Y-116737500D01*
X123956250Y-116737500D01*
X123980142Y-116738674D01*
X123980142Y-116738674D01*
G37*
D13*
X123500000Y-117225000D03*
D11*
G36*
X123980142Y-118613674D02*
G01*
X124003803Y-118617184D01*
X124027007Y-118622996D01*
X124049529Y-118631054D01*
X124071153Y-118641282D01*
X124091670Y-118653579D01*
X124110883Y-118667829D01*
X124128607Y-118683893D01*
X124144671Y-118701617D01*
X124158921Y-118720830D01*
X124171218Y-118741347D01*
X124181446Y-118762971D01*
X124189504Y-118785493D01*
X124195316Y-118808697D01*
X124198826Y-118832358D01*
X124200000Y-118856250D01*
X124200000Y-119343750D01*
X124198826Y-119367642D01*
X124195316Y-119391303D01*
X124189504Y-119414507D01*
X124181446Y-119437029D01*
X124171218Y-119458653D01*
X124158921Y-119479170D01*
X124144671Y-119498383D01*
X124128607Y-119516107D01*
X124110883Y-119532171D01*
X124091670Y-119546421D01*
X124071153Y-119558718D01*
X124049529Y-119568946D01*
X124027007Y-119577004D01*
X124003803Y-119582816D01*
X123980142Y-119586326D01*
X123956250Y-119587500D01*
X123043750Y-119587500D01*
X123019858Y-119586326D01*
X122996197Y-119582816D01*
X122972993Y-119577004D01*
X122950471Y-119568946D01*
X122928847Y-119558718D01*
X122908330Y-119546421D01*
X122889117Y-119532171D01*
X122871393Y-119516107D01*
X122855329Y-119498383D01*
X122841079Y-119479170D01*
X122828782Y-119458653D01*
X122818554Y-119437029D01*
X122810496Y-119414507D01*
X122804684Y-119391303D01*
X122801174Y-119367642D01*
X122800000Y-119343750D01*
X122800000Y-118856250D01*
X122801174Y-118832358D01*
X122804684Y-118808697D01*
X122810496Y-118785493D01*
X122818554Y-118762971D01*
X122828782Y-118741347D01*
X122841079Y-118720830D01*
X122855329Y-118701617D01*
X122871393Y-118683893D01*
X122889117Y-118667829D01*
X122908330Y-118653579D01*
X122928847Y-118641282D01*
X122950471Y-118631054D01*
X122972993Y-118622996D01*
X122996197Y-118617184D01*
X123019858Y-118613674D01*
X123043750Y-118612500D01*
X123956250Y-118612500D01*
X123980142Y-118613674D01*
X123980142Y-118613674D01*
G37*
D13*
X123500000Y-119100000D03*
D11*
G36*
X182392642Y-118301174D02*
G01*
X182416303Y-118304684D01*
X182439507Y-118310496D01*
X182462029Y-118318554D01*
X182483653Y-118328782D01*
X182504170Y-118341079D01*
X182523383Y-118355329D01*
X182541107Y-118371393D01*
X182557171Y-118389117D01*
X182571421Y-118408330D01*
X182583718Y-118428847D01*
X182593946Y-118450471D01*
X182602004Y-118472993D01*
X182607816Y-118496197D01*
X182611326Y-118519858D01*
X182612500Y-118543750D01*
X182612500Y-119456250D01*
X182611326Y-119480142D01*
X182607816Y-119503803D01*
X182602004Y-119527007D01*
X182593946Y-119549529D01*
X182583718Y-119571153D01*
X182571421Y-119591670D01*
X182557171Y-119610883D01*
X182541107Y-119628607D01*
X182523383Y-119644671D01*
X182504170Y-119658921D01*
X182483653Y-119671218D01*
X182462029Y-119681446D01*
X182439507Y-119689504D01*
X182416303Y-119695316D01*
X182392642Y-119698826D01*
X182368750Y-119700000D01*
X181881250Y-119700000D01*
X181857358Y-119698826D01*
X181833697Y-119695316D01*
X181810493Y-119689504D01*
X181787971Y-119681446D01*
X181766347Y-119671218D01*
X181745830Y-119658921D01*
X181726617Y-119644671D01*
X181708893Y-119628607D01*
X181692829Y-119610883D01*
X181678579Y-119591670D01*
X181666282Y-119571153D01*
X181656054Y-119549529D01*
X181647996Y-119527007D01*
X181642184Y-119503803D01*
X181638674Y-119480142D01*
X181637500Y-119456250D01*
X181637500Y-118543750D01*
X181638674Y-118519858D01*
X181642184Y-118496197D01*
X181647996Y-118472993D01*
X181656054Y-118450471D01*
X181666282Y-118428847D01*
X181678579Y-118408330D01*
X181692829Y-118389117D01*
X181708893Y-118371393D01*
X181726617Y-118355329D01*
X181745830Y-118341079D01*
X181766347Y-118328782D01*
X181787971Y-118318554D01*
X181810493Y-118310496D01*
X181833697Y-118304684D01*
X181857358Y-118301174D01*
X181881250Y-118300000D01*
X182368750Y-118300000D01*
X182392642Y-118301174D01*
X182392642Y-118301174D01*
G37*
D13*
X182125000Y-119000000D03*
D11*
G36*
X184267642Y-118301174D02*
G01*
X184291303Y-118304684D01*
X184314507Y-118310496D01*
X184337029Y-118318554D01*
X184358653Y-118328782D01*
X184379170Y-118341079D01*
X184398383Y-118355329D01*
X184416107Y-118371393D01*
X184432171Y-118389117D01*
X184446421Y-118408330D01*
X184458718Y-118428847D01*
X184468946Y-118450471D01*
X184477004Y-118472993D01*
X184482816Y-118496197D01*
X184486326Y-118519858D01*
X184487500Y-118543750D01*
X184487500Y-119456250D01*
X184486326Y-119480142D01*
X184482816Y-119503803D01*
X184477004Y-119527007D01*
X184468946Y-119549529D01*
X184458718Y-119571153D01*
X184446421Y-119591670D01*
X184432171Y-119610883D01*
X184416107Y-119628607D01*
X184398383Y-119644671D01*
X184379170Y-119658921D01*
X184358653Y-119671218D01*
X184337029Y-119681446D01*
X184314507Y-119689504D01*
X184291303Y-119695316D01*
X184267642Y-119698826D01*
X184243750Y-119700000D01*
X183756250Y-119700000D01*
X183732358Y-119698826D01*
X183708697Y-119695316D01*
X183685493Y-119689504D01*
X183662971Y-119681446D01*
X183641347Y-119671218D01*
X183620830Y-119658921D01*
X183601617Y-119644671D01*
X183583893Y-119628607D01*
X183567829Y-119610883D01*
X183553579Y-119591670D01*
X183541282Y-119571153D01*
X183531054Y-119549529D01*
X183522996Y-119527007D01*
X183517184Y-119503803D01*
X183513674Y-119480142D01*
X183512500Y-119456250D01*
X183512500Y-118543750D01*
X183513674Y-118519858D01*
X183517184Y-118496197D01*
X183522996Y-118472993D01*
X183531054Y-118450471D01*
X183541282Y-118428847D01*
X183553579Y-118408330D01*
X183567829Y-118389117D01*
X183583893Y-118371393D01*
X183601617Y-118355329D01*
X183620830Y-118341079D01*
X183641347Y-118328782D01*
X183662971Y-118318554D01*
X183685493Y-118310496D01*
X183708697Y-118304684D01*
X183732358Y-118301174D01*
X183756250Y-118300000D01*
X184243750Y-118300000D01*
X184267642Y-118301174D01*
X184267642Y-118301174D01*
G37*
D13*
X184000000Y-119000000D03*
D11*
G36*
X138980142Y-60138674D02*
G01*
X139003803Y-60142184D01*
X139027007Y-60147996D01*
X139049529Y-60156054D01*
X139071153Y-60166282D01*
X139091670Y-60178579D01*
X139110883Y-60192829D01*
X139128607Y-60208893D01*
X139144671Y-60226617D01*
X139158921Y-60245830D01*
X139171218Y-60266347D01*
X139181446Y-60287971D01*
X139189504Y-60310493D01*
X139195316Y-60333697D01*
X139198826Y-60357358D01*
X139200000Y-60381250D01*
X139200000Y-60868750D01*
X139198826Y-60892642D01*
X139195316Y-60916303D01*
X139189504Y-60939507D01*
X139181446Y-60962029D01*
X139171218Y-60983653D01*
X139158921Y-61004170D01*
X139144671Y-61023383D01*
X139128607Y-61041107D01*
X139110883Y-61057171D01*
X139091670Y-61071421D01*
X139071153Y-61083718D01*
X139049529Y-61093946D01*
X139027007Y-61102004D01*
X139003803Y-61107816D01*
X138980142Y-61111326D01*
X138956250Y-61112500D01*
X138043750Y-61112500D01*
X138019858Y-61111326D01*
X137996197Y-61107816D01*
X137972993Y-61102004D01*
X137950471Y-61093946D01*
X137928847Y-61083718D01*
X137908330Y-61071421D01*
X137889117Y-61057171D01*
X137871393Y-61041107D01*
X137855329Y-61023383D01*
X137841079Y-61004170D01*
X137828782Y-60983653D01*
X137818554Y-60962029D01*
X137810496Y-60939507D01*
X137804684Y-60916303D01*
X137801174Y-60892642D01*
X137800000Y-60868750D01*
X137800000Y-60381250D01*
X137801174Y-60357358D01*
X137804684Y-60333697D01*
X137810496Y-60310493D01*
X137818554Y-60287971D01*
X137828782Y-60266347D01*
X137841079Y-60245830D01*
X137855329Y-60226617D01*
X137871393Y-60208893D01*
X137889117Y-60192829D01*
X137908330Y-60178579D01*
X137928847Y-60166282D01*
X137950471Y-60156054D01*
X137972993Y-60147996D01*
X137996197Y-60142184D01*
X138019858Y-60138674D01*
X138043750Y-60137500D01*
X138956250Y-60137500D01*
X138980142Y-60138674D01*
X138980142Y-60138674D01*
G37*
D13*
X138500000Y-60625000D03*
D11*
G36*
X138980142Y-58263674D02*
G01*
X139003803Y-58267184D01*
X139027007Y-58272996D01*
X139049529Y-58281054D01*
X139071153Y-58291282D01*
X139091670Y-58303579D01*
X139110883Y-58317829D01*
X139128607Y-58333893D01*
X139144671Y-58351617D01*
X139158921Y-58370830D01*
X139171218Y-58391347D01*
X139181446Y-58412971D01*
X139189504Y-58435493D01*
X139195316Y-58458697D01*
X139198826Y-58482358D01*
X139200000Y-58506250D01*
X139200000Y-58993750D01*
X139198826Y-59017642D01*
X139195316Y-59041303D01*
X139189504Y-59064507D01*
X139181446Y-59087029D01*
X139171218Y-59108653D01*
X139158921Y-59129170D01*
X139144671Y-59148383D01*
X139128607Y-59166107D01*
X139110883Y-59182171D01*
X139091670Y-59196421D01*
X139071153Y-59208718D01*
X139049529Y-59218946D01*
X139027007Y-59227004D01*
X139003803Y-59232816D01*
X138980142Y-59236326D01*
X138956250Y-59237500D01*
X138043750Y-59237500D01*
X138019858Y-59236326D01*
X137996197Y-59232816D01*
X137972993Y-59227004D01*
X137950471Y-59218946D01*
X137928847Y-59208718D01*
X137908330Y-59196421D01*
X137889117Y-59182171D01*
X137871393Y-59166107D01*
X137855329Y-59148383D01*
X137841079Y-59129170D01*
X137828782Y-59108653D01*
X137818554Y-59087029D01*
X137810496Y-59064507D01*
X137804684Y-59041303D01*
X137801174Y-59017642D01*
X137800000Y-58993750D01*
X137800000Y-58506250D01*
X137801174Y-58482358D01*
X137804684Y-58458697D01*
X137810496Y-58435493D01*
X137818554Y-58412971D01*
X137828782Y-58391347D01*
X137841079Y-58370830D01*
X137855329Y-58351617D01*
X137871393Y-58333893D01*
X137889117Y-58317829D01*
X137908330Y-58303579D01*
X137928847Y-58291282D01*
X137950471Y-58281054D01*
X137972993Y-58272996D01*
X137996197Y-58267184D01*
X138019858Y-58263674D01*
X138043750Y-58262500D01*
X138956250Y-58262500D01*
X138980142Y-58263674D01*
X138980142Y-58263674D01*
G37*
D13*
X138500000Y-58750000D03*
D11*
G36*
X203192642Y-58301174D02*
G01*
X203216303Y-58304684D01*
X203239507Y-58310496D01*
X203262029Y-58318554D01*
X203283653Y-58328782D01*
X203304170Y-58341079D01*
X203323383Y-58355329D01*
X203341107Y-58371393D01*
X203357171Y-58389117D01*
X203371421Y-58408330D01*
X203383718Y-58428847D01*
X203393946Y-58450471D01*
X203402004Y-58472993D01*
X203407816Y-58496197D01*
X203411326Y-58519858D01*
X203412500Y-58543750D01*
X203412500Y-59456250D01*
X203411326Y-59480142D01*
X203407816Y-59503803D01*
X203402004Y-59527007D01*
X203393946Y-59549529D01*
X203383718Y-59571153D01*
X203371421Y-59591670D01*
X203357171Y-59610883D01*
X203341107Y-59628607D01*
X203323383Y-59644671D01*
X203304170Y-59658921D01*
X203283653Y-59671218D01*
X203262029Y-59681446D01*
X203239507Y-59689504D01*
X203216303Y-59695316D01*
X203192642Y-59698826D01*
X203168750Y-59700000D01*
X202681250Y-59700000D01*
X202657358Y-59698826D01*
X202633697Y-59695316D01*
X202610493Y-59689504D01*
X202587971Y-59681446D01*
X202566347Y-59671218D01*
X202545830Y-59658921D01*
X202526617Y-59644671D01*
X202508893Y-59628607D01*
X202492829Y-59610883D01*
X202478579Y-59591670D01*
X202466282Y-59571153D01*
X202456054Y-59549529D01*
X202447996Y-59527007D01*
X202442184Y-59503803D01*
X202438674Y-59480142D01*
X202437500Y-59456250D01*
X202437500Y-58543750D01*
X202438674Y-58519858D01*
X202442184Y-58496197D01*
X202447996Y-58472993D01*
X202456054Y-58450471D01*
X202466282Y-58428847D01*
X202478579Y-58408330D01*
X202492829Y-58389117D01*
X202508893Y-58371393D01*
X202526617Y-58355329D01*
X202545830Y-58341079D01*
X202566347Y-58328782D01*
X202587971Y-58318554D01*
X202610493Y-58310496D01*
X202633697Y-58304684D01*
X202657358Y-58301174D01*
X202681250Y-58300000D01*
X203168750Y-58300000D01*
X203192642Y-58301174D01*
X203192642Y-58301174D01*
G37*
D13*
X202925000Y-59000000D03*
D11*
G36*
X205067642Y-58301174D02*
G01*
X205091303Y-58304684D01*
X205114507Y-58310496D01*
X205137029Y-58318554D01*
X205158653Y-58328782D01*
X205179170Y-58341079D01*
X205198383Y-58355329D01*
X205216107Y-58371393D01*
X205232171Y-58389117D01*
X205246421Y-58408330D01*
X205258718Y-58428847D01*
X205268946Y-58450471D01*
X205277004Y-58472993D01*
X205282816Y-58496197D01*
X205286326Y-58519858D01*
X205287500Y-58543750D01*
X205287500Y-59456250D01*
X205286326Y-59480142D01*
X205282816Y-59503803D01*
X205277004Y-59527007D01*
X205268946Y-59549529D01*
X205258718Y-59571153D01*
X205246421Y-59591670D01*
X205232171Y-59610883D01*
X205216107Y-59628607D01*
X205198383Y-59644671D01*
X205179170Y-59658921D01*
X205158653Y-59671218D01*
X205137029Y-59681446D01*
X205114507Y-59689504D01*
X205091303Y-59695316D01*
X205067642Y-59698826D01*
X205043750Y-59700000D01*
X204556250Y-59700000D01*
X204532358Y-59698826D01*
X204508697Y-59695316D01*
X204485493Y-59689504D01*
X204462971Y-59681446D01*
X204441347Y-59671218D01*
X204420830Y-59658921D01*
X204401617Y-59644671D01*
X204383893Y-59628607D01*
X204367829Y-59610883D01*
X204353579Y-59591670D01*
X204341282Y-59571153D01*
X204331054Y-59549529D01*
X204322996Y-59527007D01*
X204317184Y-59503803D01*
X204313674Y-59480142D01*
X204312500Y-59456250D01*
X204312500Y-58543750D01*
X204313674Y-58519858D01*
X204317184Y-58496197D01*
X204322996Y-58472993D01*
X204331054Y-58450471D01*
X204341282Y-58428847D01*
X204353579Y-58408330D01*
X204367829Y-58389117D01*
X204383893Y-58371393D01*
X204401617Y-58355329D01*
X204420830Y-58341079D01*
X204441347Y-58328782D01*
X204462971Y-58318554D01*
X204485493Y-58310496D01*
X204508697Y-58304684D01*
X204532358Y-58301174D01*
X204556250Y-58300000D01*
X205043750Y-58300000D01*
X205067642Y-58301174D01*
X205067642Y-58301174D01*
G37*
D13*
X204800000Y-59000000D03*
D11*
G36*
X205067642Y-56301174D02*
G01*
X205091303Y-56304684D01*
X205114507Y-56310496D01*
X205137029Y-56318554D01*
X205158653Y-56328782D01*
X205179170Y-56341079D01*
X205198383Y-56355329D01*
X205216107Y-56371393D01*
X205232171Y-56389117D01*
X205246421Y-56408330D01*
X205258718Y-56428847D01*
X205268946Y-56450471D01*
X205277004Y-56472993D01*
X205282816Y-56496197D01*
X205286326Y-56519858D01*
X205287500Y-56543750D01*
X205287500Y-57456250D01*
X205286326Y-57480142D01*
X205282816Y-57503803D01*
X205277004Y-57527007D01*
X205268946Y-57549529D01*
X205258718Y-57571153D01*
X205246421Y-57591670D01*
X205232171Y-57610883D01*
X205216107Y-57628607D01*
X205198383Y-57644671D01*
X205179170Y-57658921D01*
X205158653Y-57671218D01*
X205137029Y-57681446D01*
X205114507Y-57689504D01*
X205091303Y-57695316D01*
X205067642Y-57698826D01*
X205043750Y-57700000D01*
X204556250Y-57700000D01*
X204532358Y-57698826D01*
X204508697Y-57695316D01*
X204485493Y-57689504D01*
X204462971Y-57681446D01*
X204441347Y-57671218D01*
X204420830Y-57658921D01*
X204401617Y-57644671D01*
X204383893Y-57628607D01*
X204367829Y-57610883D01*
X204353579Y-57591670D01*
X204341282Y-57571153D01*
X204331054Y-57549529D01*
X204322996Y-57527007D01*
X204317184Y-57503803D01*
X204313674Y-57480142D01*
X204312500Y-57456250D01*
X204312500Y-56543750D01*
X204313674Y-56519858D01*
X204317184Y-56496197D01*
X204322996Y-56472993D01*
X204331054Y-56450471D01*
X204341282Y-56428847D01*
X204353579Y-56408330D01*
X204367829Y-56389117D01*
X204383893Y-56371393D01*
X204401617Y-56355329D01*
X204420830Y-56341079D01*
X204441347Y-56328782D01*
X204462971Y-56318554D01*
X204485493Y-56310496D01*
X204508697Y-56304684D01*
X204532358Y-56301174D01*
X204556250Y-56300000D01*
X205043750Y-56300000D01*
X205067642Y-56301174D01*
X205067642Y-56301174D01*
G37*
D13*
X204800000Y-57000000D03*
D11*
G36*
X203192642Y-56301174D02*
G01*
X203216303Y-56304684D01*
X203239507Y-56310496D01*
X203262029Y-56318554D01*
X203283653Y-56328782D01*
X203304170Y-56341079D01*
X203323383Y-56355329D01*
X203341107Y-56371393D01*
X203357171Y-56389117D01*
X203371421Y-56408330D01*
X203383718Y-56428847D01*
X203393946Y-56450471D01*
X203402004Y-56472993D01*
X203407816Y-56496197D01*
X203411326Y-56519858D01*
X203412500Y-56543750D01*
X203412500Y-57456250D01*
X203411326Y-57480142D01*
X203407816Y-57503803D01*
X203402004Y-57527007D01*
X203393946Y-57549529D01*
X203383718Y-57571153D01*
X203371421Y-57591670D01*
X203357171Y-57610883D01*
X203341107Y-57628607D01*
X203323383Y-57644671D01*
X203304170Y-57658921D01*
X203283653Y-57671218D01*
X203262029Y-57681446D01*
X203239507Y-57689504D01*
X203216303Y-57695316D01*
X203192642Y-57698826D01*
X203168750Y-57700000D01*
X202681250Y-57700000D01*
X202657358Y-57698826D01*
X202633697Y-57695316D01*
X202610493Y-57689504D01*
X202587971Y-57681446D01*
X202566347Y-57671218D01*
X202545830Y-57658921D01*
X202526617Y-57644671D01*
X202508893Y-57628607D01*
X202492829Y-57610883D01*
X202478579Y-57591670D01*
X202466282Y-57571153D01*
X202456054Y-57549529D01*
X202447996Y-57527007D01*
X202442184Y-57503803D01*
X202438674Y-57480142D01*
X202437500Y-57456250D01*
X202437500Y-56543750D01*
X202438674Y-56519858D01*
X202442184Y-56496197D01*
X202447996Y-56472993D01*
X202456054Y-56450471D01*
X202466282Y-56428847D01*
X202478579Y-56408330D01*
X202492829Y-56389117D01*
X202508893Y-56371393D01*
X202526617Y-56355329D01*
X202545830Y-56341079D01*
X202566347Y-56328782D01*
X202587971Y-56318554D01*
X202610493Y-56310496D01*
X202633697Y-56304684D01*
X202657358Y-56301174D01*
X202681250Y-56300000D01*
X203168750Y-56300000D01*
X203192642Y-56301174D01*
X203192642Y-56301174D01*
G37*
D13*
X202925000Y-57000000D03*
D11*
G36*
X203192642Y-60301174D02*
G01*
X203216303Y-60304684D01*
X203239507Y-60310496D01*
X203262029Y-60318554D01*
X203283653Y-60328782D01*
X203304170Y-60341079D01*
X203323383Y-60355329D01*
X203341107Y-60371393D01*
X203357171Y-60389117D01*
X203371421Y-60408330D01*
X203383718Y-60428847D01*
X203393946Y-60450471D01*
X203402004Y-60472993D01*
X203407816Y-60496197D01*
X203411326Y-60519858D01*
X203412500Y-60543750D01*
X203412500Y-61456250D01*
X203411326Y-61480142D01*
X203407816Y-61503803D01*
X203402004Y-61527007D01*
X203393946Y-61549529D01*
X203383718Y-61571153D01*
X203371421Y-61591670D01*
X203357171Y-61610883D01*
X203341107Y-61628607D01*
X203323383Y-61644671D01*
X203304170Y-61658921D01*
X203283653Y-61671218D01*
X203262029Y-61681446D01*
X203239507Y-61689504D01*
X203216303Y-61695316D01*
X203192642Y-61698826D01*
X203168750Y-61700000D01*
X202681250Y-61700000D01*
X202657358Y-61698826D01*
X202633697Y-61695316D01*
X202610493Y-61689504D01*
X202587971Y-61681446D01*
X202566347Y-61671218D01*
X202545830Y-61658921D01*
X202526617Y-61644671D01*
X202508893Y-61628607D01*
X202492829Y-61610883D01*
X202478579Y-61591670D01*
X202466282Y-61571153D01*
X202456054Y-61549529D01*
X202447996Y-61527007D01*
X202442184Y-61503803D01*
X202438674Y-61480142D01*
X202437500Y-61456250D01*
X202437500Y-60543750D01*
X202438674Y-60519858D01*
X202442184Y-60496197D01*
X202447996Y-60472993D01*
X202456054Y-60450471D01*
X202466282Y-60428847D01*
X202478579Y-60408330D01*
X202492829Y-60389117D01*
X202508893Y-60371393D01*
X202526617Y-60355329D01*
X202545830Y-60341079D01*
X202566347Y-60328782D01*
X202587971Y-60318554D01*
X202610493Y-60310496D01*
X202633697Y-60304684D01*
X202657358Y-60301174D01*
X202681250Y-60300000D01*
X203168750Y-60300000D01*
X203192642Y-60301174D01*
X203192642Y-60301174D01*
G37*
D13*
X202925000Y-61000000D03*
D11*
G36*
X205067642Y-60301174D02*
G01*
X205091303Y-60304684D01*
X205114507Y-60310496D01*
X205137029Y-60318554D01*
X205158653Y-60328782D01*
X205179170Y-60341079D01*
X205198383Y-60355329D01*
X205216107Y-60371393D01*
X205232171Y-60389117D01*
X205246421Y-60408330D01*
X205258718Y-60428847D01*
X205268946Y-60450471D01*
X205277004Y-60472993D01*
X205282816Y-60496197D01*
X205286326Y-60519858D01*
X205287500Y-60543750D01*
X205287500Y-61456250D01*
X205286326Y-61480142D01*
X205282816Y-61503803D01*
X205277004Y-61527007D01*
X205268946Y-61549529D01*
X205258718Y-61571153D01*
X205246421Y-61591670D01*
X205232171Y-61610883D01*
X205216107Y-61628607D01*
X205198383Y-61644671D01*
X205179170Y-61658921D01*
X205158653Y-61671218D01*
X205137029Y-61681446D01*
X205114507Y-61689504D01*
X205091303Y-61695316D01*
X205067642Y-61698826D01*
X205043750Y-61700000D01*
X204556250Y-61700000D01*
X204532358Y-61698826D01*
X204508697Y-61695316D01*
X204485493Y-61689504D01*
X204462971Y-61681446D01*
X204441347Y-61671218D01*
X204420830Y-61658921D01*
X204401617Y-61644671D01*
X204383893Y-61628607D01*
X204367829Y-61610883D01*
X204353579Y-61591670D01*
X204341282Y-61571153D01*
X204331054Y-61549529D01*
X204322996Y-61527007D01*
X204317184Y-61503803D01*
X204313674Y-61480142D01*
X204312500Y-61456250D01*
X204312500Y-60543750D01*
X204313674Y-60519858D01*
X204317184Y-60496197D01*
X204322996Y-60472993D01*
X204331054Y-60450471D01*
X204341282Y-60428847D01*
X204353579Y-60408330D01*
X204367829Y-60389117D01*
X204383893Y-60371393D01*
X204401617Y-60355329D01*
X204420830Y-60341079D01*
X204441347Y-60328782D01*
X204462971Y-60318554D01*
X204485493Y-60310496D01*
X204508697Y-60304684D01*
X204532358Y-60301174D01*
X204556250Y-60300000D01*
X205043750Y-60300000D01*
X205067642Y-60301174D01*
X205067642Y-60301174D01*
G37*
D13*
X204800000Y-61000000D03*
M02*
